<?xml version="1.0" standalone="no"?>
<!DOCTYPE svg PUBLIC "-//W3C//DTD SVG 1.1//EN" "http://www.w3.org/Graphics/SVG/1.1/DTD/svg11.dtd" >
<svg xmlns="http://www.w3.org/2000/svg" xmlns:xlink="http://www.w3.org/1999/xlink" version="1.1">
<metadata>
Created by FontForge 20170910 at Tue May 30 06:32:01 2017
 By Jimmy Wärting
Copyright (c) 2017 by TypeType. Designers Ivan Gladkikh, Pavel Emelyanov. Technical designers Olexa Volochay, Nadyr Rakhimov, Dmitriy Greshnev. All rights reserved.
</metadata>
<defs>
<font id="TTNorms-Bold" horiz-adv-x="1228" >
  <font-face 
    font-family="TT Norms Bold"
    font-weight="700"
    font-stretch="normal"
    units-per-em="2048"
    panose-1="2 0 8 3 4 0 0 2 0 4"
    ascent="1638"
    descent="-410"
    x-height="1004"
    cap-height="1434"
    bbox="-358 -471.002 2945.01 2007"
    underline-thickness="0"
    underline-position="0"
    unicode-range="U+000D-FB06"
  />
<missing-glyph horiz-adv-x="0" 
 />
    <glyph glyph-name="ij" unicode="ij" horiz-adv-x="1146" 
d="M717 -61l-0.00195312 86.001c-48 -30 -113 -45 -195 -45c-113.333 0 -206.5 37.833 -279.5 113.5s-109.5 174.167 -109.5 295.5v615h277v-615c0 -52 16.333 -94 49 -126s74.334 -48 125.001 -48c24.667 0 47.834 3.5 69.501 10.5s37.167 13.833 46.5 20.5l17 10v748h276
v-1086c0 -112 -28.667 -198 -86 -258s-137.666 -90 -240.999 -90c-30 0 -59.833 2.66699 -89.5 8s-51.167 10.666 -64.5 15.999l-20 7v245c34 -13.333 68 -20 102 -20c35.333 0 64.666 11 87.999 33s35 48.667 35 80zM429.998 1290.5
c0 -46.333 -14.666 -83.5 -43.999 -111.5s-69.333 -42 -120 -42c-46.667 0 -83.834 14 -111.501 42s-41.5 65.167 -41.5 111.5s14 83.5 42 111.5s65 42 111 42c50.667 0 90.667 -14 120 -42s44 -65.167 44 -111.5zM1014 1290.5c0 -46.333 -14.667 -83.5 -44 -111.5
s-69.333 -42 -120 -42c-46.667 0 -84 14 -112 42s-42 65.167 -42 111.5s14 83.5 42 111.5s65.333 42 112 42c50.667 0 90.667 -14 120 -42s44 -65.167 44 -111.5z" />
    <glyph glyph-name="uniFB00" unicode="ff" horiz-adv-x="1392" 
d="M1331 973l-0.00292969 -246h-225v-727h-277v727h-368v-727h-277v727h-143v246h143v102c0 232 106 348 318 348c30 0 60.333 -2.33301 91 -7s54.334 -9.66699 71.001 -15l22 -8v-236c-27.333 13.333 -61.333 20.333 -102 21c-35.333 0 -64.666 -11 -87.999 -33
s-35 -48.667 -35 -80v-92h368v143c0 232 106 348 318 348c30 0 60.333 -2.33301 91 -7s53.667 -9.66699 69 -15l24 -8v-236c-27.333 13.333 -61.333 20.333 -102 21c-35.333 0 -64.666 -11 -87.999 -33s-35 -48.667 -35 -80v-133h225z" />
    <glyph glyph-name="uniFB01" unicode="fi" horiz-adv-x="1259" 
d="M1106 973l-0.00195312 -973.001h-277v727h-368v-727h-277v727h-143v246h143v133c0 232 106 348 318 348c30 0 60.333 -2.66699 91 -8s54.334 -10.666 71.001 -15.999l22 -7v-235c-27.333 13.333 -61.333 20 -102 20c-35.333 0 -64.666 -10.833 -87.999 -32.5
s-35 -48.167 -35 -79.5v-123h645zM1126 1290.5c0 -46.333 -14.667 -83.5 -44 -111.5s-69 -42 -119 -42c-46.667 0 -84 14 -112 42s-42 65.167 -42 111.5s14 83.5 42 111.5s65.333 42 112 42c50.667 0 90.5 -14 119.5 -42s43.5 -65.167 43.5 -111.5z" />
    <glyph glyph-name="uniFB02" unicode="fl" horiz-adv-x="1259" 
d="M829 1034c0 46.667 -18 87.334 -54 122.001s-79.333 52 -130 52s-94 -17.333 -130 -52s-54 -75.334 -54 -122.001v-61h225v-246h-225v-727h-277v727h-143v246h143v61c0 124 42.667 226.667 128 308s196.333 122 333 122s247.667 -40.5 333 -121.5
s128 -183.833 128 -308.5v-1034h-277v1034z" />
    <glyph glyph-name="uniFB03" unicode="ffi" horiz-adv-x="1904" 
d="M1751 973l-0.00292969 -973h-276v727h-369v-727h-277v727h-368v-727h-277v727h-143v246h143v102c0 232 106 348 318 348c30 0 60.333 -2.33301 91 -7s54.334 -9.66699 71.001 -15l22 -8v-236c-27.333 13.333 -61.333 20.333 -102 21c-35.333 0 -64.666 -11 -87.999 -33
s-35 -48.667 -35 -80v-92h368v143c0 232 106 348 318 348c30 0 60.333 -2.33301 91 -7s53.667 -9.66699 69 -15l24 -8v-236c-27.333 13.333 -61.333 20.333 -102 21c-35.333 0 -64.666 -11 -87.999 -33s-35 -48.667 -35 -80v-133h645zM1772 1290.5
c0 -46.333 -14.833 -83.5 -44.5 -111.5s-69.5 -42 -119.5 -42c-46.667 0 -84 14 -112 42s-42 65.167 -42 111.5s14 83.5 42 111.5s65.333 42 112 42c50.667 0 90.667 -14 120 -42s44 -65.167 44 -111.5z" />
    <glyph glyph-name="uniFB06" unicode="st" horiz-adv-x="1730" 
d="M471 1024l9.99902 -0.000976562v31c0 120 41 218.167 123 294.5s191.333 114.5 328 114.5c139.333 0 251 -43.333 335 -130s126 -203.667 126 -351h204v-246h-204v-399c0 -31.333 11.5 -58 34.5 -80s52.5 -33 88.5 -33c18 0 35.333 1.83301 52 5.5
s29.334 7.5 38.001 11.5l12 4v-236c-54.667 -20.667 -116 -30.667 -184 -30c-211.333 0 -317.333 116 -318 348v409h-174v246h174c0 75.333 -17.667 133.5 -53 174.5s-82.333 61.5 -141 61.5c-56 0 -100.833 -16.833 -134.5 -50.5s-50.5 -78.5 -50.5 -134.5
c0 -27.333 6.83301 -54.666 20.5 -81.999s27.5 -47.666 41.5 -60.999l20 -21l-143 -163c-4 5.33301 -10.5 12.666 -19.5 21.999s-27.833 21.5 -56.5 36.5s-58 22.5 -88 22.5c-38 0 -68 -8.16699 -90 -24.5s-33 -35.166 -33 -56.499c0 -26 15.667 -47.667 47 -65
s69.5 -32.833 114.5 -46.5s90.5 -30 136.5 -49s84.667 -49.667 116 -92s47 -94.833 47 -157.5c0 -90 -35.5 -165.333 -106.5 -226s-168.5 -91 -292.5 -91c-53.333 0 -104 6.33301 -152 19s-87 28 -117 46s-56.167 35.833 -78.5 53.5s-38.5 32.5 -48.5 44.5l-14 21l154 153
c5.33301 -8 13.833 -18.167 25.5 -30.5s36.167 -29 73.5 -50s76 -31.5 116 -31.5c44 0 77.167 8.5 99.5 25.5s33.5 39.167 33.5 66.5s-15.667 50.166 -47 68.499s-70 34.333 -116 48s-91.5 30.167 -136.5 49.5s-83.167 49.333 -114.5 90s-47 92 -47 154
c0 80.667 37.5 153.667 112.5 219s167.167 98 276.5 98z" />
    <glyph glyph-name="c_t.liga" unicode="ct" horiz-adv-x="1884" 
d="M1014 819l-173.999 -173.996c-5.33301 9.33301 -14.166 21.666 -26.499 36.999s-39 35.166 -80 59.499s-84.167 36.5 -129.5 36.5c-72.667 0 -135.167 -27 -187.5 -81s-78.5 -119.167 -78.5 -195.5s26.333 -141.5 79 -195.5s115 -81 187 -81c45.333 0 88.5 11 129.5 33
s70.833 44 89.5 66l27 34l164 -174c-4 -5.33301 -9.5 -12.833 -16.5 -22.5s-23.167 -26 -48.5 -49s-52.666 -43.333 -81.999 -61s-67.5 -34 -114.5 -49s-96.5 -22.5 -148.5 -22.5c-147.333 0 -274.666 52.167 -381.999 156.5s-161 226.166 -161 365.499
s53.667 261.166 161 365.499s234.666 156.5 381.999 156.5h31v31c0 120 41 218.167 123 294.5s191 114.5 327 114.5c139.333 0 251 -43.333 335 -130s126 -203.667 126 -351h205v-246h-205v-399c0 -31.333 11.667 -58 35 -80s52.666 -33 87.999 -33
c18 0 35.5 1.83301 52.5 5.5s29.5 7.5 37.5 11.5l13 4v-236c-54.667 -20.667 -116.334 -30.667 -185.001 -30c-211.333 0 -317 116 -317 348v409h-174v246h174c0 75.333 -17.833 133.5 -53.5 174.5s-82.834 61.5 -141.501 61.5c-56 0 -100.667 -16.833 -134 -50.5
s-50 -78.5 -50 -134.5c0 -32.667 10.167 -67 30.5 -103s40.833 -63.667 61.5 -83z" />
    <glyph glyph-name="s_p.liga" unicode="sp" horiz-adv-x="2191" 
d="M1628 -20c-57.333 0 -110.834 11.834 -160.501 35.501s-84.834 47.167 -105.501 70.5l-31 37v-553h-276v1434c0 69.333 -15.333 122.5 -46 159.5s-70 55.5 -118 55.5c-40.667 0 -76.5 -16.167 -107.5 -48.5s-46.5 -70.833 -46.5 -115.5
c0 -32.667 6.83301 -64.5 20.5 -95.5s27.5 -53.167 41.5 -66.5l20 -23l-143 -163c-4 5.33301 -10.5 12.666 -19.5 21.999s-27.833 21.5 -56.5 36.5s-58 22.5 -88 22.5c-38 0 -68 -8.16699 -90 -24.5s-33 -35.166 -33 -56.499c0 -26 15.667 -47.667 47 -65
s69.5 -32.833 114.5 -46.5s90.5 -30 136.5 -49s84.667 -49.667 116 -92s47 -94.833 47 -157.5c0 -90 -35.5 -165.333 -106.5 -226s-168.5 -91 -292.5 -91c-53.333 0 -104 6.33301 -152 19s-87 28 -117 46s-56.167 35.833 -78.5 53.5s-38.5 32.5 -48.5 44.5l-14 21l154 153
c5.33301 -8 13.833 -18.167 25.5 -30.5s36.167 -29 73.5 -50s76 -31.5 116 -31.5c44 0 77.167 8.5 99.5 25.5s33.5 39.167 33.5 66.5s-15.667 50.166 -47 68.499s-70 34.333 -116 48s-91.5 30.167 -136.5 49.5s-83.167 49.333 -114.5 90s-47 92 -47 154
c0 80.667 37.5 153.667 112.5 219s167.167 98 276.5 98h10v31c0 118.667 39.333 216.5 118 293.5s179.334 115.5 302.001 115.5c130 0 234.167 -41.167 312.5 -123.5s117.5 -194.5 117.5 -336.5v-123c2.66699 4 6.83398 9 12.501 15s17.667 17.167 36 33.5s38 31 59 44
s48.667 24.667 83 35s69.833 15.5 106.5 15.5c130 0 242.667 -50.5 338 -151.5s143 -224.5 143 -370.5s-47.667 -269.5 -143 -370.5s-208 -151.5 -338 -151.5zM1577 778.001c-68 0 -126 -25.833 -174 -77.5s-72 -117.834 -72 -198.501s24 -147 72 -199s106 -78 174 -78
s126 26 174 78s72 118.333 72 199s-24 146.834 -72 198.501s-106 77.5 -174 77.5z" />
    <glyph glyph-name="f_t.liga" unicode="ft" horiz-adv-x="1464" 
d="M881 1106v193.999h245v-327h205v-246h-205v-389c0 -31.333 11.667 -58 35 -80s52.666 -33 87.999 -33c18 0 35.5 1.83301 52.5 5.5s29.5 7.5 37.5 11.5l13 4v-236c-54.667 -20.667 -116.334 -30.667 -185.001 -30c-211.333 0 -317 116 -317 348v399h-389v-727h-277v727
h-143v246h143v133c0 232 106 348 318 348c30 0 60.333 -2.66699 91 -8s54.334 -10.666 71.001 -15.999l22 -7v-235c-27.333 13.333 -61.333 20 -102 20c-35.333 0 -64.666 -10.833 -87.999 -32.5s-35 -48.167 -35 -79.5v-123h307c31.333 0 58 12.333 80 37s33 56.667 33 96z
" />
    <glyph glyph-name=".notdef" horiz-adv-x="0" 
 />
    <glyph glyph-name="glyph1" horiz-adv-x="0" 
 />
    <glyph glyph-name="glyph1" horiz-adv-x="0" 
 />
    <glyph glyph-name="uni000D" unicode="&#xd;" horiz-adv-x="0" 
 />
    <glyph glyph-name="space" unicode=" " horiz-adv-x="419" 
 />
    <glyph glyph-name="exclam" unicode="!" horiz-adv-x="675" 
d="M451 410h-226l-51 1024h328zM174 133.5c0 41 16 76.833 48 107.5s70.667 46 116 46s84 -15.333 116 -46s48 -66.5 48 -107.5s-16 -76.833 -48 -107.5s-70.667 -46 -116 -46s-84 15.333 -116 46s-48 66.5 -48 107.5z" />
    <glyph glyph-name="quotedbl" unicode="&#x22;" horiz-adv-x="849" 
d="M358 1434v-471h-245v471h245zM737 1434v-471h-245v471h245z" />
    <glyph glyph-name="numbersign" unicode="#" horiz-adv-x="1556" 
d="M1137 584h276l-41 -205h-276l-72 -379h-236l72 379h-297l-71 -379h-236l72 379h-277l41 205h277l51 266h-277l41 205h277l71 379h236l-72 -379h297l72 379h235l-71 -379h276l-41 -205h-276zM901 584l51 266h-297l-51 -266h297z" />
    <glyph glyph-name="dollar" unicode="$" 
d="M748 1450c65.333 -13.333 125.334 -35.1699 180.001 -65.5029s92.667 -56.833 114 -79.5l33 -35l-184 -195c-8 9.33301 -19.167 20.833 -33.5 34.5s-44.5 31.834 -90.5 54.501s-93.333 34 -142 34c-58.667 0 -105.834 -15 -141.501 -45s-53.5 -66.333 -53.5 -109
c0 -48 24.167 -86.5 72.5 -115.5s107 -53.5 176 -73.5s138.333 -43.333 208 -70s128.834 -70.667 177.501 -132s73 -139 73 -233c0 -109.333 -34.167 -203.333 -102.5 -282s-163.833 -130 -286.5 -154v-199h-267v192c-53.333 8 -104.5 21.333 -153.5 40
s-89.5 38.167 -121.5 58.5s-60.333 40.5 -85 60.5s-42.334 36 -53.001 48l-17 21l185 184c9.33301 -10.667 22.5 -24.5 39.5 -41.5s54.833 -39.833 113.5 -68.5s120 -43 184 -43c74 0 131.833 17.333 173.5 52s62.5 78.667 62.5 132c0 48 -24.167 86.667 -72.5 116
s-107.333 53.833 -177 73.5s-139 42.834 -208 69.501s-127.833 70.667 -176.5 132s-73 139 -73 233c0 98 34.167 185.333 102.5 262s160.5 125.334 276.5 146.001v197h267v-199z" />
    <glyph glyph-name="percent" unicode="%" horiz-adv-x="1669" 
d="M266 1126.5c0 -41 13.667 -75.167 41 -102.5s61.5 -41 102.5 -41s75.167 13.667 102.5 41s41 61.5 41 102.5s-13.667 75.167 -41 102.5s-61.5 41 -102.5 41s-75.167 -13.667 -102.5 -41s-41 -61.5 -41 -102.5zM256 0l901 1434h256l-901 -1434h-256zM758 1126.5
c0 -89 -34.167 -167.667 -102.5 -236s-150.333 -102.5 -246 -102.5s-177.667 34.167 -246 102.5s-102.5 147 -102.5 236s34.167 167.5 102.5 235.5s150.333 102 246 102s177.667 -34 246 -102s102.5 -146.5 102.5 -235.5zM1403 307.5c0 41 -13.667 75.167 -41 102.5
s-61.5 41 -102.5 41s-75.167 -13.667 -102.5 -41s-41 -61.5 -41 -102.5s13.667 -75.167 41 -102.5s61.5 -41 102.5 -41s75.167 13.667 102.5 41s41 61.5 41 102.5zM911 307c0 88.667 34.167 167.167 102.5 235.5s150.333 102.5 246 102.5s177.667 -34.167 246 -102.5
s102.5 -146.833 102.5 -235.5s-34.167 -167.167 -102.5 -235.5s-150.333 -102.5 -246 -102.5s-177.667 34.167 -246 102.5s-102.5 146.833 -102.5 235.5z" />
    <glyph glyph-name="ampersand" unicode="&#x26;" horiz-adv-x="1341" 
d="M1126 297c34 -54.667 74.998 -81.9971 122.998 -81.9971l51 10v-235c-34 -20.667 -74.667 -31 -122 -31c-45.333 0 -89.5 12 -132.5 36s-74.833 47.667 -95.5 71l-28 36c-9.33301 -10.667 -23 -23.834 -41 -39.501s-58 -36.834 -120 -63.501s-128 -40 -198 -40
c-134 0 -242.5 36.833 -325.5 110.5s-124.5 163.167 -124.5 268.5c0 49.333 9.16699 97.5 27.5 144.5s40.5 86.5 66.5 118.5s52 60.333 78 85s48.333 43 67 55l27 17c-13.333 13.333 -30.333 32 -51 56s-48 67.333 -82 130s-51 120 -51 172c0 98 36.5 182.333 109.5 253
s162.5 106 268.5 106c110.667 0 201.5 -33.5 272.5 -100.5s106.5 -149.833 106.5 -248.5c0 -38 -8.16699 -76.833 -24.5 -116.5s-35.666 -73.834 -57.999 -102.501s-45.166 -54.5 -68.499 -77.5s-43.333 -40.833 -60 -53.5l-24 -18l215 -266c40.667 61.333 61 133 61 215
h256c0 -72.667 -10.167 -143.167 -30.5 -211.5s-40.833 -118.833 -61.5 -151.5zM572.998 205.003c36.667 0 72.1699 6.83301 106.503 20.5s59.166 27.167 74.499 40.5l24 21l-246 297c-10.667 -8 -23.834 -19 -39.501 -33s-36.834 -40.333 -63.501 -79s-40 -76.667 -40 -114
c0 -48 15.667 -85.5 47 -112.5s77 -40.5 137 -40.5zM696.001 1106c0 35.333 -11.5 64.6699 -34.5 88.0029s-52.5 35 -88.5 35c-40.667 0 -73 -11.333 -97 -34s-36 -52.334 -36 -89.001c0 -27.333 11.333 -58 34 -92s45 -61.333 67 -82l32 -31c9.33301 8 21 19.167 35 33.5
s32.167 39.666 54.5 75.999s33.5 68.166 33.5 95.499z" />
    <glyph glyph-name="quotesingle" unicode="'" horiz-adv-x="471" 
d="M358 1434v-471h-245v471h245z" />
    <glyph glyph-name="parenleft" unicode="(" horiz-adv-x="747" 
d="M420 512c0 -91.333 9.49902 -183.5 28.499 -276.5s42.167 -172.833 69.5 -239.5s54.333 -127 81 -181s49.667 -94.667 69 -122l28 -41l-215 -123c-9.33301 10.667 -21.5 26 -36.5 46s-42 63 -81 129s-73.167 134.5 -102.5 205.5s-56.333 161.5 -81 271.5
s-37 220.333 -37 331s11.667 220.334 35 329.001s51.333 200.5 84 275.5s65.834 142.167 99.501 201.5s61.834 103.333 84.501 132l35 45l215 -133c-6.66699 -9.33301 -16.5 -23.333 -29.5 -42s-35.167 -57.334 -66.5 -116.001s-59.333 -119 -84 -181
s-46.834 -139.833 -66.501 -233.5s-29.5 -186.167 -29.5 -277.5z" />
    <glyph glyph-name="parenright" unicode=")" horiz-adv-x="747" 
d="M328 512c0 91.333 -9.66797 183.173 -29.001 275.506s-42.666 171.5 -69.999 237.5s-54.166 125.333 -80.499 178s-49.166 92.667 -68.499 120l-29 39l215 133c9.33301 -10.667 21.666 -26 36.999 -46s42.333 -63 81 -129s72.667 -134.5 102 -205.5
s56.333 -161.5 81 -271.5s37 -220.333 37 -331s-11.5 -220.334 -34.5 -329.001s-51.333 -200.5 -85 -275.5s-66.834 -142.167 -99.501 -201.5s-60.667 -103.333 -84 -132l-35 -45l-215 123c6.66699 9.33301 16.5 23.166 29.5 41.499s35.333 57.666 67 117.999
s59.667 122.166 84 185.499s46.5 142.166 66.5 236.499s30 187.166 30 278.499z" />
    <glyph glyph-name="asterisk" unicode="*" horiz-adv-x="819" 
d="M410 932l-134 -195l-153 123l143 174l-215 62l62 184l215 -82l-21 236h205l-20 -236l215 82l61 -184l-215 -62l143 -174l-153 -123z" />
    <glyph glyph-name="plus" unicode="+" horiz-adv-x="1075" 
d="M655 123h-235v348h-348v256h348v348h235v-348h349v-256h-349v-348z" />
    <glyph glyph-name="comma" unicode="," horiz-adv-x="532" 
d="M215 297l225 -133l-266 -430l-184 92z" />
    <glyph glyph-name="hyphen" unicode="-" horiz-adv-x="880" 
d="M809 727v-246h-737v246h737z" />
    <glyph glyph-name="period" unicode="." horiz-adv-x="512" 
d="M92 133.5c0 41 16 76.833 48 107.5s70.667 46 116 46s84 -15.333 116 -46s48 -66.5 48 -107.5s-16 -76.833 -48 -107.5s-70.667 -46 -116 -46s-84 15.333 -116 46s-48 66.5 -48 107.5z" />
    <glyph glyph-name="slash" unicode="/" horiz-adv-x="993" 
d="M932 1454l-615 -1884h-256l615 1884h256z" />
    <glyph glyph-name="zero" unicode="0" horiz-adv-x="1454" 
d="M420 717c0 -150 30.333 -266 91 -348s132.667 -123 216 -123s155.333 41 216 123s91 198 91 348s-30.333 266 -91 348s-132.667 123 -216 123s-155.333 -41 -216 -123s-91 -198 -91 -348zM1341 717c0 -224 -59.667 -404.667 -179 -542s-264.333 -206 -435 -206
s-315.667 68.667 -435 206s-179 318 -179 542s59.667 404.5 179 541.5s264.333 205.5 435 205.5s315.667 -68.5 435 -205.5s179 -317.5 179 -541.5z" />
    <glyph glyph-name="one" unicode="1" horiz-adv-x="819" 
d="M379 1434h256.001v-1434h-307v1044h-246v195c44 5.33301 84.333 15.833 121 31.5s65.167 32.5 85.5 50.5s37.666 35.5 51.999 52.5s24.5 31.5 30.5 43.5z" />
    <glyph glyph-name="two" unicode="2" horiz-adv-x="1187" 
d="M1075 0l-1003 0.00292969c0 105.333 17 200.666 51 285.999s76.333 152.833 127 202.5s105.667 97 165 142s114.166 83.333 164.499 115s92.666 68.667 126.999 111s51.5 87.833 51.5 136.5c0 57.333 -17.833 102.5 -53.5 135.5s-86.167 49.5 -151.5 49.5
c-52 0 -96.833 -14.667 -134.5 -44s-62.5 -58.333 -74.5 -87l-16 -43l-256 122c2.66699 9.33301 7 21.666 13 36.999s22 42.5 48 81.5s56 73.167 90 102.5s82.167 56.166 144.5 80.499s130.833 36.5 205.5 36.5c146 0 266.167 -44.333 360.5 -133s141.5 -197.667 141.5 -327
c0 -72.667 -15.667 -138.667 -47 -198s-72.333 -109.833 -123 -151.5s-102.5 -80 -155.5 -115s-107.167 -74.667 -162.5 -119s-97.333 -88.833 -126 -133.5h614v-287z" />
    <glyph glyph-name="three" unicode="3" horiz-adv-x="1177" 
d="M840 758c6.66699 -2.66699 15.8359 -6.49609 27.5029 -11.4961s32.167 -17 61.5 -36s55.166 -40.833 77.499 -65.5s42.833 -58.834 61.5 -102.501s28 -91.5 28 -143.5c0 -117.333 -48.833 -218.333 -146.5 -303s-226.5 -127 -386.5 -127
c-68 0 -133.5 7.83301 -196.5 23.5s-114.5 34.5 -154.5 56.5s-75.167 43.833 -105.5 65.5s-52.166 40.834 -65.499 57.501l-21 23l185 194c2.66699 -4 7 -9.5 13 -16.5s19.667 -19.333 41 -37s43.833 -33.334 67.5 -47.001s54 -25.834 91 -36.501s75.167 -16 114.5 -16
c79.333 0 140.166 17.333 182.499 52s63.5 78.667 63.5 132s-20.833 97.333 -62.5 132s-99.167 52 -172.5 52h-154v256h143c60 0 107.5 16 142.5 48s52.5 74 52.5 126c0 48 -17.333 87.333 -52 118s-82.334 46 -143.001 46c-52 0 -100.833 -11.333 -146.5 -34
s-78.5 -44.667 -98.5 -66l-31 -33l-184 184c4 5.33301 10 12.833 18 22.5s27.167 27.167 57.5 52.5s62.833 47.166 97.5 65.499s80.667 35.333 138 51s117.333 23.5 180 23.5c144.667 0 261 -38.167 349 -114.5s132 -171.166 132 -284.499
c0 -42 -7.16699 -81.167 -21.5 -117.5s-31.333 -65.833 -51 -88.5s-39.334 -41.834 -59.001 -57.501s-37.167 -26.834 -52.5 -33.501z" />
    <glyph glyph-name="four" unicode="4" horiz-adv-x="1249" 
d="M1044 522h164v-266h-164v-256h-307v256h-676v307l625 871h358v-912zM737 522v553l-389 -553h389z" />
    <glyph glyph-name="five" unicode="5" horiz-adv-x="1269" 
d="M696 952c138 0 252.83 -45.666 344.497 -136.999s137.5 -206 137.5 -344c0 -144.667 -50.167 -264.5 -150.5 -359.5s-231.166 -142.5 -392.499 -142.5c-68 0 -133.167 7.83301 -195.5 23.5s-113 34.5 -152 56.5s-73.167 43.833 -102.5 65.5s-50 40.834 -62 57.501l-21 23
l185 194c9.33301 -10.667 22.5 -23.834 39.5 -39.501s54.167 -36.834 111.5 -63.501s116 -40 176 -40c76.667 0 136.834 20.833 180.501 62.5s65.5 95.834 65.5 162.501s-23.167 122.667 -69.5 168s-105.166 68 -176.499 68c-49.333 0 -93.333 -9.33301 -132 -28
s-65.667 -37.334 -81 -56.001l-22 -29l-215 20l51 820h870v-267h-593l-21 -266c54.667 34 129.667 51 225 51z" />
    <glyph glyph-name="six" unicode="6" horiz-adv-x="1259" 
d="M676 973c128.667 0 242.667 -50.5 342 -151.5s149 -217.833 149 -350.5c0 -140.667 -51.167 -259.5 -153.5 -356.5s-232 -145.5 -389 -145.5s-286.667 48.5 -389 145.5s-153.5 215.833 -153.5 356.5c0 57.333 10.167 115 30.5 173s40.833 101.333 61.5 130l31 45l399 615
h318l-308 -471c18 6.66699 38.667 10 62 10zM870 471c0 66.667 -23.167 122.667 -69.5 168s-105 68 -176 68s-129.667 -22.667 -176 -68s-69.5 -101.333 -69.5 -168s23.167 -122.5 69.5 -167.5s105 -67.5 176 -67.5s129.667 22.5 176 67.5s69.5 100.833 69.5 167.5z" />
    <glyph glyph-name="seven" unicode="7" horiz-adv-x="1095" 
d="M61 1434h983v-246l-563 -1188h-317l553 1157h-656v277z" />
    <glyph glyph-name="eight" unicode="8" horiz-adv-x="1249" 
d="M624.5 225c64.333 0 119.666 20.833 165.999 62.5s69.5 89.167 69.5 142.5s-23.167 100.833 -69.5 142.5s-101.666 62.5 -165.999 62.5s-119.666 -20.833 -165.999 -62.5s-69.5 -89.167 -69.5 -142.5s23.167 -100.833 69.5 -142.5s101.666 -62.5 165.999 -62.5zM625 881
c54.667 0 99 15.667 133 47s51 70.166 51 116.499s-17 85.166 -51 116.499s-78.333 47 -133 47s-99.167 -15.667 -133.5 -47s-51.5 -70.166 -51.5 -116.499s17.167 -85.166 51.5 -116.499s78.833 -47 133.5 -47zM624.5 -31c-150.333 0 -275.005 45.5 -374.005 136.5
s-148.5 199.167 -148.5 324.5c0 44 7.5 86 22.5 126s32.833 73 53.5 99s41.5 48.667 62.5 68s39.167 33.666 54.5 42.999l22 12c-4 2.66699 -9.66699 6.5 -17 11.5s-20.666 16.333 -39.999 34s-36.166 36.667 -50.499 57s-27.166 47 -38.499 80s-17 67.833 -17 104.5
c0 106.667 45 199.834 135 279.501s201.833 119.5 335.5 119.5s245.667 -39.833 336 -119.5s135.5 -172.834 135.5 -279.501c0 -57.333 -13.667 -109.833 -41 -157.5s-54.666 -81.167 -81.999 -100.5l-41 -29c5.33301 -2.66699 12.833 -7 22.5 -13s27 -19.667 52 -41
s46.833 -44.666 65.5 -69.999s35.834 -58 51.501 -98s23.5 -82 23.5 -126c0 -125.333 -49.5 -233.5 -148.5 -324.5s-223.667 -136.5 -374 -136.5z" />
    <glyph glyph-name="nine" unicode="9" horiz-adv-x="1259" 
d="M584 461c-128.667 0 -242.833 50.499 -342.5 151.499s-149.5 217.833 -149.5 350.5c0 140.667 51.167 259.334 153.5 356.001s232 145 389 145s286.833 -48.333 389.5 -145s154 -215.334 154 -356.001c0 -57.333 -10.333 -115.166 -31 -173.499
s-41.334 -101.833 -62.001 -130.5l-30 -45l-400 -614h-317l307 471c-17.333 -6.66699 -37.666 -10 -60.999 -10zM389.001 962.499c0 -67 23.167 -123 69.5 -168s105 -67.5 176 -67.5s129.833 22.5 176.5 67.5s70 101 70 168s-23.333 123 -70 168s-105.5 67.5 -176.5 67.5
s-129.667 -22.5 -176 -67.5s-69.5 -101 -69.5 -168z" />
    <glyph glyph-name="colon" unicode=":" horiz-adv-x="512" 
d="M92 133.5c0 41 16 76.833 48 107.5s70.667 46 116 46s84 -15.333 116 -46s48 -66.5 48 -107.5s-16 -76.833 -48 -107.5s-70.667 -46 -116 -46s-84 15.333 -116 46s-48 66.5 -48 107.5zM92 870.5c0 41 16 76.833 48 107.5s70.667 46 116 46s84 -15.333 116 -46
s48 -66.5 48 -107.5s-16 -76.833 -48 -107.5s-70.667 -46 -116 -46s-84 15.333 -116 46s-48 66.5 -48 107.5z" />
    <glyph glyph-name="semicolon" unicode=";" horiz-adv-x="552" 
d="M133 870.5c0 41 16 76.833 48 107.5s70.667 46 116 46s84 -15.333 116 -46s48 -66.5 48 -107.5s-16 -76.833 -48 -107.5s-70.667 -46 -116 -46s-84 15.333 -116 46s-48 66.5 -48 107.5zM215 297l225 -133l-266 -430l-184 92z" />
    <glyph glyph-name="less" unicode="&#x3c;" horiz-adv-x="1044" 
d="M82 410v184l881 420v-266l-533 -246l533 -246v-266z" />
    <glyph glyph-name="equal" unicode="=" horiz-adv-x="1013" 
d="M932 522v-235h-850v235h850zM932 922v-236h-850v236h850z" />
    <glyph glyph-name="greater" unicode="&#x3e;" horiz-adv-x="1044" 
d="M963 594v-184l-881 -420v266l532 246l-532 246v266z" />
    <glyph glyph-name="question" unicode="?" horiz-adv-x="1126" 
d="M379 502c0 54.667 12 103.163 36 145.496s53 76.333 87 102s68 50.5 102 74.5s63 51.667 87 83s36 67 36 107c0 42 -17 78 -51 108s-78.333 45 -133 45c-57.333 0 -106.5 -13.667 -147.5 -41s-67.833 -54.666 -80.5 -81.999l-18 -40l-256 112c2.66699 9.33301 7 22 13 38
s22.333 43.667 49 83s57.5 74.5 92.5 105.5s84.167 59 147.5 84s133.333 37.5 210 37.5c144.667 0 262.667 -40.167 354 -120.5s137 -176.5 137 -288.5c0 -69.333 -12.5 -131.166 -37.5 -185.499s-55.667 -98.166 -92 -131.499s-72.5 -64.666 -108.5 -93.999
s-66.667 -63.833 -92 -103.5s-38 -83.167 -38 -130.5h-277c-13.333 34 -20 64.667 -20 92zM358 133.496c0 41 16.167 76.833 48.5 107.5s71 46 116 46s83.5 -15.333 115.5 -46s48 -66.5 48 -107.5s-16 -76.833 -48 -107.5s-70.5 -46 -115.5 -46s-83.667 15.333 -116 46
s-48.5 66.5 -48.5 107.5z" />
    <glyph glyph-name="at" unicode="@" horiz-adv-x="1843" 
d="M911 686c-49.333 0 -90.668 -17.333 -124.001 -52s-50 -78.667 -50 -132s16.833 -97.5 50.5 -132.5s74.834 -52.5 123.501 -52.5c46.667 0 85.667 17.167 117 51.5s47 78.833 47 133.5s-15.667 99 -47 133s-70.333 51 -117 51zM880.998 881
c39.333 0 75.002 -6.83301 107.002 -20.5s55 -27.5 69 -41.5l18 -20v71h195v-450c0 -31.333 10.833 -58 32.5 -80s48.167 -33 79.5 -33c95.333 0 143.333 82 144 246c0 155.333 -57.667 288 -173 398s-259 165 -431 165c-164 0 -304 -58.667 -420 -176s-174 -260 -174 -428
s58 -310.667 174 -428s256 -176 420 -176c69.333 0 134.666 10.167 195.999 30.5s105 40.833 131 61.5l41 31l113 -144c-4 -4 -10.833 -10 -20.5 -18s-29.834 -22 -60.501 -42s-63.5 -37.833 -98.5 -53.5s-79.667 -29.667 -134 -42s-110.166 -18.5 -167.499 -18.5
c-140.667 0 -272.5 36.5 -395.5 109.5s-221 171 -294 294s-109.5 254.833 -109.5 395.5s36.5 272.5 109.5 395.5s171 221 294 294s254.833 109.5 395.5 109.5c228 0 419.833 -74.5 575.5 -223.5s233.5 -327.167 233.5 -534.5c0 -134 -32.833 -239.167 -98.5 -315.5
s-149.167 -114.5 -250.5 -114.5c-48 0 -91.667 10.167 -131 30.5s-66.666 40.833 -81.999 61.5l-22 31c-5.33301 -9.33301 -13.833 -21 -25.5 -35s-39.334 -32.167 -83.001 -54.5s-92.834 -33.5 -147.501 -33.5c-100 0 -184.833 35.833 -254.5 107.5
s-104.5 162.167 -104.5 271.5c0 108 34.667 198.167 104 270.5s151 108.5 245 108.5z" />
    <glyph glyph-name="A" unicode="A" horiz-adv-x="1495" 
d="M922 604l-174 471l-175 -471h349zM1024 338h-553l-123 -338h-328l564 1434h327l564 -1434h-328z" />
    <glyph glyph-name="B" unicode="B" horiz-adv-x="1423" 
d="M834 0h-649.998v1434h615c130 0 237.5 -38 322.5 -114s127.5 -164.333 127.5 -265c0 -38 -5.33301 -74.167 -16 -108.5s-24.334 -62.833 -41.001 -85.5s-33.167 -42.167 -49.5 -58.5s-29.833 -27.833 -40.5 -34.5l-17 -10c6.66699 -2.66699 15.167 -6.5 25.5 -11.5
s29.166 -17.333 56.499 -37s51.333 -41.167 72 -64.5s39.5 -55.166 56.5 -95.499s25.5 -83.5 25.5 -129.5c0 -114.667 -45.667 -213.334 -137 -296.001s-208 -124 -350 -124zM492.002 256h327c56 0 102.5 17.667 139.5 53s55.5 79 55.5 131s-18.5 95.833 -55.5 131.5
s-83.5 53.5 -139.5 53.5h-327v-369zM778.002 1178h-286v-308h286c50.667 0 90.667 14 120 42s44 65.333 44 112s-14.667 84 -44 112s-69.333 42 -120 42z" />
    <glyph glyph-name="C" unicode="C" horiz-adv-x="1546" 
d="M881 1464c75.333 0 147.001 -9.83301 215.001 -29.5s123.833 -43.5 167.5 -71.5s82.334 -56 116.001 -84s57.834 -51.667 72.501 -71l23 -30l-195 -195c-4 5.33301 -9.5 12.833 -16.5 22.5s-22.667 26.167 -47 49.5s-50.833 43.833 -79.5 61.5s-66.334 34 -113.001 49
s-94.334 22.5 -143.001 22.5c-134 0 -246 -45 -336 -135s-135 -202 -135 -336s45 -246 135 -336s202 -135 336 -135c52 0 101.833 7.16699 149.5 21.5s87.167 31.333 118.5 51s59 39.5 83 59.5s41.333 37.333 52 52l16 21l185 -195c-5.33301 -8 -13.5 -18.5 -24.5 -31.5
s-35.333 -36 -73 -69s-78 -62 -121 -87s-99.333 -47.833 -169 -68.5s-141.834 -31 -216.501 -31c-218.667 0 -403.167 73.167 -553.5 219.5s-225.5 322.5 -225.5 528.5s75.167 382 225.5 528s334.833 219 553.5 219z" />
    <glyph glyph-name="D" unicode="D" horiz-adv-x="1556" 
d="M184 1434l533 0.00195312c208.667 0 383.667 -69.333 525 -208s212 -308.334 212 -509.001s-70.667 -370.334 -212 -509.001s-316.333 -208 -525 -208h-533v1434zM717 1157h-225v-881h225c118.667 0 220 42.667 304 128s126 189.5 126 312.5s-41 227.167 -123 312.5
s-184.333 128 -307 128z" />
    <glyph glyph-name="E" unicode="E" horiz-adv-x="1361" 
d="M492 276h768v-276h-1076v1434h1055v-277h-747v-287h583v-276h-583v-318z" />
    <glyph glyph-name="F" unicode="F" horiz-adv-x="1320" 
d="M184 1434h1055v-277h-747v-317h583v-277h-583v-563h-308v1434z" />
    <glyph glyph-name="G" unicode="G" horiz-adv-x="1658" 
d="M942 778h563.001v-532c-5.33301 -6.66699 -13.833 -16.5 -25.5 -29.5s-37.334 -35.333 -77.001 -67s-81.667 -59.667 -126 -84s-102.333 -46.5 -174 -66.5s-145.5 -30 -221.5 -30c-218.667 0 -403.167 73.167 -553.5 219.5s-225.5 322.5 -225.5 528.5
s75.167 382 225.5 528s334.833 219 553.5 219c75.333 0 147 -9.83301 215 -29.5s123.833 -43.5 167.5 -71.5s82.334 -56 116.001 -84s57.834 -51.667 72.501 -71l23 -30l-195 -195c-4 5.33301 -9.5 12.833 -16.5 22.5s-22.667 26.167 -47 49.5s-50.833 43.833 -79.5 61.5
s-66.334 34 -113.001 49s-94.334 22.5 -143.001 22.5c-134 0 -246 -45 -336 -135s-135 -202 -135 -336s45 -246 135 -336s202 -135 336 -135c64 0 122.333 9.5 175 28.5s89.667 38.167 111 57.5l31 26v195h-256v225z" />
    <glyph glyph-name="H" unicode="H" horiz-adv-x="1597" 
d="M1413 1434v-1434h-307v584h-614v-584h-308v1434h308v-574h614v574h307z" />
    <glyph glyph-name="I" unicode="I" horiz-adv-x="675" 
d="M184 0v1434h308v-1434h-308z" />
    <glyph glyph-name="J" unicode="J" horiz-adv-x="1054" 
d="M573 1434h307.999v-973c0 -146 -46.167 -264.5 -138.5 -355.5s-213.5 -136.5 -363.5 -136.5c-72.667 0 -140.667 14.667 -204 44s-108 58.333 -134 87l-41 43l184 185c4 -5.33301 10.5 -12.833 19.5 -22.5s28.833 -22 59.5 -37s62.334 -22.5 95.001 -22.5
c66.667 0 119.167 19 157.5 57s57.5 90.667 57.5 158v973z" />
    <glyph glyph-name="K" unicode="K" horiz-adv-x="1454" 
d="M492 1434v-625l563 625h358l-532 -594l573 -840h-358l-420 614l-184 -204v-410h-308v1434h308z" />
    <glyph glyph-name="L" unicode="L" horiz-adv-x="1208" 
d="M1157 0h-973v1434h308v-1158h665v-276z" />
    <glyph glyph-name="M" unicode="M" horiz-adv-x="1904" 
d="M952 809l496 625h272v-1434h-307v956l-461 -587l-460 583v-952h-308v1434h277z" />
    <glyph glyph-name="N" unicode="N" horiz-adv-x="1648" 
d="M1157 1434h307v-1434h-266l-706 911v-911h-308v1434h267l706 -912v912z" />
    <glyph glyph-name="O" unicode="O" horiz-adv-x="1761" 
d="M420 716.5c0 -132.333 44.667 -243.833 134 -334.5s198.166 -136 326.499 -136s237.166 45.333 326.499 136s134 202.167 134 334.5s-44.667 244 -134 335s-198.166 136.5 -326.499 136.5s-237.166 -45.5 -326.499 -136.5s-134 -202.667 -134 -335zM102 717
c0 206 75.167 382 225.5 528s334.666 219 552.999 219s402.666 -73 552.999 -219s225.5 -322 225.5 -528s-75.167 -382.167 -225.5 -528.5s-334.666 -219.5 -552.999 -219.5s-402.666 73.167 -552.999 219.5s-225.5 322.5 -225.5 528.5z" />
    <glyph glyph-name="P" unicode="P" horiz-adv-x="1392" 
d="M184 1434l604 -0.00195312c147.333 0 269.5 -46.167 366.5 -138.5s145.5 -206.666 145.5 -342.999s-48.333 -250.666 -145 -342.999s-219 -138.5 -367 -138.5h-296v-471h-308v1434zM778 1157l-286 0.000976562v-409h286c61.333 0 112.5 19.667 153.5 59
s61.5 87.666 61.5 144.999s-20.5 105.833 -61.5 145.5s-92.167 59.5 -153.5 59.5z" />
    <glyph glyph-name="Q" unicode="Q" horiz-adv-x="1771" 
d="M102 717c0 206 75.167 381.999 225.5 527.999s334.666 219 552.999 219s402.666 -73 552.999 -219s225.5 -322 225.5 -528c0 -86 -13.667 -167.333 -41 -244s-60.166 -138.5 -98.499 -185.5s-76.833 -88.167 -115.5 -123.5s-71.667 -60.666 -99 -75.999l-41 -22
c2.66699 -4 6.66699 -9.5 12 -16.5s18.333 -18.667 39 -35s43.5 -31 68.5 -44s59.333 -25 103 -36s90.834 -16.5 141.501 -16.5h41v-246h-61c-82 0 -159.167 10.333 -231.5 31s-131 46 -176 76s-84.667 60 -119 90s-58.833 55.333 -73.5 76l-21 30
c-30 -4 -65.333 -6 -106 -6c-218.667 0 -403.167 73.167 -553.5 219.5s-225.5 322.5 -225.5 528.5zM420 716.499c0 -132.333 44.667 -243.833 134 -334.5s198.166 -136 326.499 -136s237.166 45.333 326.499 136s134 202.167 134 334.5s-44.667 244 -134 335
s-198.166 136.5 -326.499 136.5s-237.166 -45.5 -326.499 -136.5s-134 -202.667 -134 -335z" />
    <glyph glyph-name="R" unicode="R" horiz-adv-x="1454" 
d="M184 0l-0.000976562 1434h635c142 0 259.5 -45.5 352.5 -136.5s139.5 -202.5 139.5 -334.5c0 -57.333 -9 -111 -27 -161s-39.167 -90.333 -63.5 -121s-49.166 -57 -74.499 -79s-47 -37 -65 -45l-26 -14l307 -543h-328l-276 502h-266v-502h-308zM1004 963
c0 56 -18.5 102.333 -55.5 139s-83.5 55 -139.5 55h-317v-379h317c56 0 102.5 17.833 139.5 53.5s55.5 79.5 55.5 131.5z" />
    <glyph glyph-name="S" unicode="S" 
d="M809 420c0 48 -24.1689 86.665 -72.502 115.998s-107.333 53.833 -177 73.5s-139 42.834 -208 69.501s-127.833 70.667 -176.5 132s-73 139 -73 233c0 116 46.5 215 139.5 297s213.833 123 362.5 123c58.667 0 115.334 -6.83301 170.001 -20.5s99.5 -29.667 134.5 -48
s65.667 -37 92 -56s45.166 -35.5 56.499 -49.5l18 -20l-184 -195c-8 9.33301 -19.167 20.833 -33.5 34.5s-44.5 31.834 -90.5 54.501s-93.333 34 -142 34c-58.667 0 -105.834 -15 -141.501 -45s-53.5 -66.333 -53.5 -109c0 -48 24.167 -86.5 72.5 -115.5
s107 -53.5 176 -73.5s138.333 -43.333 208 -70s128.834 -70.667 177.501 -132s73 -139 73 -233c0 -132.667 -48.167 -241 -144.5 -325s-229.166 -126 -398.499 -126c-66.667 0 -131.167 8.16699 -193.5 24.5s-113.666 35.833 -153.999 58.5s-75.833 45.667 -106.5 69
s-52.667 43 -66 59l-23 25l185 184c9.33301 -10.667 22.5 -24.5 39.5 -41.5s54.833 -39.833 113.5 -68.5s120 -43 184 -43c74 0 131.833 17.333 173.5 52s62.5 78.667 62.5 132z" />
    <glyph glyph-name="T" unicode="T" horiz-adv-x="1208" 
d="M41 1434h1126v-277h-409v-1157h-307v1157h-410v277z" />
    <glyph glyph-name="U" unicode="U" horiz-adv-x="1597" 
d="M799 246c87.333 0 162.001 32.333 224.001 97s93 145 93 241v850h307v-850c0 -174.667 -59.333 -320.834 -178 -438.501s-267.5 -176.5 -446.5 -176.5s-327.833 58.833 -446.5 176.5s-178 263.834 -178 438.501v850h307v-850c0 -95.333 31.167 -175.5 93.5 -240.5
s137.166 -97.5 224.499 -97.5z" />
    <glyph glyph-name="V" unicode="V" horiz-adv-x="1474" 
d="M573 0l-532 1434h328l368 -1065l369 1065h328l-533 -1434h-328z" />
    <glyph glyph-name="W" unicode="W" horiz-adv-x="2211" 
d="M963 1434h286l297 -983l297 983h328l-471 -1434h-287l-307 963l-307 -963h-287l-471 1434h328l297 -983z" />
    <glyph glyph-name="X" unicode="X" horiz-adv-x="1433" 
d="M717 522l-348 -522h-349l502 748l-461 686h349l307 -461l307 461h348l-461 -686l502 -748h-348z" />
    <glyph glyph-name="Y" unicode="Y" horiz-adv-x="1372" 
d="M348 1434l338 -615l338 615h328l-512 -922v-512h-308v512l-512 922h328z" />
    <glyph glyph-name="Z" unicode="Z" horiz-adv-x="1331" 
d="M829 1157h-696v277h1075v-277l-727 -881h748v-276h-1127v276z" />
    <glyph glyph-name="bracketleft" unicode="[" horiz-adv-x="737" 
d="M430 1219v-1414h246v-235h-512v1884h512v-235h-246z" />
    <glyph glyph-name="backslash" unicode="\" horiz-adv-x="993" 
d="M676 -430l-615 1884h256l615 -1884h-256z" />
    <glyph glyph-name="bracketright" unicode="]" horiz-adv-x="737" 
d="M307 -195v1414h-246v235h512v-1884h-512v235h246z" />
    <glyph glyph-name="asciicircum" unicode="^" horiz-adv-x="880" 
d="M338 1434h205l276 -615h-235l-144 328l-143 -328h-236z" />
    <glyph glyph-name="underscore" unicode="_" horiz-adv-x="706" 
d="M727 -174v-256h-747v256h747z" />
    <glyph glyph-name="grave" unicode="`" horiz-adv-x="573" 
d="M348 1444l164 -307h-225l-226 307h287z" />
    <glyph glyph-name="a" unicode="a" horiz-adv-x="1095" 
d="M676 0l-0.00390625 102c-8 -9.33301 -19.167 -20.833 -33.5 -34.5s-45.5 -31.667 -93.5 -54s-98 -33.5 -150 -33.5c-100 0 -181.333 27.833 -244 83.5s-94 123.167 -94 202.5c0 82 26.333 150.333 79 205s125.334 90.334 218.001 107.001l318 57
c0 42 -15.333 76.333 -46 103s-73.334 40 -128.001 40c-45.333 0 -86.666 -8.5 -123.999 -25.5s-63.666 -34.5 -78.999 -52.5l-23 -24l-153 153c4 5.33301 9.5 12.5 16.5 21.5s22.667 24.5 47 46.5s50.833 41.5 79.5 58.5s66.334 32.667 113.001 47
s94.334 21.5 143.001 21.5c126.667 0 230 -37.833 310 -113.5s120 -170.834 120 -285.501v-625h-276zM470.996 205c62.667 0 112.5 19.832 149.5 59.499s55.5 94.834 55.5 165.501v31l-225 -41c-75.333 -12 -113 -49.667 -113 -113c0 -68 44.333 -102 133 -102z" />
    <glyph glyph-name="b" unicode="b" horiz-adv-x="1269" 
d="M707 1024c130 0 242.67 -50.5 338.003 -151.5s143 -224.5 143 -370.5s-47.833 -269.5 -143.5 -370.5s-208.167 -151.5 -337.5 -151.5c-57.333 0 -111 11.833 -161 35.5s-85.333 47.167 -106 70.5l-30 37v-123h-277v1434h277v-553c2.66699 4 6.66699 9 12 15
s17.166 17.167 35.499 33.5s38.166 31 59.499 44s49.166 24.667 83.499 35s69.833 15.5 106.5 15.5zM655.503 225c68.333 0 126.333 26 174 78s71.5 118.333 71.5 199s-23.833 146.834 -71.5 198.501s-105.667 77.5 -174 77.5s-126.333 -25.833 -174 -77.5
s-71.5 -117.834 -71.5 -198.501s23.833 -147 71.5 -199s105.667 -78 174 -78z" />
    <glyph glyph-name="c" unicode="c" horiz-adv-x="1075" 
d="M61 502c0 139.333 53.665 261.17 160.998 365.503s234.666 156.5 381.999 156.5c52 0 101.5 -7.16699 148.5 -21.5s85.5 -31.333 115.5 -51s56.667 -39.5 80 -59.5s40.333 -37.333 51 -52l15 -21l-174 -174c-5.33301 9.33301 -14.166 21.666 -26.499 36.999
s-39 35.166 -80 59.499s-84.167 36.5 -129.5 36.5c-72.667 0 -135.167 -27 -187.5 -81s-78.5 -119.167 -78.5 -195.5s26.333 -141.5 79 -195.5s115 -81 187 -81c45.333 0 88.5 11 129.5 33s70.833 44 89.5 66l27 34l164 -174c-4 -5.33301 -9.5 -12.833 -16.5 -22.5
s-23.167 -26 -48.5 -49s-52.666 -43.333 -81.999 -61s-67.5 -34 -114.5 -49s-96.5 -22.5 -148.5 -22.5c-147.333 0 -274.666 52.167 -381.999 156.5s-161 226.166 -161 365.499z" />
    <glyph glyph-name="d" unicode="d" horiz-adv-x="1269" 
d="M543 1024c57.333 0 110.832 -12.001 160.499 -36.001s84.834 -47.333 105.501 -70l31 -37v553h276v-1434h-276v123c-2.66699 -4 -6.83398 -9.16699 -12.501 -15.5s-17.667 -17.666 -36 -33.999s-38.166 -31 -59.499 -44s-49 -24.5 -83 -34.5s-69.333 -15 -106 -15
c-130 0 -242.833 50.5 -338.5 151.5s-143.5 224.5 -143.5 370.5s47.833 269.5 143.5 370.5s208.5 151.5 338.5 151.5zM593.999 224.999c68 0 126 26 174 78s72 118.333 72 199s-24 146.834 -72 198.501s-106 77.5 -174 77.5s-126 -25.833 -174 -77.5
s-72 -117.834 -72 -198.501s24 -147 72 -199s106 -78 174 -78z" />
    <glyph glyph-name="e" unicode="e" horiz-adv-x="1167" 
d="M1075 410l-727 0.00292969c10.667 -54.667 39.667 -100.834 87 -138.501s107 -56.5 179 -56.5c52 0 100.167 10.167 144.5 30.5s75.5 40.833 93.5 61.5l29 31l143 -184l-18.5 -18.5c-8.33301 -8.33301 -26.166 -22.5 -53.499 -42.5s-56.333 -37.833 -87 -53.5
s-70.5 -29.5 -119.5 -41.5s-99.5 -18 -151.5 -18c-147.333 0 -273 51.167 -377 153.5s-156 225.166 -156 368.499s51.333 266.166 154 368.499s225.667 153.5 369 153.5s262.666 -47.833 357.999 -143.5s143 -215.167 143 -358.5zM584 788.003
c-58.667 0 -108.5 -17 -149.5 -51s-69.833 -78.333 -86.5 -133h461c-10.667 53.333 -36.167 97.333 -76.5 132s-89.833 52 -148.5 52z" />
    <glyph glyph-name="f" unicode="f" horiz-adv-x="747" 
d="M686 973l-0.00195312 -246.001h-225v-727h-277v727h-143v246h143v133c0 232 106 348 318 348c30 0 60.333 -2.66699 91 -8s54.334 -10.666 71.001 -15.999l22 -7v-235c-27.333 13.333 -61.333 20 -102 20c-35.333 0 -64.666 -10.833 -87.999 -32.5s-35 -48.167 -35 -79.5
v-123h225z" />
    <glyph glyph-name="g" unicode="g" 
d="M809 82l0.000976562 81.998c-2.66699 -4 -6.83398 -9.16699 -12.501 -15.5s-17.667 -17.666 -36 -33.999s-38 -31 -59 -44s-48.667 -24.667 -83 -35s-69.833 -15.5 -106.5 -15.5c-114.667 0 -218.5 49.833 -311.5 149.5s-139.5 217.167 -139.5 352.5
s46.5 252.833 139.5 352.5s196.833 149.5 311.5 149.5c57.333 0 111 -12 161 -36s85 -47.333 105 -70l31 -37v123h276v-922c0 -144.667 -50.5 -266.167 -151.5 -364.5s-227.833 -147.5 -380.5 -147.5c-57.333 0 -112.333 7.5 -165 22.5s-96.334 32.667 -131.001 53
s-65 41.166 -91 62.499s-44.333 39.333 -55 54l-19 23l174 164c6.66699 -9.33301 16.834 -21.666 30.501 -36.999s44.5 -35.166 92.5 -59.499s99.333 -36.5 154 -36.5c82 0 146.833 23.833 194.5 71.5s71.5 112.5 71.5 194.5zM348.001 522.498
c0 -71 21.833 -129.833 65.5 -176.5s97 -70 160 -70s118 24 165 72s70.5 106.167 70.5 174.5s-23.5 126.333 -70.5 174s-102 71.5 -165 71.5s-116.333 -23.167 -160 -69.5s-65.5 -105 -65.5 -176z" />
    <glyph glyph-name="h" unicode="h" 
d="M410 1434l-0.000976562 -553.002c8 10.667 19.167 23.834 33.5 39.501s46.333 36.834 96 63.501s101.834 40 156.501 40c114.667 0 208.167 -39.667 280.5 -119s108.5 -186.333 108.5 -321v-584h-276v553c0 61.333 -18.167 110.833 -54.5 148.5
s-83.166 56.5 -140.499 56.5c-62.667 0 -112.334 -20.5 -149.001 -61.5s-55 -99.167 -55 -174.5v-522h-277v1434h277z" />
    <glyph glyph-name="i" unicode="i" horiz-adv-x="563" 
d="M410 1004v-1004h-277v1004h277zM430 1290.5c0 -46.333 -14.666 -83.5 -43.999 -111.5s-69.333 -42 -120 -42c-46.667 0 -83.834 14 -111.501 42s-41.5 65.167 -41.5 111.5s14 83.5 42 111.5s65 42 111 42c50.667 0 90.667 -14 120 -42s44 -65.167 44 -111.5z" />
    <glyph glyph-name="j" unicode="j" horiz-adv-x="563" 
d="M133 -61l0.000976562 1065h277v-1086c0 -112 -28.667 -198 -86 -258s-138 -90 -242 -90c-30 0 -59.667 2.66699 -89 8s-51 10.666 -65 15.999l-20 7v245c34 -13.333 68 -20 102 -20c35.333 0 64.666 11 87.999 33s35 48.667 35 80zM430.001 1290.5
c0 -46.333 -14.666 -83.5 -43.999 -111.5s-69.333 -42 -120 -42c-46.667 0 -83.834 14 -111.501 42s-41.5 65.167 -41.5 111.5s14 83.5 42 111.5s65 42 111 42c50.667 0 90.667 -14 120 -42s44 -65.167 44 -111.5z" />
    <glyph glyph-name="k" unicode="k" horiz-adv-x="1116" 
d="M532 389l-122 -143v-246h-277v1434h277v-840l358 410h317l-378 -431l399 -573h-307z" />
    <glyph glyph-name="l" unicode="l" horiz-adv-x="563" 
d="M410 1434v-1434h-277v1434h277z" />
    <glyph glyph-name="m" unicode="m" horiz-adv-x="1792" 
d="M1372 0l-0.000976562 552.996c0 64 -15.333 114.167 -46 150.5s-70 54.5 -118 54.5c-53.333 0 -97.333 -20.833 -132 -62.5s-52 -99.5 -52 -173.5v-522h-276v553c0 64 -15.5 114.167 -46.5 150.5s-70.167 54.5 -117.5 54.5c-53.333 0 -97.5 -20.833 -132.5 -62.5
s-52.5 -99.5 -52.5 -173.5v-522h-276v1004h276v-123c6.66699 10.667 17 23.834 31 39.501s43.833 36.834 89.5 63.501s94.5 40 146.5 40c39.333 0 76.333 -6.16699 111 -18.5s62.334 -26.666 83.001 -42.999s38.5 -33 53.5 -50s25.167 -31.833 30.5 -44.5l8 -18
c2.66699 4 7.16699 10.167 13.5 18.5s20 22.333 41 42s43.5 37.334 67.5 53.001s55.5 29.667 94.5 42s79.5 18.5 121.5 18.5c110.667 0 198.167 -37.167 262.5 -111.5s96.5 -183.833 96.5 -328.5v-584h-277z" />
    <glyph glyph-name="n" unicode="n" horiz-adv-x="1218" 
d="M399 1004l-0.00292969 -123.002c8 10.667 19.333 23.834 34 39.501s46.834 36.834 96.501 63.501s101.834 40 156.501 40c114.667 0 208.167 -39.667 280.5 -119s108.5 -186.333 108.5 -321v-584h-276v553c0 61.333 -18.167 110.833 -54.5 148.5
s-83.166 56.5 -140.499 56.5c-62.667 0 -112.5 -20.5 -149.5 -61.5s-55.5 -99.167 -55.5 -174.5v-522h-276v1004h276z" />
    <glyph glyph-name="o" unicode="o" horiz-adv-x="1208" 
d="M348 501.5c0 -75 24.333 -138 73 -189s106.334 -76.5 173.001 -76.5s124.334 25.5 173.001 76.5s73 114 73 189s-24.333 138.167 -73 189.5s-106.334 77 -173.001 77s-124.334 -25.667 -173.001 -77s-73 -114.5 -73 -189.5zM1126 502
c0 -139.333 -52.833 -261.166 -158.5 -365.499s-230.167 -156.5 -373.5 -156.5s-268 52.167 -374 156.5s-159 226.166 -159 365.499s53 261.166 159 365.499s230.667 156.5 374 156.5s267.833 -52.167 373.5 -156.5s158.5 -226.166 158.5 -365.499z" />
    <glyph glyph-name="p" unicode="p" horiz-adv-x="1259" 
d="M696 -20c-57.333 0 -110.832 11.833 -160.499 35.5s-84.834 47.167 -105.501 70.5l-31 37v-553h-276v1434h276v-123c2.66699 4 6.83398 9 12.501 15s17.667 17.167 36 33.5s38.166 31 59.499 44s49 24.667 83 35s69.333 15.5 106 15.5c130 0 242.833 -50.5 338.5 -151.5
s143.5 -224.5 143.5 -370.5s-47.833 -269.5 -143.5 -370.5s-208.5 -151.5 -338.5 -151.5zM645.501 778c-68.333 0 -126.5 -25.833 -174.5 -77.5s-72 -117.834 -72 -198.501s24 -147 72 -199s106.167 -78 174.5 -78s126.333 26 174 78s71.5 118.333 71.5 199
s-23.833 146.834 -71.5 198.501s-105.667 77.5 -174 77.5z" />
    <glyph glyph-name="q" unicode="q" horiz-adv-x="1259" 
d="M543 -20c-130 0 -242.834 50.499 -338.501 151.499s-143.5 224.5 -143.5 370.5s47.833 269.5 143.5 370.5s208.5 151.5 338.5 151.5c57.333 0 110.833 -12 160.5 -36s84.834 -47.333 105.501 -70l31 -37v123h276v-1434h-276v553
c-2.66699 -4 -6.83398 -9.16699 -12.501 -15.5s-17.667 -17.666 -36 -33.999s-38.166 -31 -59.499 -44s-49 -24.5 -83 -34.5s-69.333 -15 -106 -15zM593.999 777.999c-68 0 -126 -25.833 -174 -77.5s-72 -117.834 -72 -198.501s24 -147 72 -199s106 -78 174 -78
s126 26 174 78s72 118.333 72 199s-24 146.834 -72 198.501s-106 77.5 -174 77.5z" />
    <glyph glyph-name="r" unicode="r" horiz-adv-x="757" 
d="M727 1014l-0.000976562 -277.001c-20.667 6.66699 -51.334 10.334 -92.001 11.001c-72.667 0 -130.167 -23 -172.5 -69s-63.5 -112 -63.5 -198v-481h-276v1004h276v-123c8 9.33301 19.333 21.5 34 36.5s46.834 34.833 96.501 59.5s101.834 37 156.501 37h41z" />
    <glyph glyph-name="s" unicode="s" horiz-adv-x="931" 
d="M819 870l-142.999 -162.999c-4 5.33301 -10.5 12.666 -19.5 21.999s-27.833 21.5 -56.5 36.5s-58 22.5 -88 22.5c-38 0 -68 -8.16699 -90 -24.5s-33 -35.166 -33 -56.499c0 -26 15.667 -47.667 47 -65s69.5 -32.833 114.5 -46.5s90.5 -30 136.5 -49
s84.667 -49.667 116 -92s47 -94.833 47 -157.5c0 -90 -35.5 -165.333 -106.5 -226s-168.5 -91 -292.5 -91c-53.333 0 -104 6.33301 -152 19s-87 28 -117 46s-56.167 35.833 -78.5 53.5s-38.5 32.5 -48.5 44.5l-14 21l154 153c5.33301 -8 13.833 -18.167 25.5 -30.5
s36.167 -29 73.5 -50s76 -31.5 116 -31.5c44 0 77.167 8.5 99.5 25.5s33.5 39.167 33.5 66.5s-15.667 50.166 -47 68.499s-70 34.333 -116 48s-91.5 30.167 -136.5 49.5s-83.167 49.333 -114.5 90s-47 92 -47 154c0 80.667 37.5 153.667 112.5 219s167.167 98 276.5 98
c69.333 0 133.166 -13 191.499 -39s98.833 -51.333 121.5 -76z" />
    <glyph glyph-name="t" unicode="t" horiz-adv-x="829" 
d="M246 1116l0.000976562 184h246v-317h204v-246h-204v-399c0 -31.333 11.5 -58 34.5 -80s52.167 -33 87.5 -33c18 0 35.5 1.83301 52.5 5.5s29.833 7.5 38.5 11.5l12 4v-236c-54.667 -20.667 -116.334 -30.667 -185.001 -30c-211.333 0 -317 116 -317 348v409h-174v246h92
c31.333 0 58 12.333 80 37s33 56.667 33 96z" />
    <glyph glyph-name="u" unicode="u" 
d="M799 0l0.00195312 102c-8 -9.33301 -19.333 -20.833 -34 -34.5s-46.834 -31.667 -96.501 -54s-101.834 -33.5 -156.501 -33.5c-114.667 0 -208.167 38.5 -280.5 115.5s-108.5 179.5 -108.5 307.5v601h276v-574c0 -56 18.5 -102.333 55.5 -139s83.5 -55 139.5 -55
c62.667 0 112.5 20.333 149.5 61s55.5 98.667 55.5 174v533h276v-1004h-276z" />
    <glyph glyph-name="v" unicode="v" horiz-adv-x="1064" 
d="M666 0h-287l-379 1004h287l235 -666l236 666h286z" />
    <glyph glyph-name="w" unicode="w" horiz-adv-x="1576" 
d="M676 1004h205l194 -605l195 605h286l-342 -1004h-241l-195 573l-194 -573h-242l-342 1004h287l194 -605z" />
    <glyph glyph-name="x" unicode="x" horiz-adv-x="1044" 
d="M512 317l-215 -317h-297l338 512l-318 492h308l184 -297l184 297h308l-318 -492l338 -512h-297z" />
    <glyph glyph-name="y" unicode="y" horiz-adv-x="1064" 
d="M358 -61l31 71.001l-389 994h287l235 -666l236 666h286l-399 -1065c-91.333 -246 -221 -369 -389 -369c-30 0 -59.667 2.66699 -89 8s-51 10.666 -65 15.999l-20 7v245c27.333 -13.333 61.333 -20 102 -20c83.333 0 141.333 37.667 174 113z" />
    <glyph glyph-name="z" unicode="z" horiz-adv-x="1024" 
d="M911 1004v-246l-491 -512h512v-246h-860v246l491 512h-471v246h819z" />
    <glyph glyph-name="braceleft" unicode="{" horiz-adv-x="808" 
d="M113 399v226.001c40.667 0 73 11.833 97 35.5s36 56.167 36 97.5v348c0 112 29.333 198 88 258s142 90 250 90h153v-246h-102c-35.333 0 -64.666 -11.833 -87.999 -35.5s-35 -54.834 -35 -93.501v-331c0 -38 -4.5 -72.167 -13.5 -102.5s-20 -53.333 -33 -69
s-26.167 -29 -39.5 -40s-24.333 -17.833 -33 -20.5l-14 -4c4 -1.33301 8.66699 -3 14 -5s16 -8.5 32 -19.5s29.667 -24.333 41 -40s21.833 -38.5 31.5 -68.5s14.5 -64.333 14.5 -103v-333c0 -38 11.667 -68.667 35 -92s52.666 -35 87.999 -35h102v-246h-153
c-108 0 -191.333 30 -250 90s-88 146 -88 258v348c0 40.667 -12 73 -36 97s-56.333 36 -97 36z" />
    <glyph glyph-name="bar" unicode="|" horiz-adv-x="768" 
d="M522 1454v-1884h-276v1884h276z" />
    <glyph glyph-name="braceright" unicode="}" horiz-adv-x="808" 
d="M696 625l-0.000976562 -226c-40.667 0 -73 -11.833 -97 -35.5s-36 -56.167 -36 -97.5v-348c0 -112 -29.333 -198 -88 -258s-142 -90 -250 -90h-153v246h102c35.333 0 64.666 11.5 87.999 34.5s35 53.833 35 92.5v333c0 38 4.5 72.167 13.5 102.5s20.333 53.333 34 69
s26.834 29 39.501 40s24 17.833 34 20.5l12 4c-4 1.33301 -8.66699 3 -14 5s-16 8.5 -32 19.5s-29.667 24.333 -41 40s-21.833 38.5 -31.5 68.5s-14.5 64.333 -14.5 103v331c0 38 -11.667 69 -35 93s-52.666 36 -87.999 36h-102v246h153c108 0 191.333 -30 250 -90
s88 -146 88 -258v-348c0 -40.667 12 -73 36 -97s56.333 -36 97 -36z" />
    <glyph glyph-name="asciitilde" unicode="~" horiz-adv-x="1157" 
d="M410 553c-36.667 0 -70.502 -8.49902 -101.502 -25.499s-52.5 -34.5 -64.5 -52.5l-19 -24l-164 112c2.66699 5.33301 6.16699 12.833 10.5 22.5s15.333 27.167 33 52.5s37.167 47.166 58.5 65.499s50.333 35.333 87 51s76.334 23.5 119.001 23.5
c69.333 0 139.833 -20.5 211.5 -61.5s127.5 -61.5 167.5 -61.5c36.667 0 70.334 8.66699 101.001 26s52 34.666 64 51.999l19 25l164 -113c-2.66699 -5.33301 -6.16699 -12.833 -10.5 -22.5s-15.333 -27.167 -33 -52.5s-37 -47.166 -58 -65.499s-50 -35.333 -87 -51
s-76.833 -23.5 -119.5 -23.5c-69.333 0 -139.833 20.5 -211.5 61.5s-127.167 61.5 -166.5 61.5z" />
    <glyph glyph-name="uni00A0" unicode="&#xa0;" horiz-adv-x="419" 
 />
    <glyph glyph-name="exclamdown" unicode="&#xa1;" horiz-adv-x="634" 
d="M205 594h225l51 -1024h-327zM154 870.5c0 41 16 76.833 48 107.5s70.5 46 115.5 46s83.5 -15.333 115.5 -46s48 -66.5 48 -107.5s-16 -76.833 -48 -107.5s-70.5 -46 -115.5 -46s-83.5 15.333 -115.5 46s-48 66.5 -48 107.5z" />
    <glyph glyph-name="cent" unicode="&#xa2;" horiz-adv-x="1044" 
d="M348 501.5c0 -75 25.667 -139.833 77 -194.5s111 -82 179 -82c42 0 80.5 9 115.5 27s59.5 35.667 73.5 53l20 27l170 -174c-8 -9.33301 -19.167 -21.666 -33.5 -36.999s-45.5 -38 -93.5 -68s-97.667 -51 -149 -63v-205h-246v205c-116 36.667 -211.667 101.167 -287 193.5
s-113 198.5 -113 318.5s37.667 225.667 113 317s171 153 287 185v204h246v-204c52 -12 100.167 -31.833 144.5 -59.5s75.833 -51.834 94.5 -72.501l27 -32l-164 -164c-4 8 -10.833 17.5 -20.5 28.5s-32.167 26 -67.5 45s-74.333 28.5 -117 28.5
c-68 0 -127.667 -27.333 -179 -82s-77 -119.5 -77 -194.5z" />
    <glyph glyph-name="sterling" unicode="&#xa3;" horiz-adv-x="1198" 
d="M246 983c0 143.333 44.9951 259.333 134.995 348s208.667 133 356 133c52 0 101.833 -6.83301 149.5 -20.5s87.334 -29.667 119.001 -48s59.334 -37 83.001 -56s41.167 -35.5 52.5 -49.5l16 -20l-205 -195c-5.33301 8 -13.166 17.5 -23.499 28.5
s-33.166 26.167 -68.499 45.5s-72.666 29 -111.999 29c-61.333 0 -112.666 -20.5 -153.999 -61.5s-62 -92.167 -62 -153.5v-175h359v-215h-359v-194c0 -22 -3.33301 -42.167 -10 -60.5s-13.334 -31.5 -20.001 -39.5l-10 -13h655v-266h-1024v266c82 0 123 37.667 123 113v194
h-123v215h123v195z" />
    <glyph glyph-name="currency" unicode="&#xa4;" horiz-adv-x="1423" 
d="M553 788h287c56 0 102.333 17.833 139 53.5s55 79.5 55 131.5c0 56 -18.333 102.333 -55 139s-83 55 -139 55h-287v-379zM840 543h-287v-113h430v-246h-430v-184h-307v184h-154v246h154v113h-154v245h154v646h598c143.333 0 262 -43.833 356 -131.5
s141 -194.167 141 -319.5s-46 -230 -138 -314s-213 -126 -363 -126z" />
    <glyph glyph-name="yen" unicode="&#xa5;" horiz-adv-x="1372" 
d="M1137 512h-297v-102h297v-215h-297v-195h-308v195h-296v215h296v102h-296v215h176l-392 707h328l338 -615l338 615h328l-394 -707h179v-215z" />
    <glyph glyph-name="brokenbar" unicode="&#xa6;" horiz-adv-x="768" 
d="M246 348h276v-778h-276v778zM522 676h-276v778h276v-778z" />
    <glyph glyph-name="section" unicode="&#xa7;" horiz-adv-x="1116" 
d="M942 1311l-143.002 -153.999c-48 48 -106 72 -174 72c-102.667 0 -154 -34.333 -154 -103c0 -30 18.833 -56.5 56.5 -79.5s82.667 -44.833 135 -65.5s105.166 -44.334 158.499 -71.001s98.833 -65.167 136.5 -115.5s56.5 -110.5 56.5 -180.5
c0 -34 -6.5 -66.667 -19.5 -98s-28.333 -56.5 -46 -75.5s-35.5 -36 -53.5 -51s-33.667 -26.167 -47 -33.5l-19 -8c4 -2.66699 9.5 -6 16.5 -10s19.333 -13.5 37 -28.5s33.334 -30.667 47.001 -47s26 -38.166 37 -65.499s16.5 -55.333 16.5 -84
c0 -96.667 -40.333 -179 -121 -247s-189 -102 -325 -102c-56 0 -109 7.16699 -159 21.5s-90.333 31.5 -121 51.5s-57.667 39.833 -81 59.5s-39.666 36.5 -48.999 50.5l-14 22l153 154c2.66699 -2.66699 6.16699 -7.16699 10.5 -13.5s14 -16.333 29 -30
s30.667 -25.834 47 -36.501s38.166 -20.5 65.499 -29.5s55.333 -13.5 84 -13.5c116 0 174 41 174 123c0 32.667 -19.833 61.667 -59.5 87s-87.5 48.166 -143.5 68.499s-112 43.833 -168 70.5s-103.833 65.334 -143.5 116.001s-59.5 110.667 -59.5 180
c0 34 6.5 66.833 19.5 98.5s28.5 57 46.5 76s35.833 36 53.5 51s32.5 25.167 44.5 30.5l21 10c-9.33301 6.66699 -21 16.167 -35 28.5s-32.167 39 -54.5 80s-33.5 83.5 -33.5 127.5c0 86 38.167 160.333 114.5 223s178.166 94 305.499 94c46.667 0 90.334 -5 131.001 -15
s74.334 -22.5 101.001 -37.5s49.834 -30.5 69.501 -46.5s34.5 -28.667 44.5 -38zM747.998 604.001c0 42 -22.333 79.501 -67 112.501s-88.667 54.833 -132 65.5l-68 17c-2.66699 0 -6.66699 -0.666992 -12 -2s-14.5 -5.5 -27.5 -12.5s-24.333 -15.333 -34 -25
s-18.5 -23.667 -26.5 -42s-12 -39.166 -12 -62.499c0 -42 22.167 -79.333 66.5 -112s88.833 -54.667 133.5 -66l66 -16c2.66699 1.33301 6.66699 2.66602 12 3.99902s14.5 5.66602 27.5 12.999s24.333 16.166 34 26.499s18.667 24.333 27 42s12.5 36.834 12.5 57.501z" />
    <glyph glyph-name="dieresis" unicode="&#xa8;" horiz-adv-x="880" 
d="M61 1300.5c0 41 15.5 76.833 46.5 107.5s66.833 46 107.5 46s76.5 -15.333 107.5 -46s46.5 -66.5 46.5 -107.5s-15.5 -76.833 -46.5 -107.5s-66.833 -46 -107.5 -46s-76.5 15.333 -107.5 46s-46.5 66.5 -46.5 107.5zM512 1300.5c0 41 15.333 76.833 46 107.5
s66.5 46 107.5 46s76.833 -15.333 107.5 -46s46 -66.5 46 -107.5s-15.333 -76.833 -46 -107.5s-66.5 -46 -107.5 -46s-76.833 15.333 -107.5 46s-46 66.5 -46 107.5z" />
    <glyph glyph-name="copyright" unicode="&#xa9;" horiz-adv-x="1781" 
d="M1475 716.5c0 158.333 -57.833 295.166 -173.5 410.499s-252.667 173 -411 173s-295.166 -57.667 -410.499 -173s-173 -252.166 -173 -410.499s57.667 -295.166 173 -410.499s252.166 -173 410.499 -173s295.333 57.667 411 173s173.5 252.166 173.5 410.499zM1659 717
c0 -206 -74.5 -382.167 -223.5 -528.5s-330.667 -219.5 -545 -219.5s-395.833 73.167 -544.5 219.5s-223 322.5 -223 528.5s74.333 382 223 528s330.167 219 544.5 219s396 -73 545 -219s223.5 -322 223.5 -528zM696 717c0 -57.333 22.1611 -107.501 66.4941 -150.501
s97.5 -64.5 159.5 -64.5c24.667 0 47.834 3.66699 69.501 11s39.334 16.5 53.001 27.5s25.334 22.333 35.001 34s16.5 20.834 20.5 27.501l6 12l133 -122c-2.66699 -4 -6.66699 -10.167 -12 -18.5s-18.333 -22.5 -39 -42.5s-42.667 -37.833 -66 -53.5
s-53.666 -29.667 -90.999 -42s-77.333 -18.5 -120 -18.5c-117.333 0 -214.833 38.333 -292.5 115s-116.5 171.667 -116.5 285s38.833 208.166 116.5 284.499s175.167 114.5 292.5 114.5c42 0 81.5 -5.5 118.5 -16.5s67.167 -24.667 90.5 -41s43.5 -32.666 60.5 -48.999
s29.167 -29.833 36.5 -40.5l12 -17l-123 -123c-4 8 -10.167 17.5 -18.5 28.5s-28.166 26.167 -59.499 45.5s-66.666 29 -105.999 29c-61.333 0 -114.333 -21.5 -159 -64.5s-67 -93.167 -67 -150.5z" />
    <glyph glyph-name="ordfeminine" unicode="&#xaa;" horiz-adv-x="747" 
d="M287 788c-65.333 0 -117.5 18.165 -156.5 54.498s-58.5 83.166 -58.5 140.499c0 46.667 19 88.334 57 125.001s88.667 60 152 70l200 30c0 22 -10.167 41.167 -30.5 57.5s-47.5 24.5 -81.5 24.5c-30 0 -58 -5 -84 -15s-44.667 -20 -56 -30l-14 -16l-113 102
c2.66699 2.66699 6.16699 7.16699 10.5 13.5s14.666 16.333 30.999 30s34.333 25.834 54 36.501s45.667 20.5 78 29.5s66.833 13.5 103.5 13.5c86 0 153.5 -23.833 202.5 -71.5s73.5 -112.5 73.5 -194.5v-379h-174v72c-4 -6.66699 -10.833 -15.167 -20.5 -25.5
s-31.167 -24.166 -64.5 -41.499s-69.666 -26 -108.999 -26zM481 1096l-152.999 -31.001c-20.667 -4 -37.834 -13.167 -51.501 -27.5s-20.5 -29.166 -20.5 -44.499c0 -16.667 7.5 -31 22.5 -43s34.833 -18 59.5 -18c35.333 0 68 15 98 45s45 62.667 45 98v21z" />
    <glyph glyph-name="guillemotleft" unicode="&#xab;" horiz-adv-x="1126" 
d="M604 850l-256 -358l256 -359h-266l-256 359l256 358h266zM1044 850l-256 -358l256 -359h-266l-256 359l256 358h266z" />
    <glyph glyph-name="logicalnot" unicode="&#xac;" horiz-adv-x="972" 
d="M901 840v-506h-256v260h-573v246h829z" />
    <glyph glyph-name="uni00AD" unicode="&#xad;" horiz-adv-x="880" 
d="M809 727v-246h-737v246h737z" />
    <glyph glyph-name="registered" unicode="&#xae;" horiz-adv-x="1781" 
d="M1075 635l174 -307.001h-205l-143 266h-102v-266h-195v778h338c75.333 0 140.333 -25.667 195 -77s82 -111 82 -179c0 -49.333 -12 -91.666 -36 -126.999s-48.333 -59.333 -73 -72zM799 931.999v-164h133c54.667 0 82 27.333 82 82s-27.333 82 -82 82h-133zM1475 716.499
c0 158.333 -57.833 295.166 -173.5 410.499s-252.667 173 -411 173s-295.166 -57.667 -410.499 -173s-173 -252.166 -173 -410.499s57.667 -295.166 173 -410.499s252.166 -173 410.499 -173s295.333 57.667 411 173s173.5 252.166 173.5 410.499zM1659 716.999
c0 -206 -74.5 -382.167 -223.5 -528.5s-330.667 -219.5 -545 -219.5s-395.833 73.167 -544.5 219.5s-223 322.5 -223 528.5s74.333 382 223 528s330.167 219 544.5 219s396 -73 545 -219s223.5 -322 223.5 -528z" />
    <glyph glyph-name="macron" unicode="&#xaf;" horiz-adv-x="778" 
d="M717 1464v-204h-656v204h656z" />
    <glyph glyph-name="degree" unicode="&#xb0;" horiz-adv-x="778" 
d="M266 1146.5c0 -41 11.333 -73.333 34 -97s52.334 -35.5 89.001 -35.5s66.334 11.833 89.001 35.5s34 56 34 97s-11.333 73.5 -34 97.5s-52.334 36 -89.001 36s-66.334 -12 -89.001 -36s-34 -56.5 -34 -97.5zM707 1147c0 -82 -31.5 -153.667 -94.5 -215
s-137.5 -92 -223.5 -92s-160.333 30.667 -223 92s-94 133 -94 215s31.333 153.667 94 215s137 92 223 92s160.5 -30.667 223.5 -92s94.5 -133 94.5 -215z" />
    <glyph glyph-name="plusminus" unicode="&#xb1;" horiz-adv-x="1075" 
d="M72 0v236h932v-236h-932zM655 348h-235v328h-348v256h348v328h235v-328h349v-256h-349v-328z" />
    <glyph glyph-name="uni00B2" unicode="&#xb2;" horiz-adv-x="675" 
d="M604 1413c0 -42 -11.5 -80.1719 -34.5 -114.505s-48.5 -60.666 -76.5 -78.999s-60.167 -39.166 -96.5 -62.499s-62.833 -43.666 -79.5 -60.999h277v-185h-522c0 62.667 11.167 118 33.5 166s49.666 85.667 81.999 113s64.5 51.833 96.5 73.5s59.167 43.834 81.5 66.501
s33.5 47 33.5 73c0 20.667 -7.5 37.834 -22.5 51.501s-34.833 20.5 -59.5 20.5c-18 0 -35.333 -6.83301 -52 -20.5s-29.334 -27.5 -38.001 -41.5l-12 -20l-154 53c1.33301 5.33301 3.83301 12.5 7.5 21.5s12.334 25.333 26.001 49s29.667 44.5 48 62.5
s44.833 34.167 79.5 48.5s73.334 21.5 116.001 21.5c80.667 0 145.167 -22.333 193.5 -67s72.5 -101 72.5 -169z" />
    <glyph glyph-name="uni00B3" unicode="&#xb3;" horiz-adv-x="686" 
d="M502 1300c2.66699 -1.33301 6.66992 -3.00293 12.0029 -5.00293s14.5 -7.66699 27.5 -17s24.333 -20.166 34 -32.499s18.5 -29.166 26.5 -50.499s12 -44.333 12 -69c0 -64 -24.833 -117.5 -74.5 -160.5s-116.834 -64.5 -201.501 -64.5c-39.333 0 -76.5 4.5 -111.5 13.5
s-62.667 20 -83 33s-38 26.333 -53 40s-25.5 24.5 -31.5 32.5l-8 14l113 113c4 -5.33301 9.83301 -12.833 17.5 -22.5s25 -22 52 -37s56.5 -22.5 88.5 -22.5c65.333 0 98 24 98 72c0 54.667 -37.667 82 -113 82h-71v153h71c54.667 0 82 17 82 51
c0 40.667 -27.333 61.334 -82 62.001c-22 0 -43.833 -5.83301 -65.5 -17.5s-37.834 -23.5 -48.501 -35.5l-19 -19l-102 113c2.66699 2.66699 6 7 10 13s13.833 15.833 29.5 29.5s32.667 26 51 37s42.666 21 72.999 30s61.833 13.5 94.5 13.5c78 0 141.5 -20.5 190.5 -61.5
s73.5 -88.833 73.5 -143.5c0 -30 -7.5 -57 -22.5 -81s-30.833 -40 -47.5 -48z" />
    <glyph glyph-name="acute" unicode="&#xb4;" horiz-adv-x="573" 
d="M61 1137l164 307h287l-225 -307h-226z" />
    <glyph glyph-name="mu" unicode="&#xb5;" horiz-adv-x="1218" 
d="M123 -430l0.000976562 1434h276v-564c0 -60 17.833 -109 53.5 -147s79.5 -57 131.5 -57c58.667 0 105.667 20.333 141 61s53 98.667 53 174v533h277v-707c0 -20.667 6.83301 -37.834 20.5 -51.501s30.5 -20.5 50.5 -20.5l41 11v-236
c-27.333 -13.333 -61.333 -20 -102 -20c-60 0 -110.5 12.833 -151.5 38.5s-66.833 50.834 -77.5 75.501l-17 39l-11 -16.5c-4.66699 -7 -16.667 -19.333 -36 -37s-39.833 -33.334 -61.5 -47.001s-51.334 -25.834 -89.001 -36.501s-77.5 -16 -119.5 -16
c-18 0 -35.5 1.66699 -52.5 5s-29.5 7 -37.5 11l-13 4v-430h-276z" />
    <glyph glyph-name="paragraph" unicode="&#xb6;" horiz-adv-x="1249" 
d="M430 -205v900.998c-96.667 0 -182.334 37.333 -257.001 112s-112 160.334 -112 257.001s37.333 182.334 112 257.001s160.334 112 257.001 112h666v-1639h-246v1372h-174v-1372h-246z" />
    <glyph glyph-name="periodcentered" unicode="&#xb7;" horiz-adv-x="409" 
d="M41 501.5c0 41 16 76.833 48 107.5s70.5 46 115.5 46s83.667 -15.333 116 -46s48.5 -66.5 48.5 -107.5s-16.167 -76.833 -48.5 -107.5s-71 -46 -116 -46s-83.5 15.333 -115.5 46s-48 66.5 -48 107.5z" />
    <glyph glyph-name="cedilla" unicode="&#xb8;" horiz-adv-x="573" 
d="M256 41h143l-71 -143c5.33301 0 12 -0.333008 20 -1s22.667 -4.16699 44 -10.5s40.166 -15 56.499 -26s31 -28.333 44 -52s19.5 -51.834 19.5 -84.501c0 -57.333 -20.167 -104.166 -60.5 -140.499s-95.166 -54.5 -164.499 -54.5c-40.667 0 -79.834 7.5 -117.501 22.5
s-65.5 30.833 -83.5 47.5l-25 22l62 113c40.667 -34 88.334 -51 143.001 -51c48 0 72 17 72 51s-24 51 -72 51l-51 -10l-51 61z" />
    <glyph glyph-name="uni00B9" unicode="&#xb9;" horiz-adv-x="471" 
d="M205 1638h164v-727h-195v482h-123v153c42 4 76.5 15.5 103.5 34.5s43.833 38.167 50.5 57.5z" />
    <glyph glyph-name="ordmasculine" unicode="&#xba;" horiz-adv-x="778" 
d="M246 1116.5c0 -45 13.667 -81.833 41 -110.5s61.5 -43 102.5 -43s75 14.333 102 43s40.5 65.5 40.5 110.5s-13.5 81.833 -40.5 110.5s-61 43 -102 43s-75.167 -14.333 -102.5 -43s-41 -65.5 -41 -110.5zM727 1116c0 -91.333 -33.167 -170.5 -99.5 -237.5
s-145.833 -100.5 -238.5 -100.5s-172.167 33.5 -238.5 100.5s-99.5 146.167 -99.5 237.5s33.167 170.5 99.5 237.5s145.833 100.5 238.5 100.5s172.167 -33.5 238.5 -100.5s99.5 -146.167 99.5 -237.5z" />
    <glyph glyph-name="guillemotright" unicode="&#xbb;" horiz-adv-x="1126" 
d="M778 492l-256 358h266l256 -358l-256 -359h-266zM338 492l-256 358h266l256 -358l-256 -359h-266z" />
    <glyph glyph-name="onequarter" unicode="&#xbc;" horiz-adv-x="1443" 
d="M133 0l891 1434h256l-891 -1434h-256zM225 1434l163.999 0.000976562v-727h-194v481h-123v153c42 4 76.333 15.667 103 35s43.334 38.666 50.001 57.999zM1321 727.001v-420h72v-174h-72v-133h-195v133h-327v174l317 420h205zM992.999 307.001h133v174z" />
    <glyph glyph-name="onehalf" unicode="&#xbd;" horiz-adv-x="1525" 
d="M133 0l891 1434h256l-891 -1434h-256zM225 1434l163.999 0.000976562v-727h-194v481h-123v153c42 4 76.333 15.667 103 35s43.334 38.666 50.001 57.999zM1454 502.001c0 -42 -11.667 -80.1689 -35 -114.502s-49 -60.666 -77 -78.999s-60 -39.166 -96 -62.499
s-62.333 -44 -79 -62h277v-184h-522c0 62.667 11.167 118 33.5 166s49.5 85.5 81.5 112.5s64.167 51.5 96.5 73.5s59.666 44.333 81.999 67s33.5 47 33.5 73c0 20.667 -7.5 37.667 -22.5 51s-34.833 20 -59.5 20c-18 0 -35.333 -6.83301 -52 -20.5
s-29.334 -27.167 -38.001 -40.5l-12 -21l-154 54c1.33301 5.33301 3.83301 12.333 7.5 21s12.334 25 26.001 49s29.667 44.833 48 62.5s44.833 33.667 79.5 48s73.334 21.5 116.001 21.5c80.667 0 145.167 -22.167 193.5 -66.5s72.5 -100.5 72.5 -168.5z" />
    <glyph glyph-name="threequarters" unicode="&#xbe;" horiz-adv-x="1566" 
d="M256 0l891 1434h256l-891 -1434h-256zM1444 727v-420h72v-174h-72v-133h-195v133h-327v174l317 420h205zM1116 307h133v174zM492 1096c2.66699 -1.33301 6.6709 -3.16992 12.0039 -5.50293s14.5 -8.16602 27.5 -17.499s24.333 -20.166 34 -32.499
s18.5 -29.166 26.5 -50.499s12 -44 12 -68c0 -64 -24.833 -117.667 -74.5 -161s-116.834 -65 -201.501 -65c-39.333 0 -76.5 4.5 -111.5 13.5s-62.833 20 -83.5 33s-38.5 26.333 -53.5 40s-25.167 24.5 -30.5 32.5l-8 14l113 113c4 -5.33301 9.66699 -12.833 17 -22.5
s24.666 -22 51.999 -37s56.666 -22.5 87.999 -22.5c65.333 0 98.333 24 99 72c0 54.667 -37.667 82 -113 82h-72v153h72c54.667 0 82 17.333 82 52c0 40.667 -27.333 61 -82 61c-22 0 -43.833 -5.83301 -65.5 -17.5s-38.834 -23.5 -51.501 -35.5l-16 -19l-103 113
c2.66699 2.66699 6.16699 7 10.5 13s14.333 15.833 30 29.5s32.667 26 51 37s42.5 21 72.5 30s61.333 13.5 94 13.5c78 0 141.667 -20.5 191 -61.5s74 -88.833 74 -143.5c0 -30 -7.83301 -57 -23.5 -81s-31.167 -40 -46.5 -48z" />
    <glyph glyph-name="questiondown" unicode="&#xbf;" horiz-adv-x="972" 
d="M717 502c0 -54.667 -11.9961 -103.164 -35.9961 -145.497s-53 -76.5 -87 -102.5s-68.167 -51 -102.5 -75s-63.333 -51.667 -87 -83s-35.5 -66.666 -35.5 -105.999c0 -42 17 -78.167 51 -108.5s78.333 -45.5 133 -45.5c57.333 0 106.5 13.667 147.5 41
s67.5 54.666 79.5 81.999l19 41l256 -113c-2.66699 -9.33301 -7.16699 -21.833 -13.5 -37.5s-22.833 -43.334 -49.5 -83.001s-57.334 -74.834 -92.001 -105.501s-83.834 -58.667 -147.501 -84s-133.5 -38 -209.5 -38c-144.667 0 -262.834 40.333 -354.501 121
s-137.5 177 -137.5 289c0 69.333 12.667 131 38 185s56.166 97.667 92.499 131s72.5 64.666 108.5 93.999s66.667 63.833 92 103.5s38 83.5 38 131.5h276c14 -34 21 -64.667 21 -92zM737.004 870.503c0 -41 -16 -76.833 -48 -107.5s-70.5 -46 -115.5 -46
s-83.5 15.333 -115.5 46s-48 66.5 -48 107.5s16 76.833 48 107.5s70.5 46 115.5 46s83.5 -15.333 115.5 -46s48 -66.5 48 -107.5z" />
    <glyph glyph-name="Agrave" unicode="&#xc0;" horiz-adv-x="1495" 
d="M922 604l-174 471l-175 -471h349zM1024 338h-553l-123 -338h-328l564 1434h327l564 -1434h-328zM686 1915l164 -307h-225l-226 307h287z" />
    <glyph glyph-name="Aacute" unicode="&#xc1;" horiz-adv-x="1495" 
d="M922 604l-174 471l-175 -471h349zM1024 338h-553l-123 -338h-328l564 1434h327l564 -1434h-328zM645 1608l164 307h287l-226 -307h-225z" />
    <glyph glyph-name="Acircumflex" unicode="&#xc2;" horiz-adv-x="1495" 
d="M922 604l-174 471l-175 -471h349zM1024 338h-553l-123 -338h-328l564 1434h327l564 -1434h-328zM860 1915l246 -307h-246l-123 164l-123 -164h-245l245 307h246z" />
    <glyph glyph-name="Atilde" unicode="&#xc3;" horiz-adv-x="1495" 
d="M922 604l-174 471l-175 -471h349zM1024 338h-553l-123 -338h-328l564 1434h327l564 -1434h-328zM891 1597c-52 0 -102.832 17.166 -152.499 51.499s-87.5 51.5 -113.5 51.5c-48 0 -72 -34.333 -72 -103h-174c0 104 19.833 181.333 59.5 232s92.834 76 159.501 76
c39.333 0 75.166 -9.66699 107.499 -29s60.666 -38.166 84.999 -56.499s47.5 -27.5 69.5 -27.5c48 0 72 37.667 72 113h174c0 -102.667 -19.5 -179.667 -58.5 -231s-91.167 -77 -156.5 -77z" />
    <glyph glyph-name="Adieresis" unicode="&#xc4;" horiz-adv-x="1495" 
d="M922 604l-174 471l-175 -471h349zM1024 338h-553l-123 -338h-328l564 1434h327l564 -1434h-328zM379 1751c0 40.667 15.333 76.5 46 107.5s66.5 46.5 107.5 46.5s76.833 -15.5 107.5 -46.5s46 -66.833 46 -107.5s-15.333 -76.5 -46 -107.5s-66.5 -46.5 -107.5 -46.5
s-76.833 15.5 -107.5 46.5s-46 66.833 -46 107.5zM829 1751c0 40.667 15.5 76.5 46.5 107.5s66.833 46.5 107.5 46.5s76.5 -15.5 107.5 -46.5s46.5 -66.833 46.5 -107.5s-15.5 -76.5 -46.5 -107.5s-66.833 -46.5 -107.5 -46.5s-76.5 15.5 -107.5 46.5
s-46.5 66.833 -46.5 107.5z" />
    <glyph glyph-name="Aring" unicode="&#xc5;" horiz-adv-x="1495" 
d="M922 604l-174 471l-175 -471h349zM1024 338h-553l-123 -338h-328l564 1434h327l564 -1434h-328zM676 1771.5c0 -54.333 27.333 -81.5 82 -81.5s82 27.167 82 81.5s-27.333 81.5 -82 81.5s-82 -27.167 -82 -81.5zM993 1771.5c0 -61.667 -22.833 -114.667 -68.5 -159
s-101.334 -66.5 -167.001 -66.5s-121.334 22.167 -167.001 66.5s-68.5 97.333 -68.5 159s22.833 114.667 68.5 159s101.334 66.5 167.001 66.5s121.334 -22.167 167.001 -66.5s68.5 -97.333 68.5 -159z" />
    <glyph glyph-name="AE" unicode="&#xc6;" horiz-adv-x="2048" 
d="M-61 0l798 1434h1198v-267h-675v-307h512v-256h-512v-338h696v-266h-1004v348h-501l-185 -348h-327zM901 1167l-307 -553h358v553h-51z" />
    <glyph glyph-name="Ccedilla" unicode="&#xc7;" horiz-adv-x="1546" 
d="M881 1464c75.333 0 146.999 -9.83398 214.999 -29.501s123.833 -43.5 167.5 -71.5s82.334 -56 116.001 -84s57.834 -51.667 72.501 -71l23 -30l-195 -195c-4 5.33301 -9.5 12.833 -16.5 22.5s-22.667 26.167 -47 49.5s-50.833 43.833 -79.5 61.5s-66.334 34 -113.001 49
s-94.334 22.5 -143.001 22.5c-134 0 -246 -45 -336 -135s-135 -202 -135 -336s45 -246 135 -336s202 -135 336 -135c52 0 101.833 7.16699 149.5 21.5s87.167 31.333 118.5 51s59 39.5 83 59.5s41.333 37.333 52 52l16 21l185 -195
c-5.33301 -6.66699 -13.166 -16.167 -23.499 -28.5s-33.333 -34.166 -69 -65.499s-73.5 -59.333 -113.5 -84s-92.833 -48 -158.5 -70s-133.167 -34.333 -202.5 -37l-37 -73c5.33301 0 12 -0.333008 20 -1s22.667 -4.16699 44 -10.5s40.166 -15 56.499 -26s31 -28.333 44 -52
s19.5 -51.834 19.5 -84.501c0 -57.333 -20.167 -104.166 -60.5 -140.499s-95.166 -54.5 -164.499 -54.5c-40.667 0 -79.834 7.5 -117.501 22.5s-65.5 30.833 -83.5 47.5l-25 22l62 113c40.667 -34 88.334 -51 143.001 -51c48 0 72 17 72 51s-24 51 -72 51l-51 -10l-51 61
l61 139c-194 23.333 -355.167 105.333 -483.5 246s-192.5 306 -192.5 496c0 206 75.167 382 225.5 528s334.833 219 553.5 219z" />
    <glyph glyph-name="Egrave" unicode="&#xc8;" horiz-adv-x="1361" 
d="M492 276h768v-276h-1076v1434h1055v-277h-747v-287h583v-276h-583v-318zM686 1915l164 -307h-225l-226 307h287z" />
    <glyph glyph-name="Eacute" unicode="&#xc9;" horiz-adv-x="1361" 
d="M492 276h768v-276h-1076v1434h1055v-277h-747v-287h583v-276h-583v-318zM604 1608l164 307h287l-226 -307h-225z" />
    <glyph glyph-name="Ecircumflex" unicode="&#xca;" horiz-adv-x="1361" 
d="M492 276h768v-276h-1076v1434h1055v-277h-747v-287h583v-276h-583v-318zM829 1915l246 -307h-246l-122 164l-123 -164h-246l246 307h245z" />
    <glyph glyph-name="Edieresis" unicode="&#xcb;" horiz-adv-x="1361" 
d="M492 276h768v-276h-1076v1434h1055v-277h-747v-287h583v-276h-583v-318zM348 1751c0 40.667 15.333 76.5 46 107.5s66.5 46.5 107.5 46.5s76.833 -15.5 107.5 -46.5s46 -66.833 46 -107.5s-15.333 -76.5 -46 -107.5s-66.5 -46.5 -107.5 -46.5s-76.833 15.5 -107.5 46.5
s-46 66.833 -46 107.5zM799 1751c0 40.667 15.333 76.5 46 107.5s66.5 46.5 107.5 46.5s76.833 -15.5 107.5 -46.5s46 -66.833 46 -107.5s-15.333 -76.5 -46 -107.5s-66.5 -46.5 -107.5 -46.5s-76.833 15.5 -107.5 46.5s-46 66.833 -46 107.5z" />
    <glyph glyph-name="Igrave" unicode="&#xcc;" horiz-adv-x="675" 
d="M184 0v1434h308v-1434h-308zM287 1915l164 -307h-226l-225 307h287z" />
    <glyph glyph-name="Iacute" unicode="&#xcd;" horiz-adv-x="675" 
d="M184 0v1434h308v-1434h-308zM225 1608l164 307h287l-225 -307h-226z" />
    <glyph glyph-name="Icircumflex" unicode="&#xce;" horiz-adv-x="675" 
d="M184 0v1434h308v-1434h-308zM459 1915l246 -307h-246l-123 164l-123 -164h-246l246 307h246z" />
    <glyph glyph-name="Idieresis" unicode="&#xcf;" horiz-adv-x="675" 
d="M184 0v1434h308v-1434h-308zM-41 1751c0 40.667 15.333 76.5 46 107.5s66.5 46.5 107.5 46.5s76.833 -15.5 107.5 -46.5s46 -66.833 46 -107.5s-15.333 -76.5 -46 -107.5s-66.5 -46.5 -107.5 -46.5s-76.833 15.5 -107.5 46.5s-46 66.833 -46 107.5zM410 1751
c0 40.667 15.333 76.5 46 107.5s66.5 46.5 107.5 46.5s76.833 -15.5 107.5 -46.5s46 -66.833 46 -107.5s-15.333 -76.5 -46 -107.5s-66.5 -46.5 -107.5 -46.5s-76.833 15.5 -107.5 46.5s-46 66.833 -46 107.5z" />
    <glyph glyph-name="Eth" unicode="&#xd0;" horiz-adv-x="1597" 
d="M225 1434l533 0.00195312c208.667 0 383.667 -69.333 525 -208s212 -308.334 212 -509.001s-70.667 -370.334 -212 -509.001s-316.333 -208 -525 -208h-533v594h-174v246h174v594zM758 1157h-226v-317h277v-246h-277v-318h226c118.667 0 220 42.667 304 128
s126 189.5 126 312.5s-41 227.167 -123 312.5s-184.333 128 -307 128z" />
    <glyph glyph-name="Ntilde" unicode="&#xd1;" horiz-adv-x="1648" 
d="M1157 1434h307v-1434h-266l-706 911v-911h-308v1434h267l706 -912v912zM973 1597c-52 0 -102.999 17.166 -152.999 51.499s-87.667 51.5 -113 51.5c-48 0 -72 -34.333 -72 -103h-174c0 104 19.833 181.333 59.5 232s92.834 76 159.501 76
c39.333 0 75.166 -9.66699 107.499 -29s60.666 -38.166 84.999 -56.499s47.5 -27.5 69.5 -27.5c48 0 72 37.667 72 113h174c0 -102.667 -19.5 -179.667 -58.5 -231s-91.167 -77 -156.5 -77z" />
    <glyph glyph-name="Ograve" unicode="&#xd2;" horiz-adv-x="1761" 
d="M420 716.5c0 -132.333 44.667 -243.833 134 -334.5s198.166 -136 326.499 -136s237.166 45.333 326.499 136s134 202.167 134 334.5s-44.667 244 -134 335s-198.166 136.5 -326.499 136.5s-237.166 -45.5 -326.499 -136.5s-134 -202.667 -134 -335zM102 717
c0 206 75.167 382 225.5 528s334.666 219 552.999 219s402.666 -73 552.999 -219s225.5 -322 225.5 -528s-75.167 -382.167 -225.5 -528.5s-334.666 -219.5 -552.999 -219.5s-402.666 73.167 -552.999 219.5s-225.5 322.5 -225.5 528.5zM829 1915l164 -307h-225l-225 307
h286z" />
    <glyph glyph-name="Oacute" unicode="&#xd3;" horiz-adv-x="1761" 
d="M420 716.5c0 -132.333 44.667 -243.833 134 -334.5s198.166 -136 326.499 -136s237.166 45.333 326.499 136s134 202.167 134 334.5s-44.667 244 -134 335s-198.166 136.5 -326.499 136.5s-237.166 -45.5 -326.499 -136.5s-134 -202.667 -134 -335zM102 717
c0 206 75.167 382 225.5 528s334.666 219 552.999 219s402.666 -73 552.999 -219s225.5 -322 225.5 -528s-75.167 -382.167 -225.5 -528.5s-334.666 -219.5 -552.999 -219.5s-402.666 73.167 -552.999 219.5s-225.5 322.5 -225.5 528.5zM778 1608l164 307h287l-225 -307
h-226z" />
    <glyph glyph-name="Ocircumflex" unicode="&#xd4;" horiz-adv-x="1761" 
d="M420 716.5c0 -132.333 44.667 -243.833 134 -334.5s198.166 -136 326.499 -136s237.166 45.333 326.499 136s134 202.167 134 334.5s-44.667 244 -134 335s-198.166 136.5 -326.499 136.5s-237.166 -45.5 -326.499 -136.5s-134 -202.667 -134 -335zM102 717
c0 206 75.167 382 225.5 528s334.666 219 552.999 219s402.666 -73 552.999 -219s225.5 -322 225.5 -528s-75.167 -382.167 -225.5 -528.5s-334.666 -219.5 -552.999 -219.5s-402.666 73.167 -552.999 219.5s-225.5 322.5 -225.5 528.5zM993 1915l246 -307h-246l-123 164
l-122 -164h-246l246 307h245z" />
    <glyph glyph-name="Otilde" unicode="&#xd5;" horiz-adv-x="1761" 
d="M420 716.5c0 -132.333 44.667 -243.833 134 -334.5s198.166 -136 326.499 -136s237.166 45.333 326.499 136s134 202.167 134 334.5s-44.667 244 -134 335s-198.166 136.5 -326.499 136.5s-237.166 -45.5 -326.499 -136.5s-134 -202.667 -134 -335zM102 717
c0 206 75.167 382 225.5 528s334.666 219 552.999 219s402.666 -73 552.999 -219s225.5 -322 225.5 -528s-75.167 -382.167 -225.5 -528.5s-334.666 -219.5 -552.999 -219.5s-402.666 73.167 -552.999 219.5s-225.5 322.5 -225.5 528.5zM1034 1597
c-52 0 -102.833 17.166 -152.5 51.499s-87.5 51.5 -113.5 51.5c-48 0 -72 -34.333 -72 -103h-174c0 104 19.833 181.333 59.5 232s92.834 76 159.501 76c39.333 0 75.166 -9.66699 107.499 -29s60.833 -38.166 85.5 -56.499s48 -27.5 70 -27.5c48 0 71.667 37.667 71 113
h174c0 -102.667 -19.5 -179.667 -58.5 -231s-91.167 -77 -156.5 -77z" />
    <glyph glyph-name="Odieresis" unicode="&#xd6;" horiz-adv-x="1761" 
d="M420 716.5c0 -132.333 44.667 -243.833 134 -334.5s198.166 -136 326.499 -136s237.166 45.333 326.499 136s134 202.167 134 334.5s-44.667 244 -134 335s-198.166 136.5 -326.499 136.5s-237.166 -45.5 -326.499 -136.5s-134 -202.667 -134 -335zM102 717
c0 206 75.167 382 225.5 528s334.666 219 552.999 219s402.666 -73 552.999 -219s225.5 -322 225.5 -528s-75.167 -382.167 -225.5 -528.5s-334.666 -219.5 -552.999 -219.5s-402.666 73.167 -552.999 219.5s-225.5 322.5 -225.5 528.5zM502 1751
c0 40.667 15.333 76.5 46 107.5s66.5 46.5 107.5 46.5s76.833 -15.5 107.5 -46.5s46 -66.833 46 -107.5s-15.333 -76.5 -46 -107.5s-66.5 -46.5 -107.5 -46.5s-76.833 15.5 -107.5 46.5s-46 66.833 -46 107.5zM952 1751c0 40.667 15.333 76.5 46 107.5s66.5 46.5 107.5 46.5
s77 -15.5 108 -46.5s46.5 -66.833 46.5 -107.5s-15.5 -76.5 -46.5 -107.5s-67 -46.5 -108 -46.5s-76.833 15.5 -107.5 46.5s-46 66.833 -46 107.5z" />
    <glyph glyph-name="multiply" unicode="&#xd7;" horiz-adv-x="1003" 
d="M666 635l266 -266l-164 -164l-266 266l-266 -266l-164 164l266 266l-266 266l164 164l266 -266l266 266l164 -164z" />
    <glyph glyph-name="Oslash" unicode="&#xd8;" horiz-adv-x="1761" 
d="M481 481l645 635c-68 48 -149.667 72 -245 72c-128.667 0 -237.667 -45.5 -327 -136.5s-134 -202.5 -134 -334.5c0 -45.333 5.16699 -87.833 15.5 -127.5s20.833 -67.5 31.5 -83.5zM1341 717c0 45.333 -5 87.666 -15 126.999s-20.667 67.333 -32 84l-14 24l-645 -635
c68 -48 150 -71.667 246 -71c128.667 0 237.5 45.333 326.5 136s133.5 202.334 133.5 335.001zM1659 717c0 -206 -75.166 -382.166 -225.499 -528.499s-334.5 -219.5 -552.5 -219.5c-82 0 -161.333 12 -238 36s-132.667 48.333 -168 73l-55 35l-174 -174l-164 163l174 174
c-4 4 -9.5 10.5 -16.5 19.5s-19.333 27.833 -37 56.5s-33.334 58.667 -47.001 90s-26 72 -37 122s-16.5 101 -16.5 153c0 206 75.167 382 225.5 528s334.833 219 553.5 219c82 0 161.167 -11.833 237.5 -35.5s132.166 -47.834 167.499 -72.501l55 -35l175 174l163 -164
l-174 -174c4 -4 9.5 -10.5 16.5 -19.5s19.333 -27.833 37 -56.5s33.334 -58.667 47.001 -90s26 -71.833 37 -121.5s16.5 -100.5 16.5 -152.5z" />
    <glyph glyph-name="Ugrave" unicode="&#xd9;" horiz-adv-x="1597" 
d="M799 246c87.333 0 162.001 32.333 224.001 97s93 145 93 241v850h307v-850c0 -174.667 -59.333 -320.834 -178 -438.501s-267.5 -176.5 -446.5 -176.5s-327.833 58.833 -446.5 176.5s-178 263.834 -178 438.501v850h307v-850c0 -95.333 31.167 -175.5 93.5 -240.5
s137.166 -97.5 224.499 -97.5zM778.001 1915l164 -307h-225l-225 307h286z" />
    <glyph glyph-name="Uacute" unicode="&#xda;" horiz-adv-x="1597" 
d="M799 246c87.333 0 162.001 32.333 224.001 97s93 145 93 241v850h307v-850c0 -174.667 -59.333 -320.834 -178 -438.501s-267.5 -176.5 -446.5 -176.5s-327.833 58.833 -446.5 176.5s-178 263.834 -178 438.501v850h307v-850c0 -95.333 31.167 -175.5 93.5 -240.5
s137.166 -97.5 224.499 -97.5zM686.001 1608l164 307h287l-226 -307h-225z" />
    <glyph glyph-name="Ucircumflex" unicode="&#xdb;" horiz-adv-x="1597" 
d="M799 246c87.333 0 162.001 32.333 224.001 97s93 145 93 241v850h307v-850c0 -174.667 -59.333 -320.834 -178 -438.501s-267.5 -176.5 -446.5 -176.5s-327.833 58.833 -446.5 176.5s-178 263.834 -178 438.501v850h307v-850c0 -95.333 31.167 -175.5 93.5 -240.5
s137.166 -97.5 224.499 -97.5zM922.001 1915l245 -307h-245l-123 164l-123 -164h-246l246 307h246z" />
    <glyph glyph-name="Udieresis" unicode="&#xdc;" horiz-adv-x="1597" 
d="M799 246c87.333 0 162.001 32.333 224.001 97s93 145 93 241v850h307v-850c0 -174.667 -59.333 -320.834 -178 -438.501s-267.5 -176.5 -446.5 -176.5s-327.833 58.833 -446.5 176.5s-178 263.834 -178 438.501v850h307v-850c0 -95.333 31.167 -175.5 93.5 -240.5
s137.166 -97.5 224.499 -97.5zM430.001 1751c0 40.667 15.333 76.5 46 107.5s66.5 46.5 107.5 46.5s76.833 -15.5 107.5 -46.5s46 -66.833 46 -107.5s-15.333 -76.5 -46 -107.5s-66.5 -46.5 -107.5 -46.5s-76.833 15.5 -107.5 46.5s-46 66.833 -46 107.5zM881.001 1751
c0 40.667 15.333 76.5 46 107.5s66.5 46.5 107.5 46.5s76.833 -15.5 107.5 -46.5s46 -66.833 46 -107.5s-15.333 -76.5 -46 -107.5s-66.5 -46.5 -107.5 -46.5s-76.833 15.5 -107.5 46.5s-46 66.833 -46 107.5z" />
    <glyph glyph-name="Yacute" unicode="&#xdd;" horiz-adv-x="1372" 
d="M348 1434l338 -615l338 615h328l-512 -922v-512h-308v512l-512 922h328zM584 1608l164 307h286l-225 -307h-225z" />
    <glyph glyph-name="Thorn" unicode="&#xde;" horiz-adv-x="1372" 
d="M492 1321h142.999c186 0 340 -57 462 -171s183 -251.5 183 -412.5s-61.167 -298.5 -183.5 -412.5s-276.166 -171 -461.499 -171h-143v-195h-308v1516h308v-154zM491.999 1055v-635h112c120 0 211.5 28 274.5 84s94.5 133.833 94.5 233.5s-31.5 177.5 -94.5 233.5
s-154.5 84 -274.5 84h-112z" />
    <glyph glyph-name="germandbls" unicode="&#xdf;" horiz-adv-x="1249" 
d="M901 788l27.5 -11.001c11.667 -4.66699 32.167 -17.167 61.5 -37.5s55.333 -42.833 78 -67.5s43.167 -58.834 61.5 -102.501s27.5 -90.167 27.5 -139.5c0 -120 -45.333 -221.667 -136 -305s-207.667 -125 -351 -125h-97v266h103c54.667 0 100.667 17.5 138 52.5
s56 75.5 56 121.5c0 52 -18.333 95.833 -55 131.5s-83 53.5 -139 53.5h-103v256h21c54.667 0 99 15 133 45s51 66 51 108c0 46.667 -18 87.334 -54 122.001s-79.333 52 -130 52c-52 0 -95.667 -18.333 -131 -55s-53 -83 -53 -139v-1014h-277v1014
c0 130 43 235.833 129 317.5s200 122.5 342 122.5c130 0 237.667 -38.5 323 -115.5s128 -168.167 128 -273.5c0 -36.667 -5.16699 -71.167 -15.5 -103.5s-23 -58.666 -38 -78.999s-30.333 -38 -46 -53s-28.167 -25.167 -37.5 -30.5z" />
    <glyph glyph-name="agrave" unicode="&#xe0;" horiz-adv-x="1095" 
d="M676 0l-0.00390625 102c-8 -9.33301 -19.167 -20.833 -33.5 -34.5s-45.5 -31.667 -93.5 -54s-98 -33.5 -150 -33.5c-100 0 -181.333 27.833 -244 83.5s-94 123.167 -94 202.5c0 82 26.333 150.333 79 205s125.334 90.334 218.001 107.001l318 57
c0 42 -15.333 76.333 -46 103s-73.334 40 -128.001 40c-45.333 0 -86.666 -8.5 -123.999 -25.5s-63.666 -34.5 -78.999 -52.5l-23 -24l-153 153c4 5.33301 9.5 12.5 16.5 21.5s22.667 24.5 47 46.5s50.833 41.5 79.5 58.5s66.334 32.667 113.001 47
s94.334 21.5 143.001 21.5c126.667 0 230 -37.833 310 -113.5s120 -170.834 120 -285.501v-625h-276zM470.996 205c62.667 0 112.5 19.832 149.5 59.499s55.5 94.834 55.5 165.501v31l-225 -41c-75.333 -12 -113 -49.667 -113 -113c0 -68 44.333 -102 133 -102z
M511.996 1444l164 -307h-225l-226 307h287z" />
    <glyph glyph-name="aacute" unicode="&#xe1;" horiz-adv-x="1095" 
d="M676 0l-0.00390625 102c-8 -9.33301 -19.167 -20.833 -33.5 -34.5s-45.5 -31.667 -93.5 -54s-98 -33.5 -150 -33.5c-100 0 -181.333 27.833 -244 83.5s-94 123.167 -94 202.5c0 82 26.333 150.333 79 205s125.334 90.334 218.001 107.001l318 57
c0 42 -15.333 76.333 -46 103s-73.334 40 -128.001 40c-45.333 0 -86.666 -8.5 -123.999 -25.5s-63.666 -34.5 -78.999 -52.5l-23 -24l-153 153c4 5.33301 9.5 12.5 16.5 21.5s22.667 24.5 47 46.5s50.833 41.5 79.5 58.5s66.334 32.667 113.001 47
s94.334 21.5 143.001 21.5c126.667 0 230 -37.833 310 -113.5s120 -170.834 120 -285.501v-625h-276zM470.996 205c62.667 0 112.5 19.832 149.5 59.499s55.5 94.834 55.5 165.501v31l-225 -41c-75.333 -12 -113 -49.667 -113 -113c0 -68 44.333 -102 133 -102z
M439.996 1137l164 307h287l-225 -307h-226z" />
    <glyph glyph-name="acircumflex" unicode="&#xe2;" horiz-adv-x="1095" 
d="M676 0l-0.00390625 102c-8 -9.33301 -19.167 -20.833 -33.5 -34.5s-45.5 -31.667 -93.5 -54s-98 -33.5 -150 -33.5c-100 0 -181.333 27.833 -244 83.5s-94 123.167 -94 202.5c0 82 26.333 150.333 79 205s125.334 90.334 218.001 107.001l318 57
c0 42 -15.333 76.333 -46 103s-73.334 40 -128.001 40c-45.333 0 -86.666 -8.5 -123.999 -25.5s-63.666 -34.5 -78.999 -52.5l-23 -24l-153 153c4 5.33301 9.5 12.5 16.5 21.5s22.667 24.5 47 46.5s50.833 41.5 79.5 58.5s66.334 32.667 113.001 47
s94.334 21.5 143.001 21.5c126.667 0 230 -37.833 310 -113.5s120 -170.834 120 -285.501v-625h-276zM470.996 205c62.667 0 112.5 19.832 149.5 59.499s55.5 94.834 55.5 165.501v31l-225 -41c-75.333 -12 -113 -49.667 -113 -113c0 -68 44.333 -102 133 -102z
M675.996 1444l246 -307h-246l-123 163l-123 -163h-246l246 307h246z" />
    <glyph glyph-name="atilde" unicode="&#xe3;" horiz-adv-x="1095" 
d="M676 0l-0.00390625 102c-8 -9.33301 -19.167 -20.833 -33.5 -34.5s-45.5 -31.667 -93.5 -54s-98 -33.5 -150 -33.5c-100 0 -181.333 27.833 -244 83.5s-94 123.167 -94 202.5c0 82 26.333 150.333 79 205s125.334 90.334 218.001 107.001l318 57
c0 42 -15.333 76.333 -46 103s-73.334 40 -128.001 40c-45.333 0 -86.666 -8.5 -123.999 -25.5s-63.666 -34.5 -78.999 -52.5l-23 -24l-153 153c4 5.33301 9.5 12.5 16.5 21.5s22.667 24.5 47 46.5s50.833 41.5 79.5 58.5s66.334 32.667 113.001 47
s94.334 21.5 143.001 21.5c126.667 0 230 -37.833 310 -113.5s120 -170.834 120 -285.501v-625h-276zM470.996 205c62.667 0 112.5 19.832 149.5 59.499s55.5 94.834 55.5 165.501v31l-225 -41c-75.333 -12 -113 -49.667 -113 -113c0 -68 44.333 -102 133 -102z
M716.996 1126c-52 0 -103 17.167 -153 51.5s-87.667 51.5 -113 51.5c-48 0 -72 -34.333 -72 -103h-174c0 104 19.833 181.333 59.5 232s92.834 76 159.501 76c50.667 0 101.167 -18.833 151.5 -56.5s87.166 -56.5 110.499 -56.5c48 0 72 37.667 72 113h174
c0 -102.667 -19.5 -179.667 -58.5 -231s-91.167 -77 -156.5 -77z" />
    <glyph glyph-name="adieresis" unicode="&#xe4;" horiz-adv-x="1095" 
d="M676 0l-0.00390625 102c-8 -9.33301 -19.167 -20.833 -33.5 -34.5s-45.5 -31.667 -93.5 -54s-98 -33.5 -150 -33.5c-100 0 -181.333 27.833 -244 83.5s-94 123.167 -94 202.5c0 82 26.333 150.333 79 205s125.334 90.334 218.001 107.001l318 57
c0 42 -15.333 76.333 -46 103s-73.334 40 -128.001 40c-45.333 0 -86.666 -8.5 -123.999 -25.5s-63.666 -34.5 -78.999 -52.5l-23 -24l-153 153c4 5.33301 9.5 12.5 16.5 21.5s22.667 24.5 47 46.5s50.833 41.5 79.5 58.5s66.334 32.667 113.001 47
s94.334 21.5 143.001 21.5c126.667 0 230 -37.833 310 -113.5s120 -170.834 120 -285.501v-625h-276zM470.996 205c62.667 0 112.5 19.832 149.5 59.499s55.5 94.834 55.5 165.501v31l-225 -41c-75.333 -12 -113 -49.667 -113 -113c0 -68 44.333 -102 133 -102z
M194.996 1280c0 40.667 15.333 76.5 46 107.5s66.5 46.5 107.5 46.5s76.833 -15.5 107.5 -46.5s46 -66.833 46 -107.5s-15.333 -76.5 -46 -107.5s-66.5 -46.5 -107.5 -46.5s-76.833 15.5 -107.5 46.5s-46 66.833 -46 107.5zM644.996 1280c0 40.667 15.333 76.5 46 107.5
s66.5 46.5 107.5 46.5s76.833 -15.5 107.5 -46.5s46 -66.833 46 -107.5s-15.333 -76.5 -46 -107.5s-66.5 -46.5 -107.5 -46.5s-76.833 15.5 -107.5 46.5s-46 66.833 -46 107.5z" />
    <glyph glyph-name="aring" unicode="&#xe5;" horiz-adv-x="1095" 
d="M676 0l-0.00390625 102c-8 -9.33301 -19.167 -20.833 -33.5 -34.5s-45.5 -31.667 -93.5 -54s-98 -33.5 -150 -33.5c-100 0 -181.333 27.833 -244 83.5s-94 123.167 -94 202.5c0 82 26.333 150.333 79 205s125.334 90.334 218.001 107.001l318 57
c0 42 -15.333 76.333 -46 103s-73.334 40 -128.001 40c-45.333 0 -86.666 -8.5 -123.999 -25.5s-63.666 -34.5 -78.999 -52.5l-23 -24l-153 153c4 5.33301 9.5 12.5 16.5 21.5s22.667 24.5 47 46.5s50.833 41.5 79.5 58.5s66.334 32.667 113.001 47
s94.334 21.5 143.001 21.5c126.667 0 230 -37.833 310 -113.5s120 -170.834 120 -285.501v-625h-276zM470.996 205c62.667 0 112.5 19.832 149.5 59.499s55.5 94.834 55.5 165.501v31l-225 -41c-75.333 -12 -113 -49.667 -113 -113c0 -68 44.333 -102 133 -102z
M491.996 1321c0 -54.667 27.167 -82 81.5 -82s81.5 27.333 81.5 82s-27.167 82 -81.5 82s-81.5 -27.333 -81.5 -82zM808.996 1321c0 -61.333 -22.833 -114.166 -68.5 -158.499s-101.334 -66.5 -167.001 -66.5s-121.334 22.167 -167.001 66.5s-68.5 97.166 -68.5 158.499
s22.833 114.166 68.5 158.499s101.334 66.5 167.001 66.5s121.334 -22.167 167.001 -66.5s68.5 -97.166 68.5 -158.499z" />
    <glyph glyph-name="ae" unicode="&#xe6;" horiz-adv-x="1792" 
d="M522 1024c39.333 0 77.833 -5.5 115.5 -16.5s68.834 -24.667 93.501 -41s46.167 -32.666 64.5 -48.999s31.833 -29.833 40.5 -40.5l14 -17c4 4 9.5 9.83301 16.5 17.5s22.333 21 46 40s48.5 35.667 74.5 50s60.167 27.333 102.5 39s85.5 17.5 129.5 17.5
c139.333 0 256 -47.833 350 -143.5s141 -215.167 141 -358.5l-10 -112h-717c10.667 -54.667 39.667 -100.834 87 -138.501s107 -56.5 179 -56.5c49.333 0 95.166 10.167 137.499 30.5s73.166 40.833 92.499 61.5l26 31l144 -184l-18.5 -18.5
c-8.33301 -8.33301 -26.166 -22.5 -53.499 -42.5s-56 -37.833 -86 -53.5s-68.833 -29.5 -116.5 -41.5s-96.167 -18 -145.5 -18c-48 0 -94.5 6.33301 -139.5 19s-82.5 28 -112.5 46s-56.667 35.833 -80 53.5s-40.333 32.5 -51 44.5l-17 21
c-2.66699 -5.33301 -7.33398 -12.166 -14.001 -20.499s-22 -23 -46 -44s-50.333 -39.833 -79 -56.5s-66.167 -31.334 -112.5 -44.001s-95.5 -19 -147.5 -19c-109.333 0 -198.166 29.667 -266.499 89s-102.5 130 -102.5 212c0 90 38.667 166.333 116 229s182.333 94 315 94
h204c0 122.667 -58 184 -174 184c-45.333 0 -87.666 -9.16699 -126.999 -27.5s-67.333 -36.833 -84 -55.5l-24 -29l-154 153c4 5.33301 9.5 12.5 16.5 21.5s22.667 24.5 47 46.5s50.166 41.5 77.499 58.5s63.5 32.667 108.5 47s91.5 21.5 139.5 21.5zM1208 788
c-58.667 0 -108.165 -17.333 -148.498 -52s-65.833 -78.667 -76.5 -132h451c-10.667 53.333 -36.334 97.333 -77.001 132s-90.334 52 -149.001 52zM461.002 205c66.667 0 122.5 21.5 167.5 64.5s67.5 96.5 67.5 160.5h-184c-58.667 0 -104 -12.333 -136 -37
s-48 -54.667 -48 -90c0 -24.667 12.333 -47.167 37 -67.5s56.667 -30.5 96 -30.5z" />
    <glyph glyph-name="ccedilla" unicode="&#xe7;" horiz-adv-x="1075" 
d="M61 502c0 139.333 53.666 261.168 160.999 365.501s234.666 156.5 381.999 156.5c52 0 101.5 -7.16699 148.5 -21.5s85.5 -31.333 115.5 -51s56.667 -39.5 80 -59.5s40.333 -37.333 51 -52l15 -21l-174 -174c-5.33301 9.33301 -14.166 21.666 -26.499 36.999
s-39 35.166 -80 59.499s-84.167 36.5 -129.5 36.5c-72.667 0 -135.167 -27 -187.5 -81s-78.5 -119.167 -78.5 -195.5s26.333 -141.5 79 -195.5s115 -81 187 -81c45.333 0 88.5 11 129.5 33s70.833 44 89.5 66l27 34l164 -174c-2.66699 -5.33301 -7.5 -12 -14.5 -20
s-21.667 -23 -44 -45s-46.833 -41.5 -73.5 -58.5s-61.167 -33.333 -103.5 -49s-86.833 -25.5 -133.5 -29.5l-41 -84c5.33301 0 12.166 -0.333008 20.499 -1s23 -4.16699 44 -10.5s39.833 -15 56.5 -26s31.334 -28.333 44.001 -52s19 -51.834 19 -84.501
c0 -57.333 -20 -104.166 -60 -140.499s-95 -54.5 -165 -54.5c-40.667 0 -79.834 7.5 -117.501 22.5s-64.5 30.833 -80.5 47.5l-27 22l61 113c40.667 -34 88.667 -51 144 -51c48 0 71.833 17 71.5 51s-24.166 51 -71.499 51l-51 -10l-52 61l68 154
c-125.333 23.333 -231.166 83.833 -317.499 181.5s-129.5 207.834 -129.5 330.501z" />
    <glyph glyph-name="egrave" unicode="&#xe8;" horiz-adv-x="1167" 
d="M1075 410l-727 0.00292969c10.667 -54.667 39.667 -100.834 87 -138.501s107 -56.5 179 -56.5c52 0 100.167 10.167 144.5 30.5s75.5 40.833 93.5 61.5l29 31l143 -184l-18.5 -18.5c-8.33301 -8.33301 -26.166 -22.5 -53.499 -42.5s-56.333 -37.833 -87 -53.5
s-70.5 -29.5 -119.5 -41.5s-99.5 -18 -151.5 -18c-147.333 0 -273 51.167 -377 153.5s-156 225.166 -156 368.499s51.333 266.166 154 368.499s225.667 153.5 369 153.5s262.666 -47.833 357.999 -143.5s143 -215.167 143 -358.5zM584 788.003
c-58.667 0 -108.5 -17 -149.5 -51s-69.833 -78.333 -86.5 -133h461c-10.667 53.333 -36.167 97.333 -76.5 132s-89.833 52 -148.5 52zM553 1444l164 -307h-225l-226 307h287z" />
    <glyph glyph-name="eacute" unicode="&#xe9;" horiz-adv-x="1167" 
d="M1075 410l-727 0.00292969c10.667 -54.667 39.667 -100.834 87 -138.501s107 -56.5 179 -56.5c52 0 100.167 10.167 144.5 30.5s75.5 40.833 93.5 61.5l29 31l143 -184l-18.5 -18.5c-8.33301 -8.33301 -26.166 -22.5 -53.499 -42.5s-56.333 -37.833 -87 -53.5
s-70.5 -29.5 -119.5 -41.5s-99.5 -18 -151.5 -18c-147.333 0 -273 51.167 -377 153.5s-156 225.166 -156 368.499s51.333 266.166 154 368.499s225.667 153.5 369 153.5s262.666 -47.833 357.999 -143.5s143 -215.167 143 -358.5zM584 788.003
c-58.667 0 -108.5 -17 -149.5 -51s-69.833 -78.333 -86.5 -133h461c-10.667 53.333 -36.167 97.333 -76.5 132s-89.833 52 -148.5 52zM481 1137l164 307h287l-225 -307h-226z" />
    <glyph glyph-name="ecircumflex" unicode="&#xea;" horiz-adv-x="1167" 
d="M1075 410l-727 0.00292969c10.667 -54.667 39.667 -100.834 87 -138.501s107 -56.5 179 -56.5c52 0 100.167 10.167 144.5 30.5s75.5 40.833 93.5 61.5l29 31l143 -184l-18.5 -18.5c-8.33301 -8.33301 -26.166 -22.5 -53.499 -42.5s-56.333 -37.833 -87 -53.5
s-70.5 -29.5 -119.5 -41.5s-99.5 -18 -151.5 -18c-147.333 0 -273 51.167 -377 153.5s-156 225.166 -156 368.499s51.333 266.166 154 368.499s225.667 153.5 369 153.5s262.666 -47.833 357.999 -143.5s143 -215.167 143 -358.5zM584 788.003
c-58.667 0 -108.5 -17 -149.5 -51s-69.833 -78.333 -86.5 -133h461c-10.667 53.333 -36.167 97.333 -76.5 132s-89.833 52 -148.5 52zM705 1444l245 -307h-245l-123 163l-123 -163h-246l246 307h246z" />
    <glyph glyph-name="edieresis" unicode="&#xeb;" horiz-adv-x="1167" 
d="M1075 410l-727 0.00292969c10.667 -54.667 39.667 -100.834 87 -138.501s107 -56.5 179 -56.5c52 0 100.167 10.167 144.5 30.5s75.5 40.833 93.5 61.5l29 31l143 -184l-18.5 -18.5c-8.33301 -8.33301 -26.166 -22.5 -53.499 -42.5s-56.333 -37.833 -87 -53.5
s-70.5 -29.5 -119.5 -41.5s-99.5 -18 -151.5 -18c-147.333 0 -273 51.167 -377 153.5s-156 225.166 -156 368.499s51.333 266.166 154 368.499s225.667 153.5 369 153.5s262.666 -47.833 357.999 -143.5s143 -215.167 143 -358.5zM584 788.003
c-58.667 0 -108.5 -17 -149.5 -51s-69.833 -78.333 -86.5 -133h461c-10.667 53.333 -36.167 97.333 -76.5 132s-89.833 52 -148.5 52zM215 1280c0 40.667 15.333 76.5 46 107.5s66.5 46.5 107.5 46.5s76.833 -15.5 107.5 -46.5s46 -66.833 46 -107.5
s-15.333 -76.5 -46 -107.5s-66.5 -46.5 -107.5 -46.5s-76.833 15.5 -107.5 46.5s-46 66.833 -46 107.5zM666 1280c0 40.667 15.333 76.5 46 107.5s66.5 46.5 107.5 46.5s76.833 -15.5 107.5 -46.5s46 -66.833 46 -107.5s-15.333 -76.5 -46 -107.5s-66.5 -46.5 -107.5 -46.5
s-76.833 15.5 -107.5 46.5s-46 66.833 -46 107.5z" />
    <glyph glyph-name="igrave" unicode="&#xec;" horiz-adv-x="563" 
d="M215 1444l164 -307h-225l-226 307h287zM399 1004v-1004h-276v1004h276z" />
    <glyph glyph-name="iacute" unicode="&#xed;" horiz-adv-x="563" 
d="M143 1137l164 307h287l-225 -307h-226zM399 1004v-1004h-276v1004h276z" />
    <glyph glyph-name="icircumflex" unicode="&#xee;" horiz-adv-x="563" 
d="M399 1004v-1004h-276v1004h276zM379 1444l246 -307h-246l-123 163l-123 -163h-246l246 307h246z" />
    <glyph glyph-name="idieresis" unicode="&#xef;" horiz-adv-x="563" 
d="M-109 1280c0 40.667 15.5 76.5 46.5 107.5s66.833 46.5 107.5 46.5s76.5 -15.5 107.5 -46.5s46.5 -66.833 46.5 -107.5s-15.5 -76.5 -46.5 -107.5s-66.833 -46.5 -107.5 -46.5s-76.5 15.5 -107.5 46.5s-46.5 66.833 -46.5 107.5zM342 1280c0 40.667 15.333 76.5 46 107.5
s66.5 46.5 107.5 46.5s76.833 -15.5 107.5 -46.5s46 -66.833 46 -107.5s-15.333 -76.5 -46 -107.5s-66.5 -46.5 -107.5 -46.5s-76.833 15.5 -107.5 46.5s-46 66.833 -46 107.5zM399 1004v-1004h-276v1004h276z" />
    <glyph glyph-name="eth" unicode="&#xf0;" 
d="M834 842c-22 65.333 -52.1689 125.998 -90.502 181.998s-71.166 95.667 -98.499 119l-41 35l-235 -154l-113 164l143 102c-61.333 27.333 -129.333 51.333 -204 72l71 205c66.667 -18 129.167 -38.167 187.5 -60.5s99.833 -39.833 124.5 -52.5l36 -20l236 163l123 -163
l-185 -123c8 -6.66699 19.333 -16.167 34 -28.5s40.334 -41.166 77.001 -86.499s68.667 -93.5 96 -144.5s52.666 -118.833 75.999 -203.5s35 -172.667 35 -264c0 -191.333 -48.167 -339.833 -144.5 -445.5s-225.833 -158.5 -388.5 -158.5c-142 0 -262.833 48.333 -362.5 145
s-149.5 212 -149.5 346c0 132.667 47.5 247.834 142.5 345.501s204.5 146.5 328.5 146.5c54.667 0 107.334 -10.333 158.001 -31s87 -40.667 109 -60zM808.998 470.998c0 65.333 -23.833 122.666 -71.5 171.999s-102.334 74 -164.001 74s-116.334 -24.667 -164.001 -74
s-71.5 -106.666 -71.5 -171.999s23.833 -122.666 71.5 -171.999s102.334 -74 164.001 -74s116.334 24.667 164.001 74s71.5 106.666 71.5 171.999z" />
    <glyph glyph-name="ntilde" unicode="&#xf1;" horiz-adv-x="1218" 
d="M399 1004l-0.00292969 -123.002c8 10.667 19.333 23.834 34 39.501s46.834 36.834 96.501 63.501s101.834 40 156.501 40c114.667 0 208.167 -39.667 280.5 -119s108.5 -186.333 108.5 -321v-584h-276v553c0 61.333 -18.167 110.833 -54.5 148.5
s-83.166 56.5 -140.499 56.5c-62.667 0 -112.5 -20.5 -149.5 -61.5s-55.5 -99.167 -55.5 -174.5v-522h-276v1004h276zM757.997 1137c-52 0 -103 17 -153 51s-87.667 51 -113 51c-48 0 -72 -34 -72 -102h-174c0 104 19.833 181.167 59.5 231.5s92.834 75.5 159.501 75.5
c50.667 0 101.167 -18.833 151.5 -56.5s87.166 -56.5 110.499 -56.5c48 0 72 37.667 72 113h174c0 -102.667 -19.5 -179.5 -58.5 -230.5s-91.167 -76.5 -156.5 -76.5z" />
    <glyph glyph-name="ograve" unicode="&#xf2;" horiz-adv-x="1208" 
d="M348 501.5c0 -75 24.333 -138 73 -189s106.334 -76.5 173.001 -76.5s124.334 25.5 173.001 76.5s73 114 73 189s-24.333 138.167 -73 189.5s-106.334 77 -173.001 77s-124.334 -25.667 -173.001 -77s-73 -114.5 -73 -189.5zM1126 502
c0 -139.333 -52.833 -261.166 -158.5 -365.499s-230.167 -156.5 -373.5 -156.5s-268 52.167 -374 156.5s-159 226.166 -159 365.499s53 261.166 159 365.499s230.667 156.5 374 156.5s267.833 -52.167 373.5 -156.5s158.5 -226.166 158.5 -365.499zM543 1444l164 -307h-226
l-225 307h287z" />
    <glyph glyph-name="oacute" unicode="&#xf3;" horiz-adv-x="1208" 
d="M348 501.5c0 -75 24.333 -138 73 -189s106.334 -76.5 173.001 -76.5s124.334 25.5 173.001 76.5s73 114 73 189s-24.333 138.167 -73 189.5s-106.334 77 -173.001 77s-124.334 -25.667 -173.001 -77s-73 -114.5 -73 -189.5zM1126 502
c0 -139.333 -52.833 -261.166 -158.5 -365.499s-230.167 -156.5 -373.5 -156.5s-268 52.167 -374 156.5s-159 226.166 -159 365.499s53 261.166 159 365.499s230.667 156.5 374 156.5s267.833 -52.167 373.5 -156.5s158.5 -226.166 158.5 -365.499zM481 1137l164 307h287
l-225 -307h-226z" />
    <glyph glyph-name="ocircumflex" unicode="&#xf4;" horiz-adv-x="1208" 
d="M348 501.5c0 -75 24.333 -138 73 -189s106.334 -76.5 173.001 -76.5s124.334 25.5 173.001 76.5s73 114 73 189s-24.333 138.167 -73 189.5s-106.334 77 -173.001 77s-124.334 -25.667 -173.001 -77s-73 -114.5 -73 -189.5zM1126 502
c0 -139.333 -52.833 -261.166 -158.5 -365.499s-230.167 -156.5 -373.5 -156.5s-268 52.167 -374 156.5s-159 226.166 -159 365.499s53 261.166 159 365.499s230.667 156.5 374 156.5s267.833 -52.167 373.5 -156.5s158.5 -226.166 158.5 -365.499zM717 1444l246 -307h-246
l-123 163l-123 -163h-246l246 307h246z" />
    <glyph glyph-name="otilde" unicode="&#xf5;" horiz-adv-x="1208" 
d="M348 501.5c0 -75 24.333 -138 73 -189s106.334 -76.5 173.001 -76.5s124.334 25.5 173.001 76.5s73 114 73 189s-24.333 138.167 -73 189.5s-106.334 77 -173.001 77s-124.334 -25.667 -173.001 -77s-73 -114.5 -73 -189.5zM1126 502
c0 -139.333 -52.833 -261.166 -158.5 -365.499s-230.167 -156.5 -373.5 -156.5s-268 52.167 -374 156.5s-159 226.166 -159 365.499s53 261.166 159 365.499s230.667 156.5 374 156.5s267.833 -52.167 373.5 -156.5s158.5 -226.166 158.5 -365.499zM748 1137
c-52 0 -102.999 16.999 -152.999 50.999s-88 51 -114 51c-48 0 -71.667 -34 -71 -102h-174c0 104 19.667 181.167 59 231.5s92.666 75.5 159.999 75.5c39.333 0 75 -9.16699 107 -27.5s60.333 -37.166 85 -56.499s48 -29 70 -29c48 0 71.667 37.667 71 113h175
c0 -102.667 -19.5 -179.5 -58.5 -230.5s-91.167 -76.5 -156.5 -76.5z" />
    <glyph glyph-name="odieresis" unicode="&#xf6;" horiz-adv-x="1208" 
d="M348 501.5c0 -75 24.333 -138 73 -189s106.334 -76.5 173.001 -76.5s124.334 25.5 173.001 76.5s73 114 73 189s-24.333 138.167 -73 189.5s-106.334 77 -173.001 77s-124.334 -25.667 -173.001 -77s-73 -114.5 -73 -189.5zM1126 502
c0 -139.333 -52.833 -261.166 -158.5 -365.499s-230.167 -156.5 -373.5 -156.5s-268 52.167 -374 156.5s-159 226.166 -159 365.499s53 261.166 159 365.499s230.667 156.5 374 156.5s267.833 -52.167 373.5 -156.5s158.5 -226.166 158.5 -365.499zM225 1290.5
c0 41 15.333 76.833 46 107.5s66.5 46 107.5 46s76.833 -15.333 107.5 -46s46 -66.5 46 -107.5s-15.333 -76.833 -46 -107.5s-66.5 -46 -107.5 -46s-76.833 15.333 -107.5 46s-46 66.5 -46 107.5zM676 1290.5c0 41 15.333 76.833 46 107.5s66.5 46 107.5 46
s76.833 -15.333 107.5 -46s46 -66.5 46 -107.5s-15.333 -76.833 -46 -107.5s-66.5 -46 -107.5 -46s-76.833 15.333 -107.5 46s-46 66.5 -46 107.5z" />
    <glyph glyph-name="divide" unicode="&#xf7;" horiz-adv-x="1064" 
d="M993 707v-215h-921v215h921zM696 972.5c0 -41 -16 -76.833 -48 -107.5s-70.5 -46 -115.5 -46s-83.5 15.333 -115.5 46s-48 66.5 -48 107.5s16 76.833 48 107.5s70.5 46 115.5 46s83.5 -15.333 115.5 -46s48 -66.5 48 -107.5zM696 225.5c0 -41 -16 -76.833 -48 -107.5
s-70.5 -46 -115.5 -46s-83.5 15.333 -115.5 46s-48 66.5 -48 107.5s16 76.833 48 107.5s70.5 46 115.5 46s83.5 -15.333 115.5 -46s48 -66.5 48 -107.5z" />
    <glyph glyph-name="oslash" unicode="&#xf8;" horiz-adv-x="1208" 
d="M369 399l317.001 349c-27.333 13.333 -58 20 -92 20c-66.667 0 -124.334 -25.667 -173.001 -77s-73 -114.333 -73 -189c0 -18 1.66699 -35.5 5 -52.5s7.33301 -29.5 12 -37.5zM1126 502c0 -139.333 -52.833 -261.164 -158.5 -365.497s-230.167 -156.5 -373.5 -156.5
c-54.667 0 -105.167 6.66699 -151.5 20s-79.166 27 -98.499 41l-27 20l-122 -133l-144 144l113 123c-8 9.33301 -17.5 23.166 -28.5 41.499s-26.167 54.166 -45.5 107.499s-29 106 -29 158c0 139.333 53 261.166 159 365.499s230.667 156.5 374 156.5
c54.667 0 105.167 -6.83301 151.5 -20.5s79.166 -27.167 98.499 -40.5l26 -21l123 133l144 -143l-113 -123c8 -9.33301 17.5 -23.333 28.5 -42s26 -54.5 45 -107.5s28.5 -105.5 28.5 -157.5zM819.001 604.002l-317.001 -348c27.333 -13.333 58 -20 92 -20
c66.667 0 124.334 25.5 173.001 76.5s73 114.167 73 189.5c0 18 -1.83301 35.5 -5.5 52.5s-7.5 29.5 -11.5 37.5z" />
    <glyph glyph-name="ugrave" unicode="&#xf9;" 
d="M799 0l0.00195312 102c-8 -9.33301 -19.333 -20.833 -34 -34.5s-46.834 -31.667 -96.501 -54s-101.834 -33.5 -156.501 -33.5c-114.667 0 -208.167 38.5 -280.5 115.5s-108.5 179.5 -108.5 307.5v601h276v-574c0 -56 18.5 -102.333 55.5 -139s83.5 -55 139.5 -55
c62.667 0 112.5 20.333 149.5 61s55.5 98.667 55.5 174v533h276v-1004h-276zM543.002 1444l164 -307h-226l-225 307h287z" />
    <glyph glyph-name="uacute" unicode="&#xfa;" 
d="M799 0l0.00195312 102c-8 -9.33301 -19.333 -20.833 -34 -34.5s-46.834 -31.667 -96.501 -54s-101.834 -33.5 -156.501 -33.5c-114.667 0 -208.167 38.5 -280.5 115.5s-108.5 179.5 -108.5 307.5v601h276v-574c0 -56 18.5 -102.333 55.5 -139s83.5 -55 139.5 -55
c62.667 0 112.5 20.333 149.5 61s55.5 98.667 55.5 174v533h276v-1004h-276zM471.002 1137l164 307h287l-226 -307h-225z" />
    <glyph glyph-name="ucircumflex" unicode="&#xfb;" 
d="M799 0l0.00195312 102c-8 -9.33301 -19.333 -20.833 -34 -34.5s-46.834 -31.667 -96.501 -54s-101.834 -33.5 -156.501 -33.5c-114.667 0 -208.167 38.5 -280.5 115.5s-108.5 179.5 -108.5 307.5v601h276v-574c0 -56 18.5 -102.333 55.5 -139s83.5 -55 139.5 -55
c62.667 0 112.5 20.333 149.5 61s55.5 98.667 55.5 174v533h276v-1004h-276zM707.002 1444l245 -307h-245l-123 163l-123 -163h-246l246 307h246z" />
    <glyph glyph-name="udieresis" unicode="&#xfc;" 
d="M799 0l0.00195312 102c-8 -9.33301 -19.333 -20.833 -34 -34.5s-46.834 -31.667 -96.501 -54s-101.834 -33.5 -156.501 -33.5c-114.667 0 -208.167 38.5 -280.5 115.5s-108.5 179.5 -108.5 307.5v601h276v-574c0 -56 18.5 -102.333 55.5 -139s83.5 -55 139.5 -55
c62.667 0 112.5 20.333 149.5 61s55.5 98.667 55.5 174v533h276v-1004h-276zM215.002 1290.5c0 41 15.333 76.833 46 107.5s66.5 46 107.5 46s76.833 -15.333 107.5 -46s46 -66.5 46 -107.5s-15.333 -76.833 -46 -107.5s-66.5 -46 -107.5 -46s-76.833 15.333 -107.5 46
s-46 66.5 -46 107.5zM666.002 1290.5c0 41 15.333 76.833 46 107.5s66.5 46 107.5 46s76.833 -15.333 107.5 -46s46 -66.5 46 -107.5s-15.333 -76.833 -46 -107.5s-66.5 -46 -107.5 -46s-76.833 15.333 -107.5 46s-46 66.5 -46 107.5z" />
    <glyph glyph-name="yacute" unicode="&#xfd;" horiz-adv-x="1064" 
d="M358 -61l31 71.001l-389 994h287l235 -666l236 666h286l-399 -1065c-91.333 -246 -221 -369 -389 -369c-30 0 -59.667 2.66699 -89 8s-51 10.666 -65 15.999l-20 7v245c27.333 -13.333 61.333 -20 102 -20c83.333 0 141.333 37.667 174 113zM420 1137l164 307h286
l-225 -307h-225z" />
    <glyph glyph-name="thorn" unicode="&#xfe;" horiz-adv-x="1269" 
d="M707 -20c-57.333 0 -110.998 11.833 -160.998 35.5s-85.333 47.167 -106 70.5l-30 37v-553h-277v1864h277v-553c2.66699 4 6.66699 9 12 15s17.166 17.167 35.499 33.5s38.166 31 59.499 44s49 24.667 83 35s69.667 15.5 107 15.5c130 0 242.667 -50.5 338 -151.5
s143 -224.5 143 -370.5s-47.667 -269.5 -143 -370.5s-208 -151.5 -338 -151.5zM655.502 778c-68.333 0 -126.333 -25.833 -174 -77.5s-71.5 -117.834 -71.5 -198.501s23.833 -147 71.5 -199s105.667 -78 174 -78s126.333 26 174 78s71.5 118.333 71.5 199
s-23.833 146.834 -71.5 198.501s-105.667 77.5 -174 77.5z" />
    <glyph glyph-name="ydieresis" unicode="&#xff;" horiz-adv-x="1064" 
d="M358 -61l31 71.001l-389 994h287l235 -666l236 666h286l-399 -1065c-91.333 -246 -221 -369 -389 -369c-30 0 -59.667 2.66699 -89 8s-51 10.666 -65 15.999l-20 7v245c27.333 -13.333 61.333 -20 102 -20c83.333 0 141.333 37.667 174 113zM154 1290.5
c0 41 15.333 76.833 46 107.5s66.5 46 107.5 46s76.833 -15.333 107.5 -46s46 -66.5 46 -107.5s-15.333 -76.833 -46 -107.5s-66.5 -46 -107.5 -46s-76.833 15.333 -107.5 46s-46 66.5 -46 107.5zM604 1290.5c0 41 15.333 76.833 46 107.5s66.5 46 107.5 46
s76.833 -15.333 107.5 -46s46 -66.5 46 -107.5s-15.333 -76.833 -46 -107.5s-66.5 -46 -107.5 -46s-76.833 15.333 -107.5 46s-46 66.5 -46 107.5z" />
    <glyph glyph-name="Amacron" unicode="&#x100;" horiz-adv-x="1495" 
d="M922 604l-174 471l-175 -471h349zM1024 338h-553l-123 -338h-328l564 1434h327l564 -1434h-328zM1075 1874v-205h-655v205h655z" />
    <glyph glyph-name="amacron" unicode="&#x101;" horiz-adv-x="1095" 
d="M676 0l-0.00390625 102c-8 -9.33301 -19.167 -20.833 -33.5 -34.5s-45.5 -31.667 -93.5 -54s-98 -33.5 -150 -33.5c-100 0 -181.333 27.833 -244 83.5s-94 123.167 -94 202.5c0 82 26.333 150.333 79 205s125.334 90.334 218.001 107.001l318 57
c0 42 -15.333 76.333 -46 103s-73.334 40 -128.001 40c-45.333 0 -86.666 -8.5 -123.999 -25.5s-63.666 -34.5 -78.999 -52.5l-23 -24l-153 153c4 5.33301 9.5 12.5 16.5 21.5s22.667 24.5 47 46.5s50.833 41.5 79.5 58.5s66.334 32.667 113.001 47
s94.334 21.5 143.001 21.5c126.667 0 230 -37.833 310 -113.5s120 -170.834 120 -285.501v-625h-276zM470.996 205c62.667 0 112.5 19.832 149.5 59.499s55.5 94.834 55.5 165.501v31l-225 -41c-75.333 -12 -113 -49.667 -113 -113c0 -68 44.333 -102 133 -102z
M890.996 1423v-204h-655v204h655z" />
    <glyph glyph-name="Abreve" unicode="&#x102;" horiz-adv-x="1495" 
d="M922 604l-174 471l-175 -471h349zM1024 338h-553l-123 -338h-328l564 1434h327l564 -1434h-328zM758 1792c35.333 0 64.668 11.667 88.001 35s35 52.666 35 87.999h204c0 -87.333 -30.667 -160.333 -92 -219s-139.833 -88 -235.5 -88s-174.167 29.333 -235.5 88
s-92 131.667 -92 219h205c0 -35.333 11.667 -64.666 35 -87.999s52.666 -35 87.999 -35z" />
    <glyph glyph-name="abreve" unicode="&#x103;" horiz-adv-x="1095" 
d="M676 0l-0.00390625 102c-8 -9.33301 -19.167 -20.833 -33.5 -34.5s-45.5 -31.667 -93.5 -54s-98 -33.5 -150 -33.5c-100 0 -181.333 27.833 -244 83.5s-94 123.167 -94 202.5c0 82 26.333 150.333 79 205s125.334 90.334 218.001 107.001l318 57
c0 42 -15.333 76.333 -46 103s-73.334 40 -128.001 40c-45.333 0 -86.666 -8.5 -123.999 -25.5s-63.666 -34.5 -78.999 -52.5l-23 -24l-153 153c4 5.33301 9.5 12.5 16.5 21.5s22.667 24.5 47 46.5s50.833 41.5 79.5 58.5s66.334 32.667 113.001 47
s94.334 21.5 143.001 21.5c126.667 0 230 -37.833 310 -113.5s120 -170.834 120 -285.501v-625h-276zM470.996 205c62.667 0 112.5 19.832 149.5 59.499s55.5 94.834 55.5 165.501v31l-225 -41c-75.333 -12 -113 -49.667 -113 -113c0 -68 44.333 -102 133 -102z
M562.996 1321c35.333 0 64.668 11.667 88.001 35s35 52.666 35 87.999h205c0 -87.333 -30.667 -160.333 -92 -219s-139.833 -88 -235.5 -88s-174.167 29.333 -235.5 88s-92 131.667 -92 219h204c0 -35.333 11.667 -64.666 35 -87.999s52.666 -35 87.999 -35z" />
    <glyph glyph-name="Aogonek" unicode="&#x104;" horiz-adv-x="1495" 
d="M1147 0l-123 337.999h-553l-123 -338h-328l564 1434h327l564 -1434h-185c-48 -68 -71.667 -136.333 -71 -205c0 -54.667 30.667 -82 92 -82c18 0 35.5 1.83301 52.5 5.5s29.5 7.5 37.5 11.5l12 4v-154c-40.667 -20.667 -95.334 -31 -164.001 -31
c-65.333 0 -119.166 20.167 -161.499 60.5s-63.5 89.833 -63.5 148.5c0 40.667 10.167 81.334 30.5 122.001s40.833 71 61.5 91zM922 603.999l-174 471l-175 -471h349z" />
    <glyph glyph-name="aogonek" unicode="&#x105;" horiz-adv-x="1095" 
d="M471 205c62.667 0 112.5 19.832 149.5 59.499s55.5 94.834 55.5 165.501v31l-225 -41c-75.333 -12 -113 -49.667 -113 -113c0 -68 44.333 -102 133 -102zM676 -0.000976562l-0.00390625 101.999c-8 -9.33301 -19.167 -20.833 -33.5 -34.5s-45.5 -31.667 -93.5 -54
s-98 -33.5 -150 -33.5c-100 0 -181.333 27.833 -244 83.5s-94 123.167 -94 202.5c0 82 26.333 150.333 79 205s125.334 90.334 218.001 107.001l318 57c0 42 -15.333 76.333 -46 103s-73.334 40 -128.001 40c-45.333 0 -86.666 -8.5 -123.999 -25.5
s-63.666 -34.5 -78.999 -52.5l-23 -24l-153 153c4 5.33301 9.5 12.5 16.5 21.5s22.667 24.5 47 46.5s50.833 41.5 79.5 58.5s66.334 32.667 113.001 47s94.334 21.5 143.001 21.5c126.667 0 230 -37.833 310 -113.5s120 -170.834 120 -285.501v-625h-133
c-48 -68 -71.667 -136.333 -71 -205c0 -54.667 30.667 -82 92 -82c18 0 35.5 1.83301 52.5 5.5s29.5 7.5 37.5 11.5l12 4v-154c-40.667 -20.667 -95.334 -31 -164.001 -31c-65.333 0 -119.166 20.167 -161.499 60.5s-63.5 89.833 -63.5 148.5
c0 40.667 10.167 81.334 30.5 122.001s40.833 71 61.5 91z" />
    <glyph glyph-name="Cacute" unicode="&#x106;" horiz-adv-x="1546" 
d="M881 1464c75.333 0 147.001 -9.83301 215.001 -29.5s123.833 -43.5 167.5 -71.5s82.334 -56 116.001 -84s57.834 -51.667 72.501 -71l23 -30l-195 -195c-4 5.33301 -9.5 12.833 -16.5 22.5s-22.667 26.167 -47 49.5s-50.833 43.833 -79.5 61.5s-66.334 34 -113.001 49
s-94.334 22.5 -143.001 22.5c-134 0 -246 -45 -336 -135s-135 -202 -135 -336s45 -246 135 -336s202 -135 336 -135c52 0 101.833 7.16699 149.5 21.5s87.167 31.333 118.5 51s59 39.5 83 59.5s41.333 37.333 52 52l16 21l185 -195c-5.33301 -8 -13.5 -18.5 -24.5 -31.5
s-35.333 -36 -73 -69s-78 -62 -121 -87s-99.333 -47.833 -169 -68.5s-141.834 -31 -216.501 -31c-218.667 0 -403.167 73.167 -553.5 219.5s-225.5 322.5 -225.5 528.5s75.167 382 225.5 528s334.833 219 553.5 219zM727.001 1608l164 307h287l-226 -307h-225z" />
    <glyph glyph-name="cacute" unicode="&#x107;" horiz-adv-x="1075" 
d="M61 502c0 139.333 53.665 261.17 160.998 365.503s234.666 156.5 381.999 156.5c52 0 101.5 -7.16699 148.5 -21.5s85.5 -31.333 115.5 -51s56.667 -39.5 80 -59.5s40.333 -37.333 51 -52l15 -21l-174 -174c-5.33301 9.33301 -14.166 21.666 -26.499 36.999
s-39 35.166 -80 59.499s-84.167 36.5 -129.5 36.5c-72.667 0 -135.167 -27 -187.5 -81s-78.5 -119.167 -78.5 -195.5s26.333 -141.5 79 -195.5s115 -81 187 -81c45.333 0 88.5 11 129.5 33s70.833 44 89.5 66l27 34l164 -174c-4 -5.33301 -9.5 -12.833 -16.5 -22.5
s-23.167 -26 -48.5 -49s-52.666 -43.333 -81.999 -61s-67.5 -34 -114.5 -49s-96.5 -22.5 -148.5 -22.5c-147.333 0 -274.666 52.167 -381.999 156.5s-161 226.166 -161 365.499zM460.998 1137l164 307h286l-225 -307h-225z" />
    <glyph glyph-name="Ccircumflex" unicode="&#x108;" horiz-adv-x="1546" 
d="M881 1464c75.333 0 147.001 -9.83301 215.001 -29.5s123.833 -43.5 167.5 -71.5s82.334 -56 116.001 -84s57.834 -51.667 72.501 -71l23 -30l-195 -195c-4 5.33301 -9.5 12.833 -16.5 22.5s-22.667 26.167 -47 49.5s-50.833 43.833 -79.5 61.5s-66.334 34 -113.001 49
s-94.334 22.5 -143.001 22.5c-134 0 -246 -45 -336 -135s-135 -202 -135 -336s45 -246 135 -336s202 -135 336 -135c52 0 101.833 7.16699 149.5 21.5s87.167 31.333 118.5 51s59 39.5 83 59.5s41.333 37.333 52 52l16 21l185 -195c-5.33301 -8 -13.5 -18.5 -24.5 -31.5
s-35.333 -36 -73 -69s-78 -62 -121 -87s-99.333 -47.833 -169 -68.5s-141.834 -31 -216.501 -31c-218.667 0 -403.167 73.167 -553.5 219.5s-225.5 322.5 -225.5 528.5s75.167 382 225.5 528s334.833 219 553.5 219zM973.001 1915l246 -307h-246l-123 164l-123 -164h-246
l246 307h246z" />
    <glyph glyph-name="ccircumflex" unicode="&#x109;" horiz-adv-x="1075" 
d="M61 502c0 139.333 53.665 261.17 160.998 365.503s234.666 156.5 381.999 156.5c52 0 101.5 -7.16699 148.5 -21.5s85.5 -31.333 115.5 -51s56.667 -39.5 80 -59.5s40.333 -37.333 51 -52l15 -21l-174 -174c-5.33301 9.33301 -14.166 21.666 -26.499 36.999
s-39 35.166 -80 59.499s-84.167 36.5 -129.5 36.5c-72.667 0 -135.167 -27 -187.5 -81s-78.5 -119.167 -78.5 -195.5s26.333 -141.5 79 -195.5s115 -81 187 -81c45.333 0 88.5 11 129.5 33s70.833 44 89.5 66l27 34l164 -174c-4 -5.33301 -9.5 -12.833 -16.5 -22.5
s-23.167 -26 -48.5 -49s-52.666 -43.333 -81.999 -61s-67.5 -34 -114.5 -49s-96.5 -22.5 -148.5 -22.5c-147.333 0 -274.666 52.167 -381.999 156.5s-161 226.166 -161 365.499zM693.998 1444l246 -307h-246l-123 163l-122 -163h-246l246 307h245z" />
    <glyph glyph-name="Ccaron" unicode="&#x10c;" horiz-adv-x="1546" 
d="M881 1464c75.333 0 147.001 -9.83301 215.001 -29.5s123.833 -43.5 167.5 -71.5s82.334 -56 116.001 -84s57.834 -51.667 72.501 -71l23 -30l-195 -195c-4 5.33301 -9.5 12.833 -16.5 22.5s-22.667 26.167 -47 49.5s-50.833 43.833 -79.5 61.5s-66.334 34 -113.001 49
s-94.334 22.5 -143.001 22.5c-134 0 -246 -45 -336 -135s-135 -202 -135 -336s45 -246 135 -336s202 -135 336 -135c52 0 101.833 7.16699 149.5 21.5s87.167 31.333 118.5 51s59 39.5 83 59.5s41.333 37.333 52 52l16 21l185 -195c-5.33301 -8 -13.5 -18.5 -24.5 -31.5
s-35.333 -36 -73 -69s-78 -62 -121 -87s-99.333 -47.833 -169 -68.5s-141.834 -31 -216.501 -31c-218.667 0 -403.167 73.167 -553.5 219.5s-225.5 322.5 -225.5 528.5s75.167 382 225.5 528s334.833 219 553.5 219zM1219 1915l-246 -307h-246l-246 307h248l121 -164
l123 164h246z" />
    <glyph glyph-name="ccaron" unicode="&#x10d;" horiz-adv-x="1075" 
d="M61 502c0 139.333 53.665 261.17 160.998 365.503s234.666 156.5 381.999 156.5c52 0 101.5 -7.16699 148.5 -21.5s85.5 -31.333 115.5 -51s56.667 -39.5 80 -59.5s40.333 -37.333 51 -52l15 -21l-174 -174c-5.33301 9.33301 -14.166 21.666 -26.499 36.999
s-39 35.166 -80 59.499s-84.167 36.5 -129.5 36.5c-72.667 0 -135.167 -27 -187.5 -81s-78.5 -119.167 -78.5 -195.5s26.333 -141.5 79 -195.5s115 -81 187 -81c45.333 0 88.5 11 129.5 33s70.833 44 89.5 66l27 34l164 -174c-4 -5.33301 -9.5 -12.833 -16.5 -22.5
s-23.167 -26 -48.5 -49s-52.666 -43.333 -81.999 -61s-67.5 -34 -114.5 -49s-96.5 -22.5 -148.5 -22.5c-147.333 0 -274.666 52.167 -381.999 156.5s-161 226.166 -161 365.499zM941.998 1444l-246 -307h-245l-246 307h248l120 -164l123 164h246z" />
    <glyph glyph-name="Dcaron" unicode="&#x10e;" horiz-adv-x="1556" 
d="M184 1434l533 0.00195312c208.667 0 383.667 -69.333 525 -208s212 -308.334 212 -509.001s-70.667 -370.334 -212 -509.001s-316.333 -208 -525 -208h-533v1434zM717 1157h-225v-881h225c118.667 0 220 42.667 304 128s126 189.5 126 312.5s-41 227.167 -123 312.5
s-184.333 128 -307 128zM1141 1915l-246 -307h-246l-246 307h248l121 -164l123 164h246z" />
    <glyph glyph-name="dcaron" unicode="&#x10f;" horiz-adv-x="1413" 
d="M543 1024c57.333 0 110.832 -12.001 160.499 -36.001s84.834 -47.333 105.501 -70l31 -37v553h276v-1434h-276v123c-2.66699 -4 -6.83398 -9.16699 -12.501 -15.5s-17.667 -17.666 -36 -33.999s-38.166 -31 -59.499 -44s-49 -24.5 -83 -34.5s-69.333 -15 -106 -15
c-130 0 -242.833 50.5 -338.5 151.5s-143.5 224.5 -143.5 370.5s47.833 269.5 143.5 370.5s208.5 151.5 338.5 151.5zM593.999 224.999c68 0 126 26 174 78s72 118.333 72 199s-24 146.834 -72 198.501s-106 77.5 -174 77.5s-126 -25.833 -174 -77.5
s-72 -117.834 -72 -198.501s24 -147 72 -199s106 -78 174 -78zM1188 1126l92 308h256l-143 -308h-205z" />
    <glyph glyph-name="Dcroat" unicode="&#x110;" horiz-adv-x="1597" 
d="M225 1434l533 0.00195312c208.667 0 383.667 -69.333 525 -208s212 -308.334 212 -509.001s-70.667 -370.334 -212 -509.001s-316.333 -208 -525 -208h-533v594h-174v246h174v594zM758 1157h-226v-317h277v-246h-277v-318h226c118.667 0 220 42.667 304 128
s126 189.5 126 312.5s-41 227.167 -123 312.5s-184.333 128 -307 128z" />
    <glyph glyph-name="dcroat" unicode="&#x111;" horiz-adv-x="1249" 
d="M584 1044l-0.000976562 245.997h225v144h276v-144h154v-246h-154v-1044h-276v113c-8 -9.33301 -19.167 -21.666 -33.5 -36.999s-47.166 -35.166 -98.499 -59.499s-105 -36.5 -161 -36.5c-126.667 0 -234.167 46.333 -322.5 139s-132.5 210 -132.5 352
c0 140.667 44.167 257.834 132.5 351.501s194.5 140.5 318.5 140.5c57.333 0 111 -12 161 -36s85 -47.667 105 -71l31 -37v225h-225zM573.499 214.997c63 0 118 25 165 75s70.5 110.5 70.5 181.5s-23.5 131.333 -70.5 181s-102 74.5 -165 74.5s-118 -24.833 -165 -74.5
s-70.5 -110 -70.5 -181s23.5 -131.5 70.5 -181.5s102 -75 165 -75z" />
    <glyph glyph-name="Emacron" unicode="&#x112;" horiz-adv-x="1361" 
d="M492 276h768v-276h-1076v1434h1055v-277h-747v-287h583v-276h-583v-318zM1055 1874v-205h-656v205h656z" />
    <glyph glyph-name="emacron" unicode="&#x113;" horiz-adv-x="1167" 
d="M1075 410l-727 0.00292969c10.667 -54.667 39.667 -100.834 87 -138.501s107 -56.5 179 -56.5c52 0 100.167 10.167 144.5 30.5s75.5 40.833 93.5 61.5l29 31l143 -184l-18.5 -18.5c-8.33301 -8.33301 -26.166 -22.5 -53.499 -42.5s-56.333 -37.833 -87 -53.5
s-70.5 -29.5 -119.5 -41.5s-99.5 -18 -151.5 -18c-147.333 0 -273 51.167 -377 153.5s-156 225.166 -156 368.499s51.333 266.166 154 368.499s225.667 153.5 369 153.5s262.666 -47.833 357.999 -143.5s143 -215.167 143 -358.5zM584 788.003
c-58.667 0 -108.5 -17 -149.5 -51s-69.833 -78.333 -86.5 -133h461c-10.667 53.333 -36.167 97.333 -76.5 132s-89.833 52 -148.5 52zM911 1403v-205h-655v205h655z" />
    <glyph glyph-name="Edotaccent" unicode="&#x116;" horiz-adv-x="1361" 
d="M492 276h768v-276h-1076v1434h1055v-277h-747v-287h583v-276h-583v-318zM901 1761.5c0 -46.333 -14.666 -83.5 -43.999 -111.5s-69.333 -42 -120 -42c-46.667 0 -83.834 14 -111.501 42s-41.5 65.167 -41.5 111.5s14 83.5 42 111.5s65 42 111 42
c50.667 0 90.667 -14 120 -42s44 -65.167 44 -111.5z" />
    <glyph glyph-name="edotaccent" unicode="&#x117;" horiz-adv-x="1167" 
d="M1075 410l-727 0.00292969c10.667 -54.667 39.667 -100.834 87 -138.501s107 -56.5 179 -56.5c52 0 100.167 10.167 144.5 30.5s75.5 40.833 93.5 61.5l29 31l143 -184l-18.5 -18.5c-8.33301 -8.33301 -26.166 -22.5 -53.499 -42.5s-56.333 -37.833 -87 -53.5
s-70.5 -29.5 -119.5 -41.5s-99.5 -18 -151.5 -18c-147.333 0 -273 51.167 -377 153.5s-156 225.166 -156 368.499s51.333 266.166 154 368.499s225.667 153.5 369 153.5s262.666 -47.833 357.999 -143.5s143 -215.167 143 -358.5zM584 788.003
c-58.667 0 -108.5 -17 -149.5 -51s-69.833 -78.333 -86.5 -133h461c-10.667 53.333 -36.167 97.333 -76.5 132s-89.833 52 -148.5 52zM754 1290.5c0 -46.333 -14.667 -83.5 -44 -111.5s-69.333 -42 -120 -42c-46.667 0 -84 14 -112 42s-42 65.167 -42 111.5
s14 83.5 42 111.5s65.333 42 112 42c50.667 0 90.667 -14 120 -42s44 -65.167 44 -111.5z" />
    <glyph glyph-name="Eogonek" unicode="&#x118;" horiz-adv-x="1361" 
d="M1116 0l-932 -0.000976562v1434h1055v-277h-747v-287h583v-276h-583v-318h768v-276c-48 -68 -72 -136.333 -72 -205c0 -54.667 30.667 -82 92 -82c18 0 35.5 1.83301 52.5 5.5s29.5 7.5 37.5 11.5l12 4v-154c-40.667 -20.667 -95 -31 -163 -31
c-65.333 0 -119.333 20.167 -162 60.5s-64 89.833 -64 148.5c0 40.667 10.333 81.334 31 122.001s41 71 61 91z" />
    <glyph glyph-name="eogonek" unicode="&#x119;" horiz-adv-x="1167" 
d="M1075 410l-726.999 0.00195312c10.667 -54.667 39.667 -100.834 87 -138.501s107 -56.5 179 -56.5c52 0 100.167 10.167 144.5 30.5s75.5 40.833 93.5 61.5l29 31l143 -184c-9.33301 -10.667 -23 -24 -41 -40s-57.333 -39.333 -118 -70s-123.667 -50 -189 -58
c-40.667 -68 -61.334 -131.667 -62.001 -191c0 -54.667 31 -82 93 -82c18 0 35.333 1.83301 52 5.5s29.334 7.5 38.001 11.5l12 4v-154c-40.667 -20.667 -95.334 -31 -164.001 -31c-65.333 0 -119.166 20.167 -161.499 60.5s-63.5 89.833 -63.5 148.5
c0 80.667 34.667 156 104 226c-132.667 16.667 -243 74 -331 172s-132 213.333 -132 346c0 143.333 51.333 266.166 154 368.499s225.667 153.5 369 153.5s262.666 -47.833 357.999 -143.5s143 -215.167 143 -358.5zM584.001 788.002c-58.667 0 -108.5 -17 -149.5 -51
s-69.833 -78.333 -86.5 -133h461c-10.667 53.333 -36.167 97.333 -76.5 132s-89.833 52 -148.5 52z" />
    <glyph glyph-name="Ecaron" unicode="&#x11a;" horiz-adv-x="1361" 
d="M492 276h768v-276h-1076v1434h1055v-277h-747v-287h583v-276h-583v-318zM1096 1915l-246 -307h-246l-246 307h248l121 -164l123 164h246z" />
    <glyph glyph-name="ecaron" unicode="&#x11b;" horiz-adv-x="1167" 
d="M1075 410l-727 0.00292969c10.667 -54.667 39.667 -100.834 87 -138.501s107 -56.5 179 -56.5c52 0 100.167 10.167 144.5 30.5s75.5 40.833 93.5 61.5l29 31l143 -184l-18.5 -18.5c-8.33301 -8.33301 -26.166 -22.5 -53.499 -42.5s-56.333 -37.833 -87 -53.5
s-70.5 -29.5 -119.5 -41.5s-99.5 -18 -151.5 -18c-147.333 0 -273 51.167 -377 153.5s-156 225.166 -156 368.499s51.333 266.166 154 368.499s225.667 153.5 369 153.5s262.666 -47.833 357.999 -143.5s143 -215.167 143 -358.5zM584 788.003
c-58.667 0 -108.5 -17 -149.5 -51s-69.833 -78.333 -86.5 -133h461c-10.667 53.333 -36.167 97.333 -76.5 132s-89.833 52 -148.5 52zM952 1444l-245 -307h-246l-246 307h248l121 -164l123 164h245z" />
    <glyph glyph-name="Gbreve" unicode="&#x11e;" horiz-adv-x="1658" 
d="M942 778h563.001v-532c-5.33301 -6.66699 -13.833 -16.5 -25.5 -29.5s-37.334 -35.333 -77.001 -67s-81.667 -59.667 -126 -84s-102.333 -46.5 -174 -66.5s-145.5 -30 -221.5 -30c-218.667 0 -403.167 73.167 -553.5 219.5s-225.5 322.5 -225.5 528.5
s75.167 382 225.5 528s334.833 219 553.5 219c75.333 0 147 -9.83301 215 -29.5s123.833 -43.5 167.5 -71.5s82.334 -56 116.001 -84s57.834 -51.667 72.501 -71l23 -30l-195 -195c-4 5.33301 -9.5 12.833 -16.5 22.5s-22.667 26.167 -47 49.5s-50.833 43.833 -79.5 61.5
s-66.334 34 -113.001 49s-94.334 22.5 -143.001 22.5c-134 0 -246 -45 -336 -135s-135 -202 -135 -336s45 -246 135 -336s202 -135 336 -135c64 0 122.333 9.5 175 28.5s89.667 38.167 111 57.5l31 26v195h-256v225zM860.001 1792c35.333 0 64.6689 11.667 88.002 35
s35 52.666 35 87.999h205c0 -87.333 -30.667 -160.333 -92 -219s-139.833 -88 -235.5 -88s-174.334 29.333 -236.001 88s-92.5 131.667 -92.5 219h205c0 -35.333 11.667 -64.666 35 -87.999s52.666 -35 87.999 -35z" />
    <glyph glyph-name="gbreve" unicode="&#x11f;" 
d="M809 82l0.000976562 81.998c-2.66699 -4 -6.83398 -9.16699 -12.501 -15.5s-17.667 -17.666 -36 -33.999s-38 -31 -59 -44s-48.667 -24.667 -83 -35s-69.833 -15.5 -106.5 -15.5c-114.667 0 -218.5 49.833 -311.5 149.5s-139.5 217.167 -139.5 352.5
s46.5 252.833 139.5 352.5s196.833 149.5 311.5 149.5c57.333 0 111 -12 161 -36s85 -47.333 105 -70l31 -37v123h276v-922c0 -144.667 -50.5 -266.167 -151.5 -364.5s-227.833 -147.5 -380.5 -147.5c-57.333 0 -112.333 7.5 -165 22.5s-96.334 32.667 -131.001 53
s-65 41.166 -91 62.499s-44.333 39.333 -55 54l-19 23l174 164c6.66699 -9.33301 16.834 -21.666 30.501 -36.999s44.5 -35.166 92.5 -59.499s99.333 -36.5 154 -36.5c82 0 146.833 23.833 194.5 71.5s71.5 112.5 71.5 194.5zM348.001 522.498
c0 -71 21.833 -129.833 65.5 -176.5s97 -70 160 -70s118 24 165 72s70.5 106.167 70.5 174.5s-23.5 126.333 -70.5 174s-102 71.5 -165 71.5s-116.333 -23.167 -160 -69.5s-65.5 -105 -65.5 -176zM608.501 1325c35.667 0 65 11.667 88 35s34.5 52.666 34.5 87.999h205
c0 -87.333 -30.667 -160.333 -92 -219s-139.833 -88 -235.5 -88s-174.167 29.333 -235.5 88s-92 131.667 -92 219h204c0 -35.333 11.667 -64.666 35 -87.999s52.833 -35 88.5 -35z" />
    <glyph glyph-name="uni0122" unicode="&#x122;" horiz-adv-x="1658" 
d="M942 778h563.001v-532c-5.33301 -6.66699 -13.833 -16.5 -25.5 -29.5s-37.334 -35.333 -77.001 -67s-81.667 -59.667 -126 -84s-102.333 -46.5 -174 -66.5s-145.5 -30 -221.5 -30c-218.667 0 -403.167 73.167 -553.5 219.5s-225.5 322.5 -225.5 528.5
s75.167 382 225.5 528s334.833 219 553.5 219c75.333 0 147 -9.83301 215 -29.5s123.833 -43.5 167.5 -71.5s82.334 -56 116.001 -84s57.834 -51.667 72.501 -71l23 -30l-195 -195c-4 5.33301 -9.5 12.833 -16.5 22.5s-22.667 26.167 -47 49.5s-50.833 43.833 -79.5 61.5
s-66.334 34 -113.001 49s-94.334 22.5 -143.001 22.5c-134 0 -246 -45 -336 -135s-135 -202 -135 -336s45 -246 135 -336s202 -135 336 -135c64 0 122.333 9.5 175 28.5s89.667 38.167 111 57.5l31 26v195h-256v225zM645.001 -471l92 307h256l-143 -307h-205z" />
    <glyph glyph-name="uni0123" unicode="&#x123;" 
d="M809 82l0.000976562 81.998c-2.66699 -4 -6.83398 -9.16699 -12.501 -15.5s-17.667 -17.666 -36 -33.999s-38 -31 -59 -44s-48.667 -24.667 -83 -35s-69.833 -15.5 -106.5 -15.5c-114.667 0 -218.5 49.833 -311.5 149.5s-139.5 217.167 -139.5 352.5
s46.5 252.833 139.5 352.5s196.833 149.5 311.5 149.5c57.333 0 111 -12 161 -36s85 -47.333 105 -70l31 -37v123h276v-922c0 -144.667 -50.5 -266.167 -151.5 -364.5s-227.833 -147.5 -380.5 -147.5c-57.333 0 -112.333 7.5 -165 22.5s-96.334 32.667 -131.001 53
s-65 41.166 -91 62.499s-44.333 39.333 -55 54l-19 23l174 164c6.66699 -9.33301 16.834 -21.666 30.501 -36.999s44.5 -35.166 92.5 -59.499s99.333 -36.5 154 -36.5c82 0 146.833 23.833 194.5 71.5s71.5 112.5 71.5 194.5zM348.001 522.498
c0 -71 21.833 -129.833 65.5 -176.5s97 -70 160 -70s118 24 165 72s70.5 106.167 70.5 174.5s-23.5 126.333 -70.5 174s-102 71.5 -165 71.5s-116.333 -23.167 -160 -69.5s-65.5 -105 -65.5 -176zM799.001 1444l-92 -307h-256l143 307h205z" />
    <glyph glyph-name="Imacron" unicode="&#x12a;" horiz-adv-x="675" 
d="M184 0v1434h308v-1434h-308zM666 1874v-205h-656v205h656z" />
    <glyph glyph-name="imacron" unicode="&#x12b;" horiz-adv-x="563" 
d="M594 1403v-205h-655v205h655zM399 1004v-1004h-276v1004h276z" />
    <glyph glyph-name="Iogonek" unicode="&#x12e;" horiz-adv-x="675" 
d="M61 -242c0 40.667 10.333 81.333 31 122s41.334 71 62.001 91l30 29v1434h308v-1434h-164c-48 -68 -72 -136.333 -72 -205c0 -54.667 30.667 -82 92 -82c18 0 35.5 1.83301 52.5 5.5s29.5 7.5 37.5 11.5l13 4v-154c-40.667 -20.667 -95.334 -31 -164.001 -31
c-65.333 0 -119.333 20.167 -162 60.5s-64 89.833 -64 148.5z" />
    <glyph glyph-name="iogonek" unicode="&#x12f;" horiz-adv-x="563" 
d="M133 0v1004h277v-1004h-134c-48 -68 -71.667 -136.333 -71 -205c0 -54.667 30.667 -82 92 -82c18 0 35.5 1.83301 52.5 5.5s29.5 7.5 37.5 11.5l12 4v-154c-40.667 -20.667 -95 -31 -163 -31c-65.333 0 -119.333 20.167 -162 60.5s-64 89.833 -64 148.5
c0 40.667 10.333 81.334 31 122.001s41 71 61 91zM430 1290.5c0 -46.333 -14.666 -83.5 -43.999 -111.5s-69.333 -42 -120 -42c-46.667 0 -83.834 14 -111.501 42s-41.5 65.167 -41.5 111.5s14 83.5 42 111.5s65 42 111 42c50.667 0 90.667 -14 120 -42
s44 -65.167 44 -111.5z" />
    <glyph glyph-name="Idotaccent" unicode="&#x130;" horiz-adv-x="675" 
d="M184 0v1434h308v-1434h-308zM502 1761.5c0 -46.333 -14.667 -83.5 -44 -111.5s-69.333 -42 -120 -42c-46.667 0 -84 14 -112 42s-42 65.167 -42 111.5s14 83.5 42 111.5s65.333 42 112 42c50.667 0 90.667 -14 120 -42s44 -65.167 44 -111.5z" />
    <glyph glyph-name="dotlessi" unicode="&#x131;" horiz-adv-x="563" 
d="M399 1004v-1004h-276v1004h276z" />
    <glyph glyph-name="uni0136" unicode="&#x136;" horiz-adv-x="1454" 
d="M492 1434v-625l563 625h358l-532 -594l573 -840h-358l-420 614l-184 -204v-410h-308v1434h308zM553 -471l92 307h256l-143 -307h-205z" />
    <glyph glyph-name="uni0137" unicode="&#x137;" horiz-adv-x="1116" 
d="M532 389l-122 -143v-246h-277v1434h277v-840l358 410h317l-378 -431l399 -573h-307zM389 -471l92 307h256l-143 -307h-205z" />
    <glyph glyph-name="Lacute" unicode="&#x139;" horiz-adv-x="1208" 
d="M1157 0h-973v1434h308v-1158h665v-276zM236 1608l163 307h287l-225 -307h-225z" />
    <glyph glyph-name="lacute" unicode="&#x13a;" horiz-adv-x="573" 
d="M410 1434v-1434h-277v1434h277zM174 1608l164 307h287l-226 -307h-225z" />
    <glyph glyph-name="uni013B" unicode="&#x13b;" horiz-adv-x="1208" 
d="M1157 0h-973v1434h308v-1158h665v-276zM455 -471l92 307h256l-144 -307h-204z" />
    <glyph glyph-name="uni013C" unicode="&#x13c;" horiz-adv-x="573" 
d="M410 1434v-1434h-277v1434h277zM51 -471l92 307h256l-143 -307h-205z" />
    <glyph glyph-name="Lcaron" unicode="&#x13d;" horiz-adv-x="1208" 
d="M1157 0h-973v1434h308v-1158h665v-276zM594 1126l92 308h256l-143 -308h-205z" />
    <glyph glyph-name="lcaron" unicode="&#x13e;" horiz-adv-x="716" 
d="M410 1434v-1434h-277v1434h277zM492 1126l92 308h256l-144 -308h-204z" />
    <glyph glyph-name="Lslash" unicode="&#x141;" horiz-adv-x="1331" 
d="M1280 0h-973v481l-194 -112l-133 235l327 184v646h307v-482l205 113l133 -225l-338 -195v-369h666v-276z" />
    <glyph glyph-name="lslash" unicode="&#x142;" horiz-adv-x="788" 
d="M840 860l-318 -194v-666h-276v502l-195 -113l-123 205l318 184v656h276v-492l205 123z" />
    <glyph glyph-name="Nacute" unicode="&#x143;" horiz-adv-x="1648" 
d="M1157 1434h307v-1434h-266l-706 911v-911h-308v1434h267l706 -912v912zM717 1608l164 307h286l-225 -307h-225z" />
    <glyph glyph-name="nacute" unicode="&#x144;" horiz-adv-x="1218" 
d="M399 1004l-0.00292969 -123.002c8 10.667 19.333 23.834 34 39.501s46.834 36.834 96.501 63.501s101.834 40 156.501 40c114.667 0 208.167 -39.667 280.5 -119s108.5 -186.333 108.5 -321v-584h-276v553c0 61.333 -18.167 110.833 -54.5 148.5
s-83.166 56.5 -140.499 56.5c-62.667 0 -112.5 -20.5 -149.5 -61.5s-55.5 -99.167 -55.5 -174.5v-522h-276v1004h276zM501.997 1137l164 307h286l-225 -307h-225z" />
    <glyph glyph-name="uni0145" unicode="&#x145;" horiz-adv-x="1648" 
d="M1157 1434h307v-1434h-266l-706 911v-911h-308v1434h267l706 -912v912zM635 -471l92 307h256l-143 -307h-205z" />
    <glyph glyph-name="uni0146" unicode="&#x146;" horiz-adv-x="1218" 
d="M399 1004l-0.00292969 -123.002c8 10.667 19.333 23.834 34 39.501s46.834 36.834 96.501 63.501s101.834 40 156.501 40c114.667 0 208.167 -39.667 280.5 -119s108.5 -186.333 108.5 -321v-584h-276v553c0 61.333 -18.167 110.833 -54.5 148.5
s-83.166 56.5 -140.499 56.5c-62.667 0 -112.5 -20.5 -149.5 -61.5s-55.5 -99.167 -55.5 -174.5v-522h-276v1004h276zM378.997 -471.002l92 307h256l-143 -307h-205z" />
    <glyph glyph-name="Ncaron" unicode="&#x147;" horiz-adv-x="1648" 
d="M1157 1434h307v-1434h-266l-706 911v-911h-308v1434h267l706 -912v912zM1188 1915l-246 -307h-246l-245 307h247l121 -164l123 164h246z" />
    <glyph glyph-name="ncaron" unicode="&#x148;" horiz-adv-x="1218" 
d="M399 1004l-0.00292969 -123.002c8 10.667 19.333 23.834 34 39.501s46.834 36.834 96.501 63.501s101.834 40 156.501 40c114.667 0 208.167 -39.667 280.5 -119s108.5 -186.333 108.5 -321v-584h-276v553c0 61.333 -18.167 110.833 -54.5 148.5
s-83.166 56.5 -140.499 56.5c-62.667 0 -112.5 -20.5 -149.5 -61.5s-55.5 -99.167 -55.5 -174.5v-522h-276v1004h276zM972.997 1444l-246 -307h-246l-245 307h247l121 -164l123 164h246z" />
    <glyph glyph-name="Omacron" unicode="&#x14c;" horiz-adv-x="1761" 
d="M420 716.5c0 -132.333 44.667 -243.833 134 -334.5s198.166 -136 326.499 -136s237.166 45.333 326.499 136s134 202.167 134 334.5s-44.667 244 -134 335s-198.166 136.5 -326.499 136.5s-237.166 -45.5 -326.499 -136.5s-134 -202.667 -134 -335zM102 717
c0 206 75.167 382 225.5 528s334.666 219 552.999 219s402.666 -73 552.999 -219s225.5 -322 225.5 -528s-75.167 -382.167 -225.5 -528.5s-334.666 -219.5 -552.999 -219.5s-402.666 73.167 -552.999 219.5s-225.5 322.5 -225.5 528.5zM1208 1874v-205h-655v205h655z" />
    <glyph glyph-name="omacron" unicode="&#x14d;" horiz-adv-x="1208" 
d="M348 501.5c0 -75 24.333 -138 73 -189s106.334 -76.5 173.001 -76.5s124.334 25.5 173.001 76.5s73 114 73 189s-24.333 138.167 -73 189.5s-106.334 77 -173.001 77s-124.334 -25.667 -173.001 -77s-73 -114.5 -73 -189.5zM1126 502
c0 -139.333 -52.833 -261.166 -158.5 -365.499s-230.167 -156.5 -373.5 -156.5s-268 52.167 -374 156.5s-159 226.166 -159 365.499s53 261.166 159 365.499s230.667 156.5 374 156.5s267.833 -52.167 373.5 -156.5s158.5 -226.166 158.5 -365.499zM922 1403v-205h-656v205
h656z" />
    <glyph glyph-name="Ohungarumlaut" unicode="&#x150;" horiz-adv-x="1761" 
d="M420 716.5c0 -132.333 44.667 -243.833 134 -334.5s198.166 -136 326.499 -136s237.166 45.333 326.499 136s134 202.167 134 334.5s-44.667 244 -134 335s-198.166 136.5 -326.499 136.5s-237.166 -45.5 -326.499 -136.5s-134 -202.667 -134 -335zM102 717
c0 206 75.167 382 225.5 528s334.666 219 552.999 219s402.666 -73 552.999 -219s225.5 -322 225.5 -528s-75.167 -382.167 -225.5 -528.5s-334.666 -219.5 -552.999 -219.5s-402.666 73.167 -552.999 219.5s-225.5 322.5 -225.5 528.5zM584 1608l164 307h276l-236 -307
h-204zM973 1608l164 307h276l-235 -307h-205z" />
    <glyph glyph-name="ohungarumlaut" unicode="&#x151;" horiz-adv-x="1212" 
d="M348 501.5c0 -75 24.333 -138 73 -189s106.334 -76.5 173.001 -76.5s124.334 25.5 173.001 76.5s73 114 73 189s-24.333 138.167 -73 189.5s-106.334 77 -173.001 77s-124.334 -25.667 -173.001 -77s-73 -114.5 -73 -189.5zM1126 502
c0 -139.333 -52.833 -261.166 -158.5 -365.499s-230.167 -156.5 -373.5 -156.5s-268 52.167 -374 156.5s-159 226.166 -159 365.499s53 261.166 159 365.499s230.667 156.5 374 156.5s267.833 -52.167 373.5 -156.5s158.5 -226.166 158.5 -365.499zM297 1137l164 307h276
l-235 -307h-205zM686 1137l164 307h276l-235 -307h-205z" />
    <glyph glyph-name="OE" unicode="&#x152;" horiz-adv-x="2088" 
d="M860 1434l1116 -0.00195312v-267h-665v-303h501v-256h-501v-342h686v-266h-1137c-212.667 0 -392.167 70.333 -538.5 211s-219.5 309.334 -219.5 506.001s73.167 365.334 219.5 506.001s325.833 211 538.5 211zM1004 1157l-143.999 0.000976562
c-126.667 0 -233.334 -42.667 -320.001 -128s-130 -189.333 -130 -312c0 -136.667 44 -244.334 132 -323.001s194 -118 318 -118h144v881z" />
    <glyph glyph-name="oe" unicode="&#x153;" horiz-adv-x="1935" 
d="M1843 410l-727.003 0.00390625c10.667 -54.667 39.667 -100.834 87 -138.501s107 -56.5 179 -56.5c52 0 100.167 10.167 144.5 30.5s76.166 40.833 95.499 61.5l27 31l143 -174c-4 -5.33301 -10.167 -12.166 -18.5 -20.499s-26.166 -23 -53.499 -44
s-56.333 -39.833 -87 -56.5s-70.5 -31.334 -119.5 -44.001s-99.5 -19 -151.5 -19c-49.333 0 -96.5 6 -141.5 18s-81.833 26.333 -110.5 43s-54 33.5 -76 50.5s-37.667 31.5 -47 43.5l-14 19c-4 -4 -9.5 -10.167 -16.5 -18.5s-23.167 -22.5 -48.5 -42.5
s-51.666 -37.833 -78.999 -53.5s-63.5 -29.5 -108.5 -41.5s-90.5 -18 -136.5 -18c-143.333 0 -266.333 51.167 -369 153.5s-154 225.166 -154 368.499s51.333 266.166 154 368.499s225.667 153.5 369 153.5c72.667 0 141.334 -15.333 206.001 -46
s111.334 -61.667 140.001 -93l43 -45c4 5.33301 9.33301 12 16 20s22 22.667 46 44s49.667 40.166 77 56.499s62.5 31 105.5 44s87.833 19.5 134.5 19.5c142 0 261 -48.833 357 -146.5s144 -216.167 144 -355.5zM818.997 502.004c0 79.333 -23.5 145.166 -70.5 197.499
s-102 78.5 -165 78.5s-118 -26.167 -165 -78.5s-70.5 -118.166 -70.5 -197.499s23.5 -145.333 70.5 -198s102 -79 165 -79s118 26.333 165 79s70.5 118.667 70.5 198zM1352 799.004c-60 0 -110.166 -17.8311 -150.499 -53.498s-68.833 -82.834 -85.5 -141.501h461
c-10.667 57.333 -35.834 104.166 -75.501 140.499s-89.5 54.5 -149.5 54.5z" />
    <glyph glyph-name="Racute" unicode="&#x154;" horiz-adv-x="1454" 
d="M184 0l-0.000976562 1434h635c142 0 259.5 -45.5 352.5 -136.5s139.5 -202.5 139.5 -334.5c0 -57.333 -9 -111 -27 -161s-39.167 -90.333 -63.5 -121s-49.166 -57 -74.499 -79s-47 -37 -65 -45l-26 -14l307 -543h-328l-276 502h-266v-502h-308zM1004 963
c0 56 -18.5 102.333 -55.5 139s-83.5 55 -139.5 55h-317v-379h317c56 0 102.5 17.833 139.5 53.5s55.5 79.5 55.5 131.5zM603.999 1608l164 307h287l-226 -307h-225z" />
    <glyph glyph-name="racute" unicode="&#x155;" horiz-adv-x="757" 
d="M727 1014l-0.000976562 -277.001c-20.667 6.66699 -51.334 10.334 -92.001 11.001c-72.667 0 -130.167 -23 -172.5 -69s-63.5 -112 -63.5 -198v-481h-276v1004h276v-123c8 9.33301 19.333 21.5 34 36.5s46.834 34.833 96.501 59.5s101.834 37 156.501 37h41z
M306.999 1137l164 307h287l-226 -307h-225z" />
    <glyph glyph-name="uni0156" unicode="&#x156;" horiz-adv-x="1454" 
d="M184 0l-0.000976562 1434h635c142 0 259.5 -45.5 352.5 -136.5s139.5 -202.5 139.5 -334.5c0 -57.333 -9 -111 -27 -161s-39.167 -90.333 -63.5 -121s-49.166 -57 -74.499 -79s-47 -37 -65 -45l-26 -14l307 -543h-328l-276 502h-266v-502h-308zM1004 963
c0 56 -18.5 102.333 -55.5 139s-83.5 55 -139.5 55h-317v-379h317c56 0 102.5 17.833 139.5 53.5s55.5 79.5 55.5 131.5zM521.999 -471l92 307h256l-143 -307h-205z" />
    <glyph glyph-name="uni0157" unicode="&#x157;" horiz-adv-x="757" 
d="M727 1014l-0.000976562 -277.001c-20.667 6.66699 -51.334 10.334 -92.001 11.001c-72.667 0 -130.167 -23 -172.5 -69s-63.5 -112 -63.5 -198v-481h-276v1004h276v-123c8 9.33301 19.333 21.5 34 36.5s46.834 34.833 96.501 59.5s101.834 37 156.501 37h41z
M40.999 -471.001l92 307h256l-143 -307h-205z" />
    <glyph glyph-name="Rcaron" unicode="&#x158;" horiz-adv-x="1454" 
d="M184 0l-0.000976562 1434h635c142 0 259.5 -45.5 352.5 -136.5s139.5 -202.5 139.5 -334.5c0 -57.333 -9 -111 -27 -161s-39.167 -90.333 -63.5 -121s-49.166 -57 -74.499 -79s-47 -37 -65 -45l-26 -14l307 -543h-328l-276 502h-266v-502h-308zM1004 963
c0 56 -18.5 102.333 -55.5 139s-83.5 55 -139.5 55h-317v-379h317c56 0 102.5 17.833 139.5 53.5s55.5 79.5 55.5 131.5zM1085 1915l-245 -307h-246l-246 307h248l121 -164l123 164h245z" />
    <glyph glyph-name="rcaron" unicode="&#x159;" horiz-adv-x="757" 
d="M727 1014l-0.000976562 -277.001c-20.667 6.66699 -51.334 10.334 -92.001 11.001c-72.667 0 -130.167 -23 -172.5 -69s-63.5 -112 -63.5 -198v-481h-276v1004h276v-123c8 9.33301 19.333 21.5 34 36.5s46.834 34.833 96.501 59.5s101.834 37 156.501 37h41z
M777.999 1444l-246 -307h-245l-246 307h248l121 -164l122 164h246z" />
    <glyph glyph-name="Sacute" unicode="&#x15a;" 
d="M809 420c0 48 -24.1689 86.665 -72.502 115.998s-107.333 53.833 -177 73.5s-139 42.834 -208 69.501s-127.833 70.667 -176.5 132s-73 139 -73 233c0 116 46.5 215 139.5 297s213.833 123 362.5 123c58.667 0 115.334 -6.83301 170.001 -20.5s99.5 -29.667 134.5 -48
s65.667 -37 92 -56s45.166 -35.5 56.499 -49.5l18 -20l-184 -195c-8 9.33301 -19.167 20.833 -33.5 34.5s-44.5 31.834 -90.5 54.501s-93.333 34 -142 34c-58.667 0 -105.834 -15 -141.501 -45s-53.5 -66.333 -53.5 -109c0 -48 24.167 -86.5 72.5 -115.5
s107 -53.5 176 -73.5s138.333 -43.333 208 -70s128.834 -70.667 177.501 -132s73 -139 73 -233c0 -132.667 -48.167 -241 -144.5 -325s-229.166 -126 -398.499 -126c-66.667 0 -131.167 8.16699 -193.5 24.5s-113.666 35.833 -153.999 58.5s-75.833 45.667 -106.5 69
s-52.667 43 -66 59l-23 25l185 184c9.33301 -10.667 22.5 -24.5 39.5 -41.5s54.833 -39.833 113.5 -68.5s120 -43 184 -43c74 0 131.833 17.333 173.5 52s62.5 78.667 62.5 132zM480.998 1608l164 307h287l-225 -307h-226z" />
    <glyph glyph-name="sacute" unicode="&#x15b;" horiz-adv-x="931" 
d="M819 870l-142.999 -162.999c-4 5.33301 -10.5 12.666 -19.5 21.999s-27.833 21.5 -56.5 36.5s-58 22.5 -88 22.5c-38 0 -68 -8.16699 -90 -24.5s-33 -35.166 -33 -56.499c0 -26 15.667 -47.667 47 -65s69.5 -32.833 114.5 -46.5s90.5 -30 136.5 -49
s84.667 -49.667 116 -92s47 -94.833 47 -157.5c0 -90 -35.5 -165.333 -106.5 -226s-168.5 -91 -292.5 -91c-53.333 0 -104 6.33301 -152 19s-87 28 -117 46s-56.167 35.833 -78.5 53.5s-38.5 32.5 -48.5 44.5l-14 21l154 153c5.33301 -8 13.833 -18.167 25.5 -30.5
s36.167 -29 73.5 -50s76 -31.5 116 -31.5c44 0 77.167 8.5 99.5 25.5s33.5 39.167 33.5 66.5s-15.667 50.166 -47 68.499s-70 34.333 -116 48s-91.5 30.167 -136.5 49.5s-83.167 49.333 -114.5 90s-47 92 -47 154c0 80.667 37.5 153.667 112.5 219s167.167 98 276.5 98
c69.333 0 133.166 -13 191.499 -39s98.833 -51.333 121.5 -76zM338.001 1137l164 307h286l-225 -307h-225z" />
    <glyph glyph-name="Scedilla" unicode="&#x15e;" 
d="M809 420c0 48 -24.167 86.6631 -72.5 115.996s-107.333 53.833 -177 73.5s-139 42.834 -208 69.501s-127.833 70.667 -176.5 132s-73 139 -73 233c0 116 46.5 215 139.5 297s213.833 123 362.5 123c58.667 0 115.334 -6.83301 170.001 -20.5s99.5 -29.667 134.5 -48
s65.667 -37 92 -56s45.166 -35.5 56.499 -49.5l18 -20l-184 -195c-8 9.33301 -19.167 20.833 -33.5 34.5s-44.5 31.834 -90.5 54.501s-93.333 34 -142 34c-58.667 0 -105.834 -15 -141.501 -45s-53.5 -66.333 -53.5 -109c0 -48 24.167 -86.5 72.5 -115.5
s107 -53.5 176 -73.5s138.333 -43.333 208 -70s128.834 -70.667 177.501 -132s73 -139 73 -233c0 -122.667 -42 -225 -126 -307s-200.333 -129.333 -349 -142l-37 -73c5.33301 0 12 -0.333008 20 -1s22.667 -4.16699 44 -10.5s40.166 -15 56.499 -26s31 -28.333 44 -52
s19.5 -51.834 19.5 -84.501c0 -57.333 -20.167 -104.166 -60.5 -140.499s-95.166 -54.5 -164.499 -54.5c-40.667 0 -79.834 7.5 -117.501 22.5s-64.834 30.833 -81.501 47.5l-27 22l62 113c40.667 -34 88.334 -51 143.001 -51c48 0 72 17 72 51s-24 51 -72 51l-51 -10
l-51 61l61 137c-58.667 5.33301 -114.667 17 -168 35s-97.666 37.833 -132.999 59.5s-66.333 42.834 -93 63.501s-46 38.334 -58 53.001l-19 21l185 184c9.33301 -10.667 22.5 -24.5 39.5 -41.5s54.833 -39.833 113.5 -68.5s120 -43 184 -43c74 0 131.833 17.333 173.5 52
s62.5 78.667 62.5 132z" />
    <glyph glyph-name="scedilla" unicode="&#x15f;" horiz-adv-x="931" 
d="M819 870l-142.998 -162.999c-4 5.33301 -10.5 12.666 -19.5 21.999s-27.833 21.5 -56.5 36.5s-58 22.5 -88 22.5c-38 0 -68 -8.16699 -90 -24.5s-33 -35.166 -33 -56.499c0 -26 15.667 -47.667 47 -65s69.5 -32.833 114.5 -46.5s90.5 -30 136.5 -49
s84.667 -49.667 116 -92s47 -94.833 47 -157.5c0 -82 -30 -152.333 -90 -211s-142.667 -92.667 -248 -102l-41 -86c5.33301 0 12.166 -0.333008 20.499 -1s23 -4.16699 44 -10.5s39.667 -15 56 -26s31 -28.333 44 -52s19.5 -51.834 19.5 -84.501
c0 -57.333 -20 -104.166 -60 -140.499s-95 -54.5 -165 -54.5c-40.667 0 -79.834 7.5 -117.501 22.5s-65.5 30.833 -83.5 47.5l-24 22l61 113c40.667 -34 88.667 -51 144 -51c48 0 71.833 17 71.5 51s-24.166 51 -71.499 51l-52 -10l-51 61l66 150
c-68 8 -129.833 26.667 -185.5 56s-93.5 57 -113.5 83l-33 39l154 153c5.33301 -8 13.833 -18.167 25.5 -30.5s36.167 -29 73.5 -50s76 -31.5 116 -31.5c44 0 77.167 8.5 99.5 25.5s33.5 39.167 33.5 66.5s-15.667 50.166 -47 68.499s-70 34.333 -116 48
s-91.5 30.167 -136.5 49.5s-83.167 49.333 -114.5 90s-47 92 -47 154c0 80.667 37.5 153.667 112.5 219s167.167 98 276.5 98c69.333 0 133.166 -13 191.499 -39s98.833 -51.333 121.5 -76z" />
    <glyph glyph-name="Scaron" unicode="&#x160;" 
d="M809 420c0 48 -24.1689 86.665 -72.502 115.998s-107.333 53.833 -177 73.5s-139 42.834 -208 69.501s-127.833 70.667 -176.5 132s-73 139 -73 233c0 116 46.5 215 139.5 297s213.833 123 362.5 123c58.667 0 115.334 -6.83301 170.001 -20.5s99.5 -29.667 134.5 -48
s65.667 -37 92 -56s45.166 -35.5 56.499 -49.5l18 -20l-184 -195c-8 9.33301 -19.167 20.833 -33.5 34.5s-44.5 31.834 -90.5 54.501s-93.333 34 -142 34c-58.667 0 -105.834 -15 -141.501 -45s-53.5 -66.333 -53.5 -109c0 -48 24.167 -86.5 72.5 -115.5
s107 -53.5 176 -73.5s138.333 -43.333 208 -70s128.834 -70.667 177.501 -132s73 -139 73 -233c0 -132.667 -48.167 -241 -144.5 -325s-229.166 -126 -398.499 -126c-66.667 0 -131.167 8.16699 -193.5 24.5s-113.666 35.833 -153.999 58.5s-75.833 45.667 -106.5 69
s-52.667 43 -66 59l-23 25l185 184c9.33301 -10.667 22.5 -24.5 39.5 -41.5s54.833 -39.833 113.5 -68.5s120 -43 184 -43c74 0 131.833 17.333 173.5 52s62.5 78.667 62.5 132zM972.998 1915l-246 -307h-246l-245 307h247l121 -164l123 164h246z" />
    <glyph glyph-name="scaron" unicode="&#x161;" horiz-adv-x="931" 
d="M819 870l-142.999 -162.999c-4 5.33301 -10.5 12.666 -19.5 21.999s-27.833 21.5 -56.5 36.5s-58 22.5 -88 22.5c-38 0 -68 -8.16699 -90 -24.5s-33 -35.166 -33 -56.499c0 -26 15.667 -47.667 47 -65s69.5 -32.833 114.5 -46.5s90.5 -30 136.5 -49
s84.667 -49.667 116 -92s47 -94.833 47 -157.5c0 -90 -35.5 -165.333 -106.5 -226s-168.5 -91 -292.5 -91c-53.333 0 -104 6.33301 -152 19s-87 28 -117 46s-56.167 35.833 -78.5 53.5s-38.5 32.5 -48.5 44.5l-14 21l154 153c5.33301 -8 13.833 -18.167 25.5 -30.5
s36.167 -29 73.5 -50s76 -31.5 116 -31.5c44 0 77.167 8.5 99.5 25.5s33.5 39.167 33.5 66.5s-15.667 50.166 -47 68.499s-70 34.333 -116 48s-91.5 30.167 -136.5 49.5s-83.167 49.333 -114.5 90s-47 92 -47 154c0 80.667 37.5 153.667 112.5 219s167.167 98 276.5 98
c69.333 0 133.166 -13 191.499 -39s98.833 -51.333 121.5 -76zM829.001 1444l-245 -307h-246l-246 307h248l121 -164l123 164h245z" />
    <glyph glyph-name="uni0162" unicode="&#x162;" horiz-adv-x="1208" 
d="M41 1434h1126v-277h-409v-1157h-307v1157h-410v277zM379 -471l92 307h256l-143 -307h-205z" />
    <glyph glyph-name="uni0163" unicode="&#x163;" horiz-adv-x="829" 
d="M246 1116l0.000976562 184h246v-317h204v-246h-204v-399c0 -31.333 11.5 -58 34.5 -80s52.167 -33 87.5 -33c18 0 35.5 1.83301 52.5 5.5s29.833 7.5 38.5 11.5l12 4v-236c-54.667 -20.667 -116.334 -30.667 -185.001 -30c-211.333 0 -317 116 -317 348v409h-174v246h92
c31.333 0 58 12.333 80 37s33 56.667 33 96zM256.001 -471l92 307h256l-143 -307h-205z" />
    <glyph glyph-name="Tcaron" unicode="&#x164;" horiz-adv-x="1208" 
d="M41 1434h1126v-277h-409v-1157h-307v1157h-410v277zM973 1915l-246 -307h-246l-245 307h247l121 -164l123 164h246z" />
    <glyph glyph-name="tcaron" unicode="&#x165;" horiz-adv-x="870" 
d="M246 1116l0.000976562 184h246v-317h204v-246h-204v-399c0 -31.333 11.5 -58 34.5 -80s52.167 -33 87.5 -33c18 0 35.5 1.83301 52.5 5.5s29.833 7.5 38.5 11.5l12 4v-236c-54.667 -20.667 -116.334 -30.667 -185.001 -30c-211.333 0 -317 116 -317 348v409h-174v246h92
c31.333 0 58 12.333 80 37s33 56.667 33 96zM645.001 1126l92 308h256l-143 -308h-205z" />
    <glyph glyph-name="Umacron" unicode="&#x16a;" horiz-adv-x="1597" 
d="M799 246c87.333 0 162.001 32.333 224.001 97s93 145 93 241v850h307v-850c0 -174.667 -59.333 -320.834 -178 -438.501s-267.5 -176.5 -446.5 -176.5s-327.833 58.833 -446.5 176.5s-178 263.834 -178 438.501v850h307v-850c0 -95.333 31.167 -175.5 93.5 -240.5
s137.166 -97.5 224.499 -97.5zM1126 1874v-205h-655v205h655z" />
    <glyph glyph-name="umacron" unicode="&#x16b;" 
d="M799 0l0.00195312 102c-8 -9.33301 -19.333 -20.833 -34 -34.5s-46.834 -31.667 -96.501 -54s-101.834 -33.5 -156.501 -33.5c-114.667 0 -208.167 38.5 -280.5 115.5s-108.5 179.5 -108.5 307.5v601h276v-574c0 -56 18.5 -102.333 55.5 -139s83.5 -55 139.5 -55
c62.667 0 112.5 20.333 149.5 61s55.5 98.667 55.5 174v533h276v-1004h-276zM922.002 1403v-205h-656v205h656z" />
    <glyph glyph-name="Uring" unicode="&#x16e;" horiz-adv-x="1597" 
d="M799 246c87.333 0 162.001 32.333 224.001 97s93 145 93 241v850h307v-850c0 -174.667 -59.333 -320.834 -178 -438.501s-267.5 -176.5 -446.5 -176.5s-327.833 58.833 -446.5 176.5s-178 263.834 -178 438.501v850h307v-850c0 -95.333 31.167 -175.5 93.5 -240.5
s137.166 -97.5 224.499 -97.5zM717.001 1782c0 -54.667 27.333 -82 82 -82s82 27.333 82 82s-27.333 82 -82 82s-82 -27.333 -82 -82zM1034 1782c0 -61.333 -22.833 -114.333 -68.5 -159s-101.334 -67 -167.001 -67s-121.334 22.333 -167.001 67s-68.5 97.667 -68.5 159
s22.833 114.166 68.5 158.499s101.334 66.5 167.001 66.5s121.334 -22.167 167.001 -66.5s68.5 -97.166 68.5 -158.499z" />
    <glyph glyph-name="uring" unicode="&#x16f;" 
d="M799 0l0.00195312 102c-8 -9.33301 -19.333 -20.833 -34 -34.5s-46.834 -31.667 -96.501 -54s-101.834 -33.5 -156.501 -33.5c-114.667 0 -208.167 38.5 -280.5 115.5s-108.5 179.5 -108.5 307.5v601h276v-574c0 -56 18.5 -102.333 55.5 -139s83.5 -55 139.5 -55
c62.667 0 112.5 20.333 149.5 61s55.5 98.667 55.5 174v533h276v-1004h-276zM512.002 1331c0 -54.667 27.333 -82 82 -82s82 27.333 82 82s-27.333 82 -82 82s-82 -27.333 -82 -82zM829.002 1331c0 -61.333 -22.833 -114.166 -68.5 -158.499s-101.167 -66.5 -166.5 -66.5
s-121 22.167 -167 66.5s-69 97.166 -69 158.499s23 114.166 69 158.499s101.667 66.5 167 66.5s120.833 -22.167 166.5 -66.5s68.5 -97.166 68.5 -158.499z" />
    <glyph glyph-name="Uhungarumlaut" unicode="&#x170;" horiz-adv-x="1597" 
d="M799 246c87.333 0 162.001 32.333 224.001 97s93 145 93 241v850h307v-850c0 -174.667 -59.333 -320.834 -178 -438.501s-267.5 -176.5 -446.5 -176.5s-327.833 58.833 -446.5 176.5s-178 263.834 -178 438.501v850h307v-850c0 -95.333 31.167 -175.5 93.5 -240.5
s137.166 -97.5 224.499 -97.5zM492.001 1608l163 307h277l-236 -307h-204zM881.001 1608l163 307h277l-236 -307h-204z" />
    <glyph glyph-name="uhungarumlaut" unicode="&#x171;" 
d="M799 0l0.00195312 102c-8 -9.33301 -19.333 -20.833 -34 -34.5s-46.834 -31.667 -96.501 -54s-101.834 -33.5 -156.501 -33.5c-114.667 0 -208.167 38.5 -280.5 115.5s-108.5 179.5 -108.5 307.5v601h276v-574c0 -56 18.5 -102.333 55.5 -139s83.5 -55 139.5 -55
c62.667 0 112.5 20.333 149.5 61s55.5 98.667 55.5 174v533h276v-1004h-276zM276.002 1137l164 307h277l-236 -307h-205zM666.002 1137l163 307h277l-236 -307h-204z" />
    <glyph glyph-name="Uogonek" unicode="&#x172;" horiz-adv-x="1597" 
d="M799 246c87.333 0 162.001 32.335 224.001 97.002s93 145 93 241v850h307v-850c0 -157.333 -49.167 -292.333 -147.5 -405s-224.5 -180 -378.5 -202c-38 -65.333 -57 -126 -57 -182c0 -54.667 30.667 -82 92 -82c18 0 35.5 1.83301 52.5 5.5s29.5 7.5 37.5 11.5l12 4
v-154c-40.667 -20.667 -95.334 -31 -164.001 -31c-65.333 0 -119.166 20.167 -161.499 60.5s-63.5 89.833 -63.5 148.5c0 74 31.333 145.667 94 215c-164 13.333 -299.167 77.166 -405.5 191.499s-159.5 254.166 -159.5 419.499v850h307v-850
c0 -95.333 31.167 -175.5 93.5 -240.5s137.166 -97.5 224.499 -97.5z" />
    <glyph glyph-name="uogonek" unicode="&#x173;" 
d="M799 0l0.000976562 101.999c-8 -9.33301 -19.333 -20.833 -34 -34.5s-46.834 -31.667 -96.501 -54s-101.834 -33.5 -156.501 -33.5c-114.667 0 -208.167 38.5 -280.5 115.5s-108.5 179.5 -108.5 307.5v601h276v-574c0 -56 18.5 -102.333 55.5 -139s83.5 -55 139.5 -55
c62.667 0 112.5 20.333 149.5 61s55.5 98.667 55.5 174v533h276v-1004h-133c-48 -68 -72 -136.333 -72 -205c0 -54.667 31 -82 93 -82c18 0 35.333 1.83301 52 5.5s29.334 7.5 38.001 11.5l12 4v-154c-40.667 -20.667 -95.334 -31 -164.001 -31
c-65.333 0 -119.166 20.167 -161.499 60.5s-63.5 89.833 -63.5 148.5c0 40.667 10.167 81.334 30.5 122.001s40.833 71 61.5 91z" />
    <glyph glyph-name="Ydieresis" unicode="&#x178;" horiz-adv-x="1372" 
d="M348 1434l338 -615l338 615h328l-512 -922v-512h-308v512l-512 922h328zM317 1751c0 40.667 15.5 76.5 46.5 107.5s66.833 46.5 107.5 46.5s76.5 -15.5 107.5 -46.5s46.5 -66.833 46.5 -107.5s-15.5 -76.5 -46.5 -107.5s-66.833 -46.5 -107.5 -46.5
s-76.5 15.5 -107.5 46.5s-46.5 66.833 -46.5 107.5zM768 1751c0 40.667 15.333 76.5 46 107.5s66.5 46.5 107.5 46.5s76.833 -15.5 107.5 -46.5s46 -66.833 46 -107.5s-15.333 -76.5 -46 -107.5s-66.5 -46.5 -107.5 -46.5s-76.833 15.5 -107.5 46.5s-46 66.833 -46 107.5z
" />
    <glyph glyph-name="Zacute" unicode="&#x179;" horiz-adv-x="1331" 
d="M829 1157h-696v277h1075v-277l-727 -881h748v-276h-1127v276zM553 1608l164 307h287l-226 -307h-225z" />
    <glyph glyph-name="zacute" unicode="&#x17a;" horiz-adv-x="1024" 
d="M911 1004v-246l-491 -512h512v-246h-860v246l491 512h-471v246h819zM389 1137l164 307h287l-226 -307h-225z" />
    <glyph glyph-name="Zdotaccent" unicode="&#x17b;" horiz-adv-x="1331" 
d="M829 1157h-696v277h1075v-277l-727 -881h748v-276h-1127v276zM829 1761.5c0 -46.333 -14.667 -83.5 -44 -111.5s-69 -42 -119 -42c-46.667 0 -84 14 -112 42s-42 65.167 -42 111.5s14 83.5 42 111.5s65.333 42 112 42c50.667 0 90.5 -14 119.5 -42
s43.5 -65.167 43.5 -111.5z" />
    <glyph glyph-name="zdotaccent" unicode="&#x17c;" horiz-adv-x="1024" 
d="M911 1004v-246l-491 -512h512v-246h-860v246l491 512h-471v246h819zM666 1290.5c0 -46.333 -14.667 -83.5 -44 -111.5s-69.333 -42 -120 -42c-46.667 0 -84 14 -112 42s-42 65.167 -42 111.5s14 83.5 42 111.5s65.333 42 112 42c50.667 0 90.667 -14 120 -42
s44 -65.167 44 -111.5z" />
    <glyph glyph-name="Zcaron" unicode="&#x17d;" horiz-adv-x="1331" 
d="M829 1157h-696v277h1075v-277l-727 -881h748v-276h-1127v276zM1024 1915l-246 -307h-246l-245 307h248l120 -164l123 164h246z" />
    <glyph glyph-name="zcaron" unicode="&#x17e;" horiz-adv-x="1024" 
d="M911 1004v-246l-491 -512h512v-246h-860v246l491 512h-471v246h819zM860 1444l-246 -307h-245l-246 307h248l121 -164l122 164h246z" />
    <glyph glyph-name="florin" unicode="&#x192;" horiz-adv-x="788" 
d="M512 614l-134.999 -696.001c-22 -117.333 -61.333 -204.666 -118 -261.999s-139.667 -86 -249 -86c-24.667 0 -49.5 1.66699 -74.5 5s-44.5 7 -58.5 11l-20 4v236c34 -13.333 68 -20.333 102 -21c80.667 0 128.334 37.667 143.001 113l134 696h-134v246h174l43 246
c20.667 116 59.667 203 117 261s140.666 87 249.999 87c24.667 0 49.667 -1.66699 75 -5s44.666 -7 57.999 -11l21 -4v-236c-34 13.333 -68.333 20.333 -103 21c-83.333 0 -131 -37.667 -143 -113l-41 -246h195v-246h-236z" />
    <glyph glyph-name="uni0218" unicode="&#x218;" 
d="M809 420c0 48 -24.1689 86.665 -72.502 115.998s-107.333 53.833 -177 73.5s-139 42.834 -208 69.501s-127.833 70.667 -176.5 132s-73 139 -73 233c0 116 46.5 215 139.5 297s213.833 123 362.5 123c58.667 0 115.334 -6.83301 170.001 -20.5s99.5 -29.667 134.5 -48
s65.667 -37 92 -56s45.166 -35.5 56.499 -49.5l18 -20l-184 -195c-8 9.33301 -19.167 20.833 -33.5 34.5s-44.5 31.834 -90.5 54.501s-93.333 34 -142 34c-58.667 0 -105.834 -15 -141.501 -45s-53.5 -66.333 -53.5 -109c0 -48 24.167 -86.5 72.5 -115.5
s107 -53.5 176 -73.5s138.333 -43.333 208 -70s128.834 -70.667 177.501 -132s73 -139 73 -233c0 -132.667 -48.167 -241 -144.5 -325s-229.166 -126 -398.499 -126c-66.667 0 -131.167 8.16699 -193.5 24.5s-113.666 35.833 -153.999 58.5s-75.833 45.667 -106.5 69
s-52.667 43 -66 59l-23 25l185 184c9.33301 -10.667 22.5 -24.5 39.5 -41.5s54.833 -39.833 113.5 -68.5s120 -43 184 -43c74 0 131.833 17.333 173.5 52s62.5 78.667 62.5 132zM388.998 -471.002l92 307h256l-143 -307h-205z" />
    <glyph glyph-name="uni0219" unicode="&#x219;" horiz-adv-x="931" 
d="M819 870l-142.999 -162.999c-4 5.33301 -10.5 12.666 -19.5 21.999s-27.833 21.5 -56.5 36.5s-58 22.5 -88 22.5c-38 0 -68 -8.16699 -90 -24.5s-33 -35.166 -33 -56.499c0 -26 15.667 -47.667 47 -65s69.5 -32.833 114.5 -46.5s90.5 -30 136.5 -49
s84.667 -49.667 116 -92s47 -94.833 47 -157.5c0 -90 -35.5 -165.333 -106.5 -226s-168.5 -91 -292.5 -91c-53.333 0 -104 6.33301 -152 19s-87 28 -117 46s-56.167 35.833 -78.5 53.5s-38.5 32.5 -48.5 44.5l-14 21l154 153c5.33301 -8 13.833 -18.167 25.5 -30.5
s36.167 -29 73.5 -50s76 -31.5 116 -31.5c44 0 77.167 8.5 99.5 25.5s33.5 39.167 33.5 66.5s-15.667 50.166 -47 68.499s-70 34.333 -116 48s-91.5 30.167 -136.5 49.5s-83.167 49.333 -114.5 90s-47 92 -47 154c0 80.667 37.5 153.667 112.5 219s167.167 98 276.5 98
c69.333 0 133.166 -13 191.499 -39s98.833 -51.333 121.5 -76zM246.001 -470.999l92 307h256l-143 -307h-205z" />
    <glyph glyph-name="uni021A" unicode="&#x21a;" horiz-adv-x="1208" 
d="M41 1434h1126v-277h-409v-1157h-307v1157h-410v277zM379 -471l92 307h256l-143 -307h-205z" />
    <glyph glyph-name="uni021B" unicode="&#x21b;" horiz-adv-x="829" 
d="M246 1116l0.000976562 184h246v-317h204v-246h-204v-399c0 -31.333 11.5 -58 34.5 -80s52.167 -33 87.5 -33c18 0 35.5 1.83301 52.5 5.5s29.833 7.5 38.5 11.5l12 4v-236c-54.667 -20.667 -116.334 -30.667 -185.001 -30c-211.333 0 -317 116 -317 348v409h-174v246h92
c31.333 0 58 12.333 80 37s33 56.667 33 96zM256.001 -471l92 307h256l-143 -307h-205z" />
    <glyph glyph-name="uni02BC" unicode="&#x2bc;" horiz-adv-x="471" 
d="M61 1137l93 307h256l-144 -307h-205z" />
    <glyph glyph-name="circumflex" unicode="&#x2c6;" horiz-adv-x="860" 
d="M553 1444l246 -307h-246l-123 163l-123 -163h-246l246 307h246z" />
    <glyph glyph-name="caron" unicode="&#x2c7;" horiz-adv-x="860" 
d="M799 1444l-246 -307h-246l-246 307h248l121 -164l123 164h246z" />
    <glyph glyph-name="breve" unicode="&#x2d8;" horiz-adv-x="778" 
d="M389 1321c35.333 0 64.668 11.667 88.001 35s35 52.666 35 87.999h205c0 -87.333 -30.833 -160.333 -92.5 -219s-140.167 -88 -235.5 -88s-173.833 29.333 -235.5 88s-92.5 131.667 -92.5 219h205c0 -35.333 11.667 -64.666 35 -87.999s52.666 -35 87.999 -35z" />
    <glyph glyph-name="dotaccent" unicode="&#x2d9;" horiz-adv-x="440" 
d="M379 1310.5c0 -46.333 -14.667 -83.5 -44 -111.5s-69.333 -42 -120 -42c-46.667 0 -84 14 -112 42s-42 65.167 -42 111.5s14 83.5 42 111.5s65.333 42 112 42c50.667 0 90.667 -14 120 -42s44 -65.167 44 -111.5z" />
    <glyph glyph-name="ring" unicode="&#x2da;" horiz-adv-x="593" 
d="M215 1239c0 -54.667 27.333 -82 82 -82s82 27.333 82 82s-27.333 82 -82 82s-82 -27.333 -82 -82zM532 1239c0 -61.333 -22.833 -114.166 -68.5 -158.499s-101.167 -66.5 -166.5 -66.5s-121 22.167 -167 66.5s-69 97.166 -69 158.499s23 114.166 69 158.499
s101.667 66.5 167 66.5s120.833 -22.167 166.5 -66.5s68.5 -97.166 68.5 -158.499z" />
    <glyph glyph-name="ogonek" unicode="&#x2db;" horiz-adv-x="512" 
d="M184 0l144 -0.000976562c-48 -68 -72 -136.333 -72 -205c0 -54.667 30.667 -82 92 -82c18 0 35.5 1.83301 52.5 5.5s29.5 7.5 37.5 11.5l13 4v-154c-40.667 -20.667 -95.334 -31 -164.001 -31c-65.333 0 -119.333 20.167 -162 60.5s-64 89.833 -64 148.5
c0 40.667 10.333 81.334 31 122.001s41.334 71 62.001 91z" />
    <glyph glyph-name="tilde" unicode="&#x2dc;" horiz-adv-x="849" 
d="M573 1147c-52 0 -102.832 17 -152.499 51s-87.5 51 -113.5 51c-48 0 -71.667 -34 -71 -102h-175c0 104 19.833 181.167 59.5 231.5s93.167 75.5 160.5 75.5c50.667 0 101.167 -18.833 151.5 -56.5s87.166 -56.5 110.499 -56.5c48 0 71.667 37.667 71 113h174
c0 -102.667 -19.5 -179.5 -58.5 -230.5s-91.167 -76.5 -156.5 -76.5z" />
    <glyph glyph-name="hungarumlaut" unicode="&#x2dd;" horiz-adv-x="952" 
d="M61 1137l164 307h277l-236 -307h-205zM451 1137l163 307h277l-236 -307h-204z" />
    <glyph glyph-name="uni0401" unicode="&#x401;" horiz-adv-x="1361" 
d="M492 276h768v-276h-1076v1434h1055v-277h-747v-287h583v-276h-583v-318zM346 1755.5c0 41 15.333 76.833 46 107.5s66.5 46 107.5 46s76.833 -15.333 107.5 -46s46 -66.5 46 -107.5s-15.333 -76.833 -46 -107.5s-66.5 -46 -107.5 -46s-76.833 15.333 -107.5 46
s-46 66.5 -46 107.5zM797 1755.5c0 41 15.333 76.833 46 107.5s66.5 46 107.5 46s76.833 -15.333 107.5 -46s46 -66.5 46 -107.5s-15.333 -76.833 -46 -107.5s-66.5 -46 -107.5 -46s-76.833 15.333 -107.5 46s-46 66.5 -46 107.5z" />
    <glyph glyph-name="uni0402" unicode="&#x402;" horiz-adv-x="1505" 
d="M1116 461c0 57.333 -21.166 105.834 -63.499 145.501s-96.166 59.5 -161.499 59.5c-75.333 0 -136.833 -22.667 -184.5 -68s-71.5 -101.333 -71.5 -168v-430h-307v1157h-328v277h963v-277h-328v-317c8 8 20.167 17.5 36.5 28.5s51.166 26 104.499 45
s108.666 28.5 165.999 28.5c320.667 0 481 -160.333 481 -481c0 -152.667 -43 -272.834 -129 -360.501s-203.333 -131.5 -352 -131.5h-61v277c76.667 0 135 19.167 175 57.5s60 90.833 60 157.5z" />
    <glyph glyph-name="uni0403" unicode="&#x403;" horiz-adv-x="1177" 
d="M553 1608l164 307h287l-226 -307h-225zM184 0v1434h973v-277h-665v-1157h-308z" />
    <glyph glyph-name="uni0404" unicode="&#x404;" horiz-adv-x="1546" 
d="M881 1464c75.333 0 147.001 -9.83301 215.001 -29.5s123.833 -43.5 167.5 -71.5s82.334 -56 116.001 -84s57.834 -51.667 72.501 -71l23 -30l-195 -195c-4 5.33301 -9.5 12.833 -16.5 22.5s-22.667 26.167 -47 49.5s-50.833 43.833 -79.5 61.5s-66.334 34 -113.001 49
s-94.334 22.5 -143.001 22.5c-112 0 -208.333 -31.5 -289 -94.5s-134.667 -140.833 -162 -233.5h635v-276h-635c27.333 -98 80 -178.833 158 -242.5s175.667 -95.5 293 -95.5c52 0 101.833 7.16699 149.5 21.5s87.167 31.333 118.5 51s59 39.5 83 59.5s41.333 37.333 52 52
l16 21l185 -195c-5.33301 -8 -13.5 -18.5 -24.5 -31.5s-35.333 -36 -73 -69s-78 -62 -121 -87s-99.333 -47.833 -169 -68.5s-141.834 -31 -216.501 -31c-218.667 0 -403.167 73.167 -553.5 219.5s-225.5 322.5 -225.5 528.5s74.833 382 224.5 528s334.5 219 554.5 219z" />
    <glyph glyph-name="uni0405" unicode="&#x405;" 
d="M809 420c0 48 -24.1689 86.665 -72.502 115.998s-107.333 53.833 -177 73.5s-139 42.834 -208 69.501s-127.833 70.667 -176.5 132s-73 139 -73 233c0 116 46.5 215 139.5 297s213.833 123 362.5 123c58.667 0 115.334 -6.83301 170.001 -20.5s99.5 -29.667 134.5 -48
s65.667 -37 92 -56s45.166 -35.5 56.499 -49.5l18 -20l-184 -195c-8 9.33301 -19.167 20.833 -33.5 34.5s-44.5 31.834 -90.5 54.501s-93.333 34 -142 34c-58.667 0 -105.834 -15 -141.501 -45s-53.5 -66.333 -53.5 -109c0 -48 24.167 -86.5 72.5 -115.5
s107 -53.5 176 -73.5s138.333 -43.333 208 -70s128.834 -70.667 177.501 -132s73 -139 73 -233c0 -132.667 -48.167 -241 -144.5 -325s-229.166 -126 -398.499 -126c-66.667 0 -131.167 8.16699 -193.5 24.5s-113.666 35.833 -153.999 58.5s-75.833 45.667 -106.5 69
s-52.667 43 -66 59l-23 25l185 184c9.33301 -10.667 22.5 -24.5 39.5 -41.5s54.833 -39.833 113.5 -68.5s120 -43 184 -43c74 0 131.833 17.333 173.5 52s62.5 78.667 62.5 132z" />
    <glyph glyph-name="uni0406" unicode="&#x406;" horiz-adv-x="675" 
d="M184 0v1434h308v-1434h-308z" />
    <glyph glyph-name="uni0407" unicode="&#x407;" horiz-adv-x="675" 
d="M184 0v1434h308v-1434h-308zM-41 1740.5c0 41 15.333 76.833 46 107.5s66.5 46 107.5 46s76.833 -15.333 107.5 -46s46 -66.5 46 -107.5s-15.333 -76.833 -46 -107.5s-66.5 -46 -107.5 -46s-76.833 15.333 -107.5 46s-46 66.5 -46 107.5zM410 1740.5
c0 41 15.333 76.833 46 107.5s66.5 46 107.5 46s76.833 -15.333 107.5 -46s46 -66.5 46 -107.5s-15.333 -76.833 -46 -107.5s-66.5 -46 -107.5 -46s-76.833 15.333 -107.5 46s-46 66.5 -46 107.5z" />
    <glyph glyph-name="uni0408" unicode="&#x408;" horiz-adv-x="1054" 
d="M573 1434h307.999v-973c0 -146 -46.167 -264.5 -138.5 -355.5s-213.5 -136.5 -363.5 -136.5c-72.667 0 -140.667 14.667 -204 44s-108 58.333 -134 87l-41 43l184 185c4 -5.33301 10.5 -12.833 19.5 -22.5s28.833 -22 59.5 -37s62.334 -22.5 95.001 -22.5
c66.667 0 119.167 19 157.5 57s57.5 90.667 57.5 158v973z" />
    <glyph glyph-name="uni0409" unicode="&#x409;" horiz-adv-x="2242" 
d="M1638 0l-593.999 0.00292969v1157h-389v-164c0 -202 -11.167 -371.5 -33.5 -508.5s-55.333 -242.167 -99 -315.5s-92.5 -125 -146.5 -155s-118 -45 -192 -45c-30 0 -60.333 3.16699 -91 9.5s-53.334 12.166 -68.001 17.499l-25 8v293c34 -13.333 68 -20.333 102 -21
c53.333 0 96.5 16.167 129.5 48.5s60.667 102.666 83 210.999s33.5 260.166 33.5 455.499v443h1004v-471h286c147.333 0 269.5 -46.167 366.5 -138.5s145.5 -206.833 145.5 -343.5s-48.5 -251 -145.5 -343s-219.167 -138 -366.5 -138zM1352 276.003h276
c61.333 0 112.5 19.833 153.5 59.5s61.5 88.167 61.5 145.5s-20.5 105.833 -61.5 145.5s-92.167 59.5 -153.5 59.5h-276v-410z" />
    <glyph glyph-name="uni040A" unicode="&#x40a;" horiz-adv-x="2263" 
d="M1659 0h-594v686h-573v-686h-308v1434h308v-471h573v471h307v-471h287c147.333 0 269.5 -46.167 366.5 -138.5s145.5 -206.833 145.5 -343.5s-48.5 -251 -145.5 -343s-219.167 -138 -366.5 -138zM1372 276h277c61.333 0 112.5 19.833 153.5 59.5s61.5 88.167 61.5 145.5
s-20.5 105.833 -61.5 145.5s-92.167 59.5 -153.5 59.5h-277v-410z" />
    <glyph glyph-name="uni040B" unicode="&#x40b;" horiz-adv-x="1566" 
d="M1116 451c0 61.333 -21.166 112.5 -63.499 153.5s-96.166 61.5 -161.499 61.5c-75.333 0 -136.833 -21.167 -184.5 -63.5s-71.5 -92.833 -71.5 -151.5v-451h-307v1157h-328v277h963v-277h-328v-317c8 8 20.167 17.5 36.5 28.5s51.166 26 104.499 45
s108.666 28.5 165.999 28.5c320.667 0 481 -163.667 481 -491v-451h-307v451z" />
    <glyph glyph-name="uni040C" unicode="&#x40c;" horiz-adv-x="1454" 
d="M492 1434v-625l563 625h358l-532 -594l573 -840h-358l-420 614l-184 -204v-410h-308v1434h308zM649 1608l164 307h287l-226 -307h-225z" />
    <glyph glyph-name="uni040E" unicode="&#x40e;" horiz-adv-x="1310" 
d="M686 1792c35.333 0 64.668 11.667 88.001 35s35 52.666 35 87.999h205c0 -92.667 -30.5 -168.834 -91.5 -228.501s-139.833 -89.5 -236.5 -89.5s-175.5 29.833 -236.5 89.5s-91.5 135.834 -91.5 228.501h205c0 -35.333 11.667 -64.666 35 -87.999s52.666 -35 87.999 -35z
M358.002 1434l337.996 -675.999l287 676h328l-502 -1076c-58.667 -124 -127.667 -218 -207 -282s-177.666 -96 -294.999 -96c-27.333 0 -54.666 2.66699 -81.999 8s-47.666 10.666 -60.999 15.999l-21 6v266c34 -13.333 75 -20 123 -20
c102.667 0 181.334 47.667 236.001 143l41 72l-512 963h327z" />
    <glyph glyph-name="uni040F" unicode="&#x40f;" horiz-adv-x="1587" 
d="M1403 1434v-1434h-461v-297h-307v297h-451v1434h308v-1158h604v1158h307z" />
    <glyph glyph-name="uni0410" unicode="&#x410;" horiz-adv-x="1495" 
d="M922 604l-174 471l-175 -471h349zM1024 338h-553l-123 -338h-328l564 1434h327l564 -1434h-328z" />
    <glyph glyph-name="uni0411" unicode="&#x411;" horiz-adv-x="1392" 
d="M492 276h307c54.667 0 100.667 17.5 138 52.5s56 75.667 56 122s-18.667 87 -56 122s-83.333 52.5 -138 52.5h-307v-349zM809 0h-625v1434h994v-277h-686v-256h317c140.667 0 257.667 -44 351 -132s140 -194.167 140 -318.5s-46.667 -230.5 -140 -318.5
s-210.333 -132 -351 -132z" />
    <glyph glyph-name="uni0412" unicode="&#x412;" horiz-adv-x="1423" 
d="M834 0h-649.998v1434h615c130 0 237.5 -38 322.5 -114s127.5 -164.333 127.5 -265c0 -38 -5.33301 -74.167 -16 -108.5s-24.334 -62.833 -41.001 -85.5s-33.167 -42.167 -49.5 -58.5s-29.833 -27.833 -40.5 -34.5l-17 -10c6.66699 -2.66699 15.167 -6.5 25.5 -11.5
s29.166 -17.333 56.499 -37s51.333 -41.167 72 -64.5s39.5 -55.166 56.5 -95.499s25.5 -83.5 25.5 -129.5c0 -114.667 -45.667 -213.334 -137 -296.001s-208 -124 -350 -124zM492.002 256h327c56 0 102.5 17.667 139.5 53s55.5 79 55.5 131s-18.5 95.833 -55.5 131.5
s-83.5 53.5 -139.5 53.5h-327v-369zM778.002 1178h-286v-308h286c50.667 0 90.667 14 120 42s44 65.333 44 112s-14.667 84 -44 112s-69.333 42 -120 42z" />
    <glyph glyph-name="uni0413" unicode="&#x413;" horiz-adv-x="1177" 
d="M184 0v1434h973v-277h-665v-1157h-308z" />
    <glyph glyph-name="uni0414" unicode="&#x414;" horiz-adv-x="1525" 
d="M0 276h82.001c5.33301 5.33301 13.166 13.833 23.499 25.5s28.5 38.334 54.5 80.001s48.833 87.5 68.5 137.5s37.667 117.667 54 203s24.5 175.666 24.5 270.999v441h993v-1158h175v-573h-308v297h-860v-297h-307v573zM614.001 993
c0 -95.333 -7.83203 -185.333 -23.499 -270s-34.334 -153 -56.001 -205s-43.5 -97 -65.5 -135s-40.333 -65.333 -55 -82l-25 -25h604v881h-379v-164z" />
    <glyph glyph-name="uni0415" unicode="&#x415;" horiz-adv-x="1361" 
d="M492 276h768v-276h-1076v1434h1055v-277h-747v-287h583v-276h-583v-318z" />
    <glyph glyph-name="uni0416" unicode="&#x416;" horiz-adv-x="2109" 
d="M901 481l-123 133l-420 -614h-358l573 840l-532 594h358l502 -553v553h307v-553l502 553h358l-532 -594l573 -840h-358l-420 614l-123 -133v-481h-307v481z" />
    <glyph glyph-name="uni0417" unicode="&#x417;" horiz-adv-x="1290" 
d="M922 758c6.66699 -2.66699 16.166 -6.49902 28.499 -11.499s33.833 -17.333 64.5 -37s57.5 -41.834 80.5 -66.501s44.167 -58.834 63.5 -102.501s29 -90.834 29 -141.501c0 -120 -51.167 -221.667 -153.5 -305s-242.5 -125 -420.5 -125c-68 0 -134.167 8.5 -198.5 25.5
s-117.5 37.5 -159.5 61.5s-79.167 48 -111.5 72s-55.833 44 -70.5 60l-23 27l185 184l16 -16c6.66699 -6.66699 21.667 -19 45 -37s48 -33.667 74 -47s59 -25.5 99 -36.5s81.333 -16.5 124 -16.5c84.667 0 150.167 17.667 196.5 53s69.5 79 69.5 131
c0 53.333 -21.5 97.333 -64.5 132s-106.833 52 -191.5 52h-184v267h174c69.333 0 122.5 14.333 159.5 43s55.5 65.334 55.5 110.001c0 44 -19.5 80.667 -58.5 110s-94.5 44 -166.5 44c-52 0 -102.667 -11 -152 -33s-85.333 -43.667 -108 -65l-37 -35l-185 194
c4 5.33301 10.833 12.833 20.5 22.5s30.5 27.167 62.5 52.5s66.167 47.166 102.5 65.499s84.166 35.333 143.499 51s120.333 23.5 183 23.5c157.333 0 283.833 -39.5 379.5 -118.5s143.5 -172.5 143.5 -280.5c0 -45.333 -7.5 -86.666 -22.5 -123.999
s-33.167 -66.666 -54.5 -87.999s-42.166 -39.833 -62.499 -55.5s-38.166 -26.167 -53.499 -31.5z" />
    <glyph glyph-name="uni0418" unicode="&#x418;" horiz-adv-x="1648" 
d="M1464 0h-307v911l-706 -911h-267v1434h308v-912l706 912h266v-1434z" />
    <glyph glyph-name="uni0419" unicode="&#x419;" horiz-adv-x="1648" 
d="M819 1792c35.333 0 64.668 11.667 88.001 35s35 52.666 35 87.999h205c0 -92.667 -30.333 -168.834 -91 -228.501s-139.5 -89.5 -236.5 -89.5s-175.833 29.833 -236.5 89.5s-91 135.834 -91 228.501h204c0 -35.333 11.667 -64.666 35 -87.999s52.666 -35 87.999 -35z
M1464 0h-307v911l-706 -911h-267v1434h308v-912l706 912h266v-1434z" />
    <glyph glyph-name="uni041A" unicode="&#x41a;" horiz-adv-x="1454" 
d="M492 1434v-625l563 625h358l-532 -594l573 -840h-358l-420 614l-184 -204v-410h-308v1434h308z" />
    <glyph glyph-name="uni041B" unicode="&#x41b;" horiz-adv-x="1566" 
d="M1382 1434l0.000976562 -1434h-307v1157h-420v-164c0 -202 -11.167 -371.5 -33.5 -508.5s-55.333 -242.167 -99 -315.5s-92.5 -125 -146.5 -155s-118 -45 -192 -45c-30 0 -60.333 3.16699 -91 9.5s-53.334 12.166 -68.001 17.499l-25 8v293
c34 -13.333 68 -20.333 102 -21c53.333 0 96.5 16.167 129.5 48.5s60.667 102.666 83 210.999s33.5 260.166 33.5 455.499v443h1034z" />
    <glyph glyph-name="uni041C" unicode="&#x41c;" horiz-adv-x="1904" 
d="M952 809l496 625h272v-1434h-307v956l-461 -587l-460 583v-952h-308v1434h277z" />
    <glyph glyph-name="uni041D" unicode="&#x41d;" horiz-adv-x="1597" 
d="M1413 1434v-1434h-307v584h-614v-584h-308v1434h308v-574h614v574h307z" />
    <glyph glyph-name="uni041E" unicode="&#x41e;" horiz-adv-x="1761" 
d="M420 716.5c0 -132.333 44.667 -243.833 134 -334.5s198.166 -136 326.499 -136s237.166 45.333 326.499 136s134 202.167 134 334.5s-44.667 244 -134 335s-198.166 136.5 -326.499 136.5s-237.166 -45.5 -326.499 -136.5s-134 -202.667 -134 -335zM102 717
c0 206 75.167 382 225.5 528s334.666 219 552.999 219s402.666 -73 552.999 -219s225.5 -322 225.5 -528s-75.167 -382.167 -225.5 -528.5s-334.666 -219.5 -552.999 -219.5s-402.666 73.167 -552.999 219.5s-225.5 322.5 -225.5 528.5z" />
    <glyph glyph-name="uni041F" unicode="&#x41f;" horiz-adv-x="1587" 
d="M1403 1434v-1434h-307v1157h-604v-1157h-308v1434h1219z" />
    <glyph glyph-name="uni0420" unicode="&#x420;" horiz-adv-x="1392" 
d="M184 1434l604 -0.00195312c147.333 0 269.5 -46.167 366.5 -138.5s145.5 -206.666 145.5 -342.999s-48.333 -250.666 -145 -342.999s-219 -138.5 -367 -138.5h-296v-471h-308v1434zM778 1157l-286 0.000976562v-409h286c61.333 0 112.5 19.667 153.5 59
s61.5 87.666 61.5 144.999s-20.5 105.833 -61.5 145.5s-92.167 59.5 -153.5 59.5z" />
    <glyph glyph-name="uni0421" unicode="&#x421;" horiz-adv-x="1546" 
d="M881 1464c75.333 0 147.001 -9.83301 215.001 -29.5s123.833 -43.5 167.5 -71.5s82.334 -56 116.001 -84s57.834 -51.667 72.501 -71l23 -30l-195 -195c-4 5.33301 -9.5 12.833 -16.5 22.5s-22.667 26.167 -47 49.5s-50.833 43.833 -79.5 61.5s-66.334 34 -113.001 49
s-94.334 22.5 -143.001 22.5c-134 0 -246 -45 -336 -135s-135 -202 -135 -336s45 -246 135 -336s202 -135 336 -135c52 0 101.833 7.16699 149.5 21.5s87.167 31.333 118.5 51s59 39.5 83 59.5s41.333 37.333 52 52l16 21l185 -195c-5.33301 -8 -13.5 -18.5 -24.5 -31.5
s-35.333 -36 -73 -69s-78 -62 -121 -87s-99.333 -47.833 -169 -68.5s-141.834 -31 -216.501 -31c-218.667 0 -403.167 73.167 -553.5 219.5s-225.5 322.5 -225.5 528.5s75.167 382 225.5 528s334.833 219 553.5 219z" />
    <glyph glyph-name="uni0422" unicode="&#x422;" horiz-adv-x="1208" 
d="M41 1434h1126v-277h-409v-1157h-307v1157h-410v277z" />
    <glyph glyph-name="uni0423" unicode="&#x423;" horiz-adv-x="1310" 
d="M358 1434l337.996 -675.999l287 676h328l-502 -1076c-58.667 -124 -127.667 -218 -207 -282s-177.666 -96 -294.999 -96c-27.333 0 -54.666 2.66699 -81.999 8s-47.666 10.666 -60.999 15.999l-21 6v266c34 -13.333 75 -20 123 -20c102.667 0 181.334 47.667 236.001 143
l41 72l-512 963h327z" />
    <glyph glyph-name="uni0424" unicode="&#x424;" horiz-adv-x="1781" 
d="M389 737.5c0 -93 31.501 -169.5 94.501 -229.5s147.5 -92.667 253.5 -98v655c-106.667 -5.33301 -191.334 -38 -254.001 -98s-94 -136.5 -94 -229.5zM1044 143v-184h-307v184c-191.333 5.33301 -348.333 65.5 -471 180.5s-184 253 -184 414s61.5 298.833 184.5 413.5
s279.833 174.667 470.5 180v154h307v-154c191.333 -5.33301 348.5 -65.333 471.5 -180s184.5 -252.5 184.5 -413.5s-61.5 -299 -184.5 -414s-280.167 -175.167 -471.5 -180.5zM1393 737.5c0 93 -31.5 169.5 -94.5 229.5s-147.833 92.667 -254.5 98v-655
c106.667 5.33301 191.5 38 254.5 98s94.5 136.5 94.5 229.5z" />
    <glyph glyph-name="uni0425" unicode="&#x425;" horiz-adv-x="1433" 
d="M717 522l-348 -522h-349l502 748l-461 686h349l307 -461l307 461h348l-461 -686l502 -748h-348z" />
    <glyph glyph-name="uni0426" unicode="&#x426;" horiz-adv-x="1607" 
d="M184 0v1434h308v-1158h583v1158h307v-1158h174v-573h-307v297h-1065z" />
    <glyph glyph-name="uni0427" unicode="&#x427;" horiz-adv-x="1505" 
d="M471 1434v-441c0 -86 22.167 -151.833 66.5 -197.5s107.5 -68.5 189.5 -68.5c50.667 0 99.834 8.5 147.501 25.5s82.5 33.833 104.5 50.5l35 26v605h307v-1434h-307v532c-88.667 -54.667 -201.334 -81.667 -338.001 -81c-160 0 -285.333 47.333 -376 142
s-136 228 -136 400v441h307z" />
    <glyph glyph-name="uni0428" unicode="&#x428;" horiz-adv-x="2170" 
d="M1987 1434v-1434h-1803v1434h308v-1158h440v1158h307v-1158h440v1158h308z" />
    <glyph glyph-name="uni0429" unicode="&#x429;" horiz-adv-x="2211" 
d="M1987 1434v-1158h174v-573h-308v297h-1669v1434h308v-1158h440v1158h307v-1158h440v1158h308z" />
    <glyph glyph-name="uni042A" unicode="&#x42a;" horiz-adv-x="1525" 
d="M922 0h-584v1157h-338v277h645v-471h277c147.333 0 269.5 -46.167 366.5 -138.5s145.5 -206.833 145.5 -343.5s-48.5 -251 -145.5 -343s-219.167 -138 -366.5 -138zM645 276h266c61.333 0 112.5 19.833 153.5 59.5s61.5 88.167 61.5 145.5s-20.333 105.833 -61 145.5
s-92 59.5 -154 59.5h-266v-410z" />
    <glyph glyph-name="uni042B" unicode="&#x42b;" horiz-adv-x="1935" 
d="M1751 1434v-1434h-307v1434h307zM768 0h-584v1434h308v-471h276c147.333 0 269.5 -46.167 366.5 -138.5s145.5 -206.833 145.5 -343.5s-48.5 -251 -145.5 -343s-219.167 -138 -366.5 -138zM492 276h266c61.333 0 112.5 19.833 153.5 59.5s61.5 88.167 61.5 145.5
s-20.5 105.833 -61.5 145.5s-92.167 59.5 -153.5 59.5h-266v-410z" />
    <glyph glyph-name="uni042C" unicode="&#x42c;" horiz-adv-x="1392" 
d="M788 0h-604v1434h308v-471h296c147.333 0 269.5 -46.167 366.5 -138.5s145.5 -206.833 145.5 -343.5s-48.5 -251 -145.5 -343s-219.167 -138 -366.5 -138zM492 276h286c61.333 0 112.5 19.833 153.5 59.5s61.5 88.167 61.5 145.5s-20.5 105.833 -61.5 145.5
s-92.167 59.5 -153.5 59.5h-286v-410z" />
    <glyph glyph-name="uni042D" unicode="&#x42d;" horiz-adv-x="1546" 
d="M666 1464c220 0 404.669 -72.998 554.002 -218.998s224 -322 224 -528s-75.167 -382.167 -225.5 -528.5s-334.5 -219.5 -552.5 -219.5c-75.333 0 -147.5 10 -216.5 30s-126 44 -171 72s-84.5 56 -118.5 84s-58.667 51.333 -74 70l-25 31l185 195
c4 -5.33301 9.66699 -12.833 17 -22.5s24.333 -26.167 51 -49.5s54.667 -43.833 84 -61.5s68.333 -34 117 -49s99 -22.5 151 -22.5c117.333 0 214.833 31.667 292.5 95s130.167 144.333 157.5 243h-635v276h635c-27.333 92.667 -81.166 170.5 -161.499 233.5
s-176.5 94.5 -288.5 94.5c-49.333 0 -96.833 -7.16699 -142.5 -21.5s-83.5 -31.5 -113.5 -51.5s-56.333 -39.833 -79 -59.5s-38.667 -36.834 -48 -51.501l-17 -21l-194 195c5.33301 8 13.166 18.5 23.499 31.5s33.833 35.833 70.5 68.5s76.167 61.667 118.5 87
s97.666 48.166 165.999 68.499s140.166 30.5 215.499 30.5z" />
    <glyph glyph-name="uni042E" unicode="&#x42e;" horiz-adv-x="2232" 
d="M2130 716.5c0 -209 -71.001 -385.833 -213.001 -530.5s-313.333 -217 -514 -217c-184 0 -341.667 58.833 -473 176.5s-212.666 263.834 -243.999 438.501h-194v-584h-308v1434h308v-564h194c31.333 165.333 112.833 305.666 244.5 420.999s289.167 173 472.5 173
c200.667 0 372 -72.333 514 -217s213 -321.5 213 -530.5zM1823 717c0 135.333 -41.333 247.666 -124 336.999s-181.334 134 -296.001 134s-213.334 -44.667 -296.001 -134s-124 -201.666 -124 -336.999s41.333 -247.666 124 -336.999s181.334 -134 296.001 -134
s213.334 44.667 296.001 134s124 201.666 124 336.999z" />
    <glyph glyph-name="uni042F" unicode="&#x42f;" horiz-adv-x="1433" 
d="M1249 1434l0.000976562 -1434h-307v502h-266l-277 -502h-327l307 543c-6.66699 2.66699 -15.834 7 -27.501 13s-32.167 21.333 -61.5 46s-55.333 51.334 -78 80.001s-43.167 68.334 -61.5 119.001s-27.5 104.667 -27.5 162c0 132.667 46.333 244.334 139 335.001
s210 136 352 136h635zM430.001 962.997c0 -52 18.5 -95.833 55.5 -131.5s83.5 -53.5 139.5 -53.5h317v379h-317c-56 0 -102.5 -18.333 -139.5 -55s-55.5 -83 -55.5 -139z" />
    <glyph glyph-name="uni0430" unicode="&#x430;" horiz-adv-x="1095" 
d="M676 0l-0.00390625 102c-8 -9.33301 -19.167 -20.833 -33.5 -34.5s-45.5 -31.667 -93.5 -54s-98 -33.5 -150 -33.5c-100 0 -181.333 27.833 -244 83.5s-94 123.167 -94 202.5c0 82 26.333 150.333 79 205s125.334 90.334 218.001 107.001l318 57
c0 42 -15.333 76.333 -46 103s-73.334 40 -128.001 40c-45.333 0 -86.666 -8.5 -123.999 -25.5s-63.666 -34.5 -78.999 -52.5l-23 -24l-153 153c4 5.33301 9.5 12.5 16.5 21.5s22.667 24.5 47 46.5s50.833 41.5 79.5 58.5s66.334 32.667 113.001 47
s94.334 21.5 143.001 21.5c126.667 0 230 -37.833 310 -113.5s120 -170.834 120 -285.501v-625h-276zM470.996 205c62.667 0 112.5 19.832 149.5 59.499s55.5 94.834 55.5 165.501v31l-225 -41c-75.333 -12 -113 -49.667 -113 -113c0 -68 44.333 -102 133 -102z" />
    <glyph glyph-name="uni0431" unicode="&#x431;" horiz-adv-x="1239" 
d="M1137 481c0 -140.667 -47.166 -259.331 -141.499 -355.998s-214.5 -145 -360.5 -145c-164 0 -295.5 57 -394.5 171s-148.5 275.333 -148.5 484c0 233.333 44.333 409.666 133 528.999s215 195.666 379 228.999c72.667 15.333 139 32 199 50s101.667 32.667 125 44l35 18
l122 -205c-5.33301 -5.33301 -14.833 -12.333 -28.5 -21s-54.667 -25.667 -123 -51s-150.833 -49 -247.5 -71c-87.333 -19.333 -158.333 -56.5 -213 -111.5s-89.334 -123.5 -104.001 -205.5c2.66699 4 7 9 13 15s18.667 17.167 38 33.5s39.833 31 61.5 44
s49.167 24.667 82.5 35s67.333 15.5 102 15.5c124 0 233.5 -49.5 328.5 -148.5s142.5 -216.833 142.5 -353.5zM399.001 481.503c0 -75 22.667 -136.5 68 -184.5s101.333 -72 168 -72c62.667 0 115.834 24 159.501 72s65.5 109.5 65.5 184.5s-21.833 136.333 -65.5 184
s-96.834 71.5 -159.501 71.5c-66.667 0 -122.667 -23.833 -168 -71.5s-68 -109 -68 -184z" />
    <glyph glyph-name="uni0432" unicode="&#x432;" horiz-adv-x="1085" 
d="M123 1004l502.003 0.000976562c100 0 181.333 -27.333 244 -82s94 -119.667 94 -195c0 -45.333 -10.333 -85 -31 -119s-41.334 -56.333 -62.001 -67l-30 -19c4 -1.33301 9.66699 -3.33301 17 -6s20.666 -10.167 39.999 -22.5s36.166 -26.333 50.499 -42
s27.333 -37.167 39 -64.5s17.5 -57.333 17.5 -90c0 -84.667 -32.5 -155.334 -97.5 -212.001s-152.167 -85 -261.5 -85h-522v1004zM625.003 430.001h-226v-205h226c31.333 0 56.166 9.66699 74.499 29s27.5 44 27.5 74s-9.16699 54.5 -27.5 73.5s-43.166 28.5 -74.499 28.5z
M686.003 696.001c0 54.667 -27.333 82 -82 82h-205v-164h205c54.667 0 82 27.333 82 82z" />
    <glyph glyph-name="uni0433" unicode="&#x433;" horiz-adv-x="880" 
d="M850 1004v-256h-451v-748h-276v1004h727z" />
    <glyph glyph-name="uni0434" unicode="&#x434;" horiz-adv-x="1177" 
d="M-10 246l61 -0.000976562c4 4 9.83301 9.66699 17.5 17s21 25.333 40 54s35.667 60.167 50 94.5s27.333 79.833 39 136.5s17.5 116.334 17.5 179.001v277h768v-758h133v-482h-276v236h-574v-236h-276v482zM471 757.999v-62c0 -79.333 -10.833 -156.5 -32.5 -231.5
s-43.5 -130.167 -65.5 -165.5l-35 -53h369v512h-236z" />
    <glyph glyph-name="uni0435" unicode="&#x435;" horiz-adv-x="1167" 
d="M1075 410l-727 0.00292969c10.667 -54.667 39.667 -100.834 87 -138.501s107 -56.5 179 -56.5c52 0 100.167 10.167 144.5 30.5s75.5 40.833 93.5 61.5l29 31l143 -184l-18.5 -18.5c-8.33301 -8.33301 -26.166 -22.5 -53.499 -42.5s-56.333 -37.833 -87 -53.5
s-70.5 -29.5 -119.5 -41.5s-99.5 -18 -151.5 -18c-147.333 0 -273 51.167 -377 153.5s-156 225.166 -156 368.499s51.333 266.166 154 368.499s225.667 153.5 369 153.5s262.666 -47.833 357.999 -143.5s143 -215.167 143 -358.5zM584 788.003
c-58.667 0 -108.5 -17 -149.5 -51s-69.833 -78.333 -86.5 -133h461c-10.667 53.333 -36.167 97.333 -76.5 132s-89.833 52 -148.5 52z" />
    <glyph glyph-name="uni0436" unicode="&#x436;" horiz-adv-x="1607" 
d="M655 0v287l-92 102l-266 -389h-307l399 573l-379 431h318l327 -379v379h277v-379l328 379h317l-379 -431l399 -573h-307l-266 389l-92 -102v-287h-277z" />
    <glyph glyph-name="uni0437" unicode="&#x437;" horiz-adv-x="952" 
d="M829 727c0 -30 -5.33301 -57.6699 -16 -83.0029s-24.167 -45.166 -40.5 -59.499s-32.833 -26.666 -49.5 -36.999s-30.334 -16.833 -41.001 -19.5l-16 -6c5.33301 -1.33301 12.666 -3.66602 21.999 -6.99902s25.666 -11.166 48.999 -23.499s43.833 -27 61.5 -44
s34 -40.5 49 -70.5s22.5 -63.667 22.5 -101c0 -82 -37.5 -151.833 -112.5 -209.5s-180.833 -86.5 -317.5 -86.5c-53.333 0 -104.166 6.33301 -152.499 19s-88.166 28 -119.499 46s-58.666 35.833 -81.999 53.5s-39.666 32.5 -48.999 44.5l-17 21l154 153
c5.33301 -8 14.166 -18.167 26.499 -30.5s39 -29 80 -50s84.167 -31.5 129.5 -31.5c53.333 0 93.833 10.5 121.5 31.5s41.5 47.833 41.5 80.5c0 68 -54.333 102.333 -163 103h-103v184h103c44 0 77.167 8.5 99.5 25.5s33.5 39.167 33.5 66.5c0 68 -44.333 102.333 -133 103
c-32.667 0 -66.167 -7.5 -100.5 -22.5s-60.5 -30.833 -78.5 -47.5l-26 -22l-154 153c2.66699 4 7.5 9.83301 14.5 17.5s22.333 21 46 40s49.167 35.667 76.5 50s64 27.333 110 39s93.333 17.5 142 17.5c117.333 0 211.5 -29.333 282.5 -88s106.5 -128.334 106.5 -209.001z
" />
    <glyph glyph-name="uni0438" unicode="&#x438;" horiz-adv-x="1218" 
d="M834 1004h241v-1004h-276v563l-437 -563h-239v1004h276v-564z" />
    <glyph glyph-name="uni0439" unicode="&#x439;" horiz-adv-x="1218" 
d="M594 1321c35.333 0 64.668 11.667 88.001 35s35 52.666 35 87.999h205c0 -87.333 -30.833 -160.333 -92.5 -219s-140.167 -88 -235.5 -88s-173.833 29.333 -235.5 88s-92.5 131.667 -92.5 219h205c0 -35.333 11.667 -64.666 35 -87.999s52.666 -35 87.999 -35z
M834.002 1004h241v-1004h-276v563l-437 -563h-239v1004h276v-564z" />
    <glyph glyph-name="uni043A" unicode="&#x43a;" horiz-adv-x="1105" 
d="M1075 1004l-379 -431l400 -573h-308l-266 389l-123 -143v-246h-276v1004h276v-410l359 410h317z" />
    <glyph glyph-name="uni043B" unicode="&#x43b;" horiz-adv-x="1177" 
d="M225 1004l809.004 -0.00195312v-1004h-276v758h-266v-62c0 -187.333 -15.833 -336.166 -47.5 -446.499s-72.334 -184.666 -122.001 -222.999s-112.834 -57.5 -189.501 -57.5c-24.667 0 -48.834 2.83301 -72.501 8.5s-41.167 10.5 -52.5 14.5l-18 8v246
c20.667 -6.66699 41 -10 61 -10c40.667 0 72.667 10.5 96 31.5s42.166 68 56.499 141s21.5 179.167 21.5 318.5v277z" />
    <glyph glyph-name="uni043C" unicode="&#x43c;" horiz-adv-x="1351" 
d="M666 246l-267 348v-594h-276v1004h235l308 -400l307 400h235v-1004h-276v594z" />
    <glyph glyph-name="uni043D" unicode="&#x43d;" horiz-adv-x="1208" 
d="M399 379v-379h-276v1004h276v-379h389v379h277v-1004h-277v379h-389z" />
    <glyph glyph-name="uni043E" unicode="&#x43e;" horiz-adv-x="1208" 
d="M348 501.5c0 -75 24.333 -138 73 -189s106.334 -76.5 173.001 -76.5s124.334 25.5 173.001 76.5s73 114 73 189s-24.333 138.167 -73 189.5s-106.334 77 -173.001 77s-124.334 -25.667 -173.001 -77s-73 -114.5 -73 -189.5zM1126 502
c0 -139.333 -52.833 -261.166 -158.5 -365.499s-230.167 -156.5 -373.5 -156.5s-268 52.167 -374 156.5s-159 226.166 -159 365.499s53 261.166 159 365.499s230.667 156.5 374 156.5s267.833 -52.167 373.5 -156.5s158.5 -226.166 158.5 -365.499z" />
    <glyph glyph-name="uni043F" unicode="&#x43f;" horiz-adv-x="1208" 
d="M399 758v-758h-276v1004h942v-1004h-277v758h-389z" />
    <glyph glyph-name="uni0440" unicode="&#x440;" horiz-adv-x="1259" 
d="M696 -20c-57.333 0 -110.832 11.833 -160.499 35.5s-84.834 47.167 -105.501 70.5l-31 37v-553h-276v1434h276v-123c2.66699 4 6.83398 9 12.501 15s17.667 17.167 36 33.5s38.166 31 59.499 44s49 24.667 83 35s69.333 15.5 106 15.5c130 0 242.833 -50.5 338.5 -151.5
s143.5 -224.5 143.5 -370.5s-47.833 -269.5 -143.5 -370.5s-208.5 -151.5 -338.5 -151.5zM645.501 778c-68.333 0 -126.5 -25.833 -174.5 -77.5s-72 -117.834 -72 -198.501s24 -147 72 -199s106.167 -78 174.5 -78s126.333 26 174 78s71.5 118.333 71.5 199
s-23.833 146.834 -71.5 198.501s-105.667 77.5 -174 77.5z" />
    <glyph glyph-name="uni0441" unicode="&#x441;" horiz-adv-x="1075" 
d="M61 502c0 139.333 53.665 261.17 160.998 365.503s234.666 156.5 381.999 156.5c52 0 101.5 -7.16699 148.5 -21.5s85.5 -31.333 115.5 -51s56.667 -39.5 80 -59.5s40.333 -37.333 51 -52l15 -21l-174 -174c-5.33301 9.33301 -14.166 21.666 -26.499 36.999
s-39 35.166 -80 59.499s-84.167 36.5 -129.5 36.5c-72.667 0 -135.167 -27 -187.5 -81s-78.5 -119.167 -78.5 -195.5s26.333 -141.5 79 -195.5s115 -81 187 -81c45.333 0 88.5 11 129.5 33s70.833 44 89.5 66l27 34l164 -174c-4 -5.33301 -9.5 -12.833 -16.5 -22.5
s-23.167 -26 -48.5 -49s-52.666 -43.333 -81.999 -61s-67.5 -34 -114.5 -49s-96.5 -22.5 -148.5 -22.5c-147.333 0 -274.666 52.167 -381.999 156.5s-161 226.166 -161 365.499z" />
    <glyph glyph-name="uni0442" unicode="&#x442;" horiz-adv-x="972" 
d="M20 737v267h912v-267h-318v-737h-276v737h-318z" />
    <glyph glyph-name="uni0443" unicode="&#x443;" horiz-adv-x="1064" 
d="M358 -61l31 71.001l-389 994h287l235 -666l236 666h286l-399 -1065c-91.333 -246 -221 -369 -389 -369c-30 0 -59.667 2.66699 -89 8s-51 10.666 -65 15.999l-20 7v245c27.333 -13.333 61.333 -20 102 -20c83.333 0 141.333 37.667 174 113z" />
    <glyph glyph-name="uni0444" unicode="&#x444;" horiz-adv-x="1546" 
d="M625 215v553.002c-91.333 -5.33301 -162 -32.333 -212 -81s-75 -113.834 -75 -195.501s25 -146.834 75 -195.501s120.667 -75.667 212 -81zM901 -30.998v-399h-276v399c-161.333 5.33301 -295.666 58.666 -402.999 159.999s-161 222.166 -161 362.499
s53.667 261.166 161 362.499s241.666 154.666 402.999 159.999v420h276v-420c161.333 -5.33301 295.5 -58.666 402.5 -159.999s160.5 -222.166 160.5 -362.499s-53.5 -261.166 -160.5 -362.499s-241.167 -154.666 -402.5 -159.999zM901 768.002v-553.002
c91.333 5.33301 162 32.333 212 81s75 113.834 75 195.501s-25 146.834 -75 195.501s-120.667 75.667 -212 81z" />
    <glyph glyph-name="uni0445" unicode="&#x445;" horiz-adv-x="1044" 
d="M512 317l-215 -317h-297l338 512l-318 492h308l184 -297l184 297h308l-318 -492l338 -512h-297z" />
    <glyph glyph-name="uni0446" unicode="&#x446;" 
d="M123 0v1004h276v-758h359v758h276v-758h133v-482h-276v236h-768z" />
    <glyph glyph-name="uni0447" unicode="&#x447;" horiz-adv-x="1136" 
d="M717 0v338.001c-68 -48 -146.667 -72 -236 -72c-114.667 0 -206.5 36.5 -275.5 109.5s-103.5 173.167 -103.5 300.5v328h277v-308c0 -50.667 15.667 -92.334 47 -125.001s70.333 -49 117 -49c32.667 0 63.667 5.16699 93 15.5s50 20.833 62 31.5l19 15v420h276v-1004
h-276z" />
    <glyph glyph-name="uni0448" unicode="&#x448;" horiz-adv-x="1638" 
d="M123 0v1004h276v-758h277v758h276v-758h277v758h276v-1004h-1382z" />
    <glyph glyph-name="uni0449" unicode="&#x449;" horiz-adv-x="1699" 
d="M123 0v1004h276v-758h277v758h276v-758h277v758h276v-758h133v-482h-276v236h-1239z" />
    <glyph glyph-name="uni044A" unicode="&#x44a;" horiz-adv-x="1136" 
d="M1065 348.5c0 -103.667 -34.5 -187.667 -103.5 -252s-164.167 -96.5 -285.5 -96.5h-451v737h-235v267h512v-308h174c121.333 0 216.5 -32 285.5 -96s103.5 -147.833 103.5 -251.5zM502 225l164 0.00195312c35.333 0 64.5 11.667 87.5 35s34.5 52.666 34.5 87.999
s-11.5 64.666 -34.5 87.999s-52.167 35 -87.5 35h-164v-246z" />
    <glyph glyph-name="uni044B" unicode="&#x44b;" horiz-adv-x="1505" 
d="M1362 1004v-1004h-277v1004h277zM399 225l164 0.00195312c35.333 0 64.666 11.667 87.999 35s35 52.666 35 87.999s-11.667 64.666 -35 87.999s-52.666 35 -87.999 35h-164v-246zM963 348.502c0 -103.667 -34.499 -187.667 -103.499 -252s-164.5 -96.5 -286.5 -96.5h-450
v1004h276v-308h174c121.333 0 216.666 -32 285.999 -96s104 -147.833 104 -251.5z" />
    <glyph glyph-name="uni044C" unicode="&#x44c;" horiz-adv-x="1044" 
d="M399 225l174.001 0.00195312c35.333 0 64.666 11.667 87.999 35s35 52.666 35 87.999s-11.5 64.666 -34.5 87.999s-52.5 35 -88.5 35h-174v-246zM973.001 348.502c0 -103.667 -34.5 -187.667 -103.5 -252s-164.167 -96.5 -285.5 -96.5h-461v1004h276v-308h185
c121.333 0 216.5 -32 285.5 -96s103.5 -147.833 103.5 -251.5z" />
    <glyph glyph-name="uni044D" unicode="&#x44d;" horiz-adv-x="1064" 
d="M983 502c0 -139.333 -53.501 -261.168 -160.501 -365.501s-234.5 -156.5 -382.5 -156.5c-49.333 0 -97.166 7.16699 -143.499 21.5s-84.833 31.333 -115.5 51s-58 39.334 -82 59.001s-41.333 37.167 -52 52.5l-16 20l143 154c2.66699 -4 6.5 -8.83301 11.5 -14.5
s16 -16.334 33 -32.001s35 -29.334 54 -41.001s43.833 -22.167 74.5 -31.5s61.667 -14 93 -14c60 0 111.5 16.333 154.5 49s70.833 65.334 83.5 98.001l18 47h-409v205h409c-1.33301 5.33301 -3.66602 12.5 -6.99902 21.5s-11.5 24.5 -24.5 46.5s-28 41.5 -45 58.5
s-41.5 32.667 -73.5 47s-67.333 21.5 -106 21.5c-52 0 -99 -11 -141 -33s-72 -44 -90 -66l-25 -34l-153 153c4 5.33301 9.33301 12.833 16 22.5s23 26.167 49 49.5s53.333 43.833 82 61.5s67 34 115 49s97 22.5 147 22.5c147.333 0 274.666 -52.167 381.999 -156.5
s161 -226.166 161 -365.499z" />
    <glyph glyph-name="uni044E" unicode="&#x44e;" horiz-adv-x="1679" 
d="M1587 502c0 -143.333 -51.167 -266.168 -153.5 -368.501s-225.166 -153.5 -368.499 -153.5c-126.667 0 -238.167 40.5 -334.5 121.5s-155.5 173.5 -177.5 277.5h-154v-379h-276v1004h276v-379h154c22 104 81 196.5 177 277.5s207.667 121.5 335 121.5
c143.333 0 266.166 -51.167 368.499 -153.5s153.5 -225.166 153.5 -368.499zM1311 501.998c0 80.667 -24 146.834 -72 198.501s-106 77.5 -174 77.5s-126 -25.833 -174 -77.5s-72 -117.834 -72 -198.501s24 -147 72 -199s106 -78 174 -78s126 26 174 78s72 118.333 72 199z
" />
    <glyph glyph-name="uni044F" unicode="&#x44f;" horiz-adv-x="1095" 
d="M471 1004h480.999v-1004h-276v297h-144l-184 -297h-297l215 338c-5.33301 2.66699 -12.166 6 -20.499 10s-23 15 -44 33s-39.667 37.5 -56 58.5s-31 50 -44 87s-19.5 76.5 -19.5 118.5c0 98 37.167 182.333 111.5 253s166.833 106 277.5 106zM675.999 768
l-184 0.00195312c-40.667 0 -73.167 -11.333 -97.5 -34s-36.5 -52.334 -36.5 -89.001s12 -66.334 36 -89.001s56.667 -34 98 -34h184v246z" />
    <glyph glyph-name="uni0451" unicode="&#x451;" horiz-adv-x="1167" 
d="M1075 410l-727 0.00292969c10.667 -54.667 39.667 -100.834 87 -138.501s107 -56.5 179 -56.5c52 0 100.167 10.167 144.5 30.5s75.5 40.833 93.5 61.5l29 31l143 -184l-18.5 -18.5c-8.33301 -8.33301 -26.166 -22.5 -53.499 -42.5s-56.333 -37.833 -87 -53.5
s-70.5 -29.5 -119.5 -41.5s-99.5 -18 -151.5 -18c-147.333 0 -273 51.167 -377 153.5s-156 225.166 -156 368.499s51.333 266.166 154 368.499s225.667 153.5 369 153.5s262.666 -47.833 357.999 -143.5s143 -215.167 143 -358.5zM584 788.003
c-58.667 0 -108.5 -17 -149.5 -51s-69.833 -78.333 -86.5 -133h461c-10.667 53.333 -36.167 97.333 -76.5 132s-89.833 52 -148.5 52zM207 1300.5c0 41 15.333 76.833 46 107.5s66.5 46 107.5 46s76.833 -15.333 107.5 -46s46 -66.5 46 -107.5s-15.333 -76.833 -46 -107.5
s-66.5 -46 -107.5 -46s-76.833 15.333 -107.5 46s-46 66.5 -46 107.5zM657 1300.5c0 41 15.5 76.833 46.5 107.5s66.833 46 107.5 46s76.5 -15.333 107.5 -46s46.5 -66.5 46.5 -107.5s-15.5 -76.833 -46.5 -107.5s-66.833 -46 -107.5 -46s-76.5 15.333 -107.5 46
s-46.5 66.5 -46.5 107.5z" />
    <glyph glyph-name="uni0452" unicode="&#x452;" horiz-adv-x="1218" 
d="M430 1434v-144.002h236v-246h-236v-245c8 10.667 19.167 23.834 33.5 39.501s46.5 36.834 96.5 63.501s102.333 40 157 40c116 0 211.5 -42.333 286.5 -127s112.5 -199.334 112.5 -344.001c0 -158.667 -44 -282 -132 -370s-211.333 -132 -370 -132v256
c66.667 0 121 21.833 163 65.5s63 103.834 63 180.501c0 61.333 -18.833 110.833 -56.5 148.5s-87.167 56.5 -148.5 56.5c-62.667 0 -112.5 -20.5 -149.5 -61.5s-55.5 -99.167 -55.5 -174.5v-440h-276v1044h-164v246h164v144h276z" />
    <glyph glyph-name="uni0453" unicode="&#x453;" horiz-adv-x="880" 
d="M358 1137l164 307h287l-225 -307h-226zM850 1004v-256h-451v-748h-276v1004h727z" />
    <glyph glyph-name="uni0454" unicode="&#x454;" horiz-adv-x="1075" 
d="M61 502c0 139.333 53.6689 261.165 161.002 365.498s234.666 156.5 381.999 156.5c50.667 0 99.5 -7.16699 146.5 -21.5s85.833 -31.333 116.5 -51s57.667 -39.5 81 -59.5s40.333 -37.333 51 -52l15 -21l-154 -153c-2.66699 4 -6 8.66699 -10 14
s-13.833 15.833 -29.5 31.5s-32.834 29.334 -51.501 41.001s-42.667 22.334 -72 32.001s-60.333 14.5 -93 14.5c-60 0 -111.5 -16.5 -154.5 -49.5s-70.5 -65.833 -82.5 -98.5l-19 -47h410v-205h-410c1.33301 -5.33301 3.66602 -12.333 6.99902 -21s11.5 -24 24.5 -46
s28.167 -41.5 45.5 -58.5s42 -32.667 74 -47s67 -21.5 105 -21.5c31.333 0 62 4.33301 92 13s55.333 19.5 76 32.5s38.5 26.333 53.5 40s26.5 24.834 34.5 33.501l10 14l144 -154c-4 -5.33301 -9.83301 -12.833 -17.5 -22.5s-24.5 -26 -50.5 -49s-53.667 -43.333 -83 -61
s-67.5 -34 -114.5 -49s-95.167 -22.5 -144.5 -22.5c-147.333 0 -274.666 52.167 -381.999 156.5s-161 226.166 -161 365.499z" />
    <glyph glyph-name="uni0455" unicode="&#x455;" horiz-adv-x="931" 
d="M819 870l-142.999 -162.999c-4 5.33301 -10.5 12.666 -19.5 21.999s-27.833 21.5 -56.5 36.5s-58 22.5 -88 22.5c-38 0 -68 -8.16699 -90 -24.5s-33 -35.166 -33 -56.499c0 -26 15.667 -47.667 47 -65s69.5 -32.833 114.5 -46.5s90.5 -30 136.5 -49
s84.667 -49.667 116 -92s47 -94.833 47 -157.5c0 -90 -35.5 -165.333 -106.5 -226s-168.5 -91 -292.5 -91c-53.333 0 -104 6.33301 -152 19s-87 28 -117 46s-56.167 35.833 -78.5 53.5s-38.5 32.5 -48.5 44.5l-14 21l154 153c5.33301 -8 13.833 -18.167 25.5 -30.5
s36.167 -29 73.5 -50s76 -31.5 116 -31.5c44 0 77.167 8.5 99.5 25.5s33.5 39.167 33.5 66.5s-15.667 50.166 -47 68.499s-70 34.333 -116 48s-91.5 30.167 -136.5 49.5s-83.167 49.333 -114.5 90s-47 92 -47 154c0 80.667 37.5 153.667 112.5 219s167.167 98 276.5 98
c69.333 0 133.166 -13 191.499 -39s98.833 -51.333 121.5 -76z" />
    <glyph glyph-name="uni0456" unicode="&#x456;" horiz-adv-x="563" 
d="M410 1004v-1004h-277v1004h277zM430 1290.5c0 -46.333 -14.666 -83.5 -43.999 -111.5s-69.333 -42 -120 -42c-46.667 0 -83.834 14 -111.501 42s-41.5 65.167 -41.5 111.5s14 83.5 42 111.5s65 42 111 42c50.667 0 90.667 -14 120 -42s44 -65.167 44 -111.5z" />
    <glyph glyph-name="uni0457" unicode="&#x457;" horiz-adv-x="563" 
d="M-102 1300.5c0 41 15.333 76.833 46 107.5s66.5 46 107.5 46s76.833 -15.333 107.5 -46s46 -66.5 46 -107.5s-15.333 -76.833 -46 -107.5s-66.5 -46 -107.5 -46s-76.833 15.333 -107.5 46s-46 66.5 -46 107.5zM348 1300.5c0 41 15.333 76.833 46 107.5s66.5 46 107.5 46
s76.833 -15.333 107.5 -46s46 -66.5 46 -107.5s-15.333 -76.833 -46 -107.5s-66.5 -46 -107.5 -46s-76.833 15.333 -107.5 46s-46 66.5 -46 107.5zM410 1004v-1004h-277v1004h277z" />
    <glyph glyph-name="uni0458" unicode="&#x458;" horiz-adv-x="563" 
d="M133 -61l0.000976562 1065h277v-1086c0 -112 -28.667 -198 -86 -258s-138 -90 -242 -90c-30 0 -59.667 2.66699 -89 8s-51 10.666 -65 15.999l-20 7v245c34 -13.333 68 -20 102 -20c35.333 0 64.666 11 87.999 33s35 48.667 35 80zM430.001 1290.5
c0 -46.333 -14.666 -83.5 -43.999 -111.5s-69.333 -42 -120 -42c-46.667 0 -83.834 14 -111.501 42s-41.5 65.167 -41.5 111.5s14 83.5 42 111.5s65 42 111 42c50.667 0 90.667 -14 120 -42s44 -65.167 44 -111.5z" />
    <glyph glyph-name="uni0459" unicode="&#x459;" horiz-adv-x="1658" 
d="M225 1004l789.004 -0.000976562v-328h184c120 0 214.833 -31.5 284.5 -94.5s104.5 -144.333 104.5 -244s-34.833 -180.834 -104.5 -243.501s-164.5 -94 -284.5 -94h-461v758h-245v-62c0 -187.333 -15.833 -336.166 -47.5 -446.499s-72.334 -184.666 -122.001 -222.999
s-112.834 -57.5 -189.501 -57.5c-24.667 0 -48.834 2.83301 -72.501 8.5s-41.167 10.5 -52.5 14.5l-18 8v246c20.667 -6.66699 41 -10 61 -10c40.667 0 72.667 10.5 96 31.5s42.166 68 56.499 141s21.5 179.167 21.5 318.5v277zM1311 337.999c0 75.333 -41 113 -123 113
h-174v-226h174c82 0 123 37.667 123 113z" />
    <glyph glyph-name="uni045A" unicode="&#x45a;" horiz-adv-x="1679" 
d="M399 430v-429.999h-276v1004h276v-328h359v328h276v-328h185c120 0 214.833 -31.5 284.5 -94.5s104.5 -144.333 104.5 -244s-34.833 -180.834 -104.5 -243.501s-164.5 -94 -284.5 -94h-461v430h-359zM1331 338.001c0 75.333 -41 113 -123 113h-174v-226h174
c82 0 123 37.667 123 113z" />
    <glyph glyph-name="uni045B" unicode="&#x45b;" horiz-adv-x="1239" 
d="M430 1434v-144.002h236v-246h-236v-245c8 10.667 19.167 23.834 33.5 39.501s46.5 36.834 96.5 63.501s102.333 40 157 40c114.667 0 208.167 -39.5 280.5 -118.5s108.5 -186.167 108.5 -321.5v-502h-277v471c0 61.333 -18 110.833 -54 148.5s-82.667 56.5 -140 56.5
c-62.667 0 -112.5 -20.5 -149.5 -61.5s-55.5 -99.167 -55.5 -174.5v-440h-276v1044h-164v246h164v144h276z" />
    <glyph glyph-name="uni045C" unicode="&#x45c;" horiz-adv-x="1105" 
d="M461 1137l164 307h286l-225 -307h-225zM1075 1004l-379 -431l400 -573h-308l-266 389l-123 -143v-246h-276v1004h276v-410l359 410h317z" />
    <glyph glyph-name="uni045E" unicode="&#x45e;" horiz-adv-x="1064" 
d="M358 -61l31 71.001l-389 994h287l235 -666l236 666h286l-399 -1065c-91.333 -246 -221 -369 -389 -369c-30 0 -59.667 2.66699 -89 8s-51 10.666 -65 15.999l-20 7v245c27.333 -13.333 61.333 -20 102 -20c83.333 0 141.333 37.667 174 113zM532.5 1321
c35.667 0 65 11.667 88 35s34.5 52.666 34.5 87.999h205c0 -87.333 -30.667 -160.333 -92 -219s-139.833 -88 -235.5 -88s-174.167 29.333 -235.5 88s-92 131.667 -92 219h205c0 -35.333 11.5 -64.666 34.5 -87.999s52.333 -35 88 -35z" />
    <glyph glyph-name="uni045F" unicode="&#x45f;" horiz-adv-x="1198" 
d="M123 0v1004h276v-758h379v758h277v-1004h-328v-236h-276v236h-328z" />
    <glyph glyph-name="uni0490" unicode="&#x490;" horiz-adv-x="1177" 
d="M870 1434v276h287v-553h-665v-1157h-308v1434h686z" />
    <glyph glyph-name="uni0491" unicode="&#x491;" horiz-adv-x="880" 
d="M123 0v1004h471v215h256v-471h-451v-748h-276z" />
    <glyph glyph-name="uni1E9E" unicode="&#x1e9e;" horiz-adv-x="1382" 
d="M952 840c9.33301 -1.33301 21.333 -4.16602 36 -8.49902s40.667 -16 78 -35s70.333 -41.833 99 -68.5s55 -65.5 79 -116.5s36 -108.167 36 -171.5c0 -120 -47.5 -223.333 -142.5 -310s-214.833 -130 -359.5 -130h-123v246h103c61.333 0 110.833 18 148.5 54
s56.5 82.667 56.5 140s-18.833 104.166 -56.5 140.499s-87.167 54.5 -148.5 54.5h-103v225l226 307h-205c-61.333 0 -110.833 -18.667 -148.5 -56s-56.5 -86.666 -56.5 -147.999v-963h-307v963c0 135.333 46.667 247.666 140 336.999s214 134 362 134h532v-256z" />
    <glyph glyph-name="endash" unicode="&#x2013;" horiz-adv-x="1013" 
d="M942 721v-240h-870v240h870z" />
    <glyph glyph-name="emdash" unicode="&#x2014;" horiz-adv-x="1505" 
d="M1434 721v-240h-1362v240h1362z" />
    <glyph glyph-name="quoteleft" unicode="&#x2018;" horiz-adv-x="532" 
d="M276 901l-235 133l276 441l175 -103z" />
    <glyph glyph-name="quoteright" unicode="&#x2019;" horiz-adv-x="532" 
d="M256 1475l236 -134l-277 -440l-174 103z" />
    <glyph glyph-name="quotesinglbase" unicode="&#x201a;" horiz-adv-x="532" 
d="M215 297l225 -133l-266 -430l-184 92z" />
    <glyph glyph-name="quotedblleft" unicode="&#x201c;" horiz-adv-x="931" 
d="M266 911l-225 123l276 441l164 -93zM676 911l-225 123l276 441l164 -93z" />
    <glyph glyph-name="quotedblright" unicode="&#x201d;" horiz-adv-x="931" 
d="M666 1475l225 -123l-277 -441l-163 93zM256 1475l225 -123l-276 -441l-164 93z" />
    <glyph glyph-name="quotedblbase" unicode="&#x201e;" horiz-adv-x="921" 
d="M205 297l225 -133l-276 -430l-164 92zM614 297l226 -133l-277 -430l-164 92z" />
    <glyph glyph-name="dagger" unicode="&#x2020;" horiz-adv-x="931" 
d="M348 1178v256h236v-256h235v-215h-235v-615h-236v615h-235v215h235z" />
    <glyph glyph-name="daggerdbl" unicode="&#x2021;" horiz-adv-x="931" 
d="M348 1198v236h236v-236h235v-215h-235v-184h235v-215h-235v-236h-236v236h-235v215h235v184h-235v215h235z" />
    <glyph glyph-name="bullet" unicode="&#x2022;" horiz-adv-x="880" 
d="M184 491.5c0 71 24.667 131.5 74 181.5s110.166 75 182.499 75s133 -25 182 -75s73.5 -110.5 73.5 -181.5s-24.5 -131.333 -73.5 -181s-109.667 -74.5 -182 -74.5s-133.166 24.833 -182.499 74.5s-74 110 -74 181z" />
    <glyph glyph-name="ellipsis" unicode="&#x2026;" horiz-adv-x="1617" 
d="M92 133.5c0 41 16 76.833 48 107.5s70.667 46 116 46s84 -15.333 116 -46s48 -66.5 48 -107.5s-16 -76.833 -48 -107.5s-70.667 -46 -116 -46s-84 15.333 -116 46s-48 66.5 -48 107.5zM645 133.5c0 41 16 76.833 48 107.5s70.667 46 116 46s84 -15.333 116 -46
s48 -66.5 48 -107.5s-16 -76.833 -48 -107.5s-70.667 -46 -116 -46s-84 15.333 -116 46s-48 66.5 -48 107.5zM1198 133.5c0 41 16 76.833 48 107.5s70.667 46 116 46s84 -15.333 116 -46s48 -66.5 48 -107.5s-16 -76.833 -48 -107.5s-70.667 -46 -116 -46
s-84 15.333 -116 46s-48 66.5 -48 107.5z" />
    <glyph glyph-name="perthousand" unicode="&#x2030;" horiz-adv-x="2437" 
d="M266 1126.5c0 -41 13.667 -75.167 41 -102.5s61.5 -41 102.5 -41s75.167 13.667 102.5 41s41 61.5 41 102.5s-13.667 75.167 -41 102.5s-61.5 41 -102.5 41s-75.167 -13.667 -102.5 -41s-41 -61.5 -41 -102.5zM256 0l901 1434h256l-901 -1434h-256zM758 1126.5
c0 -89 -34.167 -167.667 -102.5 -236s-150.333 -102.5 -246 -102.5s-177.667 34.167 -246 102.5s-102.5 147 -102.5 236s34.167 167.5 102.5 235.5s150.333 102 246 102s177.667 -34 246 -102s102.5 -146.5 102.5 -235.5zM1403 307.5c0 41 -13.667 75.167 -41 102.5
s-61.5 41 -102.5 41s-75.167 -13.667 -102.5 -41s-41 -61.5 -41 -102.5s13.667 -75.167 41 -102.5s61.5 -41 102.5 -41s75.167 13.667 102.5 41s41 61.5 41 102.5zM911 307c0 88.667 34.167 167.167 102.5 235.5s150.333 102.5 246 102.5s177.667 -34.167 246 -102.5
s102.5 -146.833 102.5 -235.5s-34.167 -167.167 -102.5 -235.5s-150.333 -102.5 -246 -102.5s-177.667 34.167 -246 102.5s-102.5 146.833 -102.5 235.5zM2171 307.5c0 41 -13.667 75.167 -41 102.5s-61.5 41 -102.5 41s-75.167 -13.667 -102.5 -41s-41 -61.5 -41 -102.5
s13.667 -75.167 41 -102.5s61.5 -41 102.5 -41s75.167 13.667 102.5 41s41 61.5 41 102.5zM1679 307c0 88.667 34.167 167.167 102.5 235.5s150.333 102.5 246 102.5s177.667 -34.167 246 -102.5s102.5 -146.833 102.5 -235.5s-34.167 -167.167 -102.5 -235.5
s-150.333 -102.5 -246 -102.5s-177.667 34.167 -246 102.5s-102.5 146.833 -102.5 235.5z" />
    <glyph glyph-name="guilsinglleft" unicode="&#x2039;" horiz-adv-x="696" 
d="M614 850l-256 -358l256 -359h-276l-256 359l256 358h276z" />
    <glyph glyph-name="guilsinglright" unicode="&#x203a;" horiz-adv-x="696" 
d="M338 492l-256 358h276l256 -358l-256 -359h-276z" />
    <glyph glyph-name="fraction" unicode="&#x2044;" horiz-adv-x="430" 
d="M-358 0l890 1434h256l-890 -1434h-256z" />
    <glyph glyph-name="uni2070" unicode="&#x2070;" horiz-adv-x="757" 
d="M246 1270c0 -62.667 12.667 -110.834 38 -144.501s57 -50.5 95 -50.5s69.667 16.833 95 50.5s38 81.834 38 144.501c0 68 -12.667 119.167 -38 153.5s-57 51.5 -95 51.5s-69.667 -17.167 -95 -51.5s-38 -85.5 -38 -153.5zM707 1270
c0 -110.667 -31.167 -199.834 -93.5 -267.501s-140.5 -101.5 -234.5 -101.5s-172.167 33.833 -234.5 101.5s-93.5 156.834 -93.5 267.501c0 114.667 31.167 206.5 93.5 275.5s140.5 103.5 234.5 103.5s172.167 -34.5 234.5 -103.5s93.5 -160.833 93.5 -275.5z" />
    <glyph glyph-name="uni2074" unicode="&#x2074;" horiz-adv-x="675" 
d="M553 1638v-419h72v-175h-72v-133h-195v133h-327v175l317 419h205zM225 1219h133v174z" />
    <glyph glyph-name="uni2075" unicode="&#x2075;" horiz-adv-x="634" 
d="M369 1382c65.333 0 120.833 -22.834 166.5 -68.501s68.5 -101.167 68.5 -166.5c0 -74 -25.167 -133.5 -75.5 -178.5s-120.833 -67.5 -211.5 -67.5c-64 0 -120.5 8.5 -169.5 25.5s-82.5 34.5 -100.5 52.5l-27 25l103 122c40.667 -40.667 95.334 -61 164.001 -61
c34 0 61.167 8.83301 81.5 26.5s30.5 39.5 30.5 65.5s-9.5 47.833 -28.5 65.5s-43.5 26.5 -73.5 26.5c-18 0 -34.833 -2.66699 -50.5 -8s-26.834 -10.666 -33.501 -15.999l-8 -6h-133l41 419h440v-163h-277l-10 -113c28 13.333 62.333 20 103 20z" />
    <glyph glyph-name="uni2076" unicode="&#x2076;" horiz-adv-x="645" 
d="M512 1638l-143 -204c78 -15.333 138.333 -45.833 181 -91.5s64 -104.167 64 -175.5c0 -78 -26.833 -141.833 -80.5 -191.5s-125.834 -74.5 -216.501 -74.5c-86 0 -155.167 25 -207.5 75s-78.5 113.667 -78.5 191c0 30 4.33301 58.667 13 86s17.334 47.333 26.001 60
l12 18l225 307h205zM430 1167c0 31.333 -9.83301 56.334 -29.5 75.001s-47.5 28 -83.5 28c-31.333 0 -56.166 -9.66699 -74.499 -29s-27.5 -44 -27.5 -74s9.16699 -54.5 27.5 -73.5s43.166 -28.5 74.499 -28.5c35.333 0 63 9.16699 83 27.5s30 43.166 30 74.499z" />
    <glyph glyph-name="uni2077" unicode="&#x2077;" horiz-adv-x="593" 
d="M31 1638h532v-184l-256 -543h-194l256 543h-338v184z" />
    <glyph glyph-name="uni2078" unicode="&#x2078;" horiz-adv-x="655" 
d="M327.5 1065c68.333 0 102.5 23.833 102.5 71.5s-34.167 71.5 -102.5 71.5s-102.5 -23.833 -102.5 -71.5s34.167 -71.5 102.5 -71.5zM328 1362c24.667 0 44.5 6.16699 59.5 18.5s22.5 26.666 22.5 42.999s-7.5 30.666 -22.5 42.999s-34.833 18.5 -59.5 18.5
s-44.5 -6.16699 -59.5 -18.5s-22.5 -26.666 -22.5 -42.999s7.5 -30.666 22.5 -42.999s34.833 -18.5 59.5 -18.5zM327.5 901c-93 0 -165.666 20.8311 -217.999 62.498s-78.5 92.5 -78.5 152.5c0 42 11.833 77.833 35.5 107.5s47.834 47.834 72.501 54.501l35 12
c-2.66699 1.33301 -6.66699 3 -12 5s-14.5 7.5 -27.5 16.5s-24.333 19 -34 30s-18.667 25.667 -27 44s-12.5 37.833 -12.5 58.5c0 58.667 23.667 107.5 71 146.5s112.666 58.5 195.999 58.5s148.5 -19.5 195.5 -58.5s70.5 -87.833 70.5 -146.5c0 -32.667 -9.5 -62 -28.5 -88
s-38.167 -43.667 -57.5 -53l-27 -13c4 -1.33301 9.16699 -2.66602 15.5 -3.99902s17.666 -6.5 33.999 -15.5s31 -19.167 44 -30.5s24.667 -28 35 -50s15.5 -46.667 15.5 -74c0 -60 -26.333 -110.833 -79 -152.5s-125.5 -62.5 -218.5 -62.5z" />
    <glyph glyph-name="uni2079" unicode="&#x2079;" horiz-adv-x="645" 
d="M133 911l143 204.999c-78 15.333 -138.333 45.833 -181 91.5s-64 103.834 -64 174.501c0 78 27 142 81 192s126 75 216 75c86 0 155.167 -25 207.5 -75s78.5 -114 78.5 -192c0 -30 -4 -58.667 -12 -86s-16 -47 -24 -59l-15 -18l-225 -308h-205zM215 1382.5
c0 -31.667 9.83301 -56.667 29.5 -75s47.5 -27.5 83.5 -27.5c30 0 54.5 9.16699 73.5 27.5s28.5 43.333 28.5 75s-9.5 56.667 -28.5 75s-43.5 27.5 -73.5 27.5c-35.333 0 -63 -9.16699 -83 -27.5s-30 -43.333 -30 -75z" />
    <glyph glyph-name="uni2080" unicode="&#x2080;" horiz-adv-x="757" 
d="M246 154c0 -62.667 12.667 -110.832 38 -144.499s57 -50.5 95 -50.5s69.667 16.667 95 50s38 81.666 38 144.999c0 68 -12.667 119 -38 153s-57 51 -95 51s-69.667 -17 -95 -51s-38 -85 -38 -153zM707 154.002c0 -110.667 -31.167 -199.834 -93.5 -267.501
s-140.5 -101.5 -234.5 -101.5s-172.167 33.833 -234.5 101.5s-93.5 156.834 -93.5 267.501c0 114.667 31.167 206.334 93.5 275.001s140.5 103 234.5 103s172.167 -34.333 234.5 -103s93.5 -160.334 93.5 -275.001z" />
    <glyph glyph-name="uni2081" unicode="&#x2081;" horiz-adv-x="471" 
d="M205 522h164v-727h-195v481h-123v154c42 4 76.5 15.5 103.5 34.5s43.833 38.167 50.5 57.5z" />
    <glyph glyph-name="uni2082" unicode="&#x2082;" horiz-adv-x="675" 
d="M604 297c0 -42 -11.5 -80.1719 -34.5 -114.505s-48.5 -60.666 -76.5 -78.999s-60.167 -39.166 -96.5 -62.499s-62.833 -43.666 -79.5 -60.999h277v-185h-522c0 62.667 11.167 118 33.5 166s49.666 85.667 81.999 113s64.5 51.833 96.5 73.5s59.167 43.834 81.5 66.501
s33.5 47 33.5 73c0 20.667 -7.5 37.667 -22.5 51s-34.833 20 -59.5 20c-18 0 -35.333 -6.83301 -52 -20.5s-29.334 -27.167 -38.001 -40.5l-12 -21l-154 54c1.33301 5.33301 3.83301 12.5 7.5 21.5s12.334 25.333 26.001 49s29.667 44.334 48 62.001s44.833 33.667 79.5 48
s73.334 21.5 116.001 21.5c80.667 0 145.167 -22.167 193.5 -66.5s72.5 -100.5 72.5 -168.5z" />
    <glyph glyph-name="uni2083" unicode="&#x2083;" horiz-adv-x="686" 
d="M502 184c2.66699 -1.33301 6.66992 -3.00098 12.0029 -5.00098s14.5 -7.83301 27.5 -17.5s24.333 -20.5 34 -32.5s18.5 -28.667 26.5 -50s12 -44.333 12 -69c0 -64 -24.833 -117.5 -74.5 -160.5s-116.834 -64.5 -201.501 -64.5c-64 0 -120 11.333 -168 34
s-80 44.667 -96 66l-23 33l113 113c4 -5.33301 9.83301 -12.833 17.5 -22.5s25 -22 52 -37s56.5 -22.5 88.5 -22.5c65.333 0 98 23.667 98 71c0 54.667 -37.667 82 -113 82h-71v154h71c54.667 0 82 17 82 51c0 40.667 -27.333 61.334 -82 62.001
c-22 0 -43.833 -6.16699 -65.5 -18.5s-37.834 -24.166 -48.501 -35.499l-19 -18l-102 113c2.66699 2.66699 6 7 10 13s13.833 15.833 29.5 29.5s32.667 26 51 37s42.666 20.833 72.999 29.5s61.833 13 94.5 13c78 0 141.5 -20.333 190.5 -61s73.5 -88.334 73.5 -143.001
c0 -30 -7.5 -57 -22.5 -81s-30.833 -40.667 -47.5 -50z" />
    <glyph glyph-name="uni2084" unicode="&#x2084;" horiz-adv-x="675" 
d="M553 522v-420h72v-174h-72v-133h-195v133h-327v174l317 420h205zM225 102h133v174z" />
    <glyph glyph-name="uni2085" unicode="&#x2085;" horiz-adv-x="634" 
d="M369 266c65.333 0 120.833 -22.833 166.5 -68.5s68.5 -101.167 68.5 -166.5c0 -74 -25.167 -133.5 -75.5 -178.5s-120.833 -67.5 -211.5 -67.5c-64 0 -120.5 8.5 -169.5 25.5s-82.5 33.833 -100.5 50.5l-27 26l103 123c40.667 -40.667 95.334 -61 164.001 -61
c34 0 61.167 8.83301 81.5 26.5s30.5 39.5 30.5 65.5s-9.5 47.833 -28.5 65.5s-43.5 26.5 -73.5 26.5c-18 0 -34.833 -2.33301 -50.5 -7s-26.834 -9.66699 -33.501 -15l-8 -9h-133l41 420h440v-164h-277l-10 -112c28 13.333 62.333 20 103 20z" />
    <glyph glyph-name="uni2086" unicode="&#x2086;" horiz-adv-x="645" 
d="M512 522l-143 -205.002c78 -15.333 138.333 -45.666 181 -90.999s64 -103.666 64 -174.999c0 -78 -26.833 -141.833 -80.5 -191.5s-125.834 -74.5 -216.501 -74.5c-86 0 -155.167 24.833 -207.5 74.5s-78.5 113.5 -78.5 191.5c0 30 4.33301 58.667 13 86
s17.334 47.333 26.001 60l12 18l225 307h205zM430 50.998c0 31.333 -9.83301 56.333 -29.5 75s-47.5 28 -83.5 28c-31.333 0 -56.166 -9.33301 -74.499 -28s-27.5 -43.667 -27.5 -75s9.16699 -56.166 27.5 -74.499s43.166 -27.5 74.499 -27.5c35.333 0 63 9.16699 83 27.5
s30 43.166 30 74.499z" />
    </font>
</defs>
</svg>
