<?xml version="1.0" standalone="no"?>
<!DOCTYPE svg PUBLIC "-//W3C//DTD SVG 1.1//EN" "http://www.w3.org/Graphics/SVG/1.1/DTD/svg11.dtd" >
<svg xmlns="http://www.w3.org/2000/svg" xmlns:xlink="http://www.w3.org/1999/xlink" version="1.1">
<metadata>
Created by FontForge 20170910 at Tue May 30 06:35:16 2017
 By Jimmy Wärting
Copyright (c) 2017 by TypeType. Designers Ivan Gladkikh, Pavel Emelyanov. Technical designers Olexa Volochay, Nadyr Rakhimov, Dmitriy Greshnev. All rights reserved.
</metadata>
<defs>
<font id="TTNorms-Regular" horiz-adv-x="1187" >
  <font-face 
    font-family="TT Norms Regular"
    font-weight="400"
    font-stretch="normal"
    units-per-em="2048"
    panose-1="2 0 5 3 3 0 0 2 0 3"
    ascent="1638"
    descent="-410"
    x-height="983"
    cap-height="1434"
    bbox="-287 -451 2945.01 1976"
    underline-thickness="0"
    underline-position="0"
    unicode-range="U+000D-FB06"
  />
<missing-glyph horiz-adv-x="0" 
 />
    <glyph glyph-name="ij" unicode="ij" horiz-adv-x="1003" 
d="M686 -143v162.998c-48 -27.333 -109.333 -40.666 -184 -39.999c-92.667 0 -172.167 34.333 -238.5 103s-99.5 154.334 -99.5 257.001v643h143v-643c0 -66.667 20.5 -121.167 61.5 -163.5s92.167 -63.5 153.5 -63.5c27.333 0 54.666 4.33301 81.999 13
s48 17.334 62 26.001l20 12v819h143v-1126c0 -191.333 -88.667 -287 -266 -287c-22 0 -43.167 2.66699 -63.5 8s-35.166 10.666 -44.499 15.999l-15 7v133c34 -20.667 71.667 -31 113 -31c88.667 0 133 51.333 133 154zM143 1311c0 26 9 47.833 27 65.5
s39.833 26.5 65.5 26.5s47.5 -8.83301 65.5 -26.5s27 -39.5 27 -65.5s-9 -47.833 -27 -65.5s-39.833 -26.5 -65.5 -26.5s-47.5 8.83301 -65.5 26.5s-27 39.5 -27 65.5zM666 1311c0 26 8.83301 47.833 26.5 65.5s39.5 26.5 65.5 26.5s47.833 -8.83301 65.5 -26.5
s26.5 -39.5 26.5 -65.5s-8.83301 -47.833 -26.5 -65.5s-39.5 -26.5 -65.5 -26.5s-47.833 8.83301 -65.5 26.5s-26.5 39.5 -26.5 65.5z" />
    <glyph glyph-name="uniFB00" unicode="ff" horiz-adv-x="1239" 
d="M1167 983v-133.002h-235v-850h-144v850h-440v-850h-143v850h-154v133h154v143c0 91.333 23.5 162 70.5 212s112.167 75 195.5 75c24.667 0 49 -2.66699 73 -8s42 -10.666 54 -15.999l16 -7v-133c-40.667 20.667 -85 31 -133 31c-88.667 0 -133 -51.333 -133 -154v-143
h440v184c0 91.333 23.667 162 71 212s112.666 75 195.999 75c24.667 0 48.834 -2.66699 72.501 -8s41.167 -10.666 52.5 -15.999l18 -7v-133c-40.667 20.667 -85 31 -133 31c-88.667 0 -133 -51.333 -133 -154v-184h235z" />
    <glyph glyph-name="uniFB01" unicode="fi" horiz-adv-x="1105" 
d="M788 0v849.999h-440v-850h-143v850h-154v133h154v184c0 91.333 23.5 162 70.5 212s112.167 75 195.5 75c24.667 0 49 -2.66699 73 -8s42 -10.666 54 -15.999l16 -7v-133c-40.667 20.667 -85 31 -133 31c-88.667 0 -133 -51.333 -133 -154v-184h584v-983h-144zM768 1311
c0 26 8.83301 47.833 26.5 65.5s39.5 26.5 65.5 26.5s47.833 -8.83301 65.5 -26.5s26.5 -39.5 26.5 -65.5s-8.83301 -47.833 -26.5 -65.5s-39.5 -26.5 -65.5 -26.5s-47.833 8.83301 -65.5 26.5s-26.5 39.5 -26.5 65.5z" />
    <glyph glyph-name="uniFB02" unicode="fl" horiz-adv-x="1126" 
d="M799 0v1087c0 65.333 -22.167 120.666 -66.5 165.999s-97.333 68 -159 68s-114.667 -22.5 -159 -67.5s-66.5 -100.5 -66.5 -166.5v-104h236v-133h-236v-850h-143v850h-154v133h154v104c0 101.333 35.833 187.833 107.5 259.5s158.667 107.5 261 107.5
s189.333 -35.833 261 -107.5s107.5 -158.167 107.5 -259.5v-1087h-143z" />
    <glyph glyph-name="uniFB03" unicode="ffi" horiz-adv-x="1689" 
d="M1372 0v849.998h-440v-850h-144v850h-440v-850h-143v850h-154v133h154v143c0 91.333 23.5 162 70.5 212s112.167 75 195.5 75c24.667 0 49 -2.66699 73 -8s42 -10.666 54 -15.999l16 -7v-133c-40.667 20.667 -85 31 -133 31c-88.667 0 -133 -51.333 -133 -154v-143h440
v184c0 91.333 23.667 162 71 212s112.666 75 195.999 75c24.667 0 48.834 -2.66699 72.501 -8s41.167 -10.666 52.5 -15.999l18 -7v-133c-40.667 20.667 -85 31 -133 31c-88.667 0 -133 -51.333 -133 -154v-184h584v-983h-144zM1352 1311c0 26 8.83301 47.833 26.5 65.5
s39.5 26.5 65.5 26.5s47.833 -8.83301 65.5 -26.5s26.5 -39.5 26.5 -65.5s-8.83301 -47.833 -26.5 -65.5s-39.5 -26.5 -65.5 -26.5s-47.833 8.83301 -65.5 26.5s-26.5 39.5 -26.5 65.5z" />
    <glyph glyph-name="uniFB06" unicode="st" horiz-adv-x="1607" 
d="M748 870l-103.001 -102c-5.33301 8 -13.166 17.5 -23.499 28.5s-34.166 26 -71.499 45s-77.333 28.5 -120 28.5c-54.667 0 -99 -14.333 -133 -43s-51 -62 -51 -100c0 -39.333 18.333 -71 55 -95s81 -43.167 133 -57.5s104 -30.666 156 -48.999s96.333 -48.333 133 -90
s55 -94.834 55 -159.501c0 -84.667 -32.333 -155.167 -97 -211.5s-151.667 -84.5 -261 -84.5c-46.667 0 -90.5 6 -131.5 18s-74.833 26.333 -101.5 43s-49.834 33.5 -69.501 50.5s-34.167 31.5 -43.5 43.5l-13 19l103 102c2.66699 -4 6.33398 -9.16699 11.001 -15.5
s15.167 -17.666 31.5 -33.999s33.833 -31 52.5 -44s42.667 -24.5 72 -34.5s59 -15 89 -15c69.333 0 122.5 15.333 159.5 46s55.5 69.667 55.5 117c0 40.667 -18.5 73.834 -55.5 99.501s-81.333 46 -133 61s-103.5 31.667 -155.5 50s-96.5 47.333 -133.5 87
s-55.5 90.834 -55.5 153.501c0 74 31.167 138.667 93.5 194s140.5 83 234.5 83c22 0 41.5 -0.833008 58.5 -2.5s28.833 -3.83398 35.5 -6.50098l8 -2c-20.667 34 -30.667 75 -30 123c0 91.333 37.5 170.5 112.5 237.5s163.833 100.5 266.5 100.5
c106.667 0 194.667 -33.5 264 -100.5s104 -149.5 104 -247.5v-123h215v-133h-215v-584c0 -102.667 44.333 -153.667 133 -153c22 0 44 2.66699 66 8s39 10 51 14l17 8v-133c-40.667 -20.667 -87.334 -30.667 -140.001 -30c-84.667 0 -150.834 24.833 -198.501 74.5
s-71.5 120.167 -71.5 211.5v584h-184v133h184v123c0 61.333 -21.167 112.5 -63.5 153.5s-96.166 61.5 -161.499 61.5c-70.667 0 -127.667 -20.833 -171 -62.5s-65 -95.834 -65 -162.501c0 -42 8.5 -81.833 25.5 -119.5s33.833 -64.834 50.5 -81.501z" />
    <glyph glyph-name="c_t.liga" unicode="ct" horiz-adv-x="1771" 
d="M82 492c0 142 48.502 262.839 145.502 362.506s212.167 149.5 345.5 149.5l123 -11c-20.667 34 -30.667 75 -30 123c0 92.667 37.833 172.167 113.5 238.5s167.5 99.5 275.5 99.5c102.667 0 188 -33.5 256 -100.5s102 -149.5 102 -247.5v-123h215v-133h-215v-584
c0 -102.667 44.333 -153.667 133 -153c22 0 44 2.66699 66 8s39 10 51 14l16 8v-133c-40.667 -20.667 -87 -30.667 -139 -30c-84.667 0 -150.834 24.833 -198.501 74.5s-71.5 120.167 -71.5 211.5v584h-185v133h185v123c0 61.333 -20.5 112.5 -61.5 153.5
s-92.167 61.5 -153.5 61.5c-76.667 0 -136.834 -20.833 -180.501 -62.5s-65.5 -95.834 -65.5 -162.501c0 -45.333 13.667 -91.833 41 -139.5s54.666 -83.834 81.999 -108.501l41 -39l-103 -102c-2.66699 4 -6.66699 9.66699 -12 17s-17.166 20.666 -35.499 39.999
s-38.166 36.166 -59.499 50.499s-49 27.166 -83 38.499s-69.667 17 -107 17c-94 0 -175.5 -36.5 -244.5 -109.5s-103.5 -162.667 -103.5 -269s34.5 -196 103.5 -269s150.5 -109.5 244.5 -109.5c57.333 0 111.666 13.667 162.999 41s88.666 54.666 111.999 81.999l33 40
l102 -92c-4 -5.33301 -10.167 -12.833 -18.5 -22.5s-25.833 -26 -52.5 -49s-54.667 -43.333 -84 -61s-67.166 -34 -113.499 -49s-93.5 -22.5 -141.5 -22.5c-134 0 -249.333 49.833 -346 149.5s-145 220.5 -145 362.5z" />
    <glyph glyph-name="s_p.liga" unicode="sp" horiz-adv-x="2109" 
d="M1188 154l-0.00195312 -584.004h-144v1536c0 60 -18.667 110.833 -56 152.5s-80 62.5 -128 62.5c-61.333 0 -112.5 -21.167 -153.5 -63.5s-61.5 -96.166 -61.5 -161.499c0 -42 8.5 -81.833 25.5 -119.5s33.833 -64.834 50.5 -81.501l27 -25l-103 -102
c-5.33301 8 -13.166 17.5 -23.499 28.5s-34.166 26 -71.499 45s-77.333 28.5 -120 28.5c-54.667 0 -99 -14.333 -133 -43s-51 -62 -51 -100c0 -39.333 18.333 -71 55 -95s81 -43.167 133 -57.5s104 -30.666 156 -48.999s96.333 -48.333 133 -90s55 -94.834 55 -159.501
c0 -84.667 -32.333 -155.167 -97 -211.5s-151.667 -84.5 -261 -84.5c-46.667 0 -90.5 6 -131.5 18s-74.833 26.333 -101.5 43s-49.834 33.5 -69.501 50.5s-34.167 31.5 -43.5 43.5l-13 19l103 102c2.66699 -4 6.33398 -9.16699 11.001 -15.5s15.167 -17.666 31.5 -33.999
s33.833 -31 52.5 -44s42.667 -24.5 72 -34.5s59 -15 89 -15c69.333 0 122.5 15.333 159.5 46s55.5 69.667 55.5 117c0 40.667 -18.5 73.834 -55.5 99.501s-81.333 46 -133 61s-103.5 31.667 -155.5 50s-96.5 47.333 -133.5 87s-55.5 90.834 -55.5 153.501
c0 74 31.167 138.667 93.5 194s140.5 83 234.5 83c22 0 41.5 -0.833008 58.5 -2.5s28.833 -3.83398 35.5 -6.50098l8 -2c-20.667 34 -30.667 75 -30 123c0 92.667 34.5 172.167 103.5 238.5s153.833 99.5 254.5 99.5c88.667 0 165.5 -34.167 230.5 -102.5
s97.5 -150.166 97.5 -245.499v-277c2.66699 4 7.33398 10.167 14.001 18.5s21 22.5 43 42.5s45.667 37.833 71 53.5s57.833 29.667 97.5 42s80.5 18.5 122.5 18.5c125.333 0 235.166 -50.333 329.499 -151s141.5 -221.167 141.5 -361.5s-47.167 -260.666 -141.5 -360.999
s-204.166 -150.5 -329.499 -150.5c-42 0 -82.5 6 -121.5 18s-71.833 26.333 -98.5 43s-49.834 33.5 -69.501 50.5s-34.5 31.5 -44.5 43.5zM1188 491.496c0 -101 35.833 -189.333 107.5 -265s151.834 -113.5 240.501 -113.5c84.667 0 160.5 36.833 227.5 110.5
s100.5 163 100.5 268s-33.5 194.333 -100.5 268s-142.833 110.5 -227.5 110.5c-88.667 0 -168.834 -37.833 -240.501 -113.5s-107.5 -164 -107.5 -265z" />
    <glyph glyph-name="f_t.liga" unicode="ft" horiz-adv-x="1310" 
d="M819 1085l0.00195312 225.999h133v-328h215v-133h-215v-584c0 -102.667 44.333 -153.667 133 -153c22 0 44 2.66699 66 8s38.333 10 49 14l19 8v-133c-40.667 -20.667 -87.334 -30.667 -140.001 -30c-84.667 0 -150.834 24.833 -198.501 74.5s-71.5 120.167 -71.5 211.5
v584h-461v-850h-143v850h-154v133h154v184c0 91.333 23.5 162 70.5 212s112.167 75 195.5 75c24.667 0 49 -2.66699 73 -8s42 -10.666 54 -15.999l16 -7v-133c-40.667 20.667 -85 31 -133 31c-88.667 0 -133 -51.333 -133 -154v-184h389c54.667 0 82 34 82 102z" />
    <glyph glyph-name=".notdef" horiz-adv-x="0" 
 />
    <glyph glyph-name="glyph1" horiz-adv-x="0" 
 />
    <glyph glyph-name="glyph1" horiz-adv-x="0" 
 />
    <glyph glyph-name="uni000D" unicode="&#xd;" horiz-adv-x="0" 
 />
    <glyph glyph-name="space" unicode=" " horiz-adv-x="389" 
 />
    <glyph glyph-name="exclam" unicode="!" horiz-adv-x="634" 
d="M379 348h-123l-31 1086h185zM215 82c0 30 9.16699 54.5 27.5 73.5s43.333 28.5 75 28.5s56.667 -9.5 75 -28.5s27.5 -43.5 27.5 -73.5s-9.16699 -54.5 -27.5 -73.5s-43.333 -28.5 -75 -28.5s-56.667 9.5 -75 28.5s-27.5 43.5 -27.5 73.5z" />
    <glyph glyph-name="quotedbl" unicode="&#x22;" horiz-adv-x="716" 
d="M266 1434v-430h-133v430h133zM584 1434v-430h-133v430h133z" />
    <glyph glyph-name="numbersign" unicode="#" horiz-adv-x="1484" 
d="M1075 1434h133l-82 -420h318l-21 -133h-321l-64 -328h303l-20 -133h-309l-80 -420h-133l80 420h-390l-79 -420h-134l80 420h-315l20 133h322l63 328h-303l21 133h307l82 420h133l-82 -420h389zM580 881l-64 -328h389l64 328h-389z" />
    <glyph glyph-name="dollar" unicode="$" horiz-adv-x="1157" 
d="M901 389c0 49.333 -14.3359 91.3359 -43.0029 126.003s-65.834 61.667 -111.501 81s-96.167 36.833 -151.5 52.5s-110.666 33 -165.999 52s-105.833 42.167 -151.5 69.5s-82.834 66 -111.501 116s-43 109.667 -43 179c0 98 35.167 183.333 105.5 256
s164.833 115.667 283.5 129v209h143v-209c66.667 -8 129.167 -27 187.5 -57s99.833 -58 124.5 -84l37 -39l-103 -103c-2.66699 4 -6.66699 9.16699 -12 15.5s-18 17.666 -38 33.999s-41.167 31 -63.5 44s-52 24.667 -89 35s-75.167 15.5 -114.5 15.5
c-94 0 -168.833 -24 -224.5 -72s-83.5 -106 -83.5 -174c0 -49.333 14.333 -91.333 43 -126s66 -61.667 112 -81s96.667 -36.833 152 -52.5s110.5 -33 165.5 -52s105.5 -42.167 151.5 -69.5s83.333 -65.833 112 -115.5s43 -109.5 43 -179.5
c0 -109.333 -35.167 -200.833 -105.5 -274.5s-168.5 -117.167 -294.5 -130.5v-209h-143v207c-53.333 4 -104.166 14.167 -152.499 30.5s-88.166 34.666 -119.499 54.999s-58.666 40.166 -81.999 59.499s-40.666 35.666 -51.999 48.999l-14 19l94 104
c2.66699 -4 7.5 -10.167 14.5 -18.5s22.167 -22.666 45.5 -42.999s48.5 -38 75.5 -53s63.5 -29 109.5 -42s93.333 -19.5 142 -19.5c105.333 0 186.333 24.5 243 73.5s85 113.167 85 192.5z" />
    <glyph glyph-name="percent" unicode="%" horiz-adv-x="1556" 
d="M256 0l901 1434h143l-901 -1434h-143zM717 1137c0 -87.333 -31.167 -162.166 -93.5 -224.499s-137.166 -93.5 -224.499 -93.5s-162 31.167 -224 93.5s-93 137.166 -93 224.499s31 162 93 224s136.667 93 224 93s162.166 -31 224.499 -93s93.5 -136.667 93.5 -224z
M584 1137c0 56 -17.833 102.333 -53.5 139s-79.334 55 -131.001 55s-95.334 -18.333 -131.001 -55s-53.5 -83 -53.5 -139s17.833 -102.5 53.5 -139.5s79.334 -55.5 131.001 -55.5s95.334 18.5 131.001 55.5s53.5 83.5 53.5 139.5zM840 297c0 87.333 31 162 93 224
s136.667 93 224 93s162.166 -31 224.499 -93s93.5 -136.667 93.5 -224s-31.167 -162 -93.5 -224s-137.166 -93 -224.499 -93s-162 31 -224 93s-93 136.667 -93 224zM973 297c0 -56 17.667 -102.5 53 -139.5s79 -55.5 131 -55.5s95.667 18.5 131 55.5s53 83.5 53 139.5
s-17.667 102.5 -53 139.5s-79 55.5 -131 55.5s-95.667 -18.5 -131 -55.5s-53 -83.5 -53 -139.5z" />
    <glyph glyph-name="ampersand" unicode="&#x26;" horiz-adv-x="1280" 
d="M860 1147c0 -39.333 -9.16699 -80.168 -27.5 -122.501s-40.5 -79.333 -66.5 -111s-52 -60.5 -78 -86.5s-47.667 -45.667 -65 -59l-29 -20l328 -400c6.66699 9.33301 15.167 23.666 25.5 42.999s24 59 41 119s25.5 122 25.5 186h133c0 -52 -4.5 -103.167 -13.5 -153.5
s-20 -93.333 -33 -129s-26.333 -67.5 -40 -95.5s-24.5 -48.667 -32.5 -62l-14 -20c5.33301 -9.33301 13.166 -21 23.499 -35s29.833 -32.167 58.5 -54.5s56 -33.5 82 -33.5l61 10v-133c-24.667 -6.66699 -48.667 -10 -72 -10c-27.333 0 -53.833 5.33301 -79.5 16
s-47.5 24.167 -65.5 40.5s-34.167 32.833 -48.5 49.5s-24.833 30.334 -31.5 41.001l-10 16c-4 -4 -9.5 -9.66699 -16.5 -17s-22.333 -20.666 -46 -39.999s-49.167 -36.166 -76.5 -50.499s-62.5 -27.166 -105.5 -38.499s-87.833 -17 -134.5 -17c-120 0 -218.333 34 -295 102
s-115 150 -115 246c0 48 9.66699 95.167 29 141.5s42.333 85.5 69 117.5s53.5 60.667 80.5 86s50.167 44 69.5 56l29 19c-5.33301 5.33301 -12.833 13 -22.5 23s-27.167 30.833 -52.5 62.5s-47.166 62.167 -65.499 91.5s-35.333 63.666 -51 102.999
s-23.5 75.666 -23.5 108.999c0 87.333 31.667 162 95 224s140.833 93 232.5 93s169.167 -30.333 232.5 -91s95 -132.667 95 -216zM840 235.998l-338.002 429.997c-5.33301 -4 -13.166 -10.167 -23.499 -18.5s-28.5 -25.166 -54.5 -50.499s-48.833 -50.666 -68.5 -75.999
s-37.834 -55.666 -54.501 -90.999s-25 -69.333 -25 -102c0 -65.333 24.667 -117.5 74 -156.5s117 -58.5 203 -58.5c54.667 0 105.834 10.167 153.501 30.5s81.834 40.833 102.501 61.5zM337.998 1137c0 -36.667 15.333 -79.6699 46 -129.003s61 -89.666 91 -120.999l47 -47
c5.33301 4 12.833 9.66699 22.5 17s26.167 22.333 49.5 45s43.833 45.334 61.5 68.001s34 49.334 49 80.001s22.5 59.667 22.5 87c0 52 -18.5 95.667 -55.5 131s-83.333 53 -139 53s-102 -17.667 -139 -53s-55.5 -79 -55.5 -131z" />
    <glyph glyph-name="quotesingle" unicode="'" horiz-adv-x="399" 
d="M266 1434v-430h-133v430h133z" />
    <glyph glyph-name="parenleft" unicode="(" horiz-adv-x="686" 
d="M297 512c0 -101.333 10.832 -201.5 32.499 -300.5s48 -183.167 79 -252.5s62.167 -131.333 93.5 -186s58 -95 80 -121l32 -41l-112 -62c-9.33301 9.33301 -21.666 23.666 -36.999 42.999s-42.333 60.833 -81 124.5s-72.667 130.167 -102 199.5s-56.333 158.333 -81 267
s-37 218.334 -37 329.001s11.5 219.5 34.5 326.5s51 197.167 84 270.5s66.167 138.666 99.5 195.999s61.666 100.333 84.999 129l35 41l112 -62c-8 -9.33301 -19.167 -23.333 -33.5 -42s-39.833 -58.334 -76.5 -119.001s-68.667 -123.667 -96 -189
s-52.666 -148.166 -75.999 -248.499s-35 -201.166 -35 -302.499z" />
    <glyph glyph-name="parenright" unicode=")" horiz-adv-x="686" 
d="M389 512c0 101.333 -10.8301 201.5 -32.4971 300.5s-48.334 183.167 -80.001 252.5s-62.834 131.333 -93.501 186s-57 95 -79 121l-32 41l112 62c9.33301 -9.33301 21.666 -23.666 36.999 -42.999s42.333 -60.833 81 -124.5s72.834 -130.167 102.501 -199.5
s56.667 -158.333 81 -267s36.5 -218.334 36.5 -329.001s-11.5 -219.5 -34.5 -326.5s-51.333 -197.167 -85 -270.5s-66.834 -138.666 -99.501 -195.999s-60.667 -100.333 -84 -129l-35 -41l-112 62c8 9.33301 19.167 23.333 33.5 42s40 58.334 77 119.001s69 123.667 96 189
s52.167 148.166 75.5 248.499s35 201.166 35 302.499z" />
    <glyph glyph-name="asterisk" unicode="*" horiz-adv-x="798" 
d="M399 1014l-153 -226l-92 72l174 215l-256 62l41 112l245 -82l-20 267h123l-21 -267l246 82l41 -112l-256 -62l174 -215l-92 -72z" />
    <glyph glyph-name="plus" unicode="+" horiz-adv-x="1054" 
d="M594 143h-133v389h-379v134h379v389h133v-389h379v-134h-379v-389z" />
    <glyph glyph-name="comma" unicode="," horiz-adv-x="440" 
d="M184 184l144 -82l-236 -368l-92 51z" />
    <glyph glyph-name="hyphen" unicode="-" horiz-adv-x="870" 
d="M778 676v-133h-686v133h686z" />
    <glyph glyph-name="period" unicode="." horiz-adv-x="430" 
d="M113 82c0 30 9.16699 54.5 27.5 73.5s43.166 28.5 74.499 28.5s56.166 -9.5 74.499 -28.5s27.5 -43.5 27.5 -73.5s-9.16699 -54.5 -27.5 -73.5s-43.166 -28.5 -74.499 -28.5s-56.166 9.5 -74.499 28.5s-27.5 43.5 -27.5 73.5z" />
    <glyph glyph-name="slash" unicode="/" horiz-adv-x="890" 
d="M819 1454l-614 -1884h-133l614 1884h133z" />
    <glyph glyph-name="zero" unicode="0" horiz-adv-x="1392" 
d="M276 716.5c0 -185.667 41.335 -331.001 124.002 -436.001s182 -157.5 298 -157.5c114.667 0 213 52.833 295 158.5s123 250.834 123 435.501c0 186 -41.333 331.5 -124 436.5s-181.334 157.5 -296.001 157.5s-213.334 -52.667 -296.001 -158s-124 -250.833 -124 -436.5z
M1270 716.999c0 -221.333 -56.333 -399.5 -169 -534.5s-247 -202.5 -403 -202.5c-157.333 0 -292.5 67.5 -405.5 202.5s-169.5 313.167 -169.5 534.5s56.667 399.5 170 534.5s247.833 202.5 403.5 202.5s290.167 -67.5 403.5 -202.5s170 -313.167 170 -534.5z" />
    <glyph glyph-name="one" unicode="1" horiz-adv-x="716" 
d="M389 1434l113.001 0.00195312v-1434h-154v1147h-266v92c46.667 1.33301 88.667 9.16602 126 23.499s67 30.666 89 48.999s40.167 36.833 54.5 55.5s24.166 34 29.499 46z" />
    <glyph glyph-name="two" unicode="2" horiz-adv-x="1126" 
d="M1004 0h-922c0 94 19.167 180 57.5 258s85.833 140.833 142.5 188.5s118 95.5 184 143.5s127.333 90.667 184 128s104.167 83.666 142.5 138.999s57.5 114.333 57.5 177c0 83.333 -27.333 150.333 -82 201s-129.667 76 -225 76c-48 0 -91.5 -8.5 -130.5 -25.5
s-69 -37.5 -90 -61.5s-38.333 -48 -52 -72s-23.167 -44.667 -28.5 -62l-6 -25l-134 61c1.33301 9.33301 4.5 21.333 9.5 36s18.333 40.667 40 78s47.167 70.333 76.5 99s72 55 128 79s118.333 36 187 36c136.667 0 247.667 -40 333 -120s128 -180 128 -300
c0 -69.333 -15.833 -133.666 -47.5 -192.999s-71.334 -109.166 -119.001 -149.499s-101.5 -82.333 -161.5 -126s-117 -84 -171 -121s-104.167 -81.833 -150.5 -134.5s-79.166 -108.334 -98.499 -167.001h748v-143z" />
    <glyph glyph-name="three" unicode="3" horiz-adv-x="1146" 
d="M758 758c6.66699 -1.33301 16.165 -4.16602 28.498 -8.49902s33.833 -15.333 64.5 -33s57.667 -38.5 81 -62.5s44.5 -58.5 63.5 -103.5s28.5 -95.5 28.5 -151.5c0 -113.333 -44.333 -211.5 -133 -294.5s-204.667 -124.5 -348 -124.5
c-61.333 0 -119.666 7.5 -174.999 22.5s-100.833 32.667 -136.5 53s-67.167 41.166 -94.5 62.499s-47 39.333 -59 54l-17 23l103 102c2.66699 -4 7.33398 -10.167 14.001 -18.5s21.667 -22.333 45 -42s48.666 -37.334 75.999 -53.001s62.833 -29.667 106.5 -42
s89.5 -18.5 137.5 -18.5c104 0 186.333 26.333 247 79s91 118.334 91 197.001c0 76.667 -31.167 142 -93.5 196s-143.833 81 -244.5 81h-144v143h144c86 0 153.5 23.167 202.5 69.5s73.5 108.5 73.5 186.5c0 68 -24.833 124.333 -74.5 169s-116.834 67 -201.501 67
c-39.333 0 -77.833 -5.5 -115.5 -16.5s-68.834 -24.667 -93.501 -41s-46.167 -32.666 -64.5 -48.999s-31.833 -30.166 -40.5 -41.499l-14 -16l-102 113c4 5.33301 9.66699 12.333 17 21s24.333 24 51 46s55.334 41.5 86.001 58.5s71 32.667 121 47s101.667 21.5 155 21.5
c125.333 0 228.333 -36.833 309 -110.5s121 -163.167 121 -268.5c0 -46.667 -7.5 -89 -22.5 -127s-33.167 -68.333 -54.5 -91s-42.166 -41.834 -62.499 -57.501s-38.166 -26.834 -53.499 -33.501z" />
    <glyph glyph-name="four" unicode="4" horiz-adv-x="1198" 
d="M942 451h184v-144h-184v-307h-154v307h-727v174l687 953h194v-983zM788 451v809l-583 -809h583z" />
    <glyph glyph-name="five" unicode="5" horiz-adv-x="1249" 
d="M635 922c138 0 252.668 -45.168 344.001 -135.501s137 -202.166 137 -335.499c0 -139.333 -45 -252.666 -135 -339.999s-208.667 -131 -356 -131c-58.667 0 -115.334 7.5 -170.001 22.5s-99.5 32.667 -134.5 53s-65.833 41.166 -92.5 62.499s-45.334 39.333 -56.001 54
l-18 23l102 102c2.66699 -4 7.5 -10.167 14.5 -18.5s22 -22.333 45 -42s47.5 -37.334 73.5 -53.001s60.167 -29.667 102.5 -42s86.833 -18.5 133.5 -18.5c102.667 0 184.667 30 246 90s92 139.333 92 238c0 96.667 -30.5 175.334 -91.5 236.001s-139.833 91 -236.5 91
c-64 0 -122.667 -13 -176 -39s-90.333 -51 -111 -75l-31 -39h-112l51 809h768v-144h-635l-31 -450c8 5.33301 19.333 12.833 34 22.5s45.834 22 93.501 37s97.5 22.5 149.5 22.5z" />
    <glyph glyph-name="six" unicode="6" horiz-adv-x="1208" 
d="M614 922c138 0 252.833 -45.167 344.5 -135.5s137.5 -202.333 137.5 -336s-46.5 -245.5 -139.5 -335.5s-210.5 -135 -352.5 -135s-259.333 45 -352 135s-139 202 -139 336c0 52 8.5 103.5 25.5 154.5s33.5 89.5 49.5 115.5l27 37l430 676h154l-338 -533
c39.333 14 90.333 21 153 21zM942 450.5c0 98.333 -30.667 177.5 -92 237.5s-143.166 90 -245.499 90s-184.333 -30 -246 -90s-92.5 -139.167 -92.5 -237.5s30.833 -177.5 92.5 -237.5s143.667 -90 246 -90s184.166 30 245.499 90s92 139.167 92 237.5z" />
    <glyph glyph-name="seven" unicode="7" horiz-adv-x="1013" 
d="M61 1434h902v-144l-635 -1290h-154l635 1290h-748v144z" />
    <glyph glyph-name="eight" unicode="8" horiz-adv-x="1208" 
d="M604 840c80.667 0 145.167 22.167 193.5 66.5s72.5 100.666 72.5 168.999s-24.167 124.666 -72.5 168.999s-112.833 66.5 -193.5 66.5s-145.167 -22.167 -193.5 -66.5s-72.5 -100.666 -72.5 -168.999s24.167 -124.666 72.5 -168.999s112.833 -66.5 193.5 -66.5zM604 1454
c116 0 214.998 -38.167 296.998 -114.5s123 -164.5 123 -264.5c0 -39.333 -6.5 -76.833 -19.5 -112.5s-28.333 -64 -46 -85s-35.334 -39.333 -53.001 -55s-32.834 -27.167 -45.501 -34.5l-20 -10c6.66699 -2.66699 15.5 -6.33398 26.5 -11.001s30.5 -17.334 58.5 -38.001
s52.833 -43.167 74.5 -67.5s41.334 -58.333 59.001 -102s26.5 -90.167 26.5 -139.5c0 -120 -46 -223.333 -138 -310s-206.333 -130 -343 -130s-251 43.333 -343 130s-138 190 -138 310c0 49.333 8.5 95.5 25.5 138.5s37.5 77.333 61.5 103s47.833 47.834 71.5 66.501
s44.5 31.334 62.5 38.001l25 12c-5.33301 2.66699 -12.166 6.16699 -20.499 10.5s-23.166 15 -44.499 32s-40.166 36 -56.499 57s-31 49.333 -44 85s-19.5 73.167 -19.5 112.5c0 100 41 188.167 123 264.5s181 114.5 297 114.5zM603.998 717
c-90 0 -167.166 -30 -231.499 -90s-96.5 -129 -96.5 -207c0 -80.667 30.167 -150.334 90.5 -209.001s139.666 -88 237.999 -88s177.5 29.333 237.5 88s90 128.334 90 209.001c0 78 -32.167 147 -96.5 207s-141.5 90 -231.5 90z" />
    <glyph glyph-name="nine" unicode="9" horiz-adv-x="1208" 
d="M594 512c-138 0 -252.667 45 -344 135s-137 202 -137 336s46.333 246 139 336s210 135 352 135s259.5 -45 352.5 -135s139.5 -202 139.5 -336c0 -52 -8.66699 -103.5 -26 -154.5s-34 -89.5 -50 -115.5l-27 -37l-430 -676h-153l338 532c-40 -13.333 -91.333 -20 -154 -20z
M266 983c0 -98 30.833 -177.167 92.5 -237.5s143.667 -90.5 246 -90.5s184.166 30.167 245.499 90.5s92 139.5 92 237.5s-30.667 177.167 -92 237.5s-143.166 90.5 -245.499 90.5s-184.333 -30.167 -246 -90.5s-92.5 -139.5 -92.5 -237.5z" />
    <glyph glyph-name="colon" unicode=":" horiz-adv-x="430" 
d="M113 82c0 30 9.16699 54.5 27.5 73.5s43.166 28.5 74.499 28.5s56.166 -9.5 74.499 -28.5s27.5 -43.5 27.5 -73.5s-9.16699 -54.5 -27.5 -73.5s-43.166 -28.5 -74.499 -28.5s-56.166 9.5 -74.499 28.5s-27.5 43.5 -27.5 73.5zM113 901c0 30 9.16699 54.667 27.5 74
s43.166 29 74.499 29s56.166 -9.66699 74.499 -29s27.5 -44 27.5 -74s-9.16699 -54.5 -27.5 -73.5s-43.166 -28.5 -74.499 -28.5s-56.166 9.5 -74.499 28.5s-27.5 43.5 -27.5 73.5z" />
    <glyph glyph-name="semicolon" unicode=";" horiz-adv-x="450" 
d="M184 184l144 -82l-236 -368l-92 51zM133 901c0 30 9.16699 54.667 27.5 74s43.333 29 75 29s56.667 -9.66699 75 -29s27.5 -44 27.5 -74s-9.16699 -54.5 -27.5 -73.5s-43.333 -28.5 -75 -28.5s-56.667 9.5 -75 28.5s-27.5 43.5 -27.5 73.5z" />
    <glyph glyph-name="less" unicode="&#x3c;" horiz-adv-x="1013" 
d="M92 461v82l830 440v-143l-646 -338l646 -338v-144z" />
    <glyph glyph-name="equal" unicode="=" horiz-adv-x="1013" 
d="M922 492v-134h-830v134h830zM922 850v-133h-830v133h830z" />
    <glyph glyph-name="greater" unicode="&#x3e;" horiz-adv-x="1013" 
d="M922 543v-82l-830 -441v144l645 338l-645 338v143z" />
    <glyph glyph-name="question" unicode="?" horiz-adv-x="1075" 
d="M584 348h-144.004c-6.66699 30 -10 60.667 -10 92c0 60 13.667 114.333 41 163s60.833 89 100.5 121s79 63.333 118 94s72 66.834 99 108.501s40.5 87.834 40.5 138.501c0 68 -26.833 126 -80.5 174s-125.834 72 -216.501 72c-49.333 0 -94 -7.83301 -134 -23.5
s-71 -34.5 -93 -56.5s-40.167 -43.833 -54.5 -65.5s-24.166 -40.167 -29.499 -55.5l-6 -25l-133 41c2.66699 9.33301 6.33398 21.333 11.001 36s18.334 40.667 41.001 78s49.334 70.333 80.001 99s74.334 55 131.001 79s119 36 187 36c130 0 237.667 -38.5 323 -115.5
s128 -168.167 128 -273.5c0 -60 -9.83301 -113.5 -29.5 -160.5s-44.167 -84.167 -73.5 -111.5s-61.5 -55.333 -96.5 -84s-67.167 -55.334 -96.5 -80.001s-53.833 -57.834 -73.5 -99.501s-29.5 -88.5 -29.5 -140.5v-41zM409.996 82c0 30 9.5 54.5 28.5 73.5
s43.5 28.5 73.5 28.5s54.5 -9.5 73.5 -28.5s28.5 -43.5 28.5 -73.5s-9.5 -54.5 -28.5 -73.5s-43.5 -28.5 -73.5 -28.5s-54.5 9.5 -73.5 28.5s-28.5 43.5 -28.5 73.5z" />
    <glyph glyph-name="at" unicode="@" horiz-adv-x="1843" 
d="M901 758c-62.667 0 -115.834 -24 -159.501 -72s-65.5 -109.5 -65.5 -184.5s21.833 -136.333 65.5 -184s96.834 -71.5 159.501 -71.5c66.667 0 122.667 23.833 168 71.5s68 109 68 184s-22.667 136.5 -68 184.5s-101.333 72 -168 72zM891 881
c52 0 98.498 -9.66602 139.498 -28.999s68.833 -38.333 83.5 -57l23 -27v102h123v-467c0 -105.333 40.667 -157.666 122 -156.999c53.333 0 97.5 24.5 132.5 73.5s52.5 126.833 52.5 233.5c0 174.667 -61.167 320.667 -183.5 438s-276.166 176 -461.499 176
c-180 0 -332.667 -63.167 -458 -189.5s-188 -281.5 -188 -465.5s62.5 -339.167 187.5 -465.5s277.833 -189.5 458.5 -189.5c72.667 0 141.334 10.833 206.001 32.5s111.334 43.5 140.001 65.5l43 35l71 -92c-4 -4 -10.333 -9.83301 -19 -17.5s-27.667 -21 -57 -40
s-60.5 -35.667 -93.5 -50s-75.667 -27.333 -128 -39s-106.5 -17.5 -162.5 -17.5c-210 0 -392.333 77.167 -547 231.5s-232 336.5 -232 546.5s77.167 392.167 231.5 546.5s336.833 231.5 547.5 231.5c217.333 0 401.333 -72.333 552 -217s226 -318 226 -520
c0 -139.333 -30 -245.833 -90 -319.5s-136 -110.5 -228 -110.5c-31.333 0 -60.333 4.83301 -87 14.5s-48.167 21.667 -64.5 36s-30.333 28.666 -42 42.999s-20.167 26.166 -25.5 35.499l-6 14c-1.33301 -4 -4 -9 -8 -15s-13.833 -17.167 -29.5 -33.5
s-32.834 -31 -51.501 -44s-43.667 -24.667 -75 -35s-65.333 -15.5 -102 -15.5c-94 0 -175.5 36.5 -244.5 109.5s-103.5 162.833 -103.5 269.5s34.5 196.5 103.5 269.5s150.5 109.5 244.5 109.5z" />
    <glyph glyph-name="A" unicode="A" horiz-adv-x="1433" 
d="M993 543l-276 676l-277 -676h553zM1055 399h-676l-164 -399h-164l594 1434h143l594 -1434h-163z" />
    <glyph glyph-name="B" unicode="B" horiz-adv-x="1372" 
d="M1004 768c6.66699 -2.66699 15.001 -6.3291 25.001 -10.9961s28.667 -17.334 56 -38.001s51.333 -43.334 72 -68.001s39.5 -58.834 56.5 -102.501s25.5 -89.834 25.5 -138.501c0 -118.667 -40.667 -216.667 -122 -294s-187.333 -116 -318 -116h-584v1434h553
c116 0 211.5 -35.5 286.5 -106.5s112.5 -158.5 112.5 -262.5c0 -42 -5.33301 -80.833 -16 -116.5s-24.334 -64.167 -41.001 -85.5s-33.167 -39.5 -49.5 -54.5s-29.833 -25.167 -40.5 -30.5zM369.001 143.005h430c86 0 155.167 25 207.5 75s78.5 114 78.5 192
c0 79.333 -26.5 146.833 -79.5 202.5s-121.833 83.5 -206.5 83.5h-430v-553zM768.001 1290l-399 -0.00195312v-459h399c76.667 0 136.834 20.833 180.501 62.5s65.5 98.834 65.5 171.501c0 66.667 -21.833 120.834 -65.5 162.501s-103.834 62.5 -180.501 62.5z" />
    <glyph glyph-name="C" unicode="C" horiz-adv-x="1536" 
d="M123 717c0 204.667 71.6641 378.667 214.997 522s317.333 215 522 215c72.667 0 142.334 -10.167 209.001 -30.5s121.834 -44.833 165.501 -73.5s82 -57.667 115 -87s56.833 -54.333 71.5 -75l23 -31l-103 -92c-4 6.66699 -10 15.5 -18 26.5s-26.667 30.5 -56 58.5
s-61.166 52.833 -95.499 74.5s-79.5 41.5 -135.5 59.5s-114.667 27 -176 27c-164 0 -302.333 -57 -415 -171s-169 -255 -169 -423s56.333 -309 169 -423s251 -171 415 -171c61.333 0 120 8.5 176 25.5s102.5 37.5 139.5 61.5s69.5 47.833 97.5 71.5s48 44.5 60 62.5l19 25
l102 -93c-5.33301 -8 -13.5 -18.5 -24.5 -31.5s-35.333 -36.5 -73 -70.5s-77.5 -64.333 -119.5 -91s-97.167 -50.5 -165.5 -71.5s-138.833 -31.5 -211.5 -31.5c-204.667 0 -378.667 71.667 -522 215s-215 317.333 -215 522z" />
    <glyph glyph-name="D" unicode="D" horiz-adv-x="1536" 
d="M215 1434l451 0.00195312c208.667 0 385.334 -70.333 530.001 -211s217 -309.334 217 -506.001s-72.333 -365.334 -217 -506.001s-321.334 -211 -530.001 -211h-451v1434zM666 1290h-297v-1147h297c168 0 309 55.667 423 167s171 246.833 171 406.5
s-57 295.167 -171 406.5s-255 167 -423 167z" />
    <glyph glyph-name="E" unicode="E" horiz-adv-x="1310" 
d="M369 143h850v-143h-1004v1434h983v-144h-829v-471h665v-143h-665v-533z" />
    <glyph glyph-name="F" unicode="F" horiz-adv-x="1259" 
d="M215 1434h973v-144h-819v-491h655v-144h-655v-655h-154v1434z" />
    <glyph glyph-name="G" unicode="G" horiz-adv-x="1628" 
d="M123 717c0 204.667 71.665 378.667 214.998 522s317.333 215 522 215c72.667 0 142.334 -10.167 209.001 -30.5s121.834 -44.833 165.501 -73.5s82 -57.667 115 -87s56.833 -54.333 71.5 -75l23 -31l-103 -92c-4 6.66699 -10 15.5 -18 26.5s-26.667 30.5 -56 58.5
s-61.166 52.833 -95.499 74.5s-79.5 41.5 -135.5 59.5s-114.667 27 -176 27c-164 0 -302.333 -57 -415 -171s-169 -255 -169 -423s56.333 -309 169 -423s251 -171 415 -171c57.333 0 112 6.83301 164 20.5s94.667 30 128 49s62.666 37.667 87.999 56s43.333 34.5 54 48.5
l17 20v277h-328v143h481v-461c-5.33301 -8 -13.833 -18.5 -25.5 -31.5s-36.5 -36.5 -74.5 -70.5s-78.833 -64.333 -122.5 -91s-100 -50.5 -169 -71.5s-139.833 -31.5 -212.5 -31.5c-204.667 0 -378.667 71.667 -522 215s-215 317.333 -215 522z" />
    <glyph glyph-name="H" unicode="H" horiz-adv-x="1536" 
d="M215 0v1434h154v-635h798v635h154v-1434h-154v655h-798v-655h-154z" />
    <glyph glyph-name="I" unicode="I" horiz-adv-x="583" 
d="M215 0v1434h154v-1434h-154z" />
    <glyph glyph-name="J" unicode="J" horiz-adv-x="1013" 
d="M655 1434l153.999 0.000976562v-1014c0 -128.667 -41.333 -234.167 -124 -316.5s-188 -123.5 -316 -123.5c-42 0 -82.667 5.33301 -122 16s-72.166 24.167 -98.499 40.5s-49.5 32.833 -69.5 49.5s-34.667 30.334 -44 41.001l-15 16l103 103
c2.66699 -2.66699 6 -7.16699 10 -13.5s13.5 -16.333 28.5 -30s31.5 -25.834 49.5 -36.501s41.333 -20.5 70 -29.5s58 -13.5 88 -13.5c87.333 0 156.833 26.667 208.5 80s77.5 125.666 77.5 216.999v1014z" />
    <glyph glyph-name="K" unicode="K" horiz-adv-x="1372" 
d="M369 625l737 809h194l-542 -594l594 -840h-185l-512 727l-286 -307v-420h-154v1434h154v-809z" />
    <glyph glyph-name="L" unicode="L" horiz-adv-x="1146" 
d="M1106 0h-891v1434h154v-1291h737v-143z" />
    <glyph glyph-name="M" unicode="M" horiz-adv-x="1884" 
d="M1516 1167l-574 -757l-573 757v-1167h-154v1434h133l594 -779l594 779h133v-1434h-153v1167z" />
    <glyph glyph-name="N" unicode="N" horiz-adv-x="1597" 
d="M1229 1434h153v-1434h-133l-880 1157v-1157h-154v1434h133l881 -1158v1158z" />
    <glyph glyph-name="O" unicode="O" horiz-adv-x="1720" 
d="M276 717c0 -168 56.333 -309 169 -423s251 -171 415 -171s302.333 57 415 171s169 255 169 423s-56.333 309 -169 423s-251 171 -415 171s-302.333 -57 -415 -171s-169 -255 -169 -423zM1597 717c0 -204.667 -71.667 -378.667 -215 -522s-317.333 -215 -522 -215
s-378.667 71.667 -522 215s-215 317.333 -215 522s71.667 378.667 215 522s317.333 215 522 215s378.667 -71.667 522 -215s215 -317.333 215 -522z" />
    <glyph glyph-name="P" unicode="P" horiz-adv-x="1331" 
d="M215 1434l543 -0.000976562c132.667 0 242.667 -43 330 -129s131 -193.167 131 -321.5s-43.833 -235.666 -131.5 -321.999s-197.5 -129.5 -329.5 -129.5h-389v-532h-154v1434zM758 1290h-389v-614h389c92.667 0 167 28 223 84s84 130.333 84 223s-28 167 -84 223
s-130.333 84 -223 84z" />
    <glyph glyph-name="Q" unicode="Q" horiz-adv-x="1720" 
d="M1597 717c0 -66.667 -7.83496 -130.5 -23.502 -191.5s-35.667 -113 -60 -156s-51.166 -83.167 -80.499 -120.5s-59.166 -67.666 -89.499 -90.999s-57.666 -43.5 -81.999 -60.5s-44.833 -29.167 -61.5 -36.5l-22 -10c2.66699 -5.33301 7 -12.833 13 -22.5
s20.667 -26 44 -49s48.666 -43.5 75.999 -61.5s63.833 -34.5 109.5 -49.5s94.5 -22.5 146.5 -22.5l92 11v-133c-20.667 -6.66699 -51.334 -10.334 -92.001 -11.001c-72.667 0 -140.667 10 -204 30s-114.166 44 -152.499 72s-71.5 56 -99.5 84s-47.333 52 -58 72l-19 29
c-48 -13.333 -106 -20 -174 -20c-204.667 0 -378.667 71.667 -522 215s-215 317.333 -215 522s71.667 378.667 215 522s317.333 215 522 215s378.667 -71.667 522 -215s215 -317.333 215 -522zM275.998 717c0 -168 56.333 -309 169 -423s251 -171 415 -171
s302.333 57 415 171s169 255 169 423s-56.333 309 -169 423s-251 171 -415 171s-302.333 -57 -415 -171s-169 -255 -169 -423z" />
    <glyph glyph-name="R" unicode="R" horiz-adv-x="1382" 
d="M215 1434l573 0.000976562c126.667 0 231.834 -41 315.501 -123s125.5 -184.333 125.5 -307c0 -61.333 -10.333 -117.333 -31 -168s-45.334 -90.334 -74.001 -119.001s-57.667 -53 -87 -73s-54 -33.333 -74 -40l-31 -10l338 -594h-174l-318 573h-409v-573h-154v1434z
M788 1290l-419 -0.00195312v-573h419c87.333 0 157 25.833 209 77.5s78 121.334 78 209.001s-26 157.334 -78 209.001s-121.667 77.5 -209 77.5z" />
    <glyph glyph-name="S" unicode="S" horiz-adv-x="1157" 
d="M901 389c0 49.333 -14.3359 91.3359 -43.0029 126.003s-65.834 61.667 -111.501 81s-96.167 36.833 -151.5 52.5s-110.666 33 -165.999 52s-105.833 42.167 -151.5 69.5s-82.834 66 -111.501 116s-43 109.667 -43 179c0 108 42.333 199.833 127 275.5
s196 113.5 334 113.5c52 0 101.5 -6.5 148.5 -19.5s86.167 -28.333 117.5 -46s59.333 -35.334 84 -53.001s42.334 -32.834 53.001 -45.501l17 -20l-103 -103c-2.66699 4 -6.66699 9.16699 -12 15.5s-18 17.666 -38 33.999s-41.167 31 -63.5 44s-52 24.667 -89 35
s-75.167 15.5 -114.5 15.5c-94 0 -168.833 -24 -224.5 -72s-83.5 -106 -83.5 -174c0 -49.333 14.333 -91.333 43 -126s66 -61.667 112 -81s96.667 -36.833 152 -52.5s110.5 -33 165.5 -52s105.5 -42.167 151.5 -69.5s83.333 -65.833 112 -115.5s43 -109.5 43 -179.5
c0 -121.333 -42.667 -219.833 -128 -295.5s-203.333 -113.5 -354 -113.5c-61.333 0 -119.666 7.5 -174.999 22.5s-100.666 32.667 -135.999 53s-66.666 41.166 -93.999 62.499s-46.333 39.333 -57 54l-19 23l94 104c2.66699 -4 7.5 -10.167 14.5 -18.5
s22.167 -22.666 45.5 -42.999s48.5 -38 75.5 -53s63.5 -29 109.5 -42s93.333 -19.5 142 -19.5c105.333 0 186.333 24.5 243 73.5s85 113.167 85 192.5z" />
    <glyph glyph-name="T" unicode="T" horiz-adv-x="1136" 
d="M41 1434h1055v-144h-451v-1290h-153v1290h-451v144z" />
    <glyph glyph-name="U" unicode="U" horiz-adv-x="1556" 
d="M778 123c118.667 0 219.998 42.667 303.998 128s126 189.333 126 312v871h154v-871c0 -158.667 -57.667 -295.5 -173 -410.5s-252.166 -172.5 -410.499 -172.5s-295.166 57.667 -410.499 173s-173 252 -173 410v871h153v-871c0 -122.667 42 -226.667 126 -312
s185.333 -128 304 -128z" />
    <glyph glyph-name="V" unicode="V" horiz-adv-x="1392" 
d="M625 0l-564 1434h164l471 -1219l471 1219h164l-563 -1434h-143z" />
    <glyph glyph-name="W" unicode="W" horiz-adv-x="2129" 
d="M1444 0l-379 1198l-379 -1198h-154l-471 1434h164l379 -1198l389 1198h144l389 -1198l379 1198h163l-471 -1434h-153z" />
    <glyph glyph-name="X" unicode="X" horiz-adv-x="1331" 
d="M666 870l399 564h184l-491 -686l532 -748h-184l-440 625l-441 -625h-184l532 748l-491 686h184z" />
    <glyph glyph-name="Y" unicode="Y" horiz-adv-x="1300" 
d="M645 666h10l430 768h175l-533 -932v-502h-154v502l-532 932h174z" />
    <glyph glyph-name="Z" unicode="Z" horiz-adv-x="1228" 
d="M932 1290h-809v144h993v-144l-840 -1147h861v-143h-1045v143z" />
    <glyph glyph-name="bracketleft" unicode="[" horiz-adv-x="686" 
d="M328 1321v-1618h276v-133h-420v1884h420v-133h-276z" />
    <glyph glyph-name="backslash" unicode="\" horiz-adv-x="890" 
d="M686 -430l-614 1884h133l614 -1884h-133z" />
    <glyph glyph-name="bracketright" unicode="]" horiz-adv-x="686" 
d="M358 -297v1618h-276v133h420v-1884h-420v133h276z" />
    <glyph glyph-name="asciicircum" unicode="^" horiz-adv-x="819" 
d="M358 1434h103l266 -574h-133l-184 410l-185 -410h-133z" />
    <glyph glyph-name="underscore" unicode="_" horiz-adv-x="675" 
d="M696 -215v-133h-716v133h716z" />
    <glyph glyph-name="grave" unicode="`" horiz-adv-x="430" 
d="M215 1434l154 -277h-113l-195 277h154z" />
    <glyph glyph-name="a" unicode="a" horiz-adv-x="1064" 
d="M369 563l379.004 62.0049c0 72.667 -23 131.667 -69 177s-105 68 -177 68c-52 0 -100.833 -11.833 -146.5 -35.5s-78.834 -47.834 -99.501 -72.501l-31 -35l-92 92c4 5.33301 9.5 12.166 16.5 20.499s22.333 23 46 44s48.5 39.833 74.5 56.5s60.167 31.5 102.5 44.5
s85.5 19.5 129.5 19.5c112 0 204.833 -36.333 278.5 -109s110.5 -162.667 110.5 -270v-625h-143v133c-2.66699 -4 -6.83398 -9.5 -12.501 -16.5s-18.334 -19.333 -38.001 -37s-40.834 -33.334 -63.501 -47.001s-52.5 -25.834 -89.5 -36.501s-75.167 -16 -114.5 -16
c-98 0 -180.5 29 -247.5 87s-100.5 124.333 -100.5 199c0 82 24.667 148.167 74 198.5s120.333 83.166 213 98.499zM430.004 113.005c92.667 0 168.834 30.332 228.501 90.999s89.5 139.334 89.5 236.001v62l-338 -62c-122.667 -23.333 -184.334 -81.333 -185.001 -174
c0 -44 18.167 -80.5 54.5 -109.5s86.5 -43.5 150.5 -43.5z" />
    <glyph glyph-name="b" unicode="b" horiz-adv-x="1228" 
d="M307 491.5c0 -101 35.833 -189.333 107.5 -265s151.834 -113.5 240.501 -113.5c84.667 0 160.5 36.833 227.5 110.5s100.5 163 100.5 268s-33.5 194.333 -100.5 268s-142.833 110.5 -227.5 110.5c-88.667 0 -168.834 -37.833 -240.501 -113.5s-107.5 -164 -107.5 -265z
M307 1434l0.00195312 -605.001c2.66699 4 7.5 10.167 14.5 18.5s21.333 22.5 43 42.5s45.167 37.833 70.5 53.5s57.833 29.667 97.5 42s80.5 18.5 122.5 18.5c125.333 0 235.166 -50.333 329.499 -151s141.5 -221.167 141.5 -361.5s-47 -260.666 -141 -360.999
s-204 -150.5 -330 -150.5c-42 0 -82.5 6 -121.5 18s-71.833 26.333 -98.5 43s-49.834 33.5 -69.501 50.5s-34.167 31.5 -43.5 43.5l-15 19v-154h-143v1434h143z" />
    <glyph glyph-name="c" unicode="c" horiz-adv-x="1054" 
d="M82 492c0 142 48.499 262.837 145.499 362.504s212.167 149.5 345.5 149.5c76.667 0 148.167 -16.5 214.5 -49.5s113.833 -65.833 142.5 -98.5l43 -47l-103 -102c-2.66699 4 -6.66699 9.66699 -12 17s-17.166 20.666 -35.499 39.999s-38.166 36.166 -59.499 50.499
s-49 27.166 -83 38.499s-69.667 17 -107 17c-94 0 -175.5 -36.5 -244.5 -109.5s-103.5 -162.667 -103.5 -269s34.5 -196 103.5 -269s150.5 -109.5 244.5 -109.5c57.333 0 111.666 13.667 162.999 41s88.666 54.666 111.999 81.999l33 40l102 -92
c-4 -5.33301 -10.167 -12.833 -18.5 -22.5s-25.833 -26 -52.5 -49s-54.667 -43.333 -84 -61s-67.166 -34 -113.499 -49s-93.5 -22.5 -141.5 -22.5c-134 0 -249.333 49.833 -346 149.5s-145 220.5 -145 362.5z" />
    <glyph glyph-name="d" unicode="d" horiz-adv-x="1228" 
d="M901 491.5c0 101 -35.833 189.333 -107.5 265s-151.834 113.5 -240.501 113.5c-84.667 0 -160.5 -36.833 -227.5 -110.5s-100.5 -163 -100.5 -268s33.5 -194.333 100.5 -268s142.833 -110.5 227.5 -110.5c88.667 0 168.834 37.833 240.501 113.5s107.5 164 107.5 265z
M901 829v604.999h143v-1434h-143v154c-2.66699 -4 -7.33398 -10.167 -14.001 -18.5s-21 -22.5 -43 -42.5s-45.667 -37.833 -71 -53.5s-57.833 -29.5 -97.5 -41.5s-80.5 -18 -122.5 -18c-125.333 0 -235.166 50.167 -329.499 150.5s-141.5 220.666 -141.5 360.999
s47.167 260.833 141.5 361.5s204.166 151 329.499 151c42 0 82.5 -6.16699 121.5 -18.5s71.833 -26.666 98.5 -42.999s49.834 -33.166 69.501 -50.499s34.5 -32 44.5 -44z" />
    <glyph glyph-name="e" unicode="e" horiz-adv-x="1136" 
d="M1024 438l-798.998 2.00195c5.33301 -88.667 41.833 -165.334 109.5 -230.001s147.167 -97 238.5 -97c61.333 0 118.333 13.667 171 41s90 54.666 112 81.999l35 40l92 -92c-4 -5.33301 -9.83301 -12.833 -17.5 -22.5s-24.334 -26 -50.001 -49
s-53.334 -43.333 -83.001 -61s-68 -34 -115 -49s-95.167 -22.5 -144.5 -22.5c-134 0 -249.333 49.833 -346 149.5s-145 220.5 -145 362.5s47.833 262.833 143.5 362.5s208.167 149.5 337.5 149.5c134 0 246 -46.5 336 -139.5s135 -210.5 135 -352.5zM563.002 870.002
c-86 0 -161 -30.333 -225 -91s-101.667 -132.667 -113 -216h666c-10.667 88.667 -46.5 162 -107.5 220s-134.5 87 -220.5 87z" />
    <glyph glyph-name="f" unicode="f" horiz-adv-x="655" 
d="M584 983v-133.001h-236v-850h-143v850h-154v133h154v184c0 91.333 23.5 162 70.5 212s112.167 75 195.5 75c24.667 0 49 -2.66699 73 -8s42 -10.666 54 -15.999l16 -7v-133c-40.667 20.667 -85 31 -133 31c-88.667 0 -133 -51.333 -133 -154v-184h236z" />
    <glyph glyph-name="g" unicode="g" 
d="M870 61l-0.00195312 122.997c-2.66699 -4 -6.66699 -9.66699 -12 -17s-17.833 -20.666 -37.5 -39.999s-41.167 -36.166 -64.5 -50.499s-54.166 -27.333 -92.499 -39s-78.5 -17.5 -120.5 -17.5c-124 0 -231.833 47.833 -323.5 143.5s-137.5 211.834 -137.5 348.501
s45.667 252.834 137 348.501s199.333 143.5 324 143.5c42 0 81.833 -5.5 119.5 -16.5s68.834 -24.667 93.501 -41s45.834 -32.833 63.501 -49.5s30.5 -30.334 38.5 -41.001l12 -16v143h144v-922c0 -138 -46.833 -254.333 -140.5 -349s-207.5 -142 -341.5 -142
c-52 0 -101.5 7.16699 -148.5 21.5s-85.5 31.333 -115.5 51s-56.5 39.5 -79.5 59.5s-39.5 37.333 -49.5 52l-16 21l92 92c2.66699 -4 7.16699 -9.83301 13.5 -17.5s19.666 -21 39.999 -40s41.833 -35.667 64.5 -50s52 -27.333 88 -39s73 -17.5 111 -17.5
c92.667 0 172.167 34.333 238.5 103s99.5 153.667 99.5 255zM224.998 511.997c0 -100 32.167 -184.667 96.5 -254s138.166 -104 221.499 -104c88.667 0 165.334 34.333 230.001 103s97 153.667 97 255s-32.333 186.333 -97 255s-141.334 103 -230.001 103
c-83.333 0 -157.166 -34.667 -221.499 -104s-96.5 -154 -96.5 -254z" />
    <glyph glyph-name="h" unicode="h" horiz-adv-x="1198" 
d="M307 1434l-0.00488281 -593.998c2.66699 4 6.83398 9.66699 12.501 17s18.334 20.666 38.001 39.999s40.834 36.166 63.501 50.499s52.334 27.333 89.001 39s75 17.5 115 17.5c118.667 0 214.834 -38.333 288.501 -115s110.5 -178.334 110.5 -305.001v-584h-143v584
c0 86 -25 155.167 -75 207.5s-114 78.5 -192 78.5c-87.333 0 -160.333 -30.667 -219 -92s-88 -139.666 -88 -234.999v-543h-143v1434h143z" />
    <glyph glyph-name="i" unicode="i" horiz-adv-x="471" 
d="M154 0v983h143v-983h-143zM133 1311c0 26 8.83301 47.833 26.5 65.5s39.5 26.5 65.5 26.5s47.833 -8.83301 65.5 -26.5s26.5 -39.5 26.5 -65.5s-8.83301 -47.833 -26.5 -65.5s-39.5 -26.5 -65.5 -26.5s-47.833 8.83301 -65.5 26.5s-26.5 39.5 -26.5 65.5z" />
    <glyph glyph-name="j" unicode="j" horiz-adv-x="471" 
d="M154 -143v1126h143v-1126c0 -191.333 -88.667 -287 -266 -287c-22 0 -43.167 2.66699 -63.5 8s-35.5 10.666 -45.5 15.999l-14 7v133c34 -20.667 71.333 -31 112 -31c89.333 0 134 51.333 134 154zM133 1311c0 26 8.83301 47.833 26.5 65.5s39.5 26.5 65.5 26.5
s47.833 -8.83301 65.5 -26.5s26.5 -39.5 26.5 -65.5s-8.83301 -47.833 -26.5 -65.5s-39.5 -26.5 -65.5 -26.5s-47.833 8.83301 -65.5 26.5s-26.5 39.5 -26.5 65.5z" />
    <glyph glyph-name="k" unicode="k" horiz-adv-x="1044" 
d="M307 276v-276h-143v1434h143v-973l492 522h174l-379 -399l420 -584h-164l-348 481z" />
    <glyph glyph-name="l" unicode="l" horiz-adv-x="491" 
d="M307 1434v-1434h-143v1434h143z" />
    <glyph glyph-name="m" unicode="m" horiz-adv-x="1781" 
d="M1464 0l0.000976562 583.997c0 91.333 -22.5 161.833 -67.5 211.5s-104.167 74.5 -177.5 74.5c-75.333 0 -138.666 -29.667 -189.999 -89s-77 -138.666 -77 -237.999v-543h-143v584c0 90 -22.5 160.167 -67.5 210.5s-104.5 75.5 -178.5 75.5
c-75.333 0 -138.5 -29.667 -189.5 -89s-76.5 -138.666 -76.5 -237.999v-543h-143v983h143v-123c2.66699 4 6 9.16699 10 15.5s14.167 17.666 30.5 33.999s34.5 31 54.5 44s46 24.667 78 35s66.333 15.5 103 15.5c44 0 85.167 -6.16699 123.5 -18.5
s68.666 -26.666 90.999 -42.999s41.666 -33.166 57.999 -50.499s28.166 -32 35.499 -44l10 -19c2.66699 4 6.33398 10.167 11.001 18.5s17 22.5 37 42.5s41.5 37.833 64.5 53.5s54.667 29.667 95 42s83.833 18.5 130.5 18.5c112 0 203.167 -37 273.5 -111
s105.5 -177 105.5 -309v-584h-144z" />
    <glyph glyph-name="n" unicode="n" 
d="M297 983v-142.998c2.66699 4 6.66699 9.66699 12 17s18 20.666 38 39.999s41.167 36.166 63.5 50.499s52 27.333 89 39s75.167 17.5 114.5 17.5c118.667 0 215 -38.333 289 -115s111 -178.334 111 -305.001v-584h-144v584c0 86 -24.833 155.167 -74.5 207.5
s-113.5 78.5 -191.5 78.5c-87.333 0 -160.333 -30.667 -219 -92s-88 -139.666 -88 -234.999v-543h-143v983h143z" />
    <glyph glyph-name="o" unicode="o" 
d="M942 491.5c0 106.333 -35.167 196 -105.5 269s-154.666 109.5 -252.999 109.5s-182.666 -36.5 -252.999 -109.5s-105.5 -162.5 -105.5 -268.5c0 -105.333 35.167 -194.833 105.5 -268.5s154.666 -110.5 252.999 -110.5s182.666 36.5 252.999 109.5
s105.5 162.667 105.5 269zM82 491.5c0 143.667 48.833 265 146.5 364s216.167 148.5 355.5 148.5s257.666 -49.5 354.999 -148.5s146 -220.333 146 -364s-48.667 -264.834 -146 -363.501s-215.666 -148 -354.999 -148s-257.833 49.333 -355.5 148
s-146.5 219.834 -146.5 363.501z" />
    <glyph glyph-name="p" unicode="p" horiz-adv-x="1218" 
d="M297 491.5c0 -101 35.833 -189.333 107.5 -265s151.834 -113.5 240.501 -113.5c84.667 0 160.5 36.833 227.5 110.5s100.5 163 100.5 268s-33.5 194.333 -100.5 268s-142.833 110.5 -227.5 110.5c-88.667 0 -168.834 -37.833 -240.501 -113.5s-107.5 -164 -107.5 -265z
M297 154l0.00195312 -584.001h-143v1413h143v-154c2.66699 4 7.5 10.167 14.5 18.5s21.333 22.5 43 42.5s45.167 37.833 70.5 53.5s57.833 29.667 97.5 42s80.5 18.5 122.5 18.5c125.333 0 235.166 -50.333 329.499 -151s141.5 -221.167 141.5 -361.5
s-47 -260.666 -141 -360.999s-204 -150.5 -330 -150.5c-42 0 -82.5 6 -121.5 18s-71.833 26.333 -98.5 43s-49.834 33.5 -69.501 50.5s-34.5 31.5 -44.5 43.5z" />
    <glyph glyph-name="q" unicode="q" horiz-adv-x="1218" 
d="M901 491.5c0 101 -35.833 189.333 -107.5 265s-151.834 113.5 -240.501 113.5c-84.667 0 -160.5 -36.833 -227.5 -110.5s-100.5 -163 -100.5 -268s33.5 -194.333 100.5 -268s142.833 -110.5 227.5 -110.5c88.667 0 168.834 37.833 240.501 113.5s107.5 164 107.5 265z
M901 -430v583.999c-2.66699 -4 -7.33398 -10.167 -14.001 -18.5s-21 -22.5 -43 -42.5s-45.667 -37.833 -71 -53.5s-57.833 -29.5 -97.5 -41.5s-80.5 -18 -122.5 -18c-125.333 0 -235.166 50.167 -329.499 150.5s-141.5 220.666 -141.5 360.999s47.167 260.833 141.5 361.5
s204.166 151 329.499 151c42 0 82.5 -6.16699 121.5 -18.5s71.833 -26.666 98.5 -42.999s49.834 -33.166 69.501 -50.499s34.5 -32 44.5 -44l14 -19v154h143v-1413h-143z" />
    <glyph glyph-name="r" unicode="r" horiz-adv-x="706" 
d="M666 1004v-144.001h-62c-84.667 0 -157 -29.333 -217 -88s-90 -135 -90 -229v-543h-143v983h143v-133c2.66699 4 6.66699 9.5 12 16.5s18 19.333 38 37s41.5 33.334 64.5 47.001s53.667 26 92 37s78.833 16.5 121.5 16.5h41z" />
    <glyph glyph-name="s" unicode="s" horiz-adv-x="880" 
d="M748 870l-103 -102.003c-5.33301 8 -13.166 17.5 -23.499 28.5s-34.166 26 -71.499 45s-77.333 28.5 -120 28.5c-54.667 0 -99 -14.333 -133 -43s-51 -62 -51 -100c0 -39.333 18.333 -71 55 -95s81 -43.167 133 -57.5s104 -30.666 156 -48.999s96.333 -48.333 133 -90
s55 -94.834 55 -159.501c0 -84.667 -32.333 -155.167 -97 -211.5s-151.667 -84.5 -261 -84.5c-46.667 0 -90.5 6 -131.5 18s-74.833 26.333 -101.5 43s-49.834 33.5 -69.501 50.5s-34.167 31.5 -43.5 43.5l-13 19l103 102c2.66699 -4 6.33398 -9.16699 11.001 -15.5
s15.167 -17.666 31.5 -33.999s33.833 -31 52.5 -44s42.667 -24.5 72 -34.5s59 -15 89 -15c69.333 0 122.5 15.333 159.5 46s55.5 69.667 55.5 117c0 40.667 -18.5 73.834 -55.5 99.501s-81.333 46 -133 61s-103.5 31.667 -155.5 50s-96.5 47.333 -133.5 87
s-55.5 90.834 -55.5 153.501c0 74 31.167 138.667 93.5 194s140.5 83 234.5 83c38 0 75.167 -4.5 111.5 -13.5s66.166 -20 89.499 -33s44.166 -26.333 62.499 -40s31.5 -24.5 39.5 -32.5z" />
    <glyph glyph-name="t" unicode="t" horiz-adv-x="737" 
d="M246 1085l0.000976562 226h133v-328h215v-133h-215v-584c0 -102.667 44.333 -153.667 133 -153c22 0 43.833 2.66699 65.5 8s38.167 10 49.5 14l18 8v-133c-40.667 -20.667 -87 -30.667 -139 -30c-84.667 0 -150.834 24.833 -198.501 74.5s-71.5 120.167 -71.5 211.5v584
h-185v133h113c54.667 0 82 34 82 102z" />
    <glyph glyph-name="u" unicode="u" horiz-adv-x="1198" 
d="M870 0l0.00390625 133.003c-2.66699 -4 -6.66699 -9.5 -12 -16.5s-17.833 -19.333 -37.5 -37s-40.834 -33.334 -63.501 -47.001s-52.5 -25.834 -89.5 -36.501s-75.167 -16 -114.5 -16c-114.667 0 -209.834 39.833 -285.501 119.5s-113.5 183.167 -113.5 310.5v573h143
v-573c0 -86 26.667 -157 80 -213s118.666 -84 195.999 -84c83.333 0 153.666 30.667 210.999 92s86 139.666 86 234.999v543h144v-983h-144z" />
    <glyph glyph-name="v" unicode="v" horiz-adv-x="1003" 
d="M563 0h-143l-400 983h154l318 -788l317 788h154z" />
    <glyph glyph-name="w" unicode="w" horiz-adv-x="1495" 
d="M676 983h123l245 -758l256 758h154l-338 -983h-133l-246 748l-245 -748h-134l-338 983h154l256 -758z" />
    <glyph glyph-name="x" unicode="x" horiz-adv-x="983" 
d="M481 399l-286 -399h-175l369 512l-338 471h174l256 -358l256 358h174l-338 -471l369 -512h-174z" />
    <glyph glyph-name="y" unicode="y" horiz-adv-x="1003" 
d="M369 -143l51.001 143l-400 983h154l318 -799l317 799h154l-451 -1126c-40.667 -104 -84.334 -177.833 -131.001 -221.5s-105.334 -65.5 -176.001 -65.5c-22 0 -43.167 1.66699 -63.5 5s-35.5 7 -45.5 11l-14 4v134c34 -13.333 68 -20.333 102 -21
c86.667 0 148.334 51.333 185.001 154z" />
    <glyph glyph-name="z" unicode="z" horiz-adv-x="952" 
d="M840 983v-133l-594 -717h614v-133h-788v133l594 717h-574v133h748z" />
    <glyph glyph-name="braceleft" unicode="{" horiz-adv-x="727" 
d="M123 451l-0.000976562 122.006c95.333 0 143 48 143 144v461c0 83.333 27.333 150.166 82 200.499s129.667 75.5 225 75.5h82v-123h-82c-56 0 -99 -14 -129 -42s-45 -65 -45 -111v-461c0 -32.667 -4 -62 -12 -88s-18.167 -45.833 -30.5 -59.5
s-24.666 -25.334 -36.999 -35.001s-22.5 -15.834 -30.5 -18.501l-13 -4c2.66699 -1.33301 7.16699 -3 13.5 -5s16.333 -7.83301 30 -17.5s26 -21.334 37 -35.001s20.833 -33.5 29.5 -59.5s13 -55.333 13 -88v-461c0 -46.667 15 -83.834 45 -111.501s73 -41.5 129 -41.5h82
v-123h-82c-95.333 0 -170.333 25.167 -225 75.5s-82 117.166 -82 200.499v461c0 96 -47.667 144 -143 144z" />
    <glyph glyph-name="bar" unicode="|" horiz-adv-x="686" 
d="M410 1454v-1884h-134v1884h134z" />
    <glyph glyph-name="braceright" unicode="}" horiz-adv-x="727" 
d="M604 573l0.000976562 -122.006c-95.333 0 -143 -48 -143 -144v-461c0 -83.333 -27.333 -150.166 -82 -200.499s-129.667 -75.5 -225 -75.5h-82v123h82c56 0 99 14 129 42s45 65 45 111v461c0 32.667 4 62 12 88s18.167 45.833 30.5 59.5s24.666 25.334 36.999 35.001
s22.5 15.834 30.5 18.501l13 4c-2.66699 1.33301 -7.16699 3 -13.5 5s-16.333 7.83301 -30 17.5s-26 21.334 -37 35.001s-20.833 33.5 -29.5 59.5s-13 55.333 -13 88v461c0 46.667 -15 83.834 -45 111.501s-73 41.5 -129 41.5h-82v123h82
c95.333 0 170.333 -25.167 225 -75.5s82 -117.166 82 -200.499v-461c0 -96 47.667 -144 143 -144z" />
    <glyph glyph-name="asciitilde" unicode="~" horiz-adv-x="1085" 
d="M348 614c-39.333 0 -74.334 -10.167 -105.001 -30.5s-51.667 -40.833 -63 -61.5l-16 -30l-92 71c2.66699 4 6.33398 10.167 11.001 18.5s15.5 22.333 32.5 42s35.5 37.334 55.5 53.001s46 29.667 78 42s65 18.5 99 18.5c57.333 0 107.833 -11.833 151.5 -35.5
s83.667 -47.5 120 -71.5s75.5 -36 117.5 -36c39.333 0 74.5 10.167 105.5 30.5s51.833 40.833 62.5 61.5l17 31l92 -72c-2.66699 -4 -6.5 -10.167 -11.5 -18.5s-16 -22.333 -33 -42s-35.333 -37.334 -55 -53.001s-45.667 -29.667 -78 -42s-65.5 -18.5 -99.5 -18.5
c-57.333 0 -107.833 12 -151.5 36s-83.667 47.833 -120 71.5s-75.5 35.5 -117.5 35.5z" />
    <glyph glyph-name="uni00A0" unicode="&#xa0;" horiz-adv-x="389" 
 />
    <glyph glyph-name="exclamdown" unicode="&#xa1;" horiz-adv-x="573" 
d="M225 635h123l31 -1065h-184zM389 901c0 -30 -9.5 -54.5 -28.5 -73.5s-43.5 -28.5 -73.5 -28.5s-54.667 9.5 -74 28.5s-29 43.5 -29 73.5s9.66699 54.667 29 74s44 29 74 29s54.5 -9.66699 73.5 -29s28.5 -44 28.5 -74z" />
    <glyph glyph-name="cent" unicode="&#xa2;" horiz-adv-x="1024" 
d="M82 492c0 130 40.998 242.331 122.998 336.998s181 150.667 297 168v211h133v-213c60 -9.33301 116.667 -28.666 170 -57.999s91 -56.333 113 -81l34 -37l-92 -92c-8 10.667 -19.167 24 -33.5 40s-46.5 37.167 -96.5 63.5s-102.333 39.5 -157 39.5
c-94 0 -175.5 -36.5 -244.5 -109.5s-103.5 -162.667 -103.5 -269s34.5 -196 103.5 -269s150.5 -109.5 244.5 -109.5c54.667 0 106 11.833 154 35.5s82 47.834 102 72.501l31 35l92 -92c-8 -10.667 -20.167 -25 -36.5 -43s-52.166 -43 -107.499 -75s-113 -51.333 -173 -58
v-213h-133v211c-117.333 18 -216.666 73.333 -297.999 166s-122 206 -122 340z" />
    <glyph glyph-name="sterling" unicode="&#xa3;" horiz-adv-x="1146" 
d="M276 1004c0 132.667 41.334 240.832 124.001 324.499s188.334 125.5 317.001 125.5c46.667 0 90.667 -6.16699 132 -18.5s76 -26.666 104 -42.999s52.333 -33 73 -50s35.667 -31.833 45 -44.5l14 -18l-102 -102c-6.66699 9.33301 -16.834 21.5 -30.501 36.5
s-43.334 34.833 -89.001 59.5s-94.5 37 -146.5 37c-82 0 -152 -29.667 -210 -89s-87 -132 -87 -218v-267h420v-143h-420v-318c0 -27.333 -4.5 -51.833 -13.5 -73.5s-17.5 -37.167 -25.5 -46.5l-12 -13h716v-143h-952v143c40.667 0 74.667 13 102 39s41 57.333 41 94v318
h-133v143h133v267z" />
    <glyph glyph-name="currency" unicode="&#xa4;" horiz-adv-x="1372" 
d="M102 573l-0.000976562 143.998h164v717h533c132.667 0 240.834 -40.667 324.501 -122s125.5 -184.166 125.5 -308.499s-42 -227.166 -126 -308.499s-192 -122 -324 -122h-379v-174h502v-143h-502v-256h-154v256h-164v143h164v174h-164zM798.999 1290l-379 -0.00195312
v-573h379c86 0 157 27.333 213 82s84 122.834 84 204.501s-28 149.834 -84 204.501s-127 82 -213 82z" />
    <glyph glyph-name="yen" unicode="&#xa5;" horiz-adv-x="1300" 
d="M1055 522h-318l-10 -20v-133h328v-133h-328v-236h-154v236h-327v133h327v133l-12 20h-315v133h239l-444 779h174l430 -768h10l430 768h175l-447 -779h242v-133z" />
    <glyph glyph-name="brokenbar" unicode="&#xa6;" horiz-adv-x="686" 
d="M276 348h134v-778h-134v778zM410 676h-134v778h134v-778z" />
    <glyph glyph-name="section" unicode="&#xa7;" horiz-adv-x="1105" 
d="M276 655c0 -42 16.832 -79.3291 50.499 -111.996s68.5 -56.5 104.5 -71.5s79 -30.167 129 -45.5s78.333 -24.333 85 -27c5.33301 1.33301 12.166 3.16602 20.499 5.49902s23 8.16602 44 17.499s39.833 20.5 56.5 33.5s31.334 31.833 44.001 56.5s19 52 19 82
c0 34 -9.83301 65.333 -29.5 94s-46.5 52.167 -80.5 70.5s-66 33.666 -96 45.999s-62.5 23.666 -97.5 33.999s-56.5 17.5 -64.5 21.5c-5.33301 -1.33301 -12.166 -3 -20.499 -5s-23 -8.5 -44 -19.5s-39.833 -23.333 -56.5 -37s-31.5 -33.5 -44.5 -59.5s-19.5 -54 -19.5 -84z
M972.999 594.004c0 -57.333 -17.1738 -108.168 -51.5068 -152.501s-68.5 -74.166 -102.5 -89.499l-51 -24c4 -1.33301 9.5 -4.16602 16.5 -8.49902s19.333 -13.333 37 -27s33.334 -28.667 47.001 -45s26 -37.5 37 -63.5s16.5 -53.333 16.5 -82c0 -90 -37 -167 -111 -231
s-170.333 -96 -289 -96c-46.667 0 -90.667 6.5 -132 19.5s-76 28.333 -104 46s-52.333 35.334 -73 53.001s-35.667 32.834 -45 45.501l-14 20l102 102c2.66699 -4 6.33398 -9.33301 11.001 -16s15.667 -18.834 33 -36.501s35.166 -33.334 53.499 -47.001
s42.833 -26 73.5 -37s62.334 -16.5 95.001 -16.5c79.333 0 141.833 19.167 187.5 57.5s68.5 83.833 68.5 136.5c0 44 -22.167 81.333 -66.5 112s-98.166 56.667 -161.499 78s-126.5 44.5 -189.5 69.5s-116.667 62.167 -161 111.5s-66.5 110 -66.5 182
c0 36.667 7.16699 71.167 21.5 103.5s31.5 58.666 51.5 78.999s39.833 38 59.5 53s36.167 25.5 49.5 31.5l23 10c-4 1.33301 -9.16699 3.66602 -15.5 6.99902s-17.666 11.5 -33.999 24.5s-31 27 -44 42s-24.5 35.167 -34.5 60.5s-15 52.333 -15 81c0 84.667 34 157 102 217
s156.667 90 266 90c61.333 0 119.333 -12 174 -36s94.334 -47.333 119.001 -70l35 -37l-103 -94c-6.66699 8 -16.167 17.833 -28.5 29.5s-38.166 27 -77.499 46s-79 28.5 -119 28.5c-69.333 0 -124.166 -17 -164.499 -51s-60.5 -75 -60.5 -123
c0 -45.333 21.833 -83.333 65.5 -114s96.5 -56.167 158.5 -76.5s124.167 -43.166 186.5 -68.499s115.333 -62.5 159 -111.5s65.5 -109.833 65.5 -182.5z" />
    <glyph glyph-name="dieresis" unicode="&#xa8;" horiz-adv-x="696" 
d="M61 1300.5c0 25.667 9 47.5 27 65.5s40 27 66 27s47.833 -9 65.5 -27s26.5 -39.833 26.5 -65.5s-8.83301 -47.5 -26.5 -65.5s-39.5 -27 -65.5 -27s-48 9 -66 27s-27 39.833 -27 65.5zM451 1300.5c0 25.667 8.83301 47.5 26.5 65.5s39.5 27 65.5 27s47.833 -9 65.5 -27
s26.5 -39.833 26.5 -65.5s-8.83301 -47.5 -26.5 -65.5s-39.5 -27 -65.5 -27s-47.833 9 -65.5 27s-26.5 39.833 -26.5 65.5z" />
    <glyph glyph-name="copyright" unicode="&#xa9;" horiz-adv-x="1802" 
d="M287 717c0 -174.667 58.667 -320.834 176 -438.501s263.333 -176.5 438 -176.5s320.834 58.833 438.501 176.5s176.5 263.834 176.5 438.501s-58.833 320.667 -176.5 438s-263.834 176 -438.501 176s-320.667 -58.667 -438 -176s-176 -263.333 -176 -438zM645 716.5
c0 -76.333 25.332 -139.666 75.999 -189.999s114 -75.5 190 -75.5c45.333 0 86.833 9.5 124.5 28.5s63.834 38.167 78.501 57.5l23 26l82 -82c-2.66699 -4 -6.83398 -9.33301 -12.501 -16s-18 -19 -37 -37s-39.5 -33.833 -61.5 -47.5s-50.667 -25.834 -86 -36.501
s-72.333 -16 -111 -16c-113.333 0 -206.5 36.833 -279.5 110.5s-109.5 166.5 -109.5 278.5s36.5 204.833 109.5 278.5s166.167 110.5 279.5 110.5c60 0 115.667 -13 167 -39s88 -51.333 110 -76l31 -39l-82 -82c-1.33301 2.66699 -4.16602 6.83398 -8.49902 12.501
s-13.333 15 -27 28s-28.667 24.167 -45 33.5s-37.5 18.166 -63.5 26.499s-53.333 12.5 -82 12.5c-76.667 0 -140.167 -25.333 -190.5 -76s-75.5 -114.167 -75.5 -190.5zM1649 717c0 -204.667 -72.5 -378.667 -217.5 -522s-321.833 -215 -530.5 -215
s-385.334 71.667 -530.001 215s-217 317.333 -217 522s72.333 378.667 217 522s321.334 215 530.001 215s385.5 -71.667 530.5 -215s217.5 -317.333 217.5 -522z" />
    <glyph glyph-name="ordfeminine" unicode="&#xaa;" horiz-adv-x="675" 
d="M266 829c-54.667 0 -100.669 16.832 -138.002 50.499s-56 71.5 -56 113.5c0 100 61.333 161.667 184 185l215 41c0 40.667 -12 73 -36 97s-56.333 36 -97 36c-30 0 -58 -6.83301 -84 -20.5s-43.667 -27.5 -53 -41.5l-17 -20l-71 61
c5.33301 9.33301 13.5 20.833 24.5 34.5s35.833 31.834 74.5 54.501s80.667 34 126 34c76.667 0 135 -19.5 175 -58.5s60 -94.5 60 -166.5v-379h-102v82c-4 -8 -10.167 -17.5 -18.5 -28.5s-30.166 -26.167 -65.499 -45.5s-75.666 -29 -120.999 -29zM470.998 1126l-195 -41
c-61.333 -12 -92 -39 -92 -81c0 -54.667 34.333 -82 103 -82c52 0 95.667 17.333 131 52s53 78.667 53 132v20z" />
    <glyph glyph-name="guillemotleft" unicode="&#xab;" horiz-adv-x="952" 
d="M328 154l-236 338l236 337h153l-235 -337l235 -338h-153zM707 154l-236 338l236 337h153l-235 -337l235 -338h-153z" />
    <glyph glyph-name="logicalnot" unicode="&#xac;" horiz-adv-x="942" 
d="M860 799v-420h-143v287h-625v133h768z" />
    <glyph glyph-name="uni00AD" unicode="&#xad;" horiz-adv-x="870" 
d="M778 666v-134h-686v134h686z" />
    <glyph glyph-name="registered" unicode="&#xae;" horiz-adv-x="1802" 
d="M1044 655l185 -317h-131l-156 287h-174v-287h-123v758h289c75.333 0 136.5 -22.5 183.5 -67.5s70.5 -101.167 70.5 -168.5c0 -45.333 -12 -85 -36 -119s-47.667 -57 -71 -69zM768 973v-225h174c88.667 0 133 37.5 133 112.5s-44.333 112.5 -133 112.5h-174zM287 717
c0 -174.667 58.667 -320.834 176 -438.501s263.333 -176.5 438 -176.5s320.834 58.833 438.501 176.5s176.5 263.834 176.5 438.501s-58.833 320.667 -176.5 438s-263.834 176 -438.501 176s-320.667 -58.667 -438 -176s-176 -263.333 -176 -438zM1649 717
c0 -204.667 -72.5 -378.667 -217.5 -522s-321.833 -215 -530.5 -215s-385.334 71.667 -530.001 215s-217 317.333 -217 522s72.333 378.667 217 522s321.334 215 530.001 215s385.5 -71.667 530.5 -215s217.5 -317.333 217.5 -522z" />
    <glyph glyph-name="macron" unicode="&#xaf;" horiz-adv-x="716" 
d="M655 1413v-113h-594v113h594z" />
    <glyph glyph-name="degree" unicode="&#xb0;" horiz-adv-x="737" 
d="M205 1177.5c0 -46.333 15.667 -85.166 47 -116.499s70.166 -47 116.499 -47s85.166 15.667 116.499 47s47 70.166 47 116.499s-15.667 85.166 -47 116.499s-70.166 47 -116.499 47s-85.166 -15.667 -116.499 -47s-47 -70.166 -47 -116.499zM655 1177.5
c0 -77.667 -27.167 -143.167 -81.5 -196.5s-122.5 -80 -204.5 -80s-150.333 26.667 -205 80s-82 118.833 -82 196.5s27.333 143.167 82 196.5s123 80 205 80s150.167 -26.667 204.5 -80s81.5 -118.833 81.5 -196.5z" />
    <glyph glyph-name="plusminus" unicode="&#xb1;" horiz-adv-x="1054" 
d="M92 51v133h871v-133h-871zM594 317h-133v390h-379v133h379v389h133v-389h379v-133h-379v-390z" />
    <glyph glyph-name="uni00B2" unicode="&#xb2;" horiz-adv-x="614" 
d="M543 922l-482.003 0.00292969c0 57.333 12.667 108.833 38 154.5s56.166 83.167 92.499 112.5s72.5 56.333 108.5 81s66.667 50.667 92 78s38 56 38 86c0 31.333 -11.667 57.833 -35 79.5s-52.666 32.5 -87.999 32.5c-30 0 -57 -9.16699 -81 -27.5
s-40.667 -37.166 -50 -56.499l-12 -28l-92 30c1.33301 5.33301 3.33301 12.166 6 20.499s9.83398 23.166 21.501 44.499s25.334 40.166 41.001 56.499s38.167 31 67.5 44s62.333 19.5 99 19.5c70.667 0 127.667 -20.167 171 -60.5s65 -91.833 65 -154.5
c0 -42 -9.66699 -79.5 -29 -112.5s-44 -60.833 -74 -83.5s-60.667 -43.834 -92 -63.501s-61.666 -42.5 -90.999 -68.5s-50 -53.333 -62 -82h348v-102z" />
    <glyph glyph-name="uni00B3" unicode="&#xb3;" horiz-adv-x="634" 
d="M451 1300c2.66699 -1.33301 6.66504 -2.66797 11.998 -4.00098s14.5 -6.33301 27.5 -15s24.333 -18.834 34 -30.501s18.5 -28.5 26.5 -50.5s12 -46.667 12 -74c0 -62.667 -22.167 -114.167 -66.5 -154.5s-104.166 -60.5 -179.499 -60.5
c-54.667 0 -104.167 10.333 -148.5 31s-74.5 41.334 -90.5 62.001l-27 30l72 82c5.33301 -8 13.166 -17.5 23.499 -28.5s32.166 -26 65.499 -45s68.333 -28.5 105 -28.5c88.667 0 133.334 37.333 134.001 112c0 36.667 -12.667 66.334 -38 89.001s-60.666 34 -105.999 34
h-82v103h82c35.333 0 63 9.16699 83 27.5s30 43.166 30 74.499c0 27.333 -10.667 49.5 -32 66.5s-51.666 25.5 -90.999 25.5c-28.667 0 -55.667 -7.5 -81 -22.5s-43.333 -29.833 -54 -44.5l-17 -23l-73 76c5.33301 8 13.5 18.5 24.5 31.5s36.167 30.5 75.5 52.5
s81 33 125 33c69.333 0 125.833 -19.167 169.5 -57.5s65.5 -84.166 65.5 -137.499c0 -36.667 -6.66699 -67.667 -20 -93s-27 -42 -41 -50z" />
    <glyph glyph-name="acute" unicode="&#xb4;" horiz-adv-x="430" 
d="M61 1157l154 277h154l-195 -277h-113z" />
    <glyph glyph-name="mu" unicode="&#xb5;" 
d="M860 143c-2.66699 -4 -6.33398 -9.6709 -11.001 -17.0039s-16.334 -20.666 -35.001 -39.999s-38.834 -36.166 -60.501 -50.499s-50.667 -27.166 -87 -38.499s-74.166 -17 -113.499 -17c-52 0 -99.167 6.66699 -141.5 20s-71.5 27 -87.5 41l-27 20v-491h-143v1413h143
v-584c0 -86 24.833 -155.167 74.5 -207.5s113.5 -78.5 191.5 -78.5c83.333 0 152 29 206 87s81 134.667 81 230v553h143v-778c0 -26 9 -47.833 27 -65.5s39.667 -26.5 65 -26.5l52 10v-133c-13.333 -6.66699 -34 -10 -62 -10c-38 0 -71.333 5.33301 -100 16
s-50.167 24.167 -64.5 40.5s-25.666 32.833 -33.999 49.5s-13.166 30.334 -14.499 41.001z" />
    <glyph glyph-name="paragraph" unicode="&#xb6;" horiz-adv-x="1105" 
d="M430 -205v962.999c-92.667 0 -172.167 33.333 -238.5 100s-99.5 145.834 -99.5 237.501s33.167 171 99.5 238s145.833 100.5 238.5 100.5h481v-1639h-133v1505h-215v-1505h-133z" />
    <glyph glyph-name="periodcentered" unicode="&#xb7;" horiz-adv-x="389" 
d="M92 512c0 30 9.16699 54.5 27.5 73.5s43.333 28.5 75 28.5s56.667 -9.5 75 -28.5s27.5 -43.5 27.5 -73.5s-9.16699 -54.5 -27.5 -73.5s-43.333 -28.5 -75 -28.5s-56.667 9.5 -75 28.5s-27.5 43.5 -27.5 73.5z" />
    <glyph glyph-name="cedilla" unicode="&#xb8;" horiz-adv-x="491" 
d="M236 41l91.999 -0.00195312l-72 -154h10c50.667 0 90.667 -13.667 120 -41s44 -62.666 44 -105.999c0 -45.333 -17.333 -83.333 -52 -114s-82 -46 -142 -46c-30 0 -59.833 5.5 -89.5 16.5s-51.167 21.833 -64.5 32.5l-21 17l41 67c34 -34 78.667 -51 134 -51
c30 0 54.5 8.16699 73.5 24.5s28.5 35.5 28.5 57.5c0 20.667 -7.5 37.834 -22.5 51.501s-34.833 20.5 -59.5 20.5c-10.667 0 -21.167 -1.83301 -31.5 -5.5s-18.166 -7.5 -23.499 -11.5l-6 -4l-52 51z" />
    <glyph glyph-name="uni00B9" unicode="&#xb9;" horiz-adv-x="430" 
d="M215 1638h91.999v-716h-112v542h-134v82c36.667 0 67.834 7.83301 93.501 23.5s42.5 31.167 50.5 46.5z" />
    <glyph glyph-name="ordmasculine" unicode="&#xba;" horiz-adv-x="737" 
d="M174 1136.5c0 -65.667 18.167 -117.834 54.5 -156.501s83.166 -58 140.499 -58s104 19.333 140 58s54 90.834 54 156.501s-18 118 -54 157s-82.667 58.5 -140 58.5s-104.166 -19.5 -140.499 -58.5s-54.5 -91.333 -54.5 -157zM676 1136.5
c0 -91.667 -29.333 -167.5 -88 -227.5s-131.667 -90 -219 -90s-160.5 30 -219.5 90s-88.5 135.833 -88.5 227.5s29.5 167.5 88.5 227.5s132.167 90 219.5 90s160.333 -30 219 -90s88 -135.833 88 -227.5z" />
    <glyph glyph-name="guillemotright" unicode="&#xbb;" horiz-adv-x="952" 
d="M860 492l-235 -338h-154l236 338l-236 337h154zM481 492l-235 -338h-154l236 338l-236 337h154z" />
    <glyph glyph-name="onequarter" unicode="&#xbc;" horiz-adv-x="1361" 
d="M133 0l881 1434h133l-881 -1434h-133zM236 1434h92v-717h-113v543h-133v81c36.667 0 67.667 8 93 24s42 31.333 50 46zM1198 266h82v-102h-82v-164h-113v164h-337v102l317 451h133v-451zM1085 266v318l-225 -318h225z" />
    <glyph glyph-name="onehalf" unicode="&#xbd;" horiz-adv-x="1423" 
d="M133 0l881 1434h133l-881 -1434h-133zM236 1434h92v-717h-113v543h-133v81c36.667 0 67.667 8 93 24s42 31.333 50 46zM1331 0l-481.001 0.00195312c0 57.333 12.667 108.833 38 154.5s56 83.167 92 112.5s72.167 56.333 108.5 81s67.166 50.667 92.499 78s38 56 38 86
c0 31.333 -11.667 58 -35 80s-52.666 33 -87.999 33c-30 0 -57 -9.33301 -81 -28s-40 -37.334 -48 -56.001l-15 -29l-92 31c1.33301 5.33301 3.33301 12 6 20s9.83398 22.667 21.501 44s25.334 40.166 41.001 56.499s38.167 31 67.5 44s62.666 19.5 99.999 19.5
c70.667 0 127.5 -20.167 170.5 -60.5s64.5 -91.833 64.5 -154.5c0 -42 -9.5 -79.5 -28.5 -112.5s-43.5 -60.667 -73.5 -83s-60.667 -43.5 -92 -63.5s-61.833 -43 -91.5 -69s-50.5 -53.333 -62.5 -82h348v-102z" />
    <glyph glyph-name="threequarters" unicode="&#xbe;" horiz-adv-x="1495" 
d="M266 0l881 1434h133l-881 -1434h-133zM1331 266h82v-102h-82v-164h-112v164h-338v102l317 451h133v-451zM1219 266v318l-226 -318h226zM461 1096c2.66699 -1.33301 6.66895 -2.66602 12.002 -3.99902s14.5 -6.5 27.5 -15.5s24.333 -19.333 34 -31
s18.5 -28.334 26.5 -50.001s12 -46.167 12 -73.5c0 -62.667 -22.167 -114.167 -66.5 -154.5s-103.833 -60.5 -178.5 -60.5c-54.667 0 -104.167 10.167 -148.5 30.5s-75.5 40.833 -93.5 61.5l-25 30l72 82c5.33301 -8 13.166 -17.5 23.499 -28.5s32.166 -26 65.499 -45
s68.666 -28.5 105.999 -28.5c88.667 0 133 37.667 133 113c0 36.667 -12.667 66.167 -38 88.5s-60.666 33.5 -105.999 33.5h-81v103h81c35.333 0 63 9.16699 83 27.5s30 43.166 30 74.499c0 27.333 -10.5 49.5 -31.5 66.5s-51.5 25.5 -91.5 25.5
c-28.667 0 -55.667 -7.5 -81 -22.5s-43.333 -29.833 -54 -44.5l-16 -23l-74 76c5.33301 8 13.5 18.5 24.5 31.5s36.333 30.5 76 52.5s81.167 33 124.5 33c69.333 0 126 -19.167 170 -57.5s66 -84.166 66 -137.499c0 -36.667 -6.83301 -67.667 -20.5 -93s-27.5 -42 -41.5 -50
z" />
    <glyph glyph-name="questiondown" unicode="&#xbf;" horiz-adv-x="952" 
d="M461 635h143c6.66699 -30 10 -60.667 10 -92c0 -50.667 -9.83301 -97.167 -29.5 -139.5s-44.167 -76.5 -73.5 -102.5s-61.5 -52.667 -96.5 -80s-67.167 -52.5 -96.5 -75.5s-53.833 -52.667 -73.5 -89s-29.5 -75.5 -29.5 -117.5c0 -68 27 -126 81 -174s126 -72 216 -72
c49.333 0 93.833 7.83301 133.5 23.5s69.667 34.334 90 56.001s37.333 43.5 51 65.5s22.5 40.667 26.5 56l6 24l133 -41c-1.33301 -9.33301 -4.33301 -21.166 -9 -35.499s-18 -40.333 -40 -78s-47.667 -70.834 -77 -99.501s-72 -55 -128 -79s-118 -36 -186 -36
c-130 0 -237.667 38.667 -323 116s-128 168.666 -128 273.999c0 60 10 113.167 30 159.5s44.667 82.5 74 108.5s61.333 52.333 96 79s66.667 51.5 96 74.5s54 54.667 74 95s30 86.5 30 138.5v41zM635 901c0 -30 -9.5 -54.5 -28.5 -73.5s-43.667 -28.5 -74 -28.5
s-55 9.5 -74 28.5s-28.5 43.5 -28.5 73.5s9.5 54.667 28.5 74s43.667 29 74 29s55 -9.66699 74 -29s28.5 -44 28.5 -74z" />
    <glyph glyph-name="Agrave" unicode="&#xc0;" horiz-adv-x="1433" 
d="M993 543l-276 676l-277 -676h553zM1055 399h-676l-164 -399h-164l594 1434h143l594 -1434h-163zM614 1905l154 -277h-113l-194 277h153z" />
    <glyph glyph-name="Aacute" unicode="&#xc1;" horiz-adv-x="1433" 
d="M993 543l-276 676l-277 -676h553zM1055 399h-676l-164 -399h-164l594 1434h143l594 -1434h-163zM676 1628l153 277h154l-195 -277h-112z" />
    <glyph glyph-name="Acircumflex" unicode="&#xc2;" horiz-adv-x="1433" 
d="M993 543l-276 676l-277 -676h553zM1055 399h-676l-164 -399h-164l594 1434h143l594 -1434h-163zM788 1905l226 -277h-133l-164 195l-164 -195h-133l225 277h143z" />
    <glyph glyph-name="Atilde" unicode="&#xc3;" horiz-adv-x="1433" 
d="M993 543l-276 676l-277 -676h553zM1055 399h-676l-164 -399h-164l594 1434h143l594 -1434h-163zM584 1761c-22 0 -41.167 -11.167 -57.5 -33.5s-24.5 -55.5 -24.5 -99.5h-103c0 79.333 17.5 140.166 52.5 182.499s79.167 63.5 132.5 63.5
c40.667 0 76.667 -11.333 108 -34s59.333 -44.834 84 -66.501s49.334 -32.5 74.001 -32.5c22 0 41.167 11.167 57.5 33.5s24.5 55.5 24.5 99.5h102c0 -79.333 -17.333 -140.166 -52 -182.499s-78.667 -63.5 -132 -63.5c-40.667 0 -76.834 11.333 -108.501 34
s-59.667 44.834 -84 66.501s-48.833 32.5 -73.5 32.5z" />
    <glyph glyph-name="Adieresis" unicode="&#xc4;" horiz-adv-x="1433" 
d="M993 543l-276 676l-277 -676h553zM1055 399h-676l-164 -399h-164l594 1434h143l594 -1434h-163zM430 1753c0 26 8.83301 47.833 26.5 65.5s39.5 26.5 65.5 26.5s47.833 -8.83301 65.5 -26.5s26.5 -39.5 26.5 -65.5s-8.83301 -47.833 -26.5 -65.5s-39.5 -26.5 -65.5 -26.5
s-47.833 8.83301 -65.5 26.5s-26.5 39.5 -26.5 65.5zM819 1753c0 26 8.83301 47.833 26.5 65.5s39.5 26.5 65.5 26.5s48 -8.83301 66 -26.5s27 -39.5 27 -65.5s-9 -47.833 -27 -65.5s-40 -26.5 -66 -26.5s-47.833 8.83301 -65.5 26.5s-26.5 39.5 -26.5 65.5z" />
    <glyph glyph-name="Aring" unicode="&#xc5;" horiz-adv-x="1433" 
d="M993 543l-276 676l-277 -676h553zM1055 399h-676l-164 -399h-164l594 1434h143l594 -1434h-163zM625 1761c0 -30 8.83301 -54.5 26.5 -73.5s39.5 -28.5 65.5 -28.5s47.833 9.5 65.5 28.5s26.5 43.5 26.5 73.5s-8.83301 54.667 -26.5 74s-39.5 29 -65.5 29
s-47.833 -9.66699 -65.5 -29s-26.5 -44 -26.5 -74zM911 1761c0 -56 -18.333 -102.333 -55 -139s-83 -55 -139 -55s-102.5 18.333 -139.5 55s-55.5 83 -55.5 139s18.5 102.5 55.5 139.5s83.5 55.5 139.5 55.5s102.333 -18.5 139 -55.5s55 -83.5 55 -139.5z" />
    <glyph glyph-name="AE" unicode="&#xc6;" horiz-adv-x="1966" 
d="M1116 143h758v-143h-911v420h-605l-235 -420h-164l799 1434h1095v-144h-737v-471h574v-143h-574v-533zM840 1290l-410 -727h533v727h-123z" />
    <glyph glyph-name="Ccedilla" unicode="&#xc7;" horiz-adv-x="1536" 
d="M123 717c0 204.667 71.6621 378.659 214.995 521.992s317.333 215 522 215c72.667 0 142.334 -10.167 209.001 -30.5s121.834 -44.833 165.501 -73.5s82 -57.667 115 -87s56.833 -54.333 71.5 -75l23 -31l-103 -92c-4 6.66699 -10 15.5 -18 26.5s-26.667 30.5 -56 58.5
s-61.166 52.833 -95.499 74.5s-79.5 41.5 -135.5 59.5s-114.667 27 -176 27c-164 0 -302.333 -57 -415 -171s-169 -255 -169 -423s56.333 -309 169 -423s251 -171 415 -171c61.333 0 120 8.5 176 25.5s102.5 37.5 139.5 61.5s69.5 47.833 97.5 71.5s48 44.5 60 62.5l19 25
l102 -93c-5.33301 -8 -13.166 -18.167 -23.499 -30.5s-33.5 -35.166 -69.5 -68.499s-74.5 -62.666 -115.5 -87.999s-94.333 -49.166 -160 -71.499s-133.167 -34.166 -202.5 -35.499l-43 -95h10c50.667 0 90.667 -13.667 120 -41s44 -62.666 44 -105.999
c0 -45.333 -17.5 -83.333 -52.5 -114s-82.5 -46 -142.5 -46c-30 0 -59.667 5.5 -89 16.5s-50.666 21.833 -63.999 32.5l-21 17l41 67c34 -34 78.333 -51 133 -51c30 0 54.667 8.16699 74 24.5s29 35.5 29 57.5c0 20.667 -7.5 37.834 -22.5 51.501s-34.833 20.5 -59.5 20.5
c-10.667 0 -21.167 -1.83301 -31.5 -5.5s-17.833 -7.5 -22.5 -11.5l-8 -4l-51 51l64 138c-190 16.667 -348.833 94.834 -476.5 234.501s-191.5 305.834 -191.5 498.501z" />
    <glyph glyph-name="Egrave" unicode="&#xc8;" horiz-adv-x="1310" 
d="M369 143h850v-143h-1004v1434h983v-144h-829v-471h665v-143h-665v-533zM645 1905l154 -277h-113l-194 277h153z" />
    <glyph glyph-name="Eacute" unicode="&#xc9;" horiz-adv-x="1310" 
d="M369 143h850v-143h-1004v1434h983v-144h-829v-471h665v-143h-665v-533zM645 1628l154 277h153l-194 -277h-113z" />
    <glyph glyph-name="Ecircumflex" unicode="&#xca;" horiz-adv-x="1310" 
d="M369 143h850v-143h-1004v1434h983v-144h-829v-471h665v-143h-665v-533zM788 1894l226 -276h-133l-164 194l-164 -194h-133l225 276h143z" />
    <glyph glyph-name="Edieresis" unicode="&#xcb;" horiz-adv-x="1310" 
d="M369 143h850v-143h-1004v1434h983v-144h-829v-471h665v-143h-665v-533zM430 1751c0 26 8.83301 47.833 26.5 65.5s39.5 26.5 65.5 26.5s47.833 -8.83301 65.5 -26.5s26.5 -39.5 26.5 -65.5s-8.83301 -47.833 -26.5 -65.5s-39.5 -26.5 -65.5 -26.5
s-47.833 8.83301 -65.5 26.5s-26.5 39.5 -26.5 65.5zM819 1751c0 26 8.83301 47.833 26.5 65.5s39.5 26.5 65.5 26.5s48 -8.83301 66 -26.5s27 -39.5 27 -65.5s-9 -47.833 -27 -65.5s-40 -26.5 -66 -26.5s-47.833 8.83301 -65.5 26.5s-26.5 39.5 -26.5 65.5z" />
    <glyph glyph-name="Igrave" unicode="&#xcc;" horiz-adv-x="583" 
d="M215 0v1434h154v-1434h-154zM195 1905l153 -277h-112l-195 277h154z" />
    <glyph glyph-name="Iacute" unicode="&#xcd;" horiz-adv-x="583" 
d="M215 0v1434h154v-1434h-154zM246 1628l153 277h154l-195 -277h-112z" />
    <glyph glyph-name="Icircumflex" unicode="&#xce;" horiz-adv-x="583" 
d="M215 0v1434h154v-1434h-154zM369 1894l225 -276h-133l-164 194l-164 -194h-133l225 276h144z" />
    <glyph glyph-name="Idieresis" unicode="&#xcf;" horiz-adv-x="583" 
d="M215 0v1434h154v-1434h-154zM10 1751c0 26 8.83301 47.833 26.5 65.5s39.5 26.5 65.5 26.5s48 -8.83301 66 -26.5s27 -39.5 27 -65.5s-9 -47.833 -27 -65.5s-40 -26.5 -66 -26.5s-47.833 8.83301 -65.5 26.5s-26.5 39.5 -26.5 65.5zM399 1751c0 26 9 47.833 27 65.5
s39.833 26.5 65.5 26.5s47.5 -8.83301 65.5 -26.5s27 -39.5 27 -65.5s-9 -47.833 -27 -65.5s-39.833 -26.5 -65.5 -26.5s-47.5 8.83301 -65.5 26.5s-27 39.5 -27 65.5z" />
    <glyph glyph-name="Eth" unicode="&#xd0;" horiz-adv-x="1566" 
d="M246 1434l450 0.00195312c208.667 0 385.5 -70.333 530.5 -211s217.5 -309.334 217.5 -506.001s-72.333 -365.334 -217 -506.001s-321.667 -211 -531 -211h-450v645h-195v143h195v646zM696 1290h-297v-502h349v-143h-349v-502h297c168 0 309 55.667 423 167
s171 246.833 171 406.5s-57 295.167 -171 406.5s-255 167 -423 167z" />
    <glyph glyph-name="Ntilde" unicode="&#xd1;" horiz-adv-x="1597" 
d="M1229 1434h153v-1434h-133l-880 1157v-1157h-154v1434h133l881 -1158v1158zM666 1761c-22 0 -41.167 -11.167 -57.5 -33.5s-24.5 -55.5 -24.5 -99.5h-103c0 79.333 17.5 140.166 52.5 182.499s79.167 63.5 132.5 63.5c40.667 0 76.667 -11.333 108 -34
s59.333 -44.834 84 -66.501s49.334 -32.5 74.001 -32.5c22 0 41.167 11.167 57.5 33.5s24.5 55.5 24.5 99.5h102c0 -79.333 -17.333 -140.166 -52 -182.499s-78.667 -63.5 -132 -63.5c-40.667 0 -76.834 11.333 -108.501 34s-59.667 44.834 -84 66.501
s-48.833 32.5 -73.5 32.5z" />
    <glyph glyph-name="Ograve" unicode="&#xd2;" horiz-adv-x="1720" 
d="M276 717c0 -168 56.333 -309 169 -423s251 -171 415 -171s302.333 57 415 171s169 255 169 423s-56.333 309 -169 423s-251 171 -415 171s-302.333 -57 -415 -171s-169 -255 -169 -423zM1597 717c0 -204.667 -71.667 -378.667 -215 -522s-317.333 -215 -522 -215
s-378.667 71.667 -522 215s-215 317.333 -215 522s71.667 378.667 215 522s317.333 215 522 215s378.667 -71.667 522 -215s215 -317.333 215 -522zM768 1905l154 -277h-113l-195 277h154z" />
    <glyph glyph-name="Oacute" unicode="&#xd3;" horiz-adv-x="1720" 
d="M276 717c0 -168 56.333 -309 169 -423s251 -171 415 -171s302.333 57 415 171s169 255 169 423s-56.333 309 -169 423s-251 171 -415 171s-302.333 -57 -415 -171s-169 -255 -169 -423zM1597 717c0 -204.667 -71.667 -378.667 -215 -522s-317.333 -215 -522 -215
s-378.667 71.667 -522 215s-215 317.333 -215 522s71.667 378.667 215 522s317.333 215 522 215s378.667 -71.667 522 -215s215 -317.333 215 -522zM819 1628l154 277h153l-194 -277h-113z" />
    <glyph glyph-name="Ocircumflex" unicode="&#xd4;" horiz-adv-x="1720" 
d="M276 717c0 -168 56.333 -309 169 -423s251 -171 415 -171s302.333 57 415 171s169 255 169 423s-56.333 309 -169 423s-251 171 -415 171s-302.333 -57 -415 -171s-169 -255 -169 -423zM1597 717c0 -204.667 -71.667 -378.667 -215 -522s-317.333 -215 -522 -215
s-378.667 71.667 -522 215s-215 317.333 -215 522s71.667 378.667 215 522s317.333 215 522 215s378.667 -71.667 522 -215s215 -317.333 215 -522zM932 1894l225 -276h-133l-164 194l-164 -194h-133l225 276h144z" />
    <glyph glyph-name="Otilde" unicode="&#xd5;" horiz-adv-x="1720" 
d="M276 717c0 -168 56.333 -309 169 -423s251 -171 415 -171s302.333 57 415 171s169 255 169 423s-56.333 309 -169 423s-251 171 -415 171s-302.333 -57 -415 -171s-169 -255 -169 -423zM1597 717c0 -204.667 -71.667 -378.667 -215 -522s-317.333 -215 -522 -215
s-378.667 71.667 -522 215s-215 317.333 -215 522s71.667 378.667 215 522s317.333 215 522 215s378.667 -71.667 522 -215s215 -317.333 215 -522zM737 1761c-22 0 -41.167 -11.167 -57.5 -33.5s-24.5 -55.5 -24.5 -99.5h-102c0 79.333 17.333 140.166 52 182.499
s78.667 63.5 132 63.5c40.667 0 76.834 -11.333 108.501 -34s59.834 -44.834 84.501 -66.501s49.334 -32.5 74.001 -32.5c22 0 41 11.167 57 33.5s24 55.5 24 99.5h103c0 -79.333 -17.5 -140.166 -52.5 -182.499s-78.833 -63.5 -131.5 -63.5
c-40.667 0 -76.834 11.333 -108.501 34s-59.834 44.834 -84.501 66.501s-49.334 32.5 -74.001 32.5z" />
    <glyph glyph-name="Odieresis" unicode="&#xd6;" horiz-adv-x="1720" 
d="M276 717c0 -168 56.333 -309 169 -423s251 -171 415 -171s302.333 57 415 171s169 255 169 423s-56.333 309 -169 423s-251 171 -415 171s-302.333 -57 -415 -171s-169 -255 -169 -423zM1597 717c0 -204.667 -71.667 -378.667 -215 -522s-317.333 -215 -522 -215
s-378.667 71.667 -522 215s-215 317.333 -215 522s71.667 378.667 215 522s317.333 215 522 215s378.667 -71.667 522 -215s215 -317.333 215 -522zM573 1751c0 26 9 47.833 27 65.5s40 26.5 66 26.5s47.833 -8.83301 65.5 -26.5s26.5 -39.5 26.5 -65.5
s-8.83301 -47.833 -26.5 -65.5s-39.5 -26.5 -65.5 -26.5s-48 8.83301 -66 26.5s-27 39.5 -27 65.5zM963 1751c0 26 8.83301 47.833 26.5 65.5s39.5 26.5 65.5 26.5s47.833 -8.83301 65.5 -26.5s26.5 -39.5 26.5 -65.5s-8.83301 -47.833 -26.5 -65.5s-39.5 -26.5 -65.5 -26.5
s-47.833 8.83301 -65.5 26.5s-26.5 39.5 -26.5 65.5z" />
    <glyph glyph-name="multiply" unicode="&#xd7;" horiz-adv-x="942" 
d="M184 1014l287 -287l287 287l92 -92l-287 -287l287 -287l-92 -92l-287 287l-287 -287l-92 92l287 287l-287 287z" />
    <glyph glyph-name="Oslash" unicode="&#xd8;" horiz-adv-x="1720" 
d="M389 348l839.999 840.001c-10.667 9.33301 -26 20.833 -46 34.5s-62 31.834 -126 54.501s-129.667 34 -197 34c-164 0 -302.333 -57 -415 -171s-169 -255 -169 -423c0 -66.667 9.33301 -130.834 28 -192.501s37.334 -106.834 56.001 -135.501zM1444 717.001
c0 66.667 -9.16895 130.667 -27.502 192s-37.166 106.333 -56.499 135l-29 41l-839 -839c10.667 -9.33301 25.834 -21 45.501 -35s61.667 -32.167 126 -54.5s129.833 -33.5 196.5 -33.5c164 0 302.333 57 415 171s169 255 169 423zM1597 717.001
c0 -204.667 -71.667 -378.67 -215 -522.003s-317.333 -215 -522 -215c-84.667 0 -166.167 13.5 -244.5 40.5s-136.166 54.167 -173.499 81.5l-53 41l-184 -184l-103 102l185 185c-4 5.33301 -9.83301 12.5 -17.5 21.5s-21 29.5 -40 61.5s-35.667 65 -50 99
s-27.333 77.333 -39 130s-17.5 105.667 -17.5 159c0 204.667 71.667 378.667 215 522s317.333 215 522 215c84.667 0 166.334 -13.667 245.001 -41s136.334 -54.666 173.001 -81.999l53 -41l185 185l102 -103l-184 -184c4 -5.33301 9.66699 -12.5 17 -21.5
s20.666 -29.5 39.999 -61.5s36.166 -65.167 50.499 -99.5s27.166 -77.666 38.499 -129.999s17 -105.166 17 -158.499z" />
    <glyph glyph-name="Ugrave" unicode="&#xd9;" horiz-adv-x="1556" 
d="M778 123c118.667 0 219.998 42.667 303.998 128s126 189.333 126 312v871h154v-871c0 -158.667 -57.667 -295.5 -173 -410.5s-252.166 -172.5 -410.499 -172.5s-295.166 57.667 -410.499 173s-173 252 -173 410v871h153v-871c0 -122.667 42 -226.667 126 -312
s185.333 -128 304 -128zM706.998 1905l153 -277h-112l-195 277h154z" />
    <glyph glyph-name="Uacute" unicode="&#xda;" horiz-adv-x="1556" 
d="M778 123c118.667 0 219.998 42.667 303.998 128s126 189.333 126 312v871h154v-871c0 -158.667 -57.667 -295.5 -173 -410.5s-252.166 -172.5 -410.499 -172.5s-295.166 57.667 -410.499 173s-173 252 -173 410v871h153v-871c0 -122.667 42 -226.667 126 -312
s185.333 -128 304 -128zM706.998 1628l153 277h154l-195 -277h-112z" />
    <glyph glyph-name="Ucircumflex" unicode="&#xdb;" horiz-adv-x="1556" 
d="M778 123c118.667 0 219.998 42.667 303.998 128s126 189.333 126 312v871h154v-871c0 -158.667 -57.667 -295.5 -173 -410.5s-252.166 -172.5 -410.499 -172.5s-295.166 57.667 -410.499 173s-173 252 -173 410v871h153v-871c0 -122.667 42 -226.667 126 -312
s185.333 -128 304 -128zM849.998 1894l225 -276h-133l-164 194l-164 -194h-133l226 276h143z" />
    <glyph glyph-name="Udieresis" unicode="&#xdc;" horiz-adv-x="1556" 
d="M778 123c118.667 0 219.998 42.667 303.998 128s126 189.333 126 312v871h154v-871c0 -158.667 -57.667 -295.5 -173 -410.5s-252.166 -172.5 -410.499 -172.5s-295.166 57.667 -410.499 173s-173 252 -173 410v871h153v-871c0 -122.667 42 -226.667 126 -312
s185.333 -128 304 -128zM480.998 1751c0 26 9 47.833 27 65.5s39.833 26.5 65.5 26.5s47.5 -8.83301 65.5 -26.5s27 -39.5 27 -65.5s-9 -47.833 -27 -65.5s-39.833 -26.5 -65.5 -26.5s-47.5 8.83301 -65.5 26.5s-27 39.5 -27 65.5zM869.998 1751c0 26 9 47.833 27 65.5
s39.833 26.5 65.5 26.5s47.5 -8.83301 65.5 -26.5s27 -39.5 27 -65.5s-9 -47.833 -27 -65.5s-39.833 -26.5 -65.5 -26.5s-47.5 8.83301 -65.5 26.5s-27 39.5 -27 65.5z" />
    <glyph glyph-name="Yacute" unicode="&#xdd;" horiz-adv-x="1300" 
d="M645 666h10l430 768h175l-533 -932v-502h-154v502l-532 932h174zM604 1628l154 277h153l-194 -277h-113z" />
    <glyph glyph-name="Thorn" unicode="&#xde;" horiz-adv-x="1331" 
d="M369 1147v-819h245c131.333 0 237.666 38.5 318.999 115.5s122 174.833 122 293.5s-40.667 216.667 -122 294s-187.666 116 -318.999 116h-245zM369 1290l245 0.000976562c172 0 314 -53.167 426 -159.5s168 -237.333 168 -393s-56 -286.834 -168 -393.501
s-254 -160 -426 -160h-245v-225h-154v1516h154v-185z" />
    <glyph glyph-name="germandbls" unicode="&#xdf;" horiz-adv-x="1198" 
d="M809 788c6.66699 -2.66699 16.498 -6.33008 29.498 -10.9971s35.167 -16.834 66.5 -36.501s59.333 -41.834 84 -66.501s46.834 -59.834 66.501 -105.501s29.5 -95.167 29.5 -148.5c0 -118.667 -41.5 -218.334 -124.5 -299.001s-188.167 -121 -315.5 -121h-92v143h92
c86 0 157 26.667 213 80s84 119 84 197s-28 143.5 -84 196.5s-127 79.5 -213 79.5h-92v144h20c72.667 0 135.334 22.833 188.001 68.5s79 101.167 79 166.5c0 66.667 -25.667 124.334 -77 173.001s-114.666 73 -189.999 73c-76.667 0 -140.167 -24.5 -190.5 -73.5
s-75.5 -109.833 -75.5 -182.5v-1065h-143v1065c0 108 39.167 199.833 117.5 275.5s175.666 113.5 291.999 113.5s213.666 -37.167 291.999 -111.5s117.5 -163.5 117.5 -267.5c0 -36.667 -6.16699 -71.667 -18.5 -105s-26.666 -60.666 -42.999 -81.999s-33 -39.833 -50 -55.5
s-31.833 -26.834 -44.5 -33.501z" />
    <glyph glyph-name="agrave" unicode="&#xe0;" horiz-adv-x="1064" 
d="M369 563l379.004 62.0049c0 72.667 -23 131.667 -69 177s-105 68 -177 68c-52 0 -100.833 -11.833 -146.5 -35.5s-78.834 -47.834 -99.501 -72.501l-31 -35l-92 92c4 5.33301 9.5 12.166 16.5 20.499s22.333 23 46 44s48.5 39.833 74.5 56.5s60.167 31.5 102.5 44.5
s85.5 19.5 129.5 19.5c112 0 204.833 -36.333 278.5 -109s110.5 -162.667 110.5 -270v-625h-143v133c-2.66699 -4 -6.83398 -9.5 -12.501 -16.5s-18.334 -19.333 -38.001 -37s-40.834 -33.334 -63.501 -47.001s-52.5 -25.834 -89.5 -36.501s-75.167 -16 -114.5 -16
c-98 0 -180.5 29 -247.5 87s-100.5 124.333 -100.5 199c0 82 24.667 148.167 74 198.5s120.333 83.166 213 98.499zM430.004 113.005c92.667 0 168.834 30.332 228.501 90.999s89.5 139.334 89.5 236.001v62l-338 -62c-122.667 -23.333 -184.334 -81.333 -185.001 -174
c0 -44 18.167 -80.5 54.5 -109.5s86.5 -43.5 150.5 -43.5zM440.004 1434l154 -277h-113l-194 277h153z" />
    <glyph glyph-name="aacute" unicode="&#xe1;" horiz-adv-x="1064" 
d="M369 563l379.004 62.0049c0 72.667 -23 131.667 -69 177s-105 68 -177 68c-52 0 -100.833 -11.833 -146.5 -35.5s-78.834 -47.834 -99.501 -72.501l-31 -35l-92 92c4 5.33301 9.5 12.166 16.5 20.499s22.333 23 46 44s48.5 39.833 74.5 56.5s60.167 31.5 102.5 44.5
s85.5 19.5 129.5 19.5c112 0 204.833 -36.333 278.5 -109s110.5 -162.667 110.5 -270v-625h-143v133c-2.66699 -4 -6.83398 -9.5 -12.501 -16.5s-18.334 -19.333 -38.001 -37s-40.834 -33.334 -63.501 -47.001s-52.5 -25.834 -89.5 -36.501s-75.167 -16 -114.5 -16
c-98 0 -180.5 29 -247.5 87s-100.5 124.333 -100.5 199c0 82 24.667 148.167 74 198.5s120.333 83.166 213 98.499zM430.004 113.005c92.667 0 168.834 30.332 228.501 90.999s89.5 139.334 89.5 236.001v62l-338 -62c-122.667 -23.333 -184.334 -81.333 -185.001 -174
c0 -44 18.167 -80.5 54.5 -109.5s86.5 -43.5 150.5 -43.5zM471.004 1157l154 277h153l-194 -277h-113z" />
    <glyph glyph-name="acircumflex" unicode="&#xe2;" horiz-adv-x="1064" 
d="M369 563l379.004 62.0049c0 72.667 -23 131.667 -69 177s-105 68 -177 68c-52 0 -100.833 -11.833 -146.5 -35.5s-78.834 -47.834 -99.501 -72.501l-31 -35l-92 92c4 5.33301 9.5 12.166 16.5 20.499s22.333 23 46 44s48.5 39.833 74.5 56.5s60.167 31.5 102.5 44.5
s85.5 19.5 129.5 19.5c112 0 204.833 -36.333 278.5 -109s110.5 -162.667 110.5 -270v-625h-143v133c-2.66699 -4 -6.83398 -9.5 -12.501 -16.5s-18.334 -19.333 -38.001 -37s-40.834 -33.334 -63.501 -47.001s-52.5 -25.834 -89.5 -36.501s-75.167 -16 -114.5 -16
c-98 0 -180.5 29 -247.5 87s-100.5 124.333 -100.5 199c0 82 24.667 148.167 74 198.5s120.333 83.166 213 98.499zM430.004 113.005c92.667 0 168.834 30.332 228.501 90.999s89.5 139.334 89.5 236.001v62l-338 -62c-122.667 -23.333 -184.334 -81.333 -185.001 -174
c0 -44 18.167 -80.5 54.5 -109.5s86.5 -43.5 150.5 -43.5zM614.004 1434l226 -277h-133l-164 195l-164 -195h-133l225 277h143z" />
    <glyph glyph-name="atilde" unicode="&#xe3;" horiz-adv-x="1064" 
d="M369 563l379.004 62.0049c0 72.667 -23 131.667 -69 177s-105 68 -177 68c-52 0 -100.833 -11.833 -146.5 -35.5s-78.834 -47.834 -99.501 -72.501l-31 -35l-92 92c4 5.33301 9.5 12.166 16.5 20.499s22.333 23 46 44s48.5 39.833 74.5 56.5s60.167 31.5 102.5 44.5
s85.5 19.5 129.5 19.5c112 0 204.833 -36.333 278.5 -109s110.5 -162.667 110.5 -270v-625h-143v133c-2.66699 -4 -6.83398 -9.5 -12.501 -16.5s-18.334 -19.333 -38.001 -37s-40.834 -33.334 -63.501 -47.001s-52.5 -25.834 -89.5 -36.501s-75.167 -16 -114.5 -16
c-98 0 -180.5 29 -247.5 87s-100.5 124.333 -100.5 199c0 82 24.667 148.167 74 198.5s120.333 83.166 213 98.499zM430.004 113.005c92.667 0 168.834 30.332 228.501 90.999s89.5 139.334 89.5 236.001v62l-338 -62c-122.667 -23.333 -184.334 -81.333 -185.001 -174
c0 -44 18.167 -80.5 54.5 -109.5s86.5 -43.5 150.5 -43.5zM399.004 1290c-22 0 -41.167 -11.167 -57.5 -33.5s-24.5 -55.5 -24.5 -99.5h-102c0 79.333 17.333 140.166 52 182.499s78.667 63.5 132 63.5c40.667 0 76.834 -11.333 108.501 -34s59.834 -44.834 84.501 -66.501
s49.334 -32.5 74.001 -32.5c22 0 41.167 11.167 57.5 33.5s24.5 55.5 24.5 99.5h102c0 -79.333 -17.5 -140.166 -52.5 -182.499s-78.833 -63.5 -131.5 -63.5c-40.667 0 -76.834 11.333 -108.501 34s-59.834 44.834 -84.501 66.501s-49.334 32.5 -74.001 32.5z" />
    <glyph glyph-name="adieresis" unicode="&#xe4;" horiz-adv-x="1064" 
d="M369 563l379.004 62.0049c0 72.667 -23 131.667 -69 177s-105 68 -177 68c-52 0 -100.833 -11.833 -146.5 -35.5s-78.834 -47.834 -99.501 -72.501l-31 -35l-92 92c4 5.33301 9.5 12.166 16.5 20.499s22.333 23 46 44s48.5 39.833 74.5 56.5s60.167 31.5 102.5 44.5
s85.5 19.5 129.5 19.5c112 0 204.833 -36.333 278.5 -109s110.5 -162.667 110.5 -270v-625h-143v133c-2.66699 -4 -6.83398 -9.5 -12.501 -16.5s-18.334 -19.333 -38.001 -37s-40.834 -33.334 -63.501 -47.001s-52.5 -25.834 -89.5 -36.501s-75.167 -16 -114.5 -16
c-98 0 -180.5 29 -247.5 87s-100.5 124.333 -100.5 199c0 82 24.667 148.167 74 198.5s120.333 83.166 213 98.499zM430.004 113.005c92.667 0 168.834 30.332 228.501 90.999s89.5 139.334 89.5 236.001v62l-338 -62c-122.667 -23.333 -184.334 -81.333 -185.001 -174
c0 -44 18.167 -80.5 54.5 -109.5s86.5 -43.5 150.5 -43.5zM246.004 1290c0 26 8.83301 47.833 26.5 65.5s39.5 26.5 65.5 26.5s47.833 -8.83301 65.5 -26.5s26.5 -39.5 26.5 -65.5s-8.83301 -47.833 -26.5 -65.5s-39.5 -26.5 -65.5 -26.5s-47.833 8.83301 -65.5 26.5
s-26.5 39.5 -26.5 65.5zM635.004 1290c0 26 8.83301 47.833 26.5 65.5s39.5 26.5 65.5 26.5s47.833 -8.83301 65.5 -26.5s26.5 -39.5 26.5 -65.5s-8.83301 -47.833 -26.5 -65.5s-39.5 -26.5 -65.5 -26.5s-47.833 8.83301 -65.5 26.5s-26.5 39.5 -26.5 65.5z" />
    <glyph glyph-name="aring" unicode="&#xe5;" horiz-adv-x="1064" 
d="M369 563l379.004 62.0049c0 72.667 -23 131.667 -69 177s-105 68 -177 68c-52 0 -100.833 -11.833 -146.5 -35.5s-78.834 -47.834 -99.501 -72.501l-31 -35l-92 92c4 5.33301 9.5 12.166 16.5 20.499s22.333 23 46 44s48.5 39.833 74.5 56.5s60.167 31.5 102.5 44.5
s85.5 19.5 129.5 19.5c112 0 204.833 -36.333 278.5 -109s110.5 -162.667 110.5 -270v-625h-143v133c-2.66699 -4 -6.83398 -9.5 -12.501 -16.5s-18.334 -19.333 -38.001 -37s-40.834 -33.334 -63.501 -47.001s-52.5 -25.834 -89.5 -36.501s-75.167 -16 -114.5 -16
c-98 0 -180.5 29 -247.5 87s-100.5 124.333 -100.5 199c0 82 24.667 148.167 74 198.5s120.333 83.166 213 98.499zM430.004 113.005c92.667 0 168.834 30.332 228.501 90.999s89.5 139.334 89.5 236.001v62l-338 -62c-122.667 -23.333 -184.334 -81.333 -185.001 -174
c0 -44 18.167 -80.5 54.5 -109.5s86.5 -43.5 150.5 -43.5zM440.004 1311c0 -30 9 -54.667 27 -74s39.833 -29 65.5 -29s47.5 9.66699 65.5 29s27 44 27 74s-9 54.5 -27 73.5s-39.833 28.5 -65.5 28.5s-47.5 -9.5 -65.5 -28.5s-27 -43.5 -27 -73.5zM727.004 1311
c0 -56 -18.5 -102.5 -55.5 -139.5s-83.333 -55.5 -139 -55.5s-102 18.5 -139 55.5s-55.5 83.5 -55.5 139.5s18.5 102.333 55.5 139s83.333 55 139 55s102 -18.333 139 -55s55.5 -83 55.5 -139z" />
    <glyph glyph-name="ae" unicode="&#xe6;" horiz-adv-x="1781" 
d="M1669 440l-768.002 0.00292969c5.33301 -87.333 41.833 -163.666 109.5 -228.999s145.167 -98 232.5 -98c60 0 115.667 13.667 167 41s88 54.666 110 81.999l30 40l95 -92c-4 -5.33301 -9.5 -12.833 -16.5 -22.5s-23.167 -26 -48.5 -49s-52.333 -43.333 -81 -61
s-66.167 -34 -112.5 -49s-94.166 -22.5 -143.499 -22.5c-52 0 -101.833 8.5 -149.5 25.5s-86.834 37.333 -117.501 61s-57.667 47.5 -81 71.5s-40.333 45 -51 63l-15 24c-2.66699 -6.66699 -7 -15.5 -13 -26.5s-20 -30.5 -42 -58.5s-47 -52.833 -75 -74.5
s-65.833 -41.334 -113.5 -59.001s-99.5 -26.5 -155.5 -26.5c-104 0 -188 27.833 -252 83.5s-96 123.167 -96 202.5c0 83.333 32.333 155.333 97 216s145 91 241 91h338v31c0 79.333 -22.833 143.5 -68.5 192.5s-104.834 73.5 -177.501 73.5
c-52 0 -100.167 -11.833 -144.5 -35.5s-75.5 -47.834 -93.5 -72.501l-28 -35l-92 92c2.66699 5.33301 7.33398 12.166 14.001 20.499s21.334 23 44.001 44s46.667 39.833 72 56.5s58.333 31.5 99 44.5s83 19.5 127 19.5c46.667 0 90 -7.16699 130 -21.5
s72.333 -31.5 97 -51.5s45.834 -39.833 63.501 -59.5s30.834 -37.167 39.501 -52.5l10 -20c4 5.33301 9.5 12.833 16.5 22.5s22.333 26 46 49s49.167 43.333 76.5 61s62.5 34.167 105.5 49.5s87.833 23 134.5 23c125.333 0 231.666 -47.167 318.999 -141.5
s131 -214.5 131 -360.5zM1229 870.003c-80.667 0 -152.667 -29.6689 -216 -89.002s-100.666 -128.666 -111.999 -207.999h645c-15.333 88.667 -51.833 160.334 -109.5 215.001s-126.834 82 -207.501 82zM429.998 113.001c95.333 0 173.833 32 235.5 96s92.5 141 92.5 231
h-338c-60 0 -107.5 -16 -142.5 -48s-52.5 -74 -52.5 -126c0 -44 18.167 -80.5 54.5 -109.5s86.5 -43.5 150.5 -43.5z" />
    <glyph glyph-name="ccedilla" unicode="&#xe7;" horiz-adv-x="1054" 
d="M82 492c0 142 48.4971 262.837 145.497 362.504s212.167 149.5 345.5 149.5c76.667 0 148.167 -16.5 214.5 -49.5s113.833 -65.833 142.5 -98.5l43 -47l-103 -102c-2.66699 4 -6.66699 9.66699 -12 17s-17.166 20.666 -35.499 39.999s-38.166 36.166 -59.499 50.499
s-49 27.166 -83 38.499s-69.667 17 -107 17c-94 0 -175.5 -36.5 -244.5 -109.5s-103.5 -162.667 -103.5 -269s34.5 -196 103.5 -269s150.5 -109.5 244.5 -109.5c57.333 0 111.666 13.667 162.999 41s88.666 54.666 111.999 81.999l33 40l102 -92
c-4 -5.33301 -9.5 -12 -16.5 -20s-23 -23 -48 -45s-51.167 -41.833 -78.5 -59.5s-62.166 -34.334 -104.499 -50.001s-85.5 -24.834 -129.5 -27.501l-43 -95h10c50.667 0 90.667 -13.667 120 -41s44 -62.666 44 -105.999c0 -45.333 -17.333 -83.333 -52 -114
s-82 -46 -142 -46c-30 0 -59.667 5.5 -89 16.5s-51 21.833 -65 32.5l-20 17l41 67c34 -34 78.333 -51 133 -51c30 0 54.5 8.16699 73.5 24.5s28.5 35.5 28.5 57.5c0 20.667 -7.5 37.834 -22.5 51.501s-34.833 20.5 -59.5 20.5c-10.667 0 -21.167 -1.83301 -31.5 -5.5
s-18.166 -7.5 -23.499 -11.5l-6 -4l-51 51l63 138c-121.333 15.333 -223.666 71 -306.999 167s-125 209.667 -125 341z" />
    <glyph glyph-name="egrave" unicode="&#xe8;" horiz-adv-x="1136" 
d="M1024 438l-798.998 2.00195c5.33301 -88.667 41.833 -165.334 109.5 -230.001s147.167 -97 238.5 -97c61.333 0 118.333 13.667 171 41s90 54.666 112 81.999l35 40l92 -92c-4 -5.33301 -9.83301 -12.833 -17.5 -22.5s-24.334 -26 -50.001 -49
s-53.334 -43.333 -83.001 -61s-68 -34 -115 -49s-95.167 -22.5 -144.5 -22.5c-134 0 -249.333 49.833 -346 149.5s-145 220.5 -145 362.5s47.833 262.833 143.5 362.5s208.167 149.5 337.5 149.5c134 0 246 -46.5 336 -139.5s135 -210.5 135 -352.5zM563.002 870.002
c-86 0 -161 -30.333 -225 -91s-101.667 -132.667 -113 -216h666c-10.667 88.667 -46.5 162 -107.5 220s-134.5 87 -220.5 87zM481.002 1434l154 -277h-113l-194 277h153z" />
    <glyph glyph-name="eacute" unicode="&#xe9;" horiz-adv-x="1136" 
d="M1024 438l-798.998 2.00195c5.33301 -88.667 41.833 -165.334 109.5 -230.001s147.167 -97 238.5 -97c61.333 0 118.333 13.667 171 41s90 54.666 112 81.999l35 40l92 -92c-4 -5.33301 -9.83301 -12.833 -17.5 -22.5s-24.334 -26 -50.001 -49
s-53.334 -43.333 -83.001 -61s-68 -34 -115 -49s-95.167 -22.5 -144.5 -22.5c-134 0 -249.333 49.833 -346 149.5s-145 220.5 -145 362.5s47.833 262.833 143.5 362.5s208.167 149.5 337.5 149.5c134 0 246 -46.5 336 -139.5s135 -210.5 135 -352.5zM563.002 870.002
c-86 0 -161 -30.333 -225 -91s-101.667 -132.667 -113 -216h666c-10.667 88.667 -46.5 162 -107.5 220s-134.5 87 -220.5 87zM512.002 1157l154 277h153l-194 -277h-113z" />
    <glyph glyph-name="ecircumflex" unicode="&#xea;" horiz-adv-x="1136" 
d="M1024 438l-798.998 2.00195c5.33301 -88.667 41.833 -165.334 109.5 -230.001s147.167 -97 238.5 -97c61.333 0 118.333 13.667 171 41s90 54.666 112 81.999l35 40l92 -92c-4 -5.33301 -9.83301 -12.833 -17.5 -22.5s-24.334 -26 -50.001 -49
s-53.334 -43.333 -83.001 -61s-68 -34 -115 -49s-95.167 -22.5 -144.5 -22.5c-134 0 -249.333 49.833 -346 149.5s-145 220.5 -145 362.5s47.833 262.833 143.5 362.5s208.167 149.5 337.5 149.5c134 0 246 -46.5 336 -139.5s135 -210.5 135 -352.5zM563.002 870.002
c-86 0 -161 -30.333 -225 -91s-101.667 -132.667 -113 -216h666c-10.667 88.667 -46.5 162 -107.5 220s-134.5 87 -220.5 87zM645.002 1434l225 -277h-133l-164 195l-163 -195h-134l226 277h143z" />
    <glyph glyph-name="edieresis" unicode="&#xeb;" horiz-adv-x="1136" 
d="M1024 438l-798.998 2.00195c5.33301 -88.667 41.833 -165.334 109.5 -230.001s147.167 -97 238.5 -97c61.333 0 118.333 13.667 171 41s90 54.666 112 81.999l35 40l92 -92c-4 -5.33301 -9.83301 -12.833 -17.5 -22.5s-24.334 -26 -50.001 -49
s-53.334 -43.333 -83.001 -61s-68 -34 -115 -49s-95.167 -22.5 -144.5 -22.5c-134 0 -249.333 49.833 -346 149.5s-145 220.5 -145 362.5s47.833 262.833 143.5 362.5s208.167 149.5 337.5 149.5c134 0 246 -46.5 336 -139.5s135 -210.5 135 -352.5zM563.002 870.002
c-86 0 -161 -30.333 -225 -91s-101.667 -132.667 -113 -216h666c-10.667 88.667 -46.5 162 -107.5 220s-134.5 87 -220.5 87zM276.002 1290c0 26 9 47.833 27 65.5s40 26.5 66 26.5s47.833 -8.83301 65.5 -26.5s26.5 -39.5 26.5 -65.5s-8.83301 -47.833 -26.5 -65.5
s-39.5 -26.5 -65.5 -26.5s-48 8.83301 -66 26.5s-27 39.5 -27 65.5zM666.002 1290c0 26 8.83301 47.833 26.5 65.5s39.5 26.5 65.5 26.5s47.833 -8.83301 65.5 -26.5s26.5 -39.5 26.5 -65.5s-8.83301 -47.833 -26.5 -65.5s-39.5 -26.5 -65.5 -26.5
s-47.833 8.83301 -65.5 26.5s-26.5 39.5 -26.5 65.5z" />
    <glyph glyph-name="igrave" unicode="&#xec;" horiz-adv-x="471" 
d="M123 1434l153 -277h-112l-195 277h154zM154 0v983h143v-983h-143z" />
    <glyph glyph-name="iacute" unicode="&#xed;" horiz-adv-x="471" 
d="M164 1157l153 277h154l-195 -277h-112zM154 0v983h143v-983h-143z" />
    <glyph glyph-name="icircumflex" unicode="&#xee;" horiz-adv-x="471" 
d="M154 0v983h143v-983h-143zM297 1434l225 -277h-133l-164 195l-164 -195h-133l226 277h143z" />
    <glyph glyph-name="idieresis" unicode="&#xef;" horiz-adv-x="471" 
d="M-61 1290c0 26 8.83301 47.833 26.5 65.5s39.5 26.5 65.5 26.5s47.833 -8.83301 65.5 -26.5s26.5 -39.5 26.5 -65.5s-8.83301 -47.833 -26.5 -65.5s-39.5 -26.5 -65.5 -26.5s-47.833 8.83301 -65.5 26.5s-26.5 39.5 -26.5 65.5zM328 1290c0 26 8.83301 47.833 26.5 65.5
s39.5 26.5 65.5 26.5s47.833 -8.83301 65.5 -26.5s26.5 -39.5 26.5 -65.5s-8.83301 -47.833 -26.5 -65.5s-39.5 -26.5 -65.5 -26.5s-47.833 8.83301 -65.5 26.5s-26.5 39.5 -26.5 65.5zM154 0v983h143v-983h-143z" />
    <glyph glyph-name="eth" unicode="&#xf0;" horiz-adv-x="1177" 
d="M891 1495l-205.001 -143.002c9.33301 -5.33301 22.333 -14.166 39 -26.499s45.334 -41.166 86.001 -86.499s76.834 -94.5 108.501 -147.5s60.334 -124.333 86.001 -214s38.5 -184.167 38.5 -283.5c0 -194 -46 -344.833 -138 -452.5s-209.667 -161.5 -353 -161.5
c-130 0 -241 47.667 -333 143s-138 211.333 -138 348c0 132.667 47.5 247.834 142.5 345.501s204.5 146.5 328.5 146.5c69.333 0 133 -16.5 191 -49.5s98.667 -65.833 122 -98.5l35 -47c-10.667 62.667 -29.334 123 -56.001 181s-54.334 105.5 -83.001 142.5
s-56.667 69.833 -84 98.5s-50 49 -68 61l-26 19l-236 -174l-72 112l185 133c-68 48 -146.667 82.333 -236 103l41 123c52 -15.333 103.667 -34.833 155 -58.5s90 -43.834 116 -60.501l36 -25l246 174zM880.999 470.998c0 101.333 -32.5 186.333 -97.5 255
s-141.833 103 -230.5 103s-165.5 -34.333 -230.5 -103s-97.5 -153.667 -97.5 -255s32.5 -186.333 97.5 -255s141.833 -103 230.5 -103s165.5 34.333 230.5 103s97.5 153.667 97.5 255z" />
    <glyph glyph-name="ntilde" unicode="&#xf1;" 
d="M297 983v-142.998c2.66699 4 6.66699 9.66699 12 17s18 20.666 38 39.999s41.167 36.166 63.5 50.499s52 27.333 89 39s75.167 17.5 114.5 17.5c118.667 0 215 -38.333 289 -115s111 -178.334 111 -305.001v-584h-144v584c0 86 -24.833 155.167 -74.5 207.5
s-113.5 78.5 -191.5 78.5c-87.333 0 -160.333 -30.667 -219 -92s-88 -139.666 -88 -234.999v-543h-143v983h143zM451 1290c-22 0 -41.167 -11.167 -57.5 -33.5s-24.5 -55.5 -24.5 -99.5h-103c0 79.333 17.5 140.166 52.5 182.499s79.167 63.5 132.5 63.5
c40.667 0 76.667 -11.333 108 -34s59.333 -44.834 84 -66.501s49.334 -32.5 74.001 -32.5c22 0 41.167 11.167 57.5 33.5s24.5 55.5 24.5 99.5h102c0 -79.333 -17.333 -140.166 -52 -182.499s-78.667 -63.5 -132 -63.5c-40.667 0 -76.834 11.333 -108.501 34
s-59.667 44.834 -84 66.501s-48.833 32.5 -73.5 32.5z" />
    <glyph glyph-name="ograve" unicode="&#xf2;" 
d="M942 491.5c0 106.333 -35.167 196 -105.5 269s-154.666 109.5 -252.999 109.5s-182.666 -36.5 -252.999 -109.5s-105.5 -162.5 -105.5 -268.5c0 -105.333 35.167 -194.833 105.5 -268.5s154.666 -110.5 252.999 -110.5s182.666 36.5 252.999 109.5
s105.5 162.667 105.5 269zM82 491.5c0 143.667 48.833 265 146.5 364s216.167 148.5 355.5 148.5s257.666 -49.5 354.999 -148.5s146 -220.333 146 -364s-48.667 -264.834 -146 -363.501s-215.666 -148 -354.999 -148s-257.833 49.333 -355.5 148
s-146.5 219.834 -146.5 363.501zM481 1434l154 -277h-113l-194 277h153z" />
    <glyph glyph-name="oacute" unicode="&#xf3;" 
d="M942 491.5c0 106.333 -35.167 196 -105.5 269s-154.666 109.5 -252.999 109.5s-182.666 -36.5 -252.999 -109.5s-105.5 -162.5 -105.5 -268.5c0 -105.333 35.167 -194.833 105.5 -268.5s154.666 -110.5 252.999 -110.5s182.666 36.5 252.999 109.5
s105.5 162.667 105.5 269zM82 491.5c0 143.667 48.833 265 146.5 364s216.167 148.5 355.5 148.5s257.666 -49.5 354.999 -148.5s146 -220.333 146 -364s-48.667 -264.834 -146 -363.501s-215.666 -148 -354.999 -148s-257.833 49.333 -355.5 148
s-146.5 219.834 -146.5 363.501zM522 1157l154 277h153l-194 -277h-113z" />
    <glyph glyph-name="ocircumflex" unicode="&#xf4;" 
d="M942 491.5c0 106.333 -35.167 196 -105.5 269s-154.666 109.5 -252.999 109.5s-182.666 -36.5 -252.999 -109.5s-105.5 -162.5 -105.5 -268.5c0 -105.333 35.167 -194.833 105.5 -268.5s154.666 -110.5 252.999 -110.5s182.666 36.5 252.999 109.5
s105.5 162.667 105.5 269zM82 491.5c0 143.667 48.833 265 146.5 364s216.167 148.5 355.5 148.5s257.666 -49.5 354.999 -148.5s146 -220.333 146 -364s-48.667 -264.834 -146 -363.501s-215.666 -148 -354.999 -148s-257.833 49.333 -355.5 148
s-146.5 219.834 -146.5 363.501zM655 1434l226 -277h-133l-164 195l-164 -195h-133l225 277h143z" />
    <glyph glyph-name="otilde" unicode="&#xf5;" 
d="M942 491.5c0 106.333 -35.167 196 -105.5 269s-154.666 109.5 -252.999 109.5s-182.666 -36.5 -252.999 -109.5s-105.5 -162.5 -105.5 -268.5c0 -105.333 35.167 -194.833 105.5 -268.5s154.666 -110.5 252.999 -110.5s182.666 36.5 252.999 109.5
s105.5 162.667 105.5 269zM82 491.5c0 143.667 48.833 265 146.5 364s216.167 148.5 355.5 148.5s257.666 -49.5 354.999 -148.5s146 -220.333 146 -364s-48.667 -264.834 -146 -363.501s-215.666 -148 -354.999 -148s-257.833 49.333 -355.5 148
s-146.5 219.834 -146.5 363.501zM451 1290c-22 0 -41.167 -11.167 -57.5 -33.5s-24.5 -55.5 -24.5 -99.5h-103c0 79.333 17.5 140.166 52.5 182.499s79.167 63.5 132.5 63.5c40.667 0 76.667 -11.333 108 -34s59.333 -44.834 84 -66.501s49.334 -32.5 74.001 -32.5
c22 0 41.167 11.167 57.5 33.5s24.5 55.5 24.5 99.5h102c0 -79.333 -17.333 -140.166 -52 -182.499s-78.667 -63.5 -132 -63.5c-40.667 0 -76.834 11.333 -108.501 34s-59.667 44.834 -84 66.501s-48.833 32.5 -73.5 32.5z" />
    <glyph glyph-name="odieresis" unicode="&#xf6;" 
d="M942 491.5c0 106.333 -35.167 196 -105.5 269s-154.666 109.5 -252.999 109.5s-182.666 -36.5 -252.999 -109.5s-105.5 -162.5 -105.5 -268.5c0 -105.333 35.167 -194.833 105.5 -268.5s154.666 -110.5 252.999 -110.5s182.666 36.5 252.999 109.5
s105.5 162.667 105.5 269zM82 491.5c0 143.667 48.833 265 146.5 364s216.167 148.5 355.5 148.5s257.666 -49.5 354.999 -148.5s146 -220.333 146 -364s-48.667 -264.834 -146 -363.501s-215.666 -148 -354.999 -148s-257.833 49.333 -355.5 148
s-146.5 219.834 -146.5 363.501zM287 1290c0 26 8.83301 47.833 26.5 65.5s39.5 26.5 65.5 26.5s47.833 -8.83301 65.5 -26.5s26.5 -39.5 26.5 -65.5s-8.83301 -47.833 -26.5 -65.5s-39.5 -26.5 -65.5 -26.5s-47.833 8.83301 -65.5 26.5s-26.5 39.5 -26.5 65.5zM676 1290
c0 26 8.83301 47.833 26.5 65.5s39.5 26.5 65.5 26.5s47.833 -8.83301 65.5 -26.5s26.5 -39.5 26.5 -65.5s-8.83301 -47.833 -26.5 -65.5s-39.5 -26.5 -65.5 -26.5s-47.833 8.83301 -65.5 26.5s-26.5 39.5 -26.5 65.5z" />
    <glyph glyph-name="divide" unicode="&#xf7;" horiz-adv-x="1044" 
d="M952 666v-134h-860v134h860zM625 235.5c0 -31.667 -9.33301 -56.667 -28 -75s-43.667 -27.5 -75 -27.5s-56.166 9.16699 -74.499 27.5s-27.5 43.333 -27.5 75s9.16699 56.667 27.5 75s43.166 27.5 74.499 27.5s56.333 -9.16699 75 -27.5s28 -43.333 28 -75zM420 963
c0 30 9.16699 54.5 27.5 73.5s43.166 28.5 74.499 28.5s56.333 -9.5 75 -28.5s28 -43.5 28 -73.5s-9.33301 -54.667 -28 -74s-43.667 -29 -75 -29s-56.166 9.66699 -74.499 29s-27.5 44 -27.5 74z" />
    <glyph glyph-name="oslash" unicode="&#xf8;" 
d="M287 276l501.001 523.001c-54.667 48 -122.667 71.667 -204 71c-98 0 -182.333 -36.5 -253 -109.5s-106 -162.5 -106 -268.5c0 -39.333 5.16699 -76.833 15.5 -112.5s20.166 -61.834 29.499 -78.501zM942.001 492.001c0 39.333 -5.16797 76.667 -15.501 112
s-20.166 61.333 -29.499 78l-16 25l-502 -523c54.667 -48 123 -71.667 205 -71c98 0 182.167 36.5 252.5 109.5s105.5 162.833 105.5 269.5zM1085 492.002c0 -143.333 -48.6689 -264.502 -146.002 -363.502s-215.666 -148.5 -354.999 -148.5c-54.667 0 -107 8.5 -157 25.5
s-86 34.167 -108 51.5l-32 25l-133 -133l-93 92l134 133c-8 8 -18.333 20.333 -31 37s-29.5 52.5 -50.5 107.5s-31.5 112.833 -31.5 173.5c0 143.333 48.833 264.5 146.5 363.5s216.167 148.5 355.5 148.5c54.667 0 106.834 -8.66699 156.501 -26
s85.5 -34.666 107.5 -51.999l33 -25l133 133l92 -92l-133 -133c8 -8 18.167 -20.167 30.5 -36.5s29 -52.166 50 -107.499s31.5 -113 31.5 -173z" />
    <glyph glyph-name="ugrave" unicode="&#xf9;" horiz-adv-x="1198" 
d="M870 0l0.00390625 133.003c-2.66699 -4 -6.66699 -9.5 -12 -16.5s-17.833 -19.333 -37.5 -37s-40.834 -33.334 -63.501 -47.001s-52.5 -25.834 -89.5 -36.501s-75.167 -16 -114.5 -16c-114.667 0 -209.834 39.833 -285.501 119.5s-113.5 183.167 -113.5 310.5v573h143
v-573c0 -86 26.667 -157 80 -213s118.666 -84 195.999 -84c83.333 0 153.666 30.667 210.999 92s86 139.666 86 234.999v543h144v-983h-144zM492.004 1434l153 -277h-113l-194 277h154z" />
    <glyph glyph-name="uacute" unicode="&#xfa;" horiz-adv-x="1198" 
d="M870 0l0.00390625 133.003c-2.66699 -4 -6.66699 -9.5 -12 -16.5s-17.833 -19.333 -37.5 -37s-40.834 -33.334 -63.501 -47.001s-52.5 -25.834 -89.5 -36.501s-75.167 -16 -114.5 -16c-114.667 0 -209.834 39.833 -285.501 119.5s-113.5 183.167 -113.5 310.5v573h143
v-573c0 -86 26.667 -157 80 -213s118.666 -84 195.999 -84c83.333 0 153.666 30.667 210.999 92s86 139.666 86 234.999v543h144v-983h-144zM512.004 1157l154 277h153l-194 -277h-113z" />
    <glyph glyph-name="ucircumflex" unicode="&#xfb;" horiz-adv-x="1198" 
d="M870 0l0.00390625 133.003c-2.66699 -4 -6.66699 -9.5 -12 -16.5s-17.833 -19.333 -37.5 -37s-40.834 -33.334 -63.501 -47.001s-52.5 -25.834 -89.5 -36.501s-75.167 -16 -114.5 -16c-114.667 0 -209.834 39.833 -285.501 119.5s-113.5 183.167 -113.5 310.5v573h143
v-573c0 -86 26.667 -157 80 -213s118.666 -84 195.999 -84c83.333 0 153.666 30.667 210.999 92s86 139.666 86 234.999v543h144v-983h-144zM655.004 1434l226 -277h-133l-164 195l-164 -195h-133l225 277h143z" />
    <glyph glyph-name="udieresis" unicode="&#xfc;" horiz-adv-x="1198" 
d="M870 0l0.00390625 133.003c-2.66699 -4 -6.66699 -9.5 -12 -16.5s-17.833 -19.333 -37.5 -37s-40.834 -33.334 -63.501 -47.001s-52.5 -25.834 -89.5 -36.501s-75.167 -16 -114.5 -16c-114.667 0 -209.834 39.833 -285.501 119.5s-113.5 183.167 -113.5 310.5v573h143
v-573c0 -86 26.667 -157 80 -213s118.666 -84 195.999 -84c83.333 0 153.666 30.667 210.999 92s86 139.666 86 234.999v543h144v-983h-144zM287.004 1280c0 26 8.83301 47.833 26.5 65.5s39.5 26.5 65.5 26.5s47.833 -8.83301 65.5 -26.5s26.5 -39.5 26.5 -65.5
s-8.83301 -47.833 -26.5 -65.5s-39.5 -26.5 -65.5 -26.5s-47.833 8.83301 -65.5 26.5s-26.5 39.5 -26.5 65.5zM676.004 1280c0 26 8.83301 47.833 26.5 65.5s39.5 26.5 65.5 26.5s47.833 -8.83301 65.5 -26.5s26.5 -39.5 26.5 -65.5s-8.83301 -47.833 -26.5 -65.5
s-39.5 -26.5 -65.5 -26.5s-47.833 8.83301 -65.5 26.5s-26.5 39.5 -26.5 65.5z" />
    <glyph glyph-name="yacute" unicode="&#xfd;" horiz-adv-x="1003" 
d="M369 -143l51.001 143l-400 983h154l318 -799l317 799h154l-451 -1126c-40.667 -104 -84.334 -177.833 -131.001 -221.5s-105.334 -65.5 -176.001 -65.5c-22 0 -43.167 1.66699 -63.5 5s-35.5 7 -45.5 11l-14 4v134c34 -13.333 68 -20.333 102 -21
c86.667 0 148.334 51.333 185.001 154zM451.001 1157l153 277h154l-195 -277h-112z" />
    <glyph glyph-name="thorn" unicode="&#xfe;" horiz-adv-x="1228" 
d="M307 491.5c0 -101 35.833 -189.333 107.5 -265s151.834 -113.5 240.501 -113.5c84.667 0 160.5 36.833 227.5 110.5s100.5 163 100.5 268s-33.5 194.333 -100.5 268s-142.833 110.5 -227.5 110.5c-88.667 0 -168.834 -37.833 -240.501 -113.5s-107.5 -164 -107.5 -265z
M307 154l0.00195312 -584.001h-143v1864h143v-605c2.66699 4 7.5 10.167 14.5 18.5s21.333 22.5 43 42.5s45.167 37.833 70.5 53.5s57.833 29.667 97.5 42s80.5 18.5 122.5 18.5c125.333 0 235.166 -50.333 329.499 -151s141.5 -221.167 141.5 -361.5
s-47 -260.666 -141 -360.999s-204 -150.5 -330 -150.5c-42 0 -82.5 6 -121.5 18s-71.833 26.333 -98.5 43s-49.834 33.5 -69.501 50.5s-34.167 31.5 -43.5 43.5z" />
    <glyph glyph-name="ydieresis" unicode="&#xff;" horiz-adv-x="1003" 
d="M369 -143l51.001 143l-400 983h154l318 -799l317 799h154l-451 -1126c-40.667 -104 -84.334 -177.833 -131.001 -221.5s-105.334 -65.5 -176.001 -65.5c-22 0 -43.167 1.66699 -63.5 5s-35.5 7 -45.5 11l-14 4v134c34 -13.333 68 -20.333 102 -21
c86.667 0 148.334 51.333 185.001 154zM195.001 1290c0 26 8.83301 47.833 26.5 65.5s39.5 26.5 65.5 26.5s47.833 -8.83301 65.5 -26.5s26.5 -39.5 26.5 -65.5s-8.83301 -47.833 -26.5 -65.5s-39.5 -26.5 -65.5 -26.5s-47.833 8.83301 -65.5 26.5s-26.5 39.5 -26.5 65.5z
M584.001 1290c0 26 8.83301 47.833 26.5 65.5s39.5 26.5 65.5 26.5s47.833 -8.83301 65.5 -26.5s26.5 -39.5 26.5 -65.5s-8.83301 -47.833 -26.5 -65.5s-39.5 -26.5 -65.5 -26.5s-47.833 8.83301 -65.5 26.5s-26.5 39.5 -26.5 65.5z" />
    <glyph glyph-name="Amacron" unicode="&#x100;" horiz-adv-x="1433" 
d="M993 543l-276 676l-277 -676h553zM1055 399h-676l-164 -399h-164l594 1434h143l594 -1434h-163zM1014 1812v-112h-594v112h594z" />
    <glyph glyph-name="amacron" unicode="&#x101;" horiz-adv-x="1064" 
d="M369 563l379.004 62.0049c0 72.667 -23 131.667 -69 177s-105 68 -177 68c-52 0 -100.833 -11.833 -146.5 -35.5s-78.834 -47.834 -99.501 -72.501l-31 -35l-92 92c4 5.33301 9.5 12.166 16.5 20.499s22.333 23 46 44s48.5 39.833 74.5 56.5s60.167 31.5 102.5 44.5
s85.5 19.5 129.5 19.5c112 0 204.833 -36.333 278.5 -109s110.5 -162.667 110.5 -270v-625h-143v133c-2.66699 -4 -6.83398 -9.5 -12.501 -16.5s-18.334 -19.333 -38.001 -37s-40.834 -33.334 -63.501 -47.001s-52.5 -25.834 -89.5 -36.501s-75.167 -16 -114.5 -16
c-98 0 -180.5 29 -247.5 87s-100.5 124.333 -100.5 199c0 82 24.667 148.167 74 198.5s120.333 83.166 213 98.499zM430.004 113.005c92.667 0 168.834 30.332 228.501 90.999s89.5 139.334 89.5 236.001v62l-338 -62c-122.667 -23.333 -184.334 -81.333 -185.001 -174
c0 -44 18.167 -80.5 54.5 -109.5s86.5 -43.5 150.5 -43.5zM829.004 1362v-113h-593v113h593z" />
    <glyph glyph-name="Abreve" unicode="&#x102;" horiz-adv-x="1433" 
d="M993 543l-276 676l-277 -676h553zM1055 399h-676l-164 -399h-164l594 1434h143l594 -1434h-163zM717 1731c52 0 92.333 15 121 45s43 73 43 129h112c0 -82 -25.5 -148.667 -76.5 -200s-117.5 -77 -199.5 -77s-148.667 25.667 -200 77s-77 118 -77 200h113
c0 -56 14.333 -99 43 -129s69 -45 121 -45z" />
    <glyph glyph-name="abreve" unicode="&#x103;" horiz-adv-x="1064" 
d="M369 563l379.004 62.0049c0 72.667 -23 131.667 -69 177s-105 68 -177 68c-52 0 -100.833 -11.833 -146.5 -35.5s-78.834 -47.834 -99.501 -72.501l-31 -35l-92 92c4 5.33301 9.5 12.166 16.5 20.499s22.333 23 46 44s48.5 39.833 74.5 56.5s60.167 31.5 102.5 44.5
s85.5 19.5 129.5 19.5c112 0 204.833 -36.333 278.5 -109s110.5 -162.667 110.5 -270v-625h-143v133c-2.66699 -4 -6.83398 -9.5 -12.501 -16.5s-18.334 -19.333 -38.001 -37s-40.834 -33.334 -63.501 -47.001s-52.5 -25.834 -89.5 -36.501s-75.167 -16 -114.5 -16
c-98 0 -180.5 29 -247.5 87s-100.5 124.333 -100.5 199c0 82 24.667 148.167 74 198.5s120.333 83.166 213 98.499zM430.004 113.005c92.667 0 168.834 30.332 228.501 90.999s89.5 139.334 89.5 236.001v62l-338 -62c-122.667 -23.333 -184.334 -81.333 -185.001 -174
c0 -44 18.167 -80.5 54.5 -109.5s86.5 -43.5 150.5 -43.5zM532.504 1260c51.667 0 91.832 15 120.499 45s43 73 43 129h113c0 -82 -25.667 -148.667 -77 -200s-117.833 -77 -199.5 -77s-148.167 25.667 -199.5 77s-77 118 -77 200h113c0 -56 14.333 -99 43 -129
s68.834 -45 120.501 -45z" />
    <glyph glyph-name="Aogonek" unicode="&#x104;" horiz-adv-x="1433" 
d="M1219 0l-164 399.001h-676l-164 -399h-164l594 1434h143l594 -1434h-61c-75.333 -82 -113 -157 -113 -225c0 -61.333 34.333 -92 103 -92c18 0 37.167 2.33301 57.5 7s36.5 9.66699 48.5 15l17 8v-102c-40.667 -20.667 -86 -31 -136 -31c-60 0 -107 16.333 -141 49
s-51 77.667 -51 135c0 39.333 9.5 78.666 28.5 117.999s38.167 69 57.5 89zM993 543.001l-276 676l-277 -676h553z" />
    <glyph glyph-name="aogonek" unicode="&#x105;" horiz-adv-x="1064" 
d="M891 0l-40.9961 0.00390625c-75.333 -82 -113 -157 -113 -225c0 -61.333 34.333 -92 103 -92c18 0 37.167 2.33301 57.5 7s36.5 9.66699 48.5 15l17 8v-102c-40.667 -20.667 -86 -31 -136 -31c-60 0 -107 16.333 -141 49s-51 77.667 -51 135
c0 39.333 9.5 78.666 28.5 117.999s38.167 69 57.5 89l27 29v133c-2.66699 -4 -6.83398 -9.5 -12.501 -16.5s-18.334 -19.333 -38.001 -37s-40.834 -33.334 -63.501 -47.001s-52.5 -25.834 -89.5 -36.501s-75.167 -16 -114.5 -16c-98 0 -180.5 29 -247.5 87
s-100.5 124.333 -100.5 199c0 82 24.5 148.333 73.5 199s120.167 83.334 213.5 98.001l379 62c0 72.667 -23 131.667 -69 177s-105 68 -177 68c-52 0 -100.833 -11.833 -146.5 -35.5s-78.834 -47.834 -99.501 -72.501l-31 -35l-92 92c4 5.33301 9.5 12.166 16.5 20.499
s22.333 23 46 44s48.5 39.833 74.5 56.5s60.167 31.5 102.5 44.5s85.5 19.5 129.5 19.5c112 0 204.833 -36.333 278.5 -109s110.5 -162.667 110.5 -270v-625zM430.004 113.004c92.667 0 168.834 30.332 228.501 90.999s89.5 139.334 89.5 236.001v62l-338 -62
c-122.667 -23.333 -184.334 -81.333 -185.001 -174c0 -44 18.167 -80.5 54.5 -109.5s86.5 -43.5 150.5 -43.5z" />
    <glyph glyph-name="Cacute" unicode="&#x106;" horiz-adv-x="1536" 
d="M123 717c0 204.667 71.6641 378.667 214.997 522s317.333 215 522 215c72.667 0 142.334 -10.167 209.001 -30.5s121.834 -44.833 165.501 -73.5s82 -57.667 115 -87s56.833 -54.333 71.5 -75l23 -31l-103 -92c-4 6.66699 -10 15.5 -18 26.5s-26.667 30.5 -56 58.5
s-61.166 52.833 -95.499 74.5s-79.5 41.5 -135.5 59.5s-114.667 27 -176 27c-164 0 -302.333 -57 -415 -171s-169 -255 -169 -423s56.333 -309 169 -423s251 -171 415 -171c61.333 0 120 8.5 176 25.5s102.5 37.5 139.5 61.5s69.5 47.833 97.5 71.5s48 44.5 60 62.5l19 25
l102 -93c-5.33301 -8 -13.5 -18.5 -24.5 -31.5s-35.333 -36.5 -73 -70.5s-77.5 -64.333 -119.5 -91s-97.167 -50.5 -165.5 -71.5s-138.833 -31.5 -211.5 -31.5c-204.667 0 -378.667 71.667 -522 215s-215 317.333 -215 522zM777.997 1628l154 277h153l-194 -277h-113z" />
    <glyph glyph-name="cacute" unicode="&#x107;" horiz-adv-x="1054" 
d="M82 492c0 142 48.499 262.837 145.499 362.504s212.167 149.5 345.5 149.5c76.667 0 148.167 -16.5 214.5 -49.5s113.833 -65.833 142.5 -98.5l43 -47l-103 -102c-2.66699 4 -6.66699 9.66699 -12 17s-17.166 20.666 -35.499 39.999s-38.166 36.166 -59.499 50.499
s-49 27.166 -83 38.499s-69.667 17 -107 17c-94 0 -175.5 -36.5 -244.5 -109.5s-103.5 -162.667 -103.5 -269s34.5 -196 103.5 -269s150.5 -109.5 244.5 -109.5c57.333 0 111.666 13.667 162.999 41s88.666 54.666 111.999 81.999l33 40l102 -92
c-4 -5.33301 -10.167 -12.833 -18.5 -22.5s-25.833 -26 -52.5 -49s-54.667 -43.333 -84 -61s-67.166 -34 -113.499 -49s-93.5 -22.5 -141.5 -22.5c-134 0 -249.333 49.833 -346 149.5s-145 220.5 -145 362.5zM511.999 1157l154 277h153l-194 -277h-113z" />
    <glyph glyph-name="Ccircumflex" unicode="&#x108;" horiz-adv-x="1536" 
d="M123 717c0 204.667 71.6641 378.667 214.997 522s317.333 215 522 215c72.667 0 142.334 -10.167 209.001 -30.5s121.834 -44.833 165.501 -73.5s82 -57.667 115 -87s56.833 -54.333 71.5 -75l23 -31l-103 -92c-4 6.66699 -10 15.5 -18 26.5s-26.667 30.5 -56 58.5
s-61.166 52.833 -95.499 74.5s-79.5 41.5 -135.5 59.5s-114.667 27 -176 27c-164 0 -302.333 -57 -415 -171s-169 -255 -169 -423s56.333 -309 169 -423s251 -171 415 -171c61.333 0 120 8.5 176 25.5s102.5 37.5 139.5 61.5s69.5 47.833 97.5 71.5s48 44.5 60 62.5l19 25
l102 -93c-5.33301 -8 -13.5 -18.5 -24.5 -31.5s-35.333 -36.5 -73 -70.5s-77.5 -64.333 -119.5 -91s-97.167 -50.5 -165.5 -71.5s-138.833 -31.5 -211.5 -31.5c-204.667 0 -378.667 71.667 -522 215s-215 317.333 -215 522zM921.997 1905l225 -277h-133l-164 195l-164 -195
h-133l225 277h144z" />
    <glyph glyph-name="ccircumflex" unicode="&#x109;" horiz-adv-x="1054" 
d="M82 492c0 142 48.499 262.837 145.499 362.504s212.167 149.5 345.5 149.5c76.667 0 148.167 -16.5 214.5 -49.5s113.833 -65.833 142.5 -98.5l43 -47l-103 -102c-2.66699 4 -6.66699 9.66699 -12 17s-17.166 20.666 -35.499 39.999s-38.166 36.166 -59.499 50.499
s-49 27.166 -83 38.499s-69.667 17 -107 17c-94 0 -175.5 -36.5 -244.5 -109.5s-103.5 -162.667 -103.5 -269s34.5 -196 103.5 -269s150.5 -109.5 244.5 -109.5c57.333 0 111.666 13.667 162.999 41s88.666 54.666 111.999 81.999l33 40l102 -92
c-4 -5.33301 -10.167 -12.833 -18.5 -22.5s-25.833 -26 -52.5 -49s-54.667 -43.333 -84 -61s-67.166 -34 -113.499 -49s-93.5 -22.5 -141.5 -22.5c-134 0 -249.333 49.833 -346 149.5s-145 220.5 -145 362.5zM634.999 1434l225 -277h-133l-164 195l-164 -195h-133l226 277
h143z" />
    <glyph glyph-name="Ccaron" unicode="&#x10c;" horiz-adv-x="1536" 
d="M123 717c0 204.667 71.6641 378.667 214.997 522s317.333 215 522 215c72.667 0 142.334 -10.167 209.001 -30.5s121.834 -44.833 165.501 -73.5s82 -57.667 115 -87s56.833 -54.333 71.5 -75l23 -31l-103 -92c-4 6.66699 -10 15.5 -18 26.5s-26.667 30.5 -56 58.5
s-61.166 52.833 -95.499 74.5s-79.5 41.5 -135.5 59.5s-114.667 27 -176 27c-164 0 -302.333 -57 -415 -171s-169 -255 -169 -423s56.333 -309 169 -423s251 -171 415 -171c61.333 0 120 8.5 176 25.5s102.5 37.5 139.5 61.5s69.5 47.833 97.5 71.5s48 44.5 60 62.5l19 25
l102 -93c-5.33301 -8 -13.5 -18.5 -24.5 -31.5s-35.333 -36.5 -73 -70.5s-77.5 -64.333 -119.5 -91s-97.167 -50.5 -165.5 -71.5s-138.833 -31.5 -211.5 -31.5c-204.667 0 -378.667 71.667 -522 215s-215 317.333 -215 522zM1147 1905l-225 -277h-144l-225 277h133l164 -195
l164 195h133z" />
    <glyph glyph-name="ccaron" unicode="&#x10d;" horiz-adv-x="1054" 
d="M82 492c0 142 48.499 262.837 145.499 362.504s212.167 149.5 345.5 149.5c76.667 0 148.167 -16.5 214.5 -49.5s113.833 -65.833 142.5 -98.5l43 -47l-103 -102c-2.66699 4 -6.66699 9.66699 -12 17s-17.166 20.666 -35.499 39.999s-38.166 36.166 -59.499 50.499
s-49 27.166 -83 38.499s-69.667 17 -107 17c-94 0 -175.5 -36.5 -244.5 -109.5s-103.5 -162.667 -103.5 -269s34.5 -196 103.5 -269s150.5 -109.5 244.5 -109.5c57.333 0 111.666 13.667 162.999 41s88.666 54.666 111.999 81.999l33 40l102 -92
c-4 -5.33301 -10.167 -12.833 -18.5 -22.5s-25.833 -26 -52.5 -49s-54.667 -43.333 -84 -61s-67.166 -34 -113.499 -49s-93.5 -22.5 -141.5 -22.5c-134 0 -249.333 49.833 -346 149.5s-145 220.5 -145 362.5zM859.999 1434l-225 -277h-143l-226 277h133l164 -195l164 195
h133z" />
    <glyph glyph-name="Dcaron" unicode="&#x10e;" horiz-adv-x="1536" 
d="M215 1434l451 0.00195312c208.667 0 385.334 -70.333 530.001 -211s217 -309.334 217 -506.001s-72.333 -365.334 -217 -506.001s-321.334 -211 -530.001 -211h-451v1434zM666 1290h-297v-1147h297c168 0 309 55.667 423 167s171 246.833 171 406.5
s-57 295.167 -171 406.5s-255 167 -423 167zM1055 1905l-226 -277h-143l-225 277h133l164 -195l164 195h133z" />
    <glyph glyph-name="dcaron" unicode="&#x10f;" horiz-adv-x="1320" 
d="M901 491.5c0 101 -35.833 189.333 -107.5 265s-151.834 113.5 -240.501 113.5c-84.667 0 -160.5 -36.833 -227.5 -110.5s-100.5 -163 -100.5 -268s33.5 -194.333 100.5 -268s142.833 -110.5 227.5 -110.5c88.667 0 168.834 37.833 240.501 113.5s107.5 164 107.5 265z
M901 829v604.999h143v-1434h-143v154c-2.66699 -4 -7.33398 -10.167 -14.001 -18.5s-21 -22.5 -43 -42.5s-45.667 -37.833 -71 -53.5s-57.833 -29.5 -97.5 -41.5s-80.5 -18 -122.5 -18c-125.333 0 -235.166 50.167 -329.499 150.5s-141.5 220.666 -141.5 360.999
s47.167 260.833 141.5 361.5s204.166 151 329.499 151c42 0 82.5 -6.16699 121.5 -18.5s71.833 -26.666 98.5 -42.999s49.834 -33.166 69.501 -50.499s34.5 -32 44.5 -44zM1178 1157l92 277h133l-123 -277h-102z" />
    <glyph glyph-name="Dcroat" unicode="&#x110;" horiz-adv-x="1566" 
d="M246 1434l450 0.00195312c208.667 0 385.5 -70.333 530.5 -211s217.5 -309.334 217.5 -506.001s-72.333 -365.334 -217 -506.001s-321.667 -211 -531 -211h-450v645h-195v143h195v646zM696 1290h-297v-502h349v-143h-349v-502h297c168 0 309 55.667 423 167
s171 246.833 171 406.5s-57 295.167 -171 406.5s-255 167 -423 167z" />
    <glyph glyph-name="dcroat" unicode="&#x111;" horiz-adv-x="1228" 
d="M891 788l0.000976562 327.997h-266v133h266v185h143v-185h164v-133h-164v-1116h-143v154c-2.66699 -4 -7.16699 -10.167 -13.5 -18.5s-20 -22.5 -41 -42.5s-43.5 -37.833 -67.5 -53.5s-55.5 -29.5 -94.5 -41.5s-79.5 -18 -121.5 -18c-124 0 -233.5 48.667 -328.5 146
s-142.5 212.333 -142.5 345s47.5 247.834 142.5 345.501s204.5 146.5 328.5 146.5c42 0 82.167 -6.16699 120.5 -18.5s70.166 -26.666 95.499 -42.999s47.5 -33.166 66.5 -50.499s32.833 -32 41.5 -44zM891.001 470.997c0 95.333 -34.167 178.833 -102.5 250.5
s-146.833 107.5 -235.5 107.5c-83.333 0 -158.833 -35.833 -226.5 -107.5s-101.5 -155.167 -101.5 -250.5s33.833 -178.833 101.5 -250.5s143.167 -107.5 226.5 -107.5c88.667 0 167.167 35.833 235.5 107.5s102.5 155.167 102.5 250.5z" />
    <glyph glyph-name="Emacron" unicode="&#x112;" horiz-adv-x="1310" 
d="M369 143h850v-143h-1004v1434h983v-144h-829v-471h665v-143h-665v-533zM1014 1812v-112h-594v112h594z" />
    <glyph glyph-name="emacron" unicode="&#x113;" horiz-adv-x="1136" 
d="M1024 438l-798.998 2.00195c5.33301 -88.667 41.833 -165.334 109.5 -230.001s147.167 -97 238.5 -97c61.333 0 118.333 13.667 171 41s90 54.666 112 81.999l35 40l92 -92c-4 -5.33301 -9.83301 -12.833 -17.5 -22.5s-24.334 -26 -50.001 -49
s-53.334 -43.333 -83.001 -61s-68 -34 -115 -49s-95.167 -22.5 -144.5 -22.5c-134 0 -249.333 49.833 -346 149.5s-145 220.5 -145 362.5s47.833 262.833 143.5 362.5s208.167 149.5 337.5 149.5c134 0 246 -46.5 336 -139.5s135 -210.5 135 -352.5zM563.002 870.002
c-86 0 -161 -30.333 -225 -91s-101.667 -132.667 -113 -216h666c-10.667 88.667 -46.5 162 -107.5 220s-134.5 87 -220.5 87zM870.002 1341v-112h-594v112h594z" />
    <glyph glyph-name="Edotaccent" unicode="&#x116;" horiz-adv-x="1310" 
d="M369 143h850v-143h-1004v1434h983v-144h-829v-471h665v-143h-665v-533zM625 1761c0 26 8.83301 47.833 26.5 65.5s39.5 26.5 65.5 26.5s47.833 -8.83301 65.5 -26.5s26.5 -39.5 26.5 -65.5s-8.83301 -47.833 -26.5 -65.5s-39.5 -26.5 -65.5 -26.5
s-47.833 8.83301 -65.5 26.5s-26.5 39.5 -26.5 65.5z" />
    <glyph glyph-name="edotaccent" unicode="&#x117;" horiz-adv-x="1136" 
d="M1024 438l-798.998 2.00195c5.33301 -88.667 41.833 -165.334 109.5 -230.001s147.167 -97 238.5 -97c61.333 0 118.333 13.667 171 41s90 54.666 112 81.999l35 40l92 -92c-4 -5.33301 -9.83301 -12.833 -17.5 -22.5s-24.334 -26 -50.001 -49
s-53.334 -43.333 -83.001 -61s-68 -34 -115 -49s-95.167 -22.5 -144.5 -22.5c-134 0 -249.333 49.833 -346 149.5s-145 220.5 -145 362.5s47.833 262.833 143.5 362.5s208.167 149.5 337.5 149.5c134 0 246 -46.5 336 -139.5s135 -210.5 135 -352.5zM563.002 870.002
c-86 0 -161 -30.333 -225 -91s-101.667 -132.667 -113 -216h666c-10.667 88.667 -46.5 162 -107.5 220s-134.5 87 -220.5 87zM471.002 1290c0 26 8.83301 47.833 26.5 65.5s39.5 26.5 65.5 26.5s47.833 -8.83301 65.5 -26.5s26.5 -39.5 26.5 -65.5
s-8.83301 -47.833 -26.5 -65.5s-39.5 -26.5 -65.5 -26.5s-47.833 8.83301 -65.5 26.5s-26.5 39.5 -26.5 65.5z" />
    <glyph glyph-name="Eogonek" unicode="&#x118;" horiz-adv-x="1310" 
d="M1116 0l-901 0.000976562v1434h983v-144h-829v-471h665v-143h-665v-533h850v-143c-75.333 -82 -113 -157 -113 -225c0 -61.333 34 -92 102 -92c18 0 37.167 2.33301 57.5 7s36.833 9.66699 49.5 15l16 8v-102c-40.667 -20.667 -85.667 -31 -135 -31
c-60 0 -107 16.333 -141 49s-51 77.667 -51 135c0 39.333 9.5 78.666 28.5 117.999s38.167 69 57.5 89z" />
    <glyph glyph-name="eogonek" unicode="&#x119;" horiz-adv-x="1136" 
d="M1024 438l-798.999 2c5.33301 -88.667 41.833 -165.334 109.5 -230.001s147.167 -97 238.5 -97c61.333 0 118.333 13.667 171 41s90 54.666 112 81.999l35 40l92 -92c-2.66699 -4 -7.5 -10 -14.5 -18s-21.333 -22 -43 -42s-44.834 -38.5 -69.501 -55.5
s-56.5 -33.667 -95.5 -50s-78.833 -27.166 -119.5 -32.499c-65.333 -79.333 -98 -149.666 -98 -210.999s34 -92 102 -92c18 0 37.167 2.33301 57.5 7s36.166 9.66699 47.499 15l18 8v-102c-40.667 -20.667 -85.667 -31 -135 -31c-60 0 -107.167 16.333 -141.5 49
s-51.5 77.667 -51.5 135c0 78 31.667 150.667 95 218c-125.333 10.667 -232.166 64.5 -320.499 161.5s-132.5 213.167 -132.5 348.5c0 142 47.833 262.833 143.5 362.5s208.167 149.5 337.5 149.5c134 0 246 -46.5 336 -139.5s135 -210.5 135 -352.5zM563.001 870
c-86 0 -161 -30.333 -225 -91s-101.667 -132.667 -113 -216h666c-10.667 88.667 -46.5 162 -107.5 220s-134.5 87 -220.5 87z" />
    <glyph glyph-name="Ecaron" unicode="&#x11a;" horiz-adv-x="1310" 
d="M369 143h850v-143h-1004v1434h983v-144h-829v-471h665v-143h-665v-533zM1024 1894l-225 -276h-144l-225 276h133l164 -194l164 194h133z" />
    <glyph glyph-name="ecaron" unicode="&#x11b;" horiz-adv-x="1136" 
d="M1024 438l-798.998 2.00195c5.33301 -88.667 41.833 -165.334 109.5 -230.001s147.167 -97 238.5 -97c61.333 0 118.333 13.667 171 41s90 54.666 112 81.999l35 40l92 -92c-4 -5.33301 -9.83301 -12.833 -17.5 -22.5s-24.334 -26 -50.001 -49
s-53.334 -43.333 -83.001 -61s-68 -34 -115 -49s-95.167 -22.5 -144.5 -22.5c-134 0 -249.333 49.833 -346 149.5s-145 220.5 -145 362.5s47.833 262.833 143.5 362.5s208.167 149.5 337.5 149.5c134 0 246 -46.5 336 -139.5s135 -210.5 135 -352.5zM563.002 870.002
c-86 0 -161 -30.333 -225 -91s-101.667 -132.667 -113 -216h666c-10.667 88.667 -46.5 162 -107.5 220s-134.5 87 -220.5 87zM870.002 1434l-225 -277h-143l-226 277h134l163 -195l164 195h133z" />
    <glyph glyph-name="Gbreve" unicode="&#x11e;" horiz-adv-x="1628" 
d="M123 717c0 204.667 71.665 378.667 214.998 522s317.333 215 522 215c72.667 0 142.334 -10.167 209.001 -30.5s121.834 -44.833 165.501 -73.5s82 -57.667 115 -87s56.833 -54.333 71.5 -75l23 -31l-103 -92c-4 6.66699 -10 15.5 -18 26.5s-26.667 30.5 -56 58.5
s-61.166 52.833 -95.499 74.5s-79.5 41.5 -135.5 59.5s-114.667 27 -176 27c-164 0 -302.333 -57 -415 -171s-169 -255 -169 -423s56.333 -309 169 -423s251 -171 415 -171c57.333 0 112 6.83301 164 20.5s94.667 30 128 49s62.666 37.667 87.999 56s43.333 34.5 54 48.5
l17 20v277h-328v143h481v-461c-5.33301 -8 -13.833 -18.5 -25.5 -31.5s-36.5 -36.5 -74.5 -70.5s-78.833 -64.333 -122.5 -91s-100 -50.5 -169 -71.5s-139.833 -31.5 -212.5 -31.5c-204.667 0 -378.667 71.667 -522 215s-215 317.333 -215 522zM839.998 1720
c52 0 92.333 15.001 121 45.001s43 73 43 129h112c0 -82 -25.5 -148.5 -76.5 -199.5s-117.5 -76.5 -199.5 -76.5s-148.667 25.667 -200 77s-77 117.666 -77 198.999h113c0 -56 14.333 -99 43 -129s69 -45 121 -45z" />
    <glyph glyph-name="gbreve" unicode="&#x11f;" 
d="M870 61l-0.00195312 122.997c-2.66699 -4 -6.66699 -9.66699 -12 -17s-17.833 -20.666 -37.5 -39.999s-41.167 -36.166 -64.5 -50.499s-54.166 -27.333 -92.499 -39s-78.5 -17.5 -120.5 -17.5c-124 0 -231.833 47.833 -323.5 143.5s-137.5 211.834 -137.5 348.501
s45.667 252.834 137 348.501s199.333 143.5 324 143.5c42 0 81.833 -5.5 119.5 -16.5s68.834 -24.667 93.501 -41s45.834 -32.833 63.501 -49.5s30.5 -30.334 38.5 -41.001l12 -16v143h144v-922c0 -138 -46.833 -254.333 -140.5 -349s-207.5 -142 -341.5 -142
c-52 0 -101.5 7.16699 -148.5 21.5s-85.5 31.333 -115.5 51s-56.5 39.5 -79.5 59.5s-39.5 37.333 -49.5 52l-16 21l92 92c2.66699 -4 7.16699 -9.83301 13.5 -17.5s19.666 -21 39.999 -40s41.833 -35.667 64.5 -50s52 -27.333 88 -39s73 -17.5 111 -17.5
c92.667 0 172.167 34.333 238.5 103s99.5 153.667 99.5 255zM224.998 511.997c0 -100 32.167 -184.667 96.5 -254s138.166 -104 221.499 -104c88.667 0 165.334 34.333 230.001 103s97 153.667 97 255s-32.333 186.333 -97 255s-141.334 103 -230.001 103
c-83.333 0 -157.166 -34.667 -221.499 -104s-96.5 -154 -96.5 -254zM573.498 1260c51.667 0 91.832 15 120.499 45s43 73 43 129h113c0 -82 -25.667 -148.667 -77 -200s-117.833 -77 -199.5 -77s-148.167 25.667 -199.5 77s-77 118 -77 200h113c0 -56 14.333 -99 43 -129
s68.834 -45 120.501 -45z" />
    <glyph glyph-name="uni0122" unicode="&#x122;" horiz-adv-x="1628" 
d="M123 717c0 204.667 71.665 378.667 214.998 522s317.333 215 522 215c72.667 0 142.334 -10.167 209.001 -30.5s121.834 -44.833 165.501 -73.5s82 -57.667 115 -87s56.833 -54.333 71.5 -75l23 -31l-103 -92c-4 6.66699 -10 15.5 -18 26.5s-26.667 30.5 -56 58.5
s-61.166 52.833 -95.499 74.5s-79.5 41.5 -135.5 59.5s-114.667 27 -176 27c-164 0 -302.333 -57 -415 -171s-169 -255 -169 -423s56.333 -309 169 -423s251 -171 415 -171c57.333 0 112 6.83301 164 20.5s94.667 30 128 49s62.666 37.667 87.999 56s43.333 34.5 54 48.5
l17 20v277h-328v143h481v-461c-5.33301 -8 -13.833 -18.5 -25.5 -31.5s-36.5 -36.5 -74.5 -70.5s-78.833 -64.333 -122.5 -91s-100 -50.5 -169 -71.5s-139.833 -31.5 -212.5 -31.5c-204.667 0 -378.667 71.667 -522 215s-215 317.333 -215 522zM695.998 -440l92 276h134
l-123 -276h-103z" />
    <glyph glyph-name="uni0123" unicode="&#x123;" 
d="M870 61l-0.00195312 122.997c-2.66699 -4 -6.66699 -9.66699 -12 -17s-17.833 -20.666 -37.5 -39.999s-41.167 -36.166 -64.5 -50.499s-54.166 -27.333 -92.499 -39s-78.5 -17.5 -120.5 -17.5c-124 0 -231.833 47.833 -323.5 143.5s-137.5 211.834 -137.5 348.501
s45.667 252.834 137 348.501s199.333 143.5 324 143.5c42 0 81.833 -5.5 119.5 -16.5s68.834 -24.667 93.501 -41s45.834 -32.833 63.501 -49.5s30.5 -30.334 38.5 -41.001l12 -16v143h144v-922c0 -138 -46.833 -254.333 -140.5 -349s-207.5 -142 -341.5 -142
c-52 0 -101.5 7.16699 -148.5 21.5s-85.5 31.333 -115.5 51s-56.5 39.5 -79.5 59.5s-39.5 37.333 -49.5 52l-16 21l92 92c2.66699 -4 7.16699 -9.83301 13.5 -17.5s19.666 -21 39.999 -40s41.833 -35.667 64.5 -50s52 -27.333 88 -39s73 -17.5 111 -17.5
c92.667 0 172.167 34.333 238.5 103s99.5 153.667 99.5 255zM224.998 511.997c0 -100 32.167 -184.667 96.5 -254s138.166 -104 221.499 -104c88.667 0 165.334 34.333 230.001 103s97 153.667 97 255s-32.333 186.333 -97 255s-141.334 103 -230.001 103
c-83.333 0 -157.166 -34.667 -221.499 -104s-96.5 -154 -96.5 -254zM716.998 1434l-92 -277h-133l122 277h103z" />
    <glyph glyph-name="Imacron" unicode="&#x12a;" horiz-adv-x="583" 
d="M215 0v1434h154v-1434h-154zM594 1812v-112h-594v112h594z" />
    <glyph glyph-name="imacron" unicode="&#x12b;" horiz-adv-x="471" 
d="M522 1341v-112h-594v112h594zM154 0v983h143v-983h-143z" />
    <glyph glyph-name="Iogonek" unicode="&#x12e;" horiz-adv-x="583" 
d="M215 0l-0.000976562 1434h154v-1434h-52c-75.333 -82 -112.666 -157 -111.999 -225c0 -61.333 34 -92 102 -92c18 0 37.167 2.33301 57.5 7s36.833 9.66699 49.5 15l16 8v-102c-40.667 -20.667 -85.667 -31 -135 -31c-60 0 -107.167 16.333 -141.5 49
s-51.5 77.667 -51.5 135c0 39.333 9.66699 78.666 29 117.999s38.333 69 57 89z" />
    <glyph glyph-name="iogonek" unicode="&#x12f;" horiz-adv-x="471" 
d="M154 0v983.001h143v-983h-41c-75.333 -82 -113 -157 -113 -225c0 -61.333 34.333 -92 103 -92c18 0 37.167 2.33301 57.5 7s36.5 9.66699 48.5 15l17 8v-102c-40.667 -20.667 -86 -31 -136 -31c-60 0 -107 16.333 -141 49s-51 77.667 -51 135
c0 39.333 9.5 78.666 28.5 117.999s38.167 69 57.5 89zM133 1311c0 26 8.83301 47.833 26.5 65.5s39.5 26.5 65.5 26.5s47.833 -8.83301 65.5 -26.5s26.5 -39.5 26.5 -65.5s-8.83301 -47.833 -26.5 -65.5s-39.5 -26.5 -65.5 -26.5s-47.833 8.83301 -65.5 26.5
s-26.5 39.5 -26.5 65.5z" />
    <glyph glyph-name="Idotaccent" unicode="&#x130;" horiz-adv-x="583" 
d="M215 0v1434h154v-1434h-154zM205 1761c0 26 8.83301 47.833 26.5 65.5s39.5 26.5 65.5 26.5s47.833 -8.83301 65.5 -26.5s26.5 -39.5 26.5 -65.5s-8.83301 -47.833 -26.5 -65.5s-39.5 -26.5 -65.5 -26.5s-47.833 8.83301 -65.5 26.5s-26.5 39.5 -26.5 65.5z" />
    <glyph glyph-name="dotlessi" unicode="&#x131;" horiz-adv-x="471" 
d="M154 0v983h143v-983h-143z" />
    <glyph glyph-name="uni0136" unicode="&#x136;" horiz-adv-x="1372" 
d="M369 625l737 809h194l-542 -594l594 -840h-185l-512 727l-286 -307v-420h-154v1434h154v-809zM575 -440l93 276h133l-123 -276h-103z" />
    <glyph glyph-name="uni0137" unicode="&#x137;" horiz-adv-x="1044" 
d="M307 276v-276h-143v1434h143v-973l492 522h174l-379 -399l420 -584h-164l-348 481zM410 -440l92 276h133l-123 -276h-102z" />
    <glyph glyph-name="Lacute" unicode="&#x139;" horiz-adv-x="1146" 
d="M1106 0h-891v1434h154v-1291h737v-143zM246 1628l153 277h154l-195 -277h-112z" />
    <glyph glyph-name="lacute" unicode="&#x13a;" horiz-adv-x="491" 
d="M307 1434v-1434h-143v1434h143zM184 1628l154 277h154l-195 -277h-113z" />
    <glyph glyph-name="uni013B" unicode="&#x13b;" horiz-adv-x="1146" 
d="M1106 0h-891v1434h154v-1291h737v-143zM522 -440l92 276h134l-123 -276h-103z" />
    <glyph glyph-name="uni013C" unicode="&#x13c;" horiz-adv-x="491" 
d="M307 1434v-1434h-143v1434h143zM72 -440l92 276h133l-123 -276h-102z" />
    <glyph glyph-name="Lcaron" unicode="&#x13d;" horiz-adv-x="1146" 
d="M1106 0h-891v1434h154v-1291h737v-143zM543 1157l92 277h133l-123 -277h-102z" />
    <glyph glyph-name="lcaron" unicode="&#x13e;" horiz-adv-x="583" 
d="M307 1434v-1434h-143v1434h143zM430 1157l92 277h133l-123 -277h-102z" />
    <glyph glyph-name="Lslash" unicode="&#x141;" horiz-adv-x="1259" 
d="M1219 0h-891v584l-246 -144l-72 123l318 174v697h153v-605l287 175l72 -123l-359 -205v-533h738v-143z" />
    <glyph glyph-name="lslash" unicode="&#x142;" horiz-adv-x="716" 
d="M420 1434v-584l256 164l61 -103l-317 -204v-707h-144v635l-256 -154l-61 103l317 194v656h144z" />
    <glyph glyph-name="Nacute" unicode="&#x143;" horiz-adv-x="1597" 
d="M1229 1434h153v-1434h-133l-880 1157v-1157h-154v1434h133l881 -1158v1158zM748 1628l153 277h154l-195 -277h-112z" />
    <glyph glyph-name="nacute" unicode="&#x144;" 
d="M297 983v-142.998c2.66699 4 6.66699 9.66699 12 17s18 20.666 38 39.999s41.167 36.166 63.5 50.499s52 27.333 89 39s75.167 17.5 114.5 17.5c118.667 0 215 -38.333 289 -115s111 -178.334 111 -305.001v-584h-144v584c0 86 -24.833 155.167 -74.5 207.5
s-113.5 78.5 -191.5 78.5c-87.333 0 -160.333 -30.667 -219 -92s-88 -139.666 -88 -234.999v-543h-143v983h143zM543 1157l153 277h154l-195 -277h-112z" />
    <glyph glyph-name="uni0145" unicode="&#x145;" horiz-adv-x="1597" 
d="M1229 1434h153v-1434h-133l-880 1157v-1157h-154v1434h133l881 -1158v1158zM676 -440l92 276h133l-123 -276h-102z" />
    <glyph glyph-name="uni0146" unicode="&#x146;" 
d="M297 983v-142.998c2.66699 4 6.66699 9.66699 12 17s18 20.666 38 39.999s41.167 36.166 63.5 50.499s52 27.333 89 39s75.167 17.5 114.5 17.5c118.667 0 215 -38.333 289 -115s111 -178.334 111 -305.001v-584h-144v584c0 86 -24.833 155.167 -74.5 207.5
s-113.5 78.5 -191.5 78.5c-87.333 0 -160.333 -30.667 -219 -92s-88 -139.666 -88 -234.999v-543h-143v983h143zM430 -439.998l92 276h133l-123 -276h-102z" />
    <glyph glyph-name="Ncaron" unicode="&#x147;" horiz-adv-x="1597" 
d="M1229 1434h153v-1434h-133l-880 1157v-1157h-154v1434h133l881 -1158v1158zM1106 1894l-225 -276h-144l-225 276h133l164 -194l164 194h133z" />
    <glyph glyph-name="ncaron" unicode="&#x148;" 
d="M297 983v-142.998c2.66699 4 6.66699 9.66699 12 17s18 20.666 38 39.999s41.167 36.166 63.5 50.499s52 27.333 89 39s75.167 17.5 114.5 17.5c118.667 0 215 -38.333 289 -115s111 -178.334 111 -305.001v-584h-144v584c0 86 -24.833 155.167 -74.5 207.5
s-113.5 78.5 -191.5 78.5c-87.333 0 -160.333 -30.667 -219 -92s-88 -139.666 -88 -234.999v-543h-143v983h143zM891 1434l-225 -277h-144l-225 277h133l164 -195l164 195h133z" />
    <glyph glyph-name="Omacron" unicode="&#x14c;" horiz-adv-x="1720" 
d="M276 717c0 -168 56.333 -309 169 -423s251 -171 415 -171s302.333 57 415 171s169 255 169 423s-56.333 309 -169 423s-251 171 -415 171s-302.333 -57 -415 -171s-169 -255 -169 -423zM1597 717c0 -204.667 -71.667 -378.667 -215 -522s-317.333 -215 -522 -215
s-378.667 71.667 -522 215s-215 317.333 -215 522s71.667 378.667 215 522s317.333 215 522 215s378.667 -71.667 522 -215s215 -317.333 215 -522zM1157 1812v-112h-594v112h594z" />
    <glyph glyph-name="omacron" unicode="&#x14d;" 
d="M942 491.5c0 106.333 -35.167 196 -105.5 269s-154.666 109.5 -252.999 109.5s-182.666 -36.5 -252.999 -109.5s-105.5 -162.5 -105.5 -268.5c0 -105.333 35.167 -194.833 105.5 -268.5s154.666 -110.5 252.999 -110.5s182.666 36.5 252.999 109.5
s105.5 162.667 105.5 269zM82 491.5c0 143.667 48.833 265 146.5 364s216.167 148.5 355.5 148.5s257.666 -49.5 354.999 -148.5s146 -220.333 146 -364s-48.667 -264.834 -146 -363.501s-215.666 -148 -354.999 -148s-257.833 49.333 -355.5 148
s-146.5 219.834 -146.5 363.501zM881 1341v-112h-594v112h594z" />
    <glyph glyph-name="Ohungarumlaut" unicode="&#x150;" horiz-adv-x="1720" 
d="M276 717c0 -168 56.333 -309 169 -423s251 -171 415 -171s302.333 57 415 171s169 255 169 423s-56.333 309 -169 423s-251 171 -415 171s-302.333 -57 -415 -171s-169 -255 -169 -423zM1597 717c0 -204.667 -71.667 -378.667 -215 -522s-317.333 -215 -522 -215
s-378.667 71.667 -522 215s-215 317.333 -215 522s71.667 378.667 215 522s317.333 215 522 215s378.667 -71.667 522 -215s215 -317.333 215 -522zM645 1618l154 276h153l-196 -276h-111zM963 1618l151 276h156l-195 -276h-112z" />
    <glyph glyph-name="ohungarumlaut" unicode="&#x151;" 
d="M942 491.5c0 106.333 -35.167 196 -105.5 269s-154.666 109.5 -252.999 109.5s-182.666 -36.5 -252.999 -109.5s-105.5 -162.5 -105.5 -268.5c0 -105.333 35.167 -194.833 105.5 -268.5s154.666 -110.5 252.999 -110.5s182.666 36.5 252.999 109.5
s105.5 162.667 105.5 269zM82 491.5c0 143.667 48.833 265 146.5 364s216.167 148.5 355.5 148.5s257.666 -49.5 354.999 -148.5s146 -220.333 146 -364s-48.667 -264.834 -146 -363.501s-215.666 -148 -354.999 -148s-257.833 49.333 -355.5 148
s-146.5 219.834 -146.5 363.501zM358 1157l154 277h154l-197 -277h-111zM676 1157l151 277h156l-195 -277h-112z" />
    <glyph glyph-name="OE" unicode="&#x152;" horiz-adv-x="2058" 
d="M1208 143l758 -0.00195312v-143h-1116c-204.667 0 -377 69.333 -517 208s-210 308.334 -210 509.001s70 370.334 210 509.001s312.333 208 517 208h1096v-144h-738v-471h574v-143h-574v-533zM276 716.998c0 -164 54.667 -300.667 164 -410s246 -164 410 -164h205v1147
h-205c-164 0 -300.667 -54.5 -410 -163.5s-164 -245.5 -164 -409.5z" />
    <glyph glyph-name="oe" unicode="&#x153;" horiz-adv-x="1925" 
d="M1812 430l-768.004 -0.000976562c10.667 -88.667 48.167 -163.667 112.5 -225s139.5 -92 225.5 -92c60 0 115.667 13.667 167 41s88 54.666 110 81.999l31 40l92 -92c-4 -5.33301 -9.5 -12.833 -16.5 -22.5s-22.833 -26 -47.5 -49s-51.334 -43.333 -80.001 -61
s-66.167 -34 -112.5 -49s-94.166 -22.5 -143.499 -22.5c-53.333 0 -103.833 8.83301 -151.5 26.5s-86.5 38.667 -116.5 63s-56.333 49.166 -79 74.499s-38.667 47 -48 65l-14 27c-4 -6.66699 -9.5 -16 -16.5 -28s-23.167 -32.667 -48.5 -62s-52.666 -55.166 -81.999 -77.499
s-67.5 -42.666 -114.5 -60.999s-96.5 -27.5 -148.5 -27.5c-130 0 -242.667 49.833 -338 149.5s-143 220.5 -143 362.5s47.833 262.833 143.5 362.5s208.167 149.5 337.5 149.5c52 0 101.5 -9 148.5 -27s85.833 -39.167 116.5 -63.5s57.334 -49.166 80.001 -74.499
s39.334 -47 50.001 -65l15 -26c2.66699 6.66699 7.33398 15.834 14.001 27.501s22 32.167 46 61.5s50 55.166 78 77.499s65.5 42.833 112.5 61.5s96.5 28 148.5 28c125.333 0 231.833 -47.167 319.5 -141.5s131.5 -214.5 131.5 -360.5zM224.996 491.499
c0 -105 34.167 -194.333 102.5 -268s146.833 -110.5 235.5 -110.5s167.167 36.833 235.5 110.5s102.5 163 102.5 268s-34.167 194.333 -102.5 268s-146.833 110.5 -235.5 110.5s-167.167 -36.833 -235.5 -110.5s-102.5 -163 -102.5 -268zM1372 869.999
c-80.667 0 -152.668 -30.333 -216.001 -91s-100.666 -132.667 -111.999 -216h635c-10.667 91.333 -44 165.333 -100 222s-125 85 -207 85z" />
    <glyph glyph-name="Racute" unicode="&#x154;" horiz-adv-x="1382" 
d="M215 1434l573 0.000976562c126.667 0 231.834 -41 315.501 -123s125.5 -184.333 125.5 -307c0 -61.333 -10.333 -117.333 -31 -168s-45.334 -90.334 -74.001 -119.001s-57.667 -53 -87 -73s-54 -33.333 -74 -40l-31 -10l338 -594h-174l-318 573h-409v-573h-154v1434z
M788 1290l-419 -0.00195312v-573h419c87.333 0 157 25.833 209 77.5s78 121.334 78 209.001s-26 157.334 -78 209.001s-121.667 77.5 -209 77.5zM635 1628l153 277h154l-194 -277h-113z" />
    <glyph glyph-name="racute" unicode="&#x155;" horiz-adv-x="706" 
d="M666 1004v-144.001h-62c-84.667 0 -157 -29.333 -217 -88s-90 -135 -90 -229v-543h-143v983h143v-133c2.66699 4 6.66699 9.5 12 16.5s18 19.333 38 37s41.5 33.334 64.5 47.001s53.667 26 92 37s78.833 16.5 121.5 16.5h41zM348 1157l154 277h153l-194 -277h-113z" />
    <glyph glyph-name="uni0156" unicode="&#x156;" horiz-adv-x="1382" 
d="M215 1434l573 0.000976562c126.667 0 231.834 -41 315.501 -123s125.5 -184.333 125.5 -307c0 -61.333 -10.333 -117.333 -31 -168s-45.334 -90.334 -74.001 -119.001s-57.667 -53 -87 -73s-54 -33.333 -74 -40l-31 -10l338 -594h-174l-318 573h-409v-573h-154v1434z
M788 1290l-419 -0.00195312v-573h419c87.333 0 157 25.833 209 77.5s78 121.334 78 209.001s-26 157.334 -78 209.001s-121.667 77.5 -209 77.5zM563 -440.001l92 276h133l-122 -276h-103z" />
    <glyph glyph-name="uni0157" unicode="&#x157;" horiz-adv-x="706" 
d="M666 1004v-144.001h-62c-84.667 0 -157 -29.333 -217 -88s-90 -135 -90 -229v-543h-143v983h143v-133c2.66699 4 6.66699 9.5 12 16.5s18 19.333 38 37s41.5 33.334 64.5 47.001s53.667 26 92 37s78.833 16.5 121.5 16.5h41zM72 -440.001l92 276h133l-123 -276h-102z" />
    <glyph glyph-name="Rcaron" unicode="&#x158;" horiz-adv-x="1382" 
d="M215 1434l573 0.000976562c126.667 0 231.834 -41 315.501 -123s125.5 -184.333 125.5 -307c0 -61.333 -10.333 -117.333 -31 -168s-45.334 -90.334 -74.001 -119.001s-57.667 -53 -87 -73s-54 -33.333 -74 -40l-31 -10l338 -594h-174l-318 573h-409v-573h-154v1434z
M788 1290l-419 -0.00195312v-573h419c87.333 0 157 25.833 209 77.5s78 121.334 78 209.001s-26 157.334 -78 209.001s-121.667 77.5 -209 77.5zM1004 1894l-226 -276h-143l-225 276h133l164 -194l163 194h134z" />
    <glyph glyph-name="rcaron" unicode="&#x159;" horiz-adv-x="706" 
d="M666 1004v-144.001h-62c-84.667 0 -157 -29.333 -217 -88s-90 -135 -90 -229v-543h-143v983h143v-133c2.66699 4 6.66699 9.5 12 16.5s18 19.333 38 37s41.5 33.334 64.5 47.001s53.667 26 92 37s78.833 16.5 121.5 16.5h41zM707 1434l-226 -277h-143l-225 277h133
l164 -195l163 195h134z" />
    <glyph glyph-name="Sacute" unicode="&#x15a;" horiz-adv-x="1157" 
d="M901 389c0 49.333 -14.3359 91.3359 -43.0029 126.003s-65.834 61.667 -111.501 81s-96.167 36.833 -151.5 52.5s-110.666 33 -165.999 52s-105.833 42.167 -151.5 69.5s-82.834 66 -111.501 116s-43 109.667 -43 179c0 108 42.333 199.833 127 275.5
s196 113.5 334 113.5c52 0 101.5 -6.5 148.5 -19.5s86.167 -28.333 117.5 -46s59.333 -35.334 84 -53.001s42.334 -32.834 53.001 -45.501l17 -20l-103 -103c-2.66699 4 -6.66699 9.16699 -12 15.5s-18 17.666 -38 33.999s-41.167 31 -63.5 44s-52 24.667 -89 35
s-75.167 15.5 -114.5 15.5c-94 0 -168.833 -24 -224.5 -72s-83.5 -106 -83.5 -174c0 -49.333 14.333 -91.333 43 -126s66 -61.667 112 -81s96.667 -36.833 152 -52.5s110.5 -33 165.5 -52s105.5 -42.167 151.5 -69.5s83.333 -65.833 112 -115.5s43 -109.5 43 -179.5
c0 -121.333 -42.667 -219.833 -128 -295.5s-203.333 -113.5 -354 -113.5c-61.333 0 -119.666 7.5 -174.999 22.5s-100.666 32.667 -135.999 53s-66.666 41.166 -93.999 62.499s-46.333 39.333 -57 54l-19 23l94 104c2.66699 -4 7.5 -10.167 14.5 -18.5
s22.167 -22.666 45.5 -42.999s48.5 -38 75.5 -53s63.5 -29 109.5 -42s93.333 -19.5 142 -19.5c105.333 0 186.333 24.5 243 73.5s85 113.167 85 192.5zM521.997 1628l154 277h153l-194 -277h-113z" />
    <glyph glyph-name="sacute" unicode="&#x15b;" horiz-adv-x="880" 
d="M748 870l-103 -102.003c-5.33301 8 -13.166 17.5 -23.499 28.5s-34.166 26 -71.499 45s-77.333 28.5 -120 28.5c-54.667 0 -99 -14.333 -133 -43s-51 -62 -51 -100c0 -39.333 18.333 -71 55 -95s81 -43.167 133 -57.5s104 -30.666 156 -48.999s96.333 -48.333 133 -90
s55 -94.834 55 -159.501c0 -84.667 -32.333 -155.167 -97 -211.5s-151.667 -84.5 -261 -84.5c-46.667 0 -90.5 6 -131.5 18s-74.833 26.333 -101.5 43s-49.834 33.5 -69.501 50.5s-34.167 31.5 -43.5 43.5l-13 19l103 102c2.66699 -4 6.33398 -9.16699 11.001 -15.5
s15.167 -17.666 31.5 -33.999s33.833 -31 52.5 -44s42.667 -24.5 72 -34.5s59 -15 89 -15c69.333 0 122.5 15.333 159.5 46s55.5 69.667 55.5 117c0 40.667 -18.5 73.834 -55.5 99.501s-81.333 46 -133 61s-103.5 31.667 -155.5 50s-96.5 47.333 -133.5 87
s-55.5 90.834 -55.5 153.501c0 74 31.167 138.667 93.5 194s140.5 83 234.5 83c38 0 75.167 -4.5 111.5 -13.5s66.166 -20 89.499 -33s44.166 -26.333 62.499 -40s31.5 -24.5 39.5 -32.5zM358 1157l154 277h154l-195 -277h-113z" />
    <glyph glyph-name="Scedilla" unicode="&#x15e;" horiz-adv-x="1157" 
d="M901 389c0 49.333 -14.332 91.333 -42.999 126s-65.834 61.667 -111.501 81s-96.167 36.833 -151.5 52.5s-110.666 33 -165.999 52s-105.833 42.167 -151.5 69.5s-82.834 66 -111.501 116s-43 109.667 -43 179c0 108 42.333 199.833 127 275.5s196 113.5 334 113.5
c52 0 101.5 -6.5 148.5 -19.5s86.167 -28.333 117.5 -46s59.333 -35.334 84 -53.001s42.334 -32.834 53.001 -45.501l17 -20l-103 -103c-2.66699 4 -6.66699 9.16699 -12 15.5s-18 17.666 -38 33.999s-41.167 31 -63.5 44s-52 24.667 -89 35s-75.167 15.5 -114.5 15.5
c-94 0 -168.833 -24 -224.5 -72s-83.5 -106 -83.5 -174c0 -49.333 14.333 -91.333 43 -126s66 -61.667 112 -81s96.667 -36.833 152 -52.5s110.5 -33 165.5 -52s105.5 -42.167 151.5 -69.5s83.333 -65.833 112 -115.5s43 -109.5 43 -179.5
c0 -114.667 -38.667 -209.5 -116 -284.5s-185 -115.833 -323 -122.5l-43 -95h11c50.667 0 90.667 -13.667 120 -41s44 -62.666 44 -105.999c0 -45.333 -17.5 -83.333 -52.5 -114s-82.5 -46 -142.5 -46c-30 0 -59.667 5.5 -89 16.5s-51 21.833 -65 32.5l-20 17l41 67
c34 -34 78.333 -51 133 -51c30 0 54.5 8.16699 73.5 24.5s28.5 35.5 28.5 57.5c0 20.667 -7.5 37.834 -22.5 51.501s-34.833 20.5 -59.5 20.5c-10.667 0 -21.167 -1.83301 -31.5 -5.5s-17.5 -7.5 -21.5 -11.5l-8 -4l-51 51l63 136c-54.667 4 -106.834 13.833 -156.501 29.5
s-90.5 33.667 -122.5 54s-60 40.5 -84 60.5s-41.333 36.667 -52 50l-17 19l94 104c2.66699 -4 7.5 -10.167 14.5 -18.5s22.167 -22.666 45.5 -42.999s48.5 -38 75.5 -53s63.5 -29 109.5 -42s93.333 -19.5 142 -19.5c105.333 0 186.333 24.5 243 73.5s85 113.167 85 192.5z
" />
    <glyph glyph-name="scedilla" unicode="&#x15f;" horiz-adv-x="880" 
d="M748 870l-103.002 -102.007c-5.33301 8 -13.166 17.5 -23.499 28.5s-34.166 26 -71.499 45s-77.333 28.5 -120 28.5c-54.667 0 -99 -14.333 -133 -43s-51 -62 -51 -100c0 -39.333 18.333 -71 55 -95s81 -43.167 133 -57.5s104 -30.666 156 -48.999
s96.333 -48.333 133 -90s55 -94.834 55 -159.501c0 -79.333 -28.333 -146.166 -85 -200.499s-133.334 -85.5 -230.001 -93.5l-43 -95h10c50.667 0 90.667 -13.667 120 -41s44 -62.666 44 -105.999c0 -45.333 -17.5 -83.333 -52.5 -114s-82.5 -46 -142.5 -46
c-30 0 -59.667 5.5 -89 16.5s-50.666 21.833 -63.999 32.5l-21 17l41 67c34 -34 78.333 -51 133 -51c30 0 54.667 8.16699 74 24.5s29 35.5 29 57.5c0 20.667 -7.5 37.834 -22.5 51.501s-34.833 20.5 -59.5 20.5c-10.667 0 -21.167 -1.83301 -31.5 -5.5
s-18.166 -7.5 -23.499 -11.5l-7 -4l-51 51l64 136c-39.333 4 -76.833 12.5 -112.5 25.5s-65.167 27.667 -88.5 44s-43.5 32.333 -60.5 48s-28.833 28.834 -35.5 39.501l-13 15l103 102c2.66699 -4 6.33398 -9.16699 11.001 -15.5s15.167 -17.666 31.5 -33.999
s33.833 -31 52.5 -44s42.667 -24.5 72 -34.5s59 -15 89 -15c69.333 0 122.5 15.333 159.5 46s55.5 69.667 55.5 117c0 40.667 -18.5 73.834 -55.5 99.501s-81.333 46 -133 61s-103.5 31.667 -155.5 50s-96.5 47.333 -133.5 87s-55.5 90.834 -55.5 153.501
c0 74 31.167 138.667 93.5 194s140.5 83 234.5 83c38 0 75.167 -4.5 111.5 -13.5s66.166 -20 89.499 -33s44.166 -26.333 62.499 -40s31.5 -24.5 39.5 -32.5z" />
    <glyph glyph-name="Scaron" unicode="&#x160;" horiz-adv-x="1157" 
d="M901 389c0 49.333 -14.3359 91.3359 -43.0029 126.003s-65.834 61.667 -111.501 81s-96.167 36.833 -151.5 52.5s-110.666 33 -165.999 52s-105.833 42.167 -151.5 69.5s-82.834 66 -111.501 116s-43 109.667 -43 179c0 108 42.333 199.833 127 275.5
s196 113.5 334 113.5c52 0 101.5 -6.5 148.5 -19.5s86.167 -28.333 117.5 -46s59.333 -35.334 84 -53.001s42.334 -32.834 53.001 -45.501l17 -20l-103 -103c-2.66699 4 -6.66699 9.16699 -12 15.5s-18 17.666 -38 33.999s-41.167 31 -63.5 44s-52 24.667 -89 35
s-75.167 15.5 -114.5 15.5c-94 0 -168.833 -24 -224.5 -72s-83.5 -106 -83.5 -174c0 -49.333 14.333 -91.333 43 -126s66 -61.667 112 -81s96.667 -36.833 152 -52.5s110.5 -33 165.5 -52s105.5 -42.167 151.5 -69.5s83.333 -65.833 112 -115.5s43 -109.5 43 -179.5
c0 -121.333 -42.667 -219.833 -128 -295.5s-203.333 -113.5 -354 -113.5c-61.333 0 -119.666 7.5 -174.999 22.5s-100.666 32.667 -135.999 53s-66.666 41.166 -93.999 62.499s-46.333 39.333 -57 54l-19 23l94 104c2.66699 -4 7.5 -10.167 14.5 -18.5
s22.167 -22.666 45.5 -42.999s48.5 -38 75.5 -53s63.5 -29 109.5 -42s93.333 -19.5 142 -19.5c105.333 0 186.333 24.5 243 73.5s85 113.167 85 192.5zM880.997 1894l-226 -276h-143l-225 276h133l164 -194l164 194h133z" />
    <glyph glyph-name="scaron" unicode="&#x161;" horiz-adv-x="880" 
d="M748 870l-103 -102.003c-5.33301 8 -13.166 17.5 -23.499 28.5s-34.166 26 -71.499 45s-77.333 28.5 -120 28.5c-54.667 0 -99 -14.333 -133 -43s-51 -62 -51 -100c0 -39.333 18.333 -71 55 -95s81 -43.167 133 -57.5s104 -30.666 156 -48.999s96.333 -48.333 133 -90
s55 -94.834 55 -159.501c0 -84.667 -32.333 -155.167 -97 -211.5s-151.667 -84.5 -261 -84.5c-46.667 0 -90.5 6 -131.5 18s-74.833 26.333 -101.5 43s-49.834 33.5 -69.501 50.5s-34.167 31.5 -43.5 43.5l-13 19l103 102c2.66699 -4 6.33398 -9.16699 11.001 -15.5
s15.167 -17.666 31.5 -33.999s33.833 -31 52.5 -44s42.667 -24.5 72 -34.5s59 -15 89 -15c69.333 0 122.5 15.333 159.5 46s55.5 69.667 55.5 117c0 40.667 -18.5 73.834 -55.5 99.501s-81.333 46 -133 61s-103.5 31.667 -155.5 50s-96.5 47.333 -133.5 87
s-55.5 90.834 -55.5 153.501c0 74 31.167 138.667 93.5 194s140.5 83 234.5 83c38 0 75.167 -4.5 111.5 -13.5s66.166 -20 89.499 -33s44.166 -26.333 62.499 -40s31.5 -24.5 39.5 -32.5zM727 1434l-225 -277h-144l-225 277h133l164 -195l164 195h133z" />
    <glyph glyph-name="uni0162" unicode="&#x162;" horiz-adv-x="1136" 
d="M41 1434h1055v-144h-451v-1290h-153v1290h-451v144zM410 -440l92 276h133l-123 -276h-102z" />
    <glyph glyph-name="uni0163" unicode="&#x163;" horiz-adv-x="737" 
d="M246 1085l0.000976562 226h133v-328h215v-133h-215v-584c0 -102.667 44.333 -153.667 133 -153c22 0 43.833 2.66699 65.5 8s38.167 10 49.5 14l18 8v-133c-40.667 -20.667 -87 -30.667 -139 -30c-84.667 0 -150.834 24.833 -198.501 74.5s-71.5 120.167 -71.5 211.5v584
h-185v133h113c54.667 0 82 34 82 102zM287.001 -440l92 276h133l-123 -276h-102z" />
    <glyph glyph-name="Tcaron" unicode="&#x164;" horiz-adv-x="1136" 
d="M41 1434h1055v-144h-451v-1290h-153v1290h-451v144zM870 1894l-225 -276h-143l-226 276h134l163 -194l164 194h133z" />
    <glyph glyph-name="tcaron" unicode="&#x165;" horiz-adv-x="768" 
d="M246 1085l0.000976562 226h133v-328h215v-133h-215v-584c0 -102.667 44.333 -153.667 133 -153c22 0 43.833 2.66699 65.5 8s38.167 10 49.5 14l18 8v-133c-40.667 -20.667 -87 -30.667 -139 -30c-84.667 0 -150.834 24.833 -198.501 74.5s-71.5 120.167 -71.5 211.5v584
h-185v133h113c54.667 0 82 34 82 102zM614.001 1157l93 277h133l-123 -277h-103z" />
    <glyph glyph-name="Umacron" unicode="&#x16a;" horiz-adv-x="1556" 
d="M778 123c118.667 0 219.998 42.667 303.998 128s126 189.333 126 312v871h154v-871c0 -158.667 -57.667 -295.5 -173 -410.5s-252.166 -172.5 -410.499 -172.5s-295.166 57.667 -410.499 173s-173 252 -173 410v871h153v-871c0 -122.667 42 -226.667 126 -312
s185.333 -128 304 -128zM1075 1812v-112h-594v112h594z" />
    <glyph glyph-name="umacron" unicode="&#x16b;" horiz-adv-x="1198" 
d="M870 0l0.00390625 133.003c-2.66699 -4 -6.66699 -9.5 -12 -16.5s-17.833 -19.333 -37.5 -37s-40.834 -33.334 -63.501 -47.001s-52.5 -25.834 -89.5 -36.501s-75.167 -16 -114.5 -16c-114.667 0 -209.834 39.833 -285.501 119.5s-113.5 183.167 -113.5 310.5v573h143
v-573c0 -86 26.667 -157 80 -213s118.666 -84 195.999 -84c83.333 0 153.666 30.667 210.999 92s86 139.666 86 234.999v543h144v-983h-144zM881.004 1341v-112h-594v112h594z" />
    <glyph glyph-name="Uring" unicode="&#x16e;" horiz-adv-x="1556" 
d="M778 123c118.667 0 219.998 42.667 303.998 128s126 189.333 126 312v871h154v-871c0 -158.667 -57.667 -295.5 -173 -410.5s-252.166 -172.5 -410.499 -172.5s-295.166 57.667 -410.499 173s-173 252 -173 410v871h153v-871c0 -122.667 42 -226.667 126 -312
s185.333 -128 304 -128zM685.998 1782c0 -30 8.83301 -54.667 26.5 -74s39.5 -29 65.5 -29s47.833 9.66699 65.5 29s26.5 44 26.5 74s-8.83301 54.5 -26.5 73.5s-39.5 28.5 -65.5 28.5s-47.833 -9.5 -65.5 -28.5s-26.5 -43.5 -26.5 -73.5zM972.998 1782
c0 -56 -18.5 -102.5 -55.5 -139.5s-83.5 -55.5 -139.5 -55.5s-102.333 18.5 -139 55.5s-55 83.5 -55 139.5s18.333 102.333 55 139s83 55 139 55s102.5 -18.333 139.5 -55s55.5 -83 55.5 -139z" />
    <glyph glyph-name="uring" unicode="&#x16f;" horiz-adv-x="1198" 
d="M870 0l0.00390625 133.003c-2.66699 -4 -6.66699 -9.5 -12 -16.5s-17.833 -19.333 -37.5 -37s-40.834 -33.334 -63.501 -47.001s-52.5 -25.834 -89.5 -36.501s-75.167 -16 -114.5 -16c-114.667 0 -209.834 39.833 -285.501 119.5s-113.5 183.167 -113.5 310.5v573h143
v-573c0 -86 26.667 -157 80 -213s118.666 -84 195.999 -84c83.333 0 153.666 30.667 210.999 92s86 139.666 86 234.999v543h144v-983h-144zM481.004 1311c0 -30 9 -54.667 27 -74s39.833 -29 65.5 -29s47.5 9.66699 65.5 29s27 44 27 74s-9 54.5 -27 73.5
s-39.833 28.5 -65.5 28.5s-47.5 -9.5 -65.5 -28.5s-27 -43.5 -27 -73.5zM768.004 1311c0 -56 -18.5 -102.5 -55.5 -139.5s-83.5 -55.5 -139.5 -55.5s-102.333 18.5 -139 55.5s-55 83.5 -55 139.5s18.333 102.333 55 139s83 55 139 55s102.5 -18.333 139.5 -55
s55.5 -83 55.5 -139z" />
    <glyph glyph-name="Uhungarumlaut" unicode="&#x170;" horiz-adv-x="1556" 
d="M778 123c118.667 0 219.998 42.667 303.998 128s126 189.333 126 312v871h154v-871c0 -158.667 -57.667 -295.5 -173 -410.5s-252.166 -172.5 -410.499 -172.5s-295.166 57.667 -410.499 173s-173 252 -173 410v871h153v-871c0 -122.667 42 -226.667 126 -312
s185.333 -128 304 -128zM542.998 1618l153 276h154l-197 -276h-110zM859.998 1618l152 276h155l-194 -276h-113z" />
    <glyph glyph-name="uhungarumlaut" unicode="&#x171;" horiz-adv-x="1198" 
d="M870 0l0.00390625 133.003c-2.66699 -4 -6.66699 -9.5 -12 -16.5s-17.833 -19.333 -37.5 -37s-40.834 -33.334 -63.501 -47.001s-52.5 -25.834 -89.5 -36.501s-75.167 -16 -114.5 -16c-114.667 0 -209.834 39.833 -285.501 119.5s-113.5 183.167 -113.5 310.5v573h143
v-573c0 -86 26.667 -157 80 -213s118.666 -84 195.999 -84c83.333 0 153.666 30.667 210.999 92s86 139.666 86 234.999v543h144v-983h-144zM348.004 1157l154 277h153l-196 -277h-111zM666.004 1157l151 277h156l-195 -277h-112z" />
    <glyph glyph-name="Uogonek" unicode="&#x172;" horiz-adv-x="1556" 
d="M778 123c118.667 0 220 42.668 304 128.001s126 189.333 126 312v871h154v-871c0 -144.667 -48.833 -272.334 -146.5 -383.001s-217.5 -175.334 -359.5 -194.001c-65.333 -80.667 -98 -151 -98 -211c0 -61.333 34 -92 102 -92c18 0 37.167 2.33301 57.5 7
s36.833 9.66699 49.5 15l16 8v-102c-40.667 -20.667 -85.667 -31 -135 -31c-60 0 -107.167 16.333 -141.5 49s-51.5 77.667 -51.5 135c0 70.667 31 143.334 93 218.001c-151.333 8 -281.333 68.667 -390 182s-163 246.333 -163 399v871h153v-871
c0 -122.667 42 -226.667 126 -312s185.333 -128 304 -128z" />
    <glyph glyph-name="uogonek" unicode="&#x173;" horiz-adv-x="1198" 
d="M870 0l0.00390625 133.004c-2.66699 -4 -6.66699 -9.5 -12 -16.5s-17.833 -19.333 -37.5 -37s-40.834 -33.334 -63.501 -47.001s-52.5 -25.834 -89.5 -36.501s-75.167 -16 -114.5 -16c-114.667 0 -209.834 39.833 -285.501 119.5s-113.5 183.167 -113.5 310.5v573h143
v-573c0 -86 26.667 -157 80 -213s118.666 -84 195.999 -84c83.333 0 153.666 30.667 210.999 92s86 139.666 86 234.999v543h144v-983h-41c-75.333 -82 -113 -157 -113 -225c0 -61.333 34.333 -92 103 -92c18 0 37.167 2.33301 57.5 7s36.5 9.66699 48.5 15l16 8v-102
c-40.667 -20.667 -85.667 -31 -135 -31c-60 0 -107 16.333 -141 49s-51 77.667 -51 135c0 39.333 9.5 78.666 28.5 117.999s38.167 69 57.5 89z" />
    <glyph glyph-name="Ydieresis" unicode="&#x178;" horiz-adv-x="1300" 
d="M645 666h10l430 768h175l-533 -932v-502h-154v502l-532 932h174zM369 1751c0 26 8.83301 47.833 26.5 65.5s39.5 26.5 65.5 26.5s47.833 -8.83301 65.5 -26.5s26.5 -39.5 26.5 -65.5s-8.83301 -47.833 -26.5 -65.5s-39.5 -26.5 -65.5 -26.5s-47.833 8.83301 -65.5 26.5
s-26.5 39.5 -26.5 65.5zM758 1751c0 26 8.83301 47.833 26.5 65.5s39.5 26.5 65.5 26.5s47.833 -8.83301 65.5 -26.5s26.5 -39.5 26.5 -65.5s-8.83301 -47.833 -26.5 -65.5s-39.5 -26.5 -65.5 -26.5s-47.833 8.83301 -65.5 26.5s-26.5 39.5 -26.5 65.5z" />
    <glyph glyph-name="Zacute" unicode="&#x179;" horiz-adv-x="1228" 
d="M932 1290h-809v144h993v-144l-840 -1147h861v-143h-1045v143zM553 1628l154 277h153l-194 -277h-113z" />
    <glyph glyph-name="zacute" unicode="&#x17a;" horiz-adv-x="952" 
d="M840 983v-133l-594 -717h614v-133h-788v133l594 717h-574v133h748zM399 1157l154 277h154l-195 -277h-113z" />
    <glyph glyph-name="Zdotaccent" unicode="&#x17b;" horiz-adv-x="1228" 
d="M932 1290h-809v144h993v-144l-840 -1147h861v-143h-1045v143zM512 1761c0 26 8.83301 47.833 26.5 65.5s39.5 26.5 65.5 26.5s47.833 -8.83301 65.5 -26.5s26.5 -39.5 26.5 -65.5s-8.83301 -47.833 -26.5 -65.5s-39.5 -26.5 -65.5 -26.5s-47.833 8.83301 -65.5 26.5
s-26.5 39.5 -26.5 65.5z" />
    <glyph glyph-name="zdotaccent" unicode="&#x17c;" horiz-adv-x="952" 
d="M840 983v-133l-594 -717h614v-133h-788v133l594 717h-574v133h748zM358 1280c0 26 9 47.833 27 65.5s39.833 26.5 65.5 26.5s47.5 -8.83301 65.5 -26.5s27 -39.5 27 -65.5s-9 -47.833 -27 -65.5s-39.833 -26.5 -65.5 -26.5s-47.5 8.83301 -65.5 26.5s-27 39.5 -27 65.5z
" />
    <glyph glyph-name="Zcaron" unicode="&#x17d;" horiz-adv-x="1228" 
d="M932 1290h-809v144h993v-144l-840 -1147h861v-143h-1045v143zM911 1894l-225 -276h-143l-226 276h134l163 -194l164 194h133z" />
    <glyph glyph-name="zcaron" unicode="&#x17e;" horiz-adv-x="952" 
d="M840 983v-133l-594 -717h614v-133h-788v133l594 717h-574v133h748zM758 1434l-226 -277h-143l-225 277h133l164 -195l164 195h133z" />
    <glyph glyph-name="florin" unicode="&#x192;" horiz-adv-x="716" 
d="M123 -154l153.002 839.998h-163v133h184l72 348c19.333 98 53.833 170.333 103.5 217s117.5 70 203.5 70c22 0 43.167 -2.66699 63.5 -8s35.166 -10.666 44.499 -15.999l15 -7v-133c-34 20.667 -75 31 -123 31c-88.667 0 -143.334 -51.333 -164.001 -154l-72 -348h236
v-133h-256l-154 -840c-34 -191.333 -136.333 -286.666 -307 -285.999c-22 0 -43.167 2.33301 -63.5 7s-35.5 9.66699 -45.5 15l-14 8v134c34 -20.667 75 -31 123 -31c90 -0.666992 144.667 50.333 164 153z" />
    <glyph glyph-name="uni0218" unicode="&#x218;" horiz-adv-x="1157" 
d="M901 389c0 49.333 -14.3359 91.3359 -43.0029 126.003s-65.834 61.667 -111.501 81s-96.167 36.833 -151.5 52.5s-110.666 33 -165.999 52s-105.833 42.167 -151.5 69.5s-82.834 66 -111.501 116s-43 109.667 -43 179c0 108 42.333 199.833 127 275.5
s196 113.5 334 113.5c52 0 101.5 -6.5 148.5 -19.5s86.167 -28.333 117.5 -46s59.333 -35.334 84 -53.001s42.334 -32.834 53.001 -45.501l17 -20l-103 -103c-2.66699 4 -6.66699 9.16699 -12 15.5s-18 17.666 -38 33.999s-41.167 31 -63.5 44s-52 24.667 -89 35
s-75.167 15.5 -114.5 15.5c-94 0 -168.833 -24 -224.5 -72s-83.5 -106 -83.5 -174c0 -49.333 14.333 -91.333 43 -126s66 -61.667 112 -81s96.667 -36.833 152 -52.5s110.5 -33 165.5 -52s105.5 -42.167 151.5 -69.5s83.333 -65.833 112 -115.5s43 -109.5 43 -179.5
c0 -121.333 -42.667 -219.833 -128 -295.5s-203.333 -113.5 -354 -113.5c-61.333 0 -119.666 7.5 -174.999 22.5s-100.666 32.667 -135.999 53s-66.666 41.166 -93.999 62.499s-46.333 39.333 -57 54l-19 23l94 104c2.66699 -4 7.5 -10.167 14.5 -18.5
s22.167 -22.666 45.5 -42.999s48.5 -38 75.5 -53s63.5 -29 109.5 -42s93.333 -19.5 142 -19.5c105.333 0 186.333 24.5 243 73.5s85 113.167 85 192.5zM429.997 -439.997l92 276h133l-123 -276h-102z" />
    <glyph glyph-name="uni0219" unicode="&#x219;" horiz-adv-x="880" 
d="M748 870l-103 -102.003c-5.33301 8 -13.166 17.5 -23.499 28.5s-34.166 26 -71.499 45s-77.333 28.5 -120 28.5c-54.667 0 -99 -14.333 -133 -43s-51 -62 -51 -100c0 -39.333 18.333 -71 55 -95s81 -43.167 133 -57.5s104 -30.666 156 -48.999s96.333 -48.333 133 -90
s55 -94.834 55 -159.501c0 -84.667 -32.333 -155.167 -97 -211.5s-151.667 -84.5 -261 -84.5c-46.667 0 -90.5 6 -131.5 18s-74.833 26.333 -101.5 43s-49.834 33.5 -69.501 50.5s-34.167 31.5 -43.5 43.5l-13 19l103 102c2.66699 -4 6.33398 -9.16699 11.001 -15.5
s15.167 -17.666 31.5 -33.999s33.833 -31 52.5 -44s42.667 -24.5 72 -34.5s59 -15 89 -15c69.333 0 122.5 15.333 159.5 46s55.5 69.667 55.5 117c0 40.667 -18.5 73.834 -55.5 99.501s-81.333 46 -133 61s-103.5 31.667 -155.5 50s-96.5 47.333 -133.5 87
s-55.5 90.834 -55.5 153.501c0 74 31.167 138.667 93.5 194s140.5 83 234.5 83c38 0 75.167 -4.5 111.5 -13.5s66.166 -20 89.499 -33s44.166 -26.333 62.499 -40s31.5 -24.5 39.5 -32.5zM266 -440.003l92 276h134l-123 -276h-103z" />
    <glyph glyph-name="uni021A" unicode="&#x21a;" horiz-adv-x="1136" 
d="M41 1434h1055v-144h-451v-1290h-153v1290h-451v144zM410 -440l92 276h133l-123 -276h-102z" />
    <glyph glyph-name="uni021B" unicode="&#x21b;" horiz-adv-x="737" 
d="M246 1085l0.000976562 226h133v-328h215v-133h-215v-584c0 -102.667 44.333 -153.667 133 -153c22 0 43.833 2.66699 65.5 8s38.167 10 49.5 14l18 8v-133c-40.667 -20.667 -87 -30.667 -139 -30c-84.667 0 -150.834 24.833 -198.501 74.5s-71.5 120.167 -71.5 211.5v584
h-185v133h113c54.667 0 82 34 82 102zM287.001 -440l92 276h133l-123 -276h-102z" />
    <glyph glyph-name="uni02BC" unicode="&#x2bc;" horiz-adv-x="348" 
d="M61 1157l93 277h133l-123 -277h-103z" />
    <glyph glyph-name="circumflex" unicode="&#x2c6;" horiz-adv-x="716" 
d="M430 1434l225 -277h-133l-164 195l-163 -195h-134l226 277h143z" />
    <glyph glyph-name="caron" unicode="&#x2c7;" horiz-adv-x="716" 
d="M655 1434l-225 -277h-143l-226 277h134l163 -195l164 195h133z" />
    <glyph glyph-name="breve" unicode="&#x2d8;" horiz-adv-x="675" 
d="M338 1260c52 0 92.333 15 121 45s43 73 43 129h112c0 -82 -25.5 -148.667 -76.5 -200s-117.5 -77 -199.5 -77s-148.667 25.667 -200 77s-77 118 -77 200h113c0 -56 14.333 -99 43 -129s69 -45 121 -45z" />
    <glyph glyph-name="dotaccent" unicode="&#x2d9;" horiz-adv-x="307" 
d="M61 1311c0 26 9 47.833 27 65.5s40 26.5 66 26.5s47.833 -8.83301 65.5 -26.5s26.5 -39.5 26.5 -65.5s-8.83301 -47.833 -26.5 -65.5s-39.5 -26.5 -65.5 -26.5s-48 8.83301 -66 26.5s-27 39.5 -27 65.5z" />
    <glyph glyph-name="ring" unicode="&#x2da;" horiz-adv-x="512" 
d="M164 1229c0 -30 8.83301 -54.667 26.5 -74s39.5 -29 65.5 -29s47.833 9.66699 65.5 29s26.5 44 26.5 74s-8.83301 54.5 -26.5 73.5s-39.5 28.5 -65.5 28.5s-47.833 -9.5 -65.5 -28.5s-26.5 -43.5 -26.5 -73.5zM451 1229c0 -56 -18.5 -102.5 -55.5 -139.5
s-83.5 -55.5 -139.5 -55.5s-102.5 18.5 -139.5 55.5s-55.5 83.5 -55.5 139.5s18.5 102.333 55.5 139s83.5 55 139.5 55s102.5 -18.333 139.5 -55s55.5 -83 55.5 -139z" />
    <glyph glyph-name="ogonek" unicode="&#x2db;" horiz-adv-x="450" 
d="M174 0l101.998 0.000976562c-75.333 -82 -112.666 -157 -111.999 -225c0 -61.333 34 -92 102 -92c18 0 37.167 2.33301 57.5 7s36.833 9.66699 49.5 15l16 8v-102c-40.667 -20.667 -85.667 -31 -135 -31c-60 0 -107.167 16.333 -141.5 49s-51.5 77.667 -51.5 135
c0 39.333 9.33301 78.666 28 117.999s37.334 69 56.001 89z" />
    <glyph glyph-name="tilde" unicode="&#x2dc;" horiz-adv-x="757" 
d="M246 1311c-22 0 -41.167 -11.333 -57.5 -34s-24.5 -55.667 -24.5 -99h-103c0 79.333 17.5 140 52.5 182s79.167 63 132.5 63c40.667 0 76.667 -11.167 108 -33.5s59.333 -44.5 84 -66.5s49.334 -33 74.001 -33c22 0 41.167 11.333 57.5 34s24.5 55.667 24.5 99h102
c0 -79.333 -17.333 -140 -52 -182s-78.667 -63 -132 -63c-40.667 0 -76.834 11.167 -108.501 33.5s-59.667 44.5 -84 66.5s-48.833 33 -73.5 33z" />
    <glyph glyph-name="hungarumlaut" unicode="&#x2dd;" horiz-adv-x="747" 
d="M61 1157l154 277h154l-197 -277h-111zM379 1157l151 277h156l-194 -277h-113z" />
    <glyph glyph-name="uni0401" unicode="&#x401;" horiz-adv-x="1310" 
d="M369 143h850v-143h-1004v1434h983v-144h-829v-471h665v-143h-665v-533zM420 1751c0 26 8.83301 47.833 26.5 65.5s39.5 26.5 65.5 26.5s47.833 -8.83301 65.5 -26.5s26.5 -39.5 26.5 -65.5s-8.83301 -47.833 -26.5 -65.5s-39.5 -26.5 -65.5 -26.5
s-47.833 8.83301 -65.5 26.5s-26.5 39.5 -26.5 65.5zM809 1751c0 26 8.83301 47.833 26.5 65.5s39.5 26.5 65.5 26.5s47.833 -8.83301 65.5 -26.5s26.5 -39.5 26.5 -65.5s-8.83301 -47.833 -26.5 -65.5s-39.5 -26.5 -65.5 -26.5s-47.833 8.83301 -65.5 26.5
s-26.5 39.5 -26.5 65.5z" />
    <glyph glyph-name="uni0402" unicode="&#x402;" horiz-adv-x="1464" 
d="M911 932c130 0 234.167 -41.999 312.5 -125.999s117.5 -199 117.5 -345c0 -147.333 -42.667 -264.333 -128 -351s-199.666 -130 -342.999 -130v143c98 0 175.5 29.667 232.5 89s85.5 142.333 85.5 249c0 101.333 -27.333 181.166 -82 239.499
s-126.334 87.5 -215.001 87.5c-64 0 -126.833 -13.5 -188.5 -40.5s-107.5 -54.167 -137.5 -81.5l-43 -41v-625h-153v1290h-369v144h891v-144h-369v-491c10.667 9.33301 27 21.5 49 36.5s66.833 34.833 134.5 59.5s136.167 37 205.5 37z" />
    <glyph glyph-name="uni0403" unicode="&#x403;" horiz-adv-x="1126" 
d="M604 1628l154 277h153l-194 -277h-113zM215 0v1434h891v-144h-737v-1290h-154z" />
    <glyph glyph-name="uni0404" unicode="&#x404;" horiz-adv-x="1536" 
d="M123 717c0 204.667 71.666 378.667 214.999 522s317.333 215 522 215c72.667 0 142.334 -10.167 209.001 -30.5s121.834 -44.833 165.501 -73.5s82 -57.667 115 -87s56.833 -54.333 71.5 -75l23 -31l-103 -92c-4 6.66699 -10 15.5 -18 26.5s-27 30.5 -57 58.5
s-62.167 52.833 -96.5 74.5s-79.166 41.5 -134.499 59.5s-113.666 27 -174.999 27c-155.333 0 -286.333 -48.5 -393 -145.5s-170.334 -219.167 -191.001 -366.5h758v-144h-758c15.333 -151.333 77.666 -277.833 186.999 -379.5s241.666 -152.5 396.999 -152.5
c61.333 0 120 8.5 176 25.5s102.167 37.5 138.5 61.5s68.5 47.833 96.5 71.5s48 44.5 60 62.5l21 25l102 -93c-5.33301 -8 -13.5 -18.5 -24.5 -31.5s-35.333 -36.5 -73 -70.5s-77.5 -64.333 -119.5 -91s-97.167 -50.5 -165.5 -71.5s-138.833 -31.5 -211.5 -31.5
c-204.667 0 -378.667 71.667 -522 215s-215 317.333 -215 522z" />
    <glyph glyph-name="uni0405" unicode="&#x405;" horiz-adv-x="1157" 
d="M901 389c0 49.333 -14.3359 91.3359 -43.0029 126.003s-65.834 61.667 -111.501 81s-96.167 36.833 -151.5 52.5s-110.666 33 -165.999 52s-105.833 42.167 -151.5 69.5s-82.834 66 -111.501 116s-43 109.667 -43 179c0 108 42.333 199.833 127 275.5
s196 113.5 334 113.5c52 0 101.5 -6.5 148.5 -19.5s86.167 -28.333 117.5 -46s59.333 -35.334 84 -53.001s42.334 -32.834 53.001 -45.501l17 -20l-103 -103c-2.66699 4 -6.66699 9.16699 -12 15.5s-18 17.666 -38 33.999s-41.167 31 -63.5 44s-52 24.667 -89 35
s-75.167 15.5 -114.5 15.5c-94 0 -168.833 -24 -224.5 -72s-83.5 -106 -83.5 -174c0 -49.333 14.333 -91.333 43 -126s66 -61.667 112 -81s96.667 -36.833 152 -52.5s110.5 -33 165.5 -52s105.5 -42.167 151.5 -69.5s83.333 -65.833 112 -115.5s43 -109.5 43 -179.5
c0 -121.333 -42.667 -219.833 -128 -295.5s-203.333 -113.5 -354 -113.5c-61.333 0 -119.666 7.5 -174.999 22.5s-100.666 32.667 -135.999 53s-66.666 41.166 -93.999 62.499s-46.333 39.333 -57 54l-19 23l94 104c2.66699 -4 7.5 -10.167 14.5 -18.5
s22.167 -22.666 45.5 -42.999s48.5 -38 75.5 -53s63.5 -29 109.5 -42s93.333 -19.5 142 -19.5c105.333 0 186.333 24.5 243 73.5s85 113.167 85 192.5z" />
    <glyph glyph-name="uni0406" unicode="&#x406;" horiz-adv-x="583" 
d="M215 0v1434h154v-1434h-154z" />
    <glyph glyph-name="uni0407" unicode="&#x407;" horiz-adv-x="583" 
d="M215 0v1434h154v-1434h-154zM10 1751c0 26 8.83301 47.833 26.5 65.5s39.5 26.5 65.5 26.5s48 -8.83301 66 -26.5s27 -39.5 27 -65.5s-9 -47.833 -27 -65.5s-40 -26.5 -66 -26.5s-47.833 8.83301 -65.5 26.5s-26.5 39.5 -26.5 65.5zM399 1751c0 26 9 47.833 27 65.5
s39.833 26.5 65.5 26.5s47.5 -8.83301 65.5 -26.5s27 -39.5 27 -65.5s-9 -47.833 -27 -65.5s-39.833 -26.5 -65.5 -26.5s-47.5 8.83301 -65.5 26.5s-27 39.5 -27 65.5z" />
    <glyph glyph-name="uni0408" unicode="&#x408;" horiz-adv-x="1013" 
d="M655 1434l153.999 0.000976562v-1014c0 -128.667 -41.333 -234.167 -124 -316.5s-188 -123.5 -316 -123.5c-42 0 -82.667 5.33301 -122 16s-72.166 24.167 -98.499 40.5s-49.5 32.833 -69.5 49.5s-34.667 30.334 -44 41.001l-15 16l103 103
c2.66699 -2.66699 6 -7.16699 10 -13.5s13.5 -16.333 28.5 -30s31.5 -25.834 49.5 -36.501s41.333 -20.5 70 -29.5s58 -13.5 88 -13.5c87.333 0 156.833 26.667 208.5 80s77.5 125.666 77.5 216.999v1014z" />
    <glyph glyph-name="uni0409" unicode="&#x409;" horiz-adv-x="2211" 
d="M1628 0h-522v1290h-584v-286c0 -211.333 -8.83301 -386.5 -26.5 -525.5s-45 -244 -82 -315s-78 -119.333 -123 -145s-100.833 -38.5 -167.5 -38.5c-22 0 -43.833 1.66699 -65.5 5s-38.167 7 -49.5 11l-18 4v154c40.667 -13.333 78 -20.333 112 -21
c42 0 77.833 10.333 107.5 31s57.5 60.334 83.5 119.001s45.167 147.667 57.5 267s18.5 270.666 18.5 453.999v430h891v-533h368c132.667 0 242.667 -43 330 -129s131 -193.167 131 -321.5s-43.667 -235.5 -131 -321.5s-197.333 -129 -330 -129zM1260 143h368
c91.333 0 165.333 28 222 84s85 130.5 85 223.5s-28.333 167.5 -85 223.5s-130.667 84 -222 84h-368v-615z" />
    <glyph glyph-name="uni040A" unicode="&#x40a;" horiz-adv-x="2211" 
d="M215 0v1434h154v-533h737v533h154v-533h368c132.667 0 242.667 -43 330 -129s131 -193.167 131 -321.5s-43.667 -235.5 -131 -321.5s-197.333 -129 -330 -129h-522v758h-737v-758h-154zM1260 143h368c91.333 0 165.333 28 222 84s85 130.5 85 223.5
s-28.333 167.5 -85 223.5s-130.667 84 -222 84h-368v-615z" />
    <glyph glyph-name="uni040B" unicode="&#x40b;" horiz-adv-x="1515" 
d="M0 1290l-0.000976562 144h891v-144h-369v-491c10.667 9.33301 27 21.5 49 36.5s66.833 34.833 134.5 59.5s136.167 37 205.5 37c128.667 0 232.5 -40.333 311.5 -121s118.5 -187 118.5 -319v-492h-153v492c0 87.333 -27.667 158.5 -83 213.5s-126.666 82.5 -213.999 82.5
c-64 0 -126.833 -13.5 -188.5 -40.5s-107.5 -54.167 -137.5 -81.5l-43 -41v-625h-153v1290h-369z" />
    <glyph glyph-name="uni040C" unicode="&#x40c;" horiz-adv-x="1372" 
d="M369 625l737 809h194l-542 -594l594 -840h-185l-512 727l-286 -307v-420h-154v1434h154v-809zM666 1628l153 277h154l-195 -277h-112z" />
    <glyph glyph-name="uni040E" unicode="&#x40e;" horiz-adv-x="1249" 
d="M635 1628c-82 0 -148.667 25.667 -200 77s-77 118 -77 200h113c0 -46.667 15.667 -85.667 47 -117s70.333 -47 117 -47s85.667 15.667 117 47s47 70.333 47 117h112c0 -82 -25.5 -148.667 -76.5 -200s-117.5 -77 -199.5 -77zM666 594l389.002 840h164l-533 -1117
c-58.667 -122.667 -118.334 -209.5 -179.001 -260.5s-141 -76.5 -241 -76.5c-22 0 -43.833 1.66699 -65.5 5s-37.834 7 -48.501 11l-19 4v143c34 -13.333 75 -20 123 -20c64 0 114.833 14.667 152.5 44s75.5 79.333 113.5 150l62 113c-44 83.333 -127.333 240 -250 470
s-217 408 -283 534h164z" />
    <glyph glyph-name="uni040F" unicode="&#x40f;" horiz-adv-x="1525" 
d="M1311 1434v-1434h-471v-307h-154v307h-471v1434h154v-1291h788v1291h154z" />
    <glyph glyph-name="uni0410" unicode="&#x410;" horiz-adv-x="1433" 
d="M993 543l-276 676l-277 -676h553zM1055 399h-676l-164 -399h-164l594 1434h143l594 -1434h-163z" />
    <glyph glyph-name="uni0411" unicode="&#x411;" horiz-adv-x="1341" 
d="M369 1290v-430h399c126.667 0 233.5 -42 320.5 -126s130.5 -185.333 130.5 -304s-43.5 -220 -130.5 -304s-193.833 -126 -320.5 -126h-553v1434h891v-144h-737zM369 143h399c86 0 157 27.333 213 82s84 123 84 205s-28 150.333 -84 205s-127 82 -213 82h-399v-574z" />
    <glyph glyph-name="uni0412" unicode="&#x412;" horiz-adv-x="1372" 
d="M1004 768c6.66699 -2.66699 15.001 -6.3291 25.001 -10.9961s28.667 -17.334 56 -38.001s51.333 -43.334 72 -68.001s39.5 -58.834 56.5 -102.501s25.5 -89.834 25.5 -138.501c0 -118.667 -40.667 -216.667 -122 -294s-187.333 -116 -318 -116h-584v1434h553
c116 0 211.5 -35.5 286.5 -106.5s112.5 -158.5 112.5 -262.5c0 -42 -5.33301 -80.833 -16 -116.5s-24.334 -64.167 -41.001 -85.5s-33.167 -39.5 -49.5 -54.5s-29.833 -25.167 -40.5 -30.5zM369.001 143.005h430c86 0 155.167 25 207.5 75s78.5 114 78.5 192
c0 79.333 -26.5 146.833 -79.5 202.5s-121.833 83.5 -206.5 83.5h-430v-553zM768.001 1290l-399 -0.00195312v-459h399c76.667 0 136.834 20.833 180.501 62.5s65.5 98.834 65.5 171.501c0 66.667 -21.833 120.834 -65.5 162.501s-103.834 62.5 -180.501 62.5z" />
    <glyph glyph-name="uni0413" unicode="&#x413;" horiz-adv-x="1126" 
d="M215 0v1434h891v-144h-737v-1290h-154z" />
    <glyph glyph-name="uni0414" unicode="&#x414;" horiz-adv-x="1454" 
d="M0 143h81.999c6.66699 5.33301 15.834 14.5 27.501 27.5s32.167 43.833 61.5 92.5s55.333 103 78 163s43.167 141.5 61.5 244.5s27.5 214.167 27.5 333.5v430h881v-1291h174v-450h-154v307h-1085v-307h-154v450zM491.999 1004c0 -116 -8.66699 -225.333 -26 -328
s-37.833 -185 -61.5 -247s-47.5 -115.833 -71.5 -161.5s-45 -77.5 -63 -95.5l-24 -29h819v1147h-573v-286z" />
    <glyph glyph-name="uni0415" unicode="&#x415;" horiz-adv-x="1310" 
d="M369 143h850v-143h-1004v1434h983v-144h-829v-471h665v-143h-665v-533z" />
    <glyph glyph-name="uni0416" unicode="&#x416;" horiz-adv-x="1976" 
d="M1260 727l-195 -205v-522h-154v522l-194 205l-512 -727h-185l594 840l-542 594h194l645 -705v705h154v-705l645 705h195l-543 -594l594 -840h-184z" />
    <glyph glyph-name="uni0417" unicode="&#x417;" horiz-adv-x="1218" 
d="M799 758c8 -1.33301 18.501 -4.50195 31.501 -9.50195s36.5 -16.667 70.5 -35s64.333 -39.833 91 -64.5s50.667 -59.167 72 -103.5s32 -93.166 32 -146.499c0 -112 -48.833 -209.833 -146.5 -293.5s-223.167 -125.5 -376.5 -125.5
c-62.667 0 -123.334 7.83301 -182.001 23.5s-107.167 34.334 -145.5 56.001s-72.166 43.5 -101.499 65.5s-50 40.333 -62 55l-21 25l103 102c4 -5.33301 9.83301 -12.166 17.5 -20.499s24.334 -23 50.001 -44s53.167 -39.667 82.5 -56s67.666 -31 114.999 -44
s95.333 -19.5 144 -19.5c113.333 0 203.166 27.333 269.499 82s99.5 119.334 99.5 194.001c0 80.667 -33.167 148.667 -99.5 204s-156.166 83 -269.499 83h-163v143h163c98 0 175.5 23 232.5 69s85.5 101.667 85.5 167c0 69.333 -28.333 127.666 -85 174.999
s-134.334 71 -233.001 71c-66.667 0 -129.667 -13.667 -189 -41s-102.666 -54.666 -129.999 -81.999l-39 -41l-102 102c4 5.33301 10.333 12.833 19 22.5s27.667 26.167 57 49.5s60.5 43.833 93.5 61.5s75.667 34 128 49s106.5 22.5 162.5 22.5
c143.333 0 257.666 -36.5 342.999 -109.5s128 -162.833 128 -269.5c0 -46.667 -8.5 -89 -25.5 -127s-37.333 -68.333 -61 -91s-47.5 -41.834 -71.5 -57.501s-45 -26.834 -63 -33.501z" />
    <glyph glyph-name="uni0418" unicode="&#x418;" horiz-adv-x="1597" 
d="M1382 0h-153v1157l-881 -1157h-133v1434h154v-1158l880 1158h133v-1434z" />
    <glyph glyph-name="uni0419" unicode="&#x419;" horiz-adv-x="1597" 
d="M799 1628c-82 0 -148.666 25.667 -199.999 77s-77 118 -77 200h113c0 -46.667 15.667 -85.667 47 -117s70.166 -47 116.499 -47s85.333 15.667 117 47s47.5 70.333 47.5 117h112c0 -82 -25.5 -148.667 -76.5 -200s-117.5 -77 -199.5 -77zM1382 0h-153v1157l-881 -1157
h-133v1434h154v-1158l880 1158h133v-1434z" />
    <glyph glyph-name="uni041A" unicode="&#x41a;" horiz-adv-x="1372" 
d="M369 625l737 809h194l-542 -594l594 -840h-185l-512 727l-286 -307v-420h-154v1434h154v-809z" />
    <glyph glyph-name="uni041B" unicode="&#x41b;" horiz-adv-x="1505" 
d="M1290 1434v-1434h-153v1290h-615v-286c0 -211.333 -8.83301 -386.5 -26.5 -525.5s-45 -244 -82 -315s-78 -119.333 -123 -145s-100.833 -38.5 -167.5 -38.5c-22 0 -43.833 1.66699 -65.5 5s-38.167 7 -49.5 11l-18 4v154c40.667 -13.333 78 -20.333 112 -21
c42 0 77.833 10.333 107.5 31s57.5 60.334 83.5 119.001s45.167 147.667 57.5 267s18.5 270.666 18.5 453.999v430h921z" />
    <glyph glyph-name="uni041C" unicode="&#x41c;" horiz-adv-x="1884" 
d="M1516 1167l-574 -757l-573 757v-1167h-154v1434h133l594 -779l594 779h133v-1434h-153v1167z" />
    <glyph glyph-name="uni041D" unicode="&#x41d;" horiz-adv-x="1536" 
d="M215 0v1434h154v-635h798v635h154v-1434h-154v655h-798v-655h-154z" />
    <glyph glyph-name="uni041E" unicode="&#x41e;" horiz-adv-x="1720" 
d="M276 717c0 -168 56.333 -309 169 -423s251 -171 415 -171s302.333 57 415 171s169 255 169 423s-56.333 309 -169 423s-251 171 -415 171s-302.333 -57 -415 -171s-169 -255 -169 -423zM1597 717c0 -204.667 -71.667 -378.667 -215 -522s-317.333 -215 -522 -215
s-378.667 71.667 -522 215s-215 317.333 -215 522s71.667 378.667 215 522s317.333 215 522 215s378.667 -71.667 522 -215s215 -317.333 215 -522z" />
    <glyph glyph-name="uni041F" unicode="&#x41f;" horiz-adv-x="1536" 
d="M1321 1434v-1434h-154v1290h-798v-1290h-154v1434h1106z" />
    <glyph glyph-name="uni0420" unicode="&#x420;" horiz-adv-x="1331" 
d="M215 1434l543 -0.000976562c132.667 0 242.667 -43 330 -129s131 -193.167 131 -321.5s-43.833 -235.666 -131.5 -321.999s-197.5 -129.5 -329.5 -129.5h-389v-532h-154v1434zM758 1290h-389v-614h389c92.667 0 167 28 223 84s84 130.333 84 223s-28 167 -84 223
s-130.333 84 -223 84z" />
    <glyph glyph-name="uni0421" unicode="&#x421;" horiz-adv-x="1546" 
d="M123 717c0 204.667 71.6641 378.667 214.997 522s317.333 215 522 215c72.667 0 142.334 -10.167 209.001 -30.5s121.834 -44.833 165.501 -73.5s82 -57.667 115 -87s56.833 -54.333 71.5 -75l23 -31l-103 -92c-4 6.66699 -10 15.5 -18 26.5s-26.667 30.5 -56 58.5
s-61.166 52.833 -95.499 74.5s-79.5 41.5 -135.5 59.5s-114.667 27 -176 27c-164 0 -302.333 -57 -415 -171s-169 -255 -169 -423s56.333 -309 169 -423s251 -171 415 -171c61.333 0 120 8.5 176 25.5s102.5 37.5 139.5 61.5s69.5 47.833 97.5 71.5s48 44.5 60 62.5l19 25
l102 -93c-5.33301 -8 -13.5 -18.5 -24.5 -31.5s-35.333 -36.5 -73 -70.5s-77.5 -64.333 -119.5 -91s-97.167 -50.5 -165.5 -71.5s-138.833 -31.5 -211.5 -31.5c-204.667 0 -378.667 71.667 -522 215s-215 317.333 -215 522z" />
    <glyph glyph-name="uni0422" unicode="&#x422;" horiz-adv-x="1136" 
d="M41 1434h1055v-144h-451v-1290h-153v1290h-451v144z" />
    <glyph glyph-name="uni0423" unicode="&#x423;" horiz-adv-x="1249" 
d="M666 594l389.002 840h164l-533 -1117c-58.667 -122.667 -118.334 -209.5 -179.001 -260.5s-141 -76.5 -241 -76.5c-22 0 -43.833 1.66699 -65.5 5s-37.834 7 -48.501 11l-19 4v143c34 -13.333 75 -20 123 -20c64 0 114.833 14.667 152.5 44s75.5 79.333 113.5 150l62 113
c-44 83.333 -127.333 240 -250 470s-217 408 -283 534h164z" />
    <glyph glyph-name="uni0424" unicode="&#x424;" horiz-adv-x="1730" 
d="M266 737.5c0 -127 45.8311 -230.833 137.498 -311.5s219.834 -123.667 384.501 -129v881c-165.333 -5.33301 -293.666 -48.333 -384.999 -129s-137 -184.5 -137 -311.5zM1464 737.5c0 127 -45.667 230.667 -137 311s-219.666 123.5 -384.999 129.5v-881
c165.333 5.33301 293.666 48.333 384.999 129s137 184.5 137 311.5zM941.998 154v-195h-154v195c-204.667 5.33301 -368.334 63.333 -491.001 174s-184 247.167 -184 409.5s61.333 298.833 184 409.5s286.334 168.667 491.001 174v154h154v-154
c204.667 -5.33301 368.5 -63.333 491.5 -174s184.5 -247.167 184.5 -409.5s-61.5 -298.833 -184.5 -409.5s-286.833 -168.667 -491.5 -174z" />
    <glyph glyph-name="uni0425" unicode="&#x425;" horiz-adv-x="1331" 
d="M666 870l399 564h184l-491 -686l532 -748h-184l-440 625l-441 -625h-184l532 748l-491 686h184z" />
    <glyph glyph-name="uni0426" unicode="&#x426;" horiz-adv-x="1546" 
d="M215 0v1434h154v-1291h778v1291h153v-1291h185v-450h-154v307h-1116z" />
    <glyph glyph-name="uni0427" unicode="&#x427;" horiz-adv-x="1443" 
d="M348 1434v-430c0 -114.667 31.5 -203.167 94.5 -265.5s151.167 -93.5 264.5 -93.5c44 0 86.667 5.16699 128 15.5s76 23 104 38s52.5 30.333 73.5 46s37.167 28.167 48.5 37.5l14 17v635h154v-1434h-154v625c-10.667 -9.33301 -27 -21 -49 -35
s-66.667 -32.167 -134 -54.5s-136 -33.5 -206 -33.5c-151.333 0 -271 44.667 -359 134s-132 212 -132 368v430h153z" />
    <glyph glyph-name="uni0428" unicode="&#x428;" horiz-adv-x="2078" 
d="M215 0v1434h154v-1291h594v1291h153v-1291h594v1291h154v-1434h-1649z" />
    <glyph glyph-name="uni0429" unicode="&#x429;" horiz-adv-x="2109" 
d="M215 0v1434h154v-1291h594v1291h153v-1291h594v1291h154v-1291h184v-450h-154v307h-1679z" />
    <glyph glyph-name="uni042A" unicode="&#x42a;" horiz-adv-x="1454" 
d="M870 0h-522v1290h-348v144h502v-533h368c132.667 0 242.667 -43 330 -129s131 -193.167 131 -321.5s-43.667 -235.5 -131 -321.5s-197.333 -129 -330 -129zM502 143h368c91.333 0 165.5 28 222.5 84s85.5 130.5 85.5 223.5s-28.333 167.5 -85 223.5s-131 84 -223 84h-368
v-615z" />
    <glyph glyph-name="uni042B" unicode="&#x42b;" horiz-adv-x="1812" 
d="M1597 0h-153v1434h153v-1434zM737 0h-522v1434h154v-533h368c132.667 0 242.667 -43 330 -129s131 -193.167 131 -321.5s-43.667 -235.5 -131 -321.5s-197.333 -129 -330 -129zM369 143h368c92.667 0 167 28 223 84s84 130.5 84 223.5s-27.833 167.5 -83.5 223.5
s-130.167 84 -223.5 84h-368v-615z" />
    <glyph glyph-name="uni042C" unicode="&#x42c;" horiz-adv-x="1341" 
d="M758 0h-543v1434h154v-533h389c132.667 0 242.667 -43 330 -129s131 -193.167 131 -321.5s-43.667 -235.5 -131 -321.5s-197.333 -129 -330 -129zM369 143h389c92.667 0 167 28 223 84s84 130.5 84 223.5s-28 167.5 -84 223.5s-130.333 84 -223 84h-389v-615z" />
    <glyph glyph-name="uni042D" unicode="&#x42d;" horiz-adv-x="1536" 
d="M1413 717c0 -204.667 -71.6621 -378.667 -214.995 -522s-317.333 -215 -522 -215c-72.667 0 -142.667 10.167 -210 30.5s-123.333 44.833 -168 73.5s-84 57.667 -118 87s-58.667 54.333 -74 75l-24 30l102 93c4 -6.66699 10.5 -15.5 19.5 -26.5s28.833 -30.5 59.5 -58.5
s63.5 -53 98.5 -75s80.833 -41.833 137.5 -59.5s115.667 -26.5 177 -26.5c155.333 0 287.666 50.833 396.999 152.5s171.666 228.167 186.999 379.5h-758v144h758c-20.667 147.333 -84.334 269.5 -191.001 366.5s-237.667 145.5 -393 145.5
c-61.333 0 -119.666 -8.5 -174.999 -25.5s-100.833 -37.5 -136.5 -61.5s-66.834 -48 -93.501 -72s-46 -44.667 -58 -62l-18 -25l-103 92c5.33301 8 13.166 18.5 23.499 31.5s33.666 36.667 69.999 71s75.333 64.833 117 91.5s96.167 50.5 163.5 71.5s137.333 31.5 210 31.5
c204.667 0 378.667 -71.667 522 -215s215 -317.333 215 -522z" />
    <glyph glyph-name="uni042E" unicode="&#x42e;" horiz-adv-x="2160" 
d="M369 1434v-635.001h276c20.667 182.667 96.5 337.5 227.5 464.5s287.167 190.5 468.5 190.5c191.333 0 355.333 -71 492 -213s205 -316.667 205 -524s-68.333 -382 -205 -524s-300.667 -213 -492 -213c-182.667 0 -340.5 64.833 -473.5 194.5
s-207.167 289.834 -222.5 480.501h-276v-655h-154v1434h154zM799 716.999c0 -172 52.5 -314 157.5 -426s233.333 -168 385 -168s280 56 385 168s157.5 254 157.5 426s-52.5 314 -157.5 426s-233.333 168 -385 168s-280 -56 -385 -168s-157.5 -254 -157.5 -426z" />
    <glyph glyph-name="uni042F" unicode="&#x42f;" horiz-adv-x="1372" 
d="M584 1434l572.999 -0.000976562v-1434h-153v573h-410l-318 -573h-174l338 594c-8 2.66699 -18.5 6.33398 -31.5 11.001s-36.5 17.667 -70.5 39s-64.333 46 -91 74s-50.667 67.167 -72 117.5s-32 106.5 -32 168.5c0 122.667 41.833 225 125.5 307s188.834 123 315.501 123
zM1004 1290l-420 0.00195312c-87.333 0 -157 -25.833 -209 -77.5s-78 -121.334 -78 -209.001s26 -157.334 78 -209.001s121.667 -77.5 209 -77.5h420v573z" />
    <glyph glyph-name="uni0430" unicode="&#x430;" horiz-adv-x="1064" 
d="M369 563l379.004 62.0049c0 72.667 -23 131.667 -69 177s-105 68 -177 68c-52 0 -100.833 -11.833 -146.5 -35.5s-78.834 -47.834 -99.501 -72.501l-31 -35l-92 92c4 5.33301 9.5 12.166 16.5 20.499s22.333 23 46 44s48.5 39.833 74.5 56.5s60.167 31.5 102.5 44.5
s85.5 19.5 129.5 19.5c112 0 204.833 -36.333 278.5 -109s110.5 -162.667 110.5 -270v-625h-143v133c-2.66699 -4 -6.83398 -9.5 -12.501 -16.5s-18.334 -19.333 -38.001 -37s-40.834 -33.334 -63.501 -47.001s-52.5 -25.834 -89.5 -36.501s-75.167 -16 -114.5 -16
c-98 0 -180.5 29 -247.5 87s-100.5 124.333 -100.5 199c0 82 24.667 148.167 74 198.5s120.333 83.166 213 98.499zM430.004 113.005c92.667 0 168.834 30.332 228.501 90.999s89.5 139.334 89.5 236.001v62l-338 -62c-122.667 -23.333 -184.334 -81.333 -185.001 -174
c0 -44 18.167 -80.5 54.5 -109.5s86.5 -43.5 150.5 -43.5z" />
    <glyph glyph-name="uni0431" unicode="&#x431;" horiz-adv-x="1198" 
d="M1085 471c0 -138 -46.666 -254.331 -139.999 -348.998s-207 -142 -341 -142c-144.667 0 -262.667 55.167 -354 165.5s-137 266.5 -137 468.5c0 452 167 708 501 768c72.667 12 137.334 27.667 194.001 47s94.667 35.333 114 48l30 18l72 -113
c-54.667 -48 -184.334 -92.333 -389.001 -133c-108 -22 -195.167 -73.167 -261.5 -153.5s-102.166 -189.5 -107.499 -327.5c2.66699 5.33301 7.16699 12.5 13.5 21.5s20 24.333 41 46s44.167 41.167 69.5 58.5s58.166 33.166 98.499 47.499s82.166 21.5 125.499 21.5
c130 0 241 -47.833 333 -143.5s138 -211.834 138 -348.501zM266.001 471.002c0 -101.333 33.167 -186.333 99.5 -255s145.833 -103 238.5 -103s172.167 34.333 238.5 103s99.5 153.667 99.5 255s-33.167 186.333 -99.5 255s-145.833 103 -238.5 103
s-172.167 -34.333 -238.5 -103s-99.5 -153.667 -99.5 -255z" />
    <glyph glyph-name="uni0432" unicode="&#x432;" horiz-adv-x="1064" 
d="M154 983l450 0.000976562c90 0 162 -24.167 216 -72.5s81 -109.5 81 -183.5c0 -42 -10.167 -80.167 -30.5 -114.5s-40.833 -58.166 -61.5 -71.499l-31 -19c4 -1.33301 9.83301 -3.33301 17.5 -6s21 -9.83398 40 -21.501s35.667 -25.334 50 -41.001
s27.333 -38.167 39 -67.5s17.5 -62.333 17.5 -99c0 -88.667 -27.667 -158.667 -83 -210s-133.333 -77 -234 -77h-471v983zM625 461.001h-328v-328h328c56 0 99 14.333 129 43s45 69 45 121s-15 92.333 -45 121s-73 43 -129 43zM758 717.001c0 88.667 -51.333 133 -154 133
h-307v-266h307c102.667 0 154 44.333 154 133z" />
    <glyph glyph-name="uni0433" unicode="&#x433;" horiz-adv-x="839" 
d="M809 983v-133h-512v-850h-143v983h655z" />
    <glyph glyph-name="uni0434" unicode="&#x434;" horiz-adv-x="1136" 
d="M1065 133v-379h-143v246h-789v-246h-143v379h71c4 4 10.167 10.833 18.5 20.5s22.5 31.5 42.5 65.5s37.833 70.833 53.5 110.5s29.667 92.667 42 159s18.5 135.5 18.5 207.5v287h675v-850h154zM379 850l-0.000976562 -154c0 -112 -13.667 -214.667 -41 -308
s-54.666 -159.333 -81.999 -198l-41 -57h553v717h-389z" />
    <glyph glyph-name="uni0435" unicode="&#x435;" horiz-adv-x="1136" 
d="M1024 438l-798.998 2.00195c5.33301 -88.667 41.833 -165.334 109.5 -230.001s147.167 -97 238.5 -97c61.333 0 118.333 13.667 171 41s90 54.666 112 81.999l35 40l92 -92c-4 -5.33301 -9.83301 -12.833 -17.5 -22.5s-24.334 -26 -50.001 -49
s-53.334 -43.333 -83.001 -61s-68 -34 -115 -49s-95.167 -22.5 -144.5 -22.5c-134 0 -249.333 49.833 -346 149.5s-145 220.5 -145 362.5s47.833 262.833 143.5 362.5s208.167 149.5 337.5 149.5c134 0 246 -46.5 336 -139.5s135 -210.5 135 -352.5zM563.002 870.002
c-86 0 -161 -30.333 -225 -91s-101.667 -132.667 -113 -216h666c-10.667 88.667 -46.5 162 -107.5 220s-134.5 87 -220.5 87z" />
    <glyph glyph-name="uni0436" unicode="&#x436;" horiz-adv-x="1495" 
d="M666 328l-144 153l-348 -481h-164l420 584l-379 399h174l441 -471v471h143v-471l440 471h174l-379 -399l420 -584h-164l-348 481l-143 -153v-328h-143v328z" />
    <glyph glyph-name="uni0437" unicode="&#x437;" horiz-adv-x="901" 
d="M748 727c0 -32.667 -5.16699 -62.334 -15.5 -89.001s-23 -47.5 -38 -62.5s-30.333 -27.667 -46 -38s-28.5 -17.5 -38.5 -21.5l-16 -4c5.33301 -1.33301 12.5 -3 21.5 -5s24.333 -8.5 46 -19.5s41 -24.333 58 -40s32.667 -38.5 47 -68.5s21.5 -64.333 21.5 -103
c0 -83.333 -32.667 -153.5 -98 -210.5s-158.666 -85.5 -279.999 -85.5c-46.667 0 -90.834 6 -132.501 18s-76.5 26.333 -104.5 43s-52.167 33.5 -72.5 50.5s-35.5 31.5 -45.5 43.5l-14 19l92 92c8 -9.33301 19.167 -21.666 33.5 -36.999s45.5 -35.166 93.5 -59.499
s98 -36.5 150 -36.5c78 0 136.667 15 176 45s59 69.5 59 118.5s-19.833 88.5 -59.5 118.5s-98.167 45 -175.5 45h-113v133h113c58.667 0 105.667 15.167 141 45.5s53 66.666 53 108.999s-16.333 76.666 -49 102.999s-81 39.5 -145 39.5
c-45.333 0 -88.5 -9.16699 -129.5 -27.5s-70.167 -37.166 -87.5 -56.499l-29 -28l-103 102c9.33301 10.667 23 24 41 40s57 37.333 117 64s123.667 40 191 40c100 0 181.333 -27.333 244 -82s94 -119.667 94 -195z" />
    <glyph glyph-name="uni0438" unicode="&#x438;" 
d="M891 983h123v-983h-144v737l-594 -737h-122v983h143v-737z" />
    <glyph glyph-name="uni0439" unicode="&#x439;" 
d="M584 1260c52 0 92.333 15 121 45s43 73 43 129h112c0 -82 -25.5 -148.667 -76.5 -200s-117.5 -77 -199.5 -77s-148.667 25.667 -200 77s-77 118 -77 200h113c0 -56 14.333 -99 43 -129s69 -45 121 -45zM891 983h123v-983h-144v737l-594 -737h-122v983h143v-737z" />
    <glyph glyph-name="uni043A" unicode="&#x43a;" horiz-adv-x="1034" 
d="M297 276v-276h-143v983h143v-522l491 522h175l-379 -399l420 -584h-164l-348 481z" />
    <glyph glyph-name="uni043B" unicode="&#x43b;" horiz-adv-x="1146" 
d="M256 983l717.002 -0.00195312v-983h-144v850h-430v-154c0 -144.667 -7.16699 -265.167 -21.5 -361.5s-35.833 -169.666 -64.5 -219.999s-60.334 -85.333 -95.001 -105s-76.667 -29.5 -126 -29.5c-16.667 0 -33.5 1.66699 -50.5 5s-29.5 7 -37.5 11l-14 4v143
c27.333 -13.333 54.666 -20 81.999 -20c42 0 75 12 99 36s44.167 79.333 60.5 166s24.5 210.334 24.5 371.001v287z" />
    <glyph glyph-name="uni043C" unicode="&#x43c;" horiz-adv-x="1331" 
d="M1014 727l-359 -451l-358 451v-727h-143v983h112l389 -491l389 491h113v-983h-143v727z" />
    <glyph glyph-name="uni043D" unicode="&#x43d;" horiz-adv-x="1177" 
d="M860 0v430h-563v-430h-143v983h143v-420h563v420h144v-983h-144z" />
    <glyph glyph-name="uni043E" unicode="&#x43e;" 
d="M942 491.5c0 106.333 -35.167 196 -105.5 269s-154.666 109.5 -252.999 109.5s-182.666 -36.5 -252.999 -109.5s-105.5 -162.5 -105.5 -268.5c0 -105.333 35.167 -194.833 105.5 -268.5s154.666 -110.5 252.999 -110.5s182.666 36.5 252.999 109.5
s105.5 162.667 105.5 269zM82 491.5c0 143.667 48.833 265 146.5 364s216.167 148.5 355.5 148.5s257.666 -49.5 354.999 -148.5s146 -220.333 146 -364s-48.667 -264.834 -146 -363.501s-215.666 -148 -354.999 -148s-257.833 49.333 -355.5 148
s-146.5 219.834 -146.5 363.501z" />
    <glyph glyph-name="uni043F" unicode="&#x43f;" horiz-adv-x="1177" 
d="M860 0v848h-563v-848h-143v983h850v-983h-144z" />
    <glyph glyph-name="uni0440" unicode="&#x440;" horiz-adv-x="1218" 
d="M297 491.5c0 -101 35.833 -189.333 107.5 -265s151.834 -113.5 240.501 -113.5c84.667 0 160.5 36.833 227.5 110.5s100.5 163 100.5 268s-33.5 194.333 -100.5 268s-142.833 110.5 -227.5 110.5c-88.667 0 -168.834 -37.833 -240.501 -113.5s-107.5 -164 -107.5 -265z
M297 154l0.00195312 -584.001h-143v1413h143v-154c2.66699 4 7.5 10.167 14.5 18.5s21.333 22.5 43 42.5s45.167 37.833 70.5 53.5s57.833 29.667 97.5 42s80.5 18.5 122.5 18.5c125.333 0 235.166 -50.333 329.499 -151s141.5 -221.167 141.5 -361.5
s-47 -260.666 -141 -360.999s-204 -150.5 -330 -150.5c-42 0 -82.5 6 -121.5 18s-71.833 26.333 -98.5 43s-49.834 33.5 -69.501 50.5s-34.5 31.5 -44.5 43.5z" />
    <glyph glyph-name="uni0441" unicode="&#x441;" horiz-adv-x="1054" 
d="M82 492c0 142 48.499 262.837 145.499 362.504s212.167 149.5 345.5 149.5c76.667 0 148.167 -16.5 214.5 -49.5s113.833 -65.833 142.5 -98.5l43 -47l-103 -102c-2.66699 4 -6.66699 9.66699 -12 17s-17.166 20.666 -35.499 39.999s-38.166 36.166 -59.499 50.499
s-49 27.166 -83 38.499s-69.667 17 -107 17c-94 0 -175.5 -36.5 -244.5 -109.5s-103.5 -162.667 -103.5 -269s34.5 -196 103.5 -269s150.5 -109.5 244.5 -109.5c57.333 0 111.666 13.667 162.999 41s88.666 54.666 111.999 81.999l33 40l102 -92
c-4 -5.33301 -10.167 -12.833 -18.5 -22.5s-25.833 -26 -52.5 -49s-54.667 -43.333 -84 -61s-67.166 -34 -113.499 -49s-93.5 -22.5 -141.5 -22.5c-134 0 -249.333 49.833 -346 149.5s-145 220.5 -145 362.5z" />
    <glyph glyph-name="uni0442" unicode="&#x442;" horiz-adv-x="921" 
d="M31 850v133h839v-133h-348v-850h-143v850h-348z" />
    <glyph glyph-name="uni0443" unicode="&#x443;" horiz-adv-x="1003" 
d="M369 -143l51.001 143l-400 983h154l318 -799l317 799h154l-451 -1126c-40.667 -104 -84.334 -177.833 -131.001 -221.5s-105.334 -65.5 -176.001 -65.5c-22 0 -43.167 1.66699 -63.5 5s-35.5 7 -45.5 11l-14 4v134c34 -13.333 68 -20.333 102 -21
c86.667 0 148.334 51.333 185.001 154z" />
    <glyph glyph-name="uni0444" unicode="&#x444;" horiz-adv-x="1454" 
d="M225 492c0 -110.667 38.667 -201.501 116 -272.501s178.666 -106.5 303.999 -106.5v757c-125.333 0 -226.666 -35.667 -303.999 -107s-116 -161.666 -116 -270.999zM1208 491.999c0 109.333 -38.499 199.667 -115.499 271s-178.5 107 -304.5 107v-757
c125.333 0 226.666 35.5 303.999 106.5s116 161.833 116 272.5zM788.001 -20v-410h-143v410c-166.667 0 -302.167 48.667 -406.5 146s-156.5 219.166 -156.5 365.499s52.167 268.333 156.5 366s239.833 146.5 406.5 146.5v430h143v-430
c166.667 0 302.334 -48.833 407.001 -146.5s157 -219.667 157 -366s-52.333 -268.166 -157 -365.499s-240.334 -146 -407.001 -146z" />
    <glyph glyph-name="uni0445" unicode="&#x445;" horiz-adv-x="983" 
d="M481 399l-286 -399h-175l369 512l-338 471h174l256 -358l256 358h174l-338 -471l369 -512h-174z" />
    <glyph glyph-name="uni0446" unicode="&#x446;" horiz-adv-x="1208" 
d="M154 0v983h143v-850h543v850h143v-850h154v-379h-144v246h-839z" />
    <glyph glyph-name="uni0447" unicode="&#x447;" horiz-adv-x="1105" 
d="M788 0l0.00195312 399c-75.333 -54.667 -167.333 -82 -276 -82c-112 0 -203.167 35.167 -273.5 105.5s-105.5 161.5 -105.5 273.5v287h143v-287c0 -70.667 23 -129.167 69 -175.5s105 -69.5 177 -69.5c49.333 0 96.166 7.5 140.499 22.5s76.166 30.5 95.499 46.5l30 23
v440h144v-983h-144z" />
    <glyph glyph-name="uni0448" unicode="&#x448;" horiz-adv-x="1597" 
d="M154 0v983h143v-850h420v850h145v-850h418v850h143v-983h-1269z" />
    <glyph glyph-name="uni0449" unicode="&#x449;" horiz-adv-x="1648" 
d="M154 0v983h143v-850h420v850h145v-850h418v850h143v-850h154v-379h-143v246h-1280z" />
    <glyph glyph-name="uni044A" unicode="&#x44a;" horiz-adv-x="1095" 
d="M993 327.5c0 -98.333 -31.667 -177.5 -95 -237.5s-150.333 -90 -261 -90h-391v850h-256v133h399v-328h246c110.667 0 198 -30 262 -90s96 -139.167 96 -237.5zM389 133l248 0.000976562c64 0 115.5 18.167 154.5 54.5s58.5 83.166 58.5 140.499s-19.5 104 -58.5 140
s-91.167 54 -156.5 54h-246v-389z" />
    <glyph glyph-name="uni044B" unicode="&#x44b;" horiz-adv-x="1402" 
d="M1229 983v-983h-144v983h144zM297 133l248 0.000976562c64 0 115.5 18.167 154.5 54.5s58.5 83.166 58.5 140.499s-19.5 104 -58.5 140s-91.167 54 -156.5 54h-246v-389zM901 327.501c0 -98.333 -31.667 -177.5 -95 -237.5s-150.333 -90 -261 -90h-391v983h143v-328h246
c110.667 0 198 -30 262 -90s96 -139.167 96 -237.5z" />
    <glyph glyph-name="uni044C" unicode="&#x44c;" horiz-adv-x="1013" 
d="M297 133l258 0.000976562c64 0 115.5 18.167 154.5 54.5s58.5 83.166 58.5 140.499s-19.5 104 -58.5 140s-91.167 54 -156.5 54h-256v-389zM911 327.501c0 -98.333 -31.667 -177.5 -95 -237.5s-150.333 -90 -261 -90h-401v983h143v-328h256c110.667 0 198 -30 262 -90
s96 -139.167 96 -237.5z" />
    <glyph glyph-name="uni044D" unicode="&#x44d;" horiz-adv-x="1044" 
d="M942 492c0 -142 -48.4932 -262.835 -145.493 -362.502s-212.167 -149.5 -345.5 -149.5c-48 0 -94.833 7.16699 -140.5 21.5s-84.334 31.333 -116.001 51s-59.334 39.334 -83.001 59.001s-41.834 37.167 -54.501 52.5l-16 20l102 92c2.66699 -4 7.16699 -9.66699 13.5 -17
s19.333 -20.666 39 -39.999s40.5 -36.166 62.5 -50.499s50.333 -27.166 85 -38.499s70.667 -17 108 -17c86 0 162.667 32.333 230 97s106.666 141.334 117.999 230.001h-492v133h481c-10.667 79.333 -48.334 148.666 -113.001 207.999s-139.334 89 -224.001 89
c-36.667 0 -71.834 -5.33301 -105.501 -16s-61.834 -24.334 -84.501 -41.001s-42.5 -33.167 -59.5 -49.5s-29.5 -29.833 -37.5 -40.5l-10 -16l-103 102c4 5.33301 9.83301 12.5 17.5 21.5s24.167 24.333 49.5 46s52.333 41.167 81 58.5s65.834 33.166 111.501 47.499
s92.5 21.5 140.5 21.5c134 0 249.333 -49.833 346 -149.5s145 -220.5 145 -362.5z" />
    <glyph glyph-name="uni044E" unicode="&#x44e;" horiz-adv-x="1597" 
d="M1495 492c0 -142 -48.501 -262.832 -145.501 -362.499s-212.167 -149.5 -345.5 -149.5c-125.333 0 -234.833 43.667 -328.5 131s-148.167 193.666 -163.5 318.999h-215v-430h-143v983h143v-420h215c16.667 120 71.334 223.5 164.001 310.5s202 130.5 328 130.5
c134 0 249.333 -49.833 346 -149.5s145 -220.5 145 -362.5zM654.999 491.501c0 -106.333 34.5 -196 103.5 -269s150.667 -109.5 245 -109.5s176 36.5 245 109.5s103.5 162.667 103.5 269s-34.5 196 -103.5 269s-150.667 109.5 -245 109.5s-176 -36.5 -245 -109.5
s-103.5 -162.667 -103.5 -269z" />
    <glyph glyph-name="uni044F" unicode="&#x44f;" horiz-adv-x="1044" 
d="M92 655c0 94 33.167 172.167 99.5 234.5s152.833 93.5 259.5 93.5h419v-983h-143v328h-287l-204 -328h-164l225 358c-5.33301 1.33301 -12.833 3.83301 -22.5 7.5s-26.167 12.667 -49.5 27s-43.833 31.666 -61.5 51.999s-34 48.833 -49 85.5s-22.5 78.334 -22.5 125.001z
M727 850l-276 -0.000976562c-65.333 0 -117.5 -18.167 -156.5 -54.5s-58.5 -83.166 -58.5 -140.499s19.333 -104 58 -140s91 -54 157 -54h276v389z" />
    <glyph glyph-name="uni0451" unicode="&#x451;" horiz-adv-x="1136" 
d="M1024 438l-798.998 2.00195c5.33301 -88.667 41.833 -165.334 109.5 -230.001s147.167 -97 238.5 -97c61.333 0 118.333 13.667 171 41s90 54.666 112 81.999l35 40l92 -92c-4 -5.33301 -9.83301 -12.833 -17.5 -22.5s-24.334 -26 -50.001 -49
s-53.334 -43.333 -83.001 -61s-68 -34 -115 -49s-95.167 -22.5 -144.5 -22.5c-134 0 -249.333 49.833 -346 149.5s-145 220.5 -145 362.5s47.833 262.833 143.5 362.5s208.167 149.5 337.5 149.5c134 0 246 -46.5 336 -139.5s135 -210.5 135 -352.5zM563.002 870.002
c-86 0 -161 -30.333 -225 -91s-101.667 -132.667 -113 -216h666c-10.667 88.667 -46.5 162 -107.5 220s-134.5 87 -220.5 87zM274.002 1292c0 26 9 47.833 27 65.5s40 26.5 66 26.5s47.833 -8.83301 65.5 -26.5s26.5 -39.5 26.5 -65.5s-8.83301 -47.833 -26.5 -65.5
s-39.5 -26.5 -65.5 -26.5s-48 8.83301 -66 26.5s-27 39.5 -27 65.5zM664.002 1292c0 26 8.83301 47.833 26.5 65.5s39.5 26.5 65.5 26.5s47.833 -8.83301 65.5 -26.5s26.5 -39.5 26.5 -65.5s-8.83301 -47.833 -26.5 -65.5s-39.5 -26.5 -65.5 -26.5
s-47.833 8.83301 -65.5 26.5s-26.5 39.5 -26.5 65.5z" />
    <glyph glyph-name="uni0452" unicode="&#x452;" 
d="M328 1434v-184.999h286v-133h-286v-338c2.66699 4 6.66699 9.83301 12 17.5s18 21 38 40s41.167 35.667 63.5 50s52 27.333 89 39s75.167 17.5 114.5 17.5c120 0 220 -43.333 300 -130s120 -200.334 120 -341.001c0 -146 -42.667 -264.333 -128 -355s-193 -136 -323 -136
v133c88.667 0 162.167 32 220.5 96s87.5 151.333 87.5 262c0 100 -28 181.333 -84 244s-123.667 94 -203 94c-87.333 0 -160.333 -30.667 -219 -92s-88 -140 -88 -236v-481h-144v1116h-174v133h174v185h144z" />
    <glyph glyph-name="uni0453" unicode="&#x453;" horiz-adv-x="839" 
d="M410 1157l153 277h154l-195 -277h-112zM809 983v-133h-512v-850h-143v983h655z" />
    <glyph glyph-name="uni0454" unicode="&#x454;" horiz-adv-x="1054" 
d="M82 492c0 142 48.5 262.837 145.5 362.504s212.167 149.5 345.5 149.5c76.667 0 148.167 -16.5 214.5 -49.5s113.833 -65.833 142.5 -98.5l43 -47l-103 -102c-2.66699 4 -6.66699 9.66699 -12 17s-17.166 20.666 -35.499 39.999s-38.166 36.166 -59.499 50.499
s-49 27.166 -83 38.499s-69.667 17 -107 17c-84.667 0 -159.334 -29.667 -224.001 -89s-102.334 -128.666 -113.001 -207.999h481v-133h-492c10.667 -88.667 49.834 -165.334 117.501 -230.001s144.5 -97 230.5 -97c57.333 0 111.666 13.667 162.999 41
s88.666 54.666 111.999 81.999l33 40l102 -92c-4 -5.33301 -10.167 -12.833 -18.5 -22.5s-25.833 -26 -52.5 -49s-54.667 -43.333 -84 -61s-67.166 -34 -113.499 -49s-93.5 -22.5 -141.5 -22.5c-134 0 -249.333 49.833 -346 149.5s-145 220.5 -145 362.5z" />
    <glyph glyph-name="uni0455" unicode="&#x455;" horiz-adv-x="880" 
d="M748 870l-103 -102.003c-5.33301 8 -13.166 17.5 -23.499 28.5s-34.166 26 -71.499 45s-77.333 28.5 -120 28.5c-54.667 0 -99 -14.333 -133 -43s-51 -62 -51 -100c0 -39.333 18.333 -71 55 -95s81 -43.167 133 -57.5s104 -30.666 156 -48.999s96.333 -48.333 133 -90
s55 -94.834 55 -159.501c0 -84.667 -32.333 -155.167 -97 -211.5s-151.667 -84.5 -261 -84.5c-46.667 0 -90.5 6 -131.5 18s-74.833 26.333 -101.5 43s-49.834 33.5 -69.501 50.5s-34.167 31.5 -43.5 43.5l-13 19l103 102c2.66699 -4 6.33398 -9.16699 11.001 -15.5
s15.167 -17.666 31.5 -33.999s33.833 -31 52.5 -44s42.667 -24.5 72 -34.5s59 -15 89 -15c69.333 0 122.5 15.333 159.5 46s55.5 69.667 55.5 117c0 40.667 -18.5 73.834 -55.5 99.501s-81.333 46 -133 61s-103.5 31.667 -155.5 50s-96.5 47.333 -133.5 87
s-55.5 90.834 -55.5 153.501c0 74 31.167 138.667 93.5 194s140.5 83 234.5 83c38 0 75.167 -4.5 111.5 -13.5s66.166 -20 89.499 -33s44.166 -26.333 62.499 -40s31.5 -24.5 39.5 -32.5z" />
    <glyph glyph-name="uni0456" unicode="&#x456;" horiz-adv-x="471" 
d="M154 0v983h143v-983h-143zM133 1311c0 26 8.83301 47.833 26.5 65.5s39.5 26.5 65.5 26.5s47.833 -8.83301 65.5 -26.5s26.5 -39.5 26.5 -65.5s-8.83301 -47.833 -26.5 -65.5s-39.5 -26.5 -65.5 -26.5s-47.833 8.83301 -65.5 26.5s-26.5 39.5 -26.5 65.5z" />
    <glyph glyph-name="uni0457" unicode="&#x457;" horiz-adv-x="471" 
d="M-61 1294c0 26 8.83301 47.833 26.5 65.5s39.5 26.5 65.5 26.5s47.833 -8.83301 65.5 -26.5s26.5 -39.5 26.5 -65.5s-8.83301 -47.833 -26.5 -65.5s-39.5 -26.5 -65.5 -26.5s-47.833 8.83301 -65.5 26.5s-26.5 39.5 -26.5 65.5zM328 1294c0 26 8.83301 47.833 26.5 65.5
s39.5 26.5 65.5 26.5s47.833 -8.83301 65.5 -26.5s26.5 -39.5 26.5 -65.5s-8.83301 -47.833 -26.5 -65.5s-39.5 -26.5 -65.5 -26.5s-47.833 8.83301 -65.5 26.5s-26.5 39.5 -26.5 65.5zM154 0v983h143v-983h-143z" />
    <glyph glyph-name="uni0458" unicode="&#x458;" horiz-adv-x="471" 
d="M154 -143v1126h143v-1126c0 -191.333 -88.667 -287 -266 -287c-22 0 -43.167 2.66699 -63.5 8s-35.5 10.666 -45.5 15.999l-14 7v133c34 -20.667 71.333 -31 112 -31c89.333 0 134 51.333 134 154zM133 1311c0 26 8.83301 47.833 26.5 65.5s39.5 26.5 65.5 26.5
s47.833 -8.83301 65.5 -26.5s26.5 -39.5 26.5 -65.5s-8.83301 -47.833 -26.5 -65.5s-39.5 -26.5 -65.5 -26.5s-47.833 8.83301 -65.5 26.5s-26.5 39.5 -26.5 65.5z" />
    <glyph glyph-name="uni0459" unicode="&#x459;" horiz-adv-x="1648" 
d="M1546 307.5c0 -94.333 -30.665 -169.169 -91.998 -224.502s-149.333 -83 -264 -83h-391v850h-400v-154c0 -144.667 -7.16699 -265.167 -21.5 -361.5s-35.833 -169.666 -64.5 -219.999s-60.334 -85.333 -95.001 -105s-76.667 -29.5 -126 -29.5
c-16.667 0 -33.5 1.66699 -50.5 5s-29.5 7 -37.5 11l-14 4v143c27.333 -13.333 54.666 -20 81.999 -20c42 0 75 12 99 36s44.167 79.333 60.5 166s24.5 210.334 24.5 371.001v287h686v-369h246c114.667 0 203 -27.5 265 -82.5s93 -129.667 93 -224zM942.002 132.997
l248 0.00195312c68 0 120.5 15.667 157.5 47s55.5 73.666 55.5 126.999s-18.5 95.666 -55.5 126.999s-90.167 47 -159.5 47h-246v-348z" />
    <glyph glyph-name="uni045A" unicode="&#x45a;" horiz-adv-x="1669" 
d="M1567 307.5c0 -94.333 -30.832 -169.167 -92.499 -224.5s-149.834 -83 -264.501 -83h-391v481h-522v-481h-143v983h143v-369h522v369h144v-369h245c114.667 0 203.167 -27.5 265.5 -82.5s93.5 -129.667 93.5 -224zM963.001 132.999l247 0.00195312
c68 0 120.5 15.667 157.5 47s55.5 73.666 55.5 126.999s-18.333 95.666 -55 126.999s-90 47 -160 47h-245v-348z" />
    <glyph glyph-name="uni045B" unicode="&#x45b;" horiz-adv-x="1218" 
d="M328 1434l-0.000976562 -185.001h286v-133h-286v-338c2.66699 4 6.66699 9.83301 12 17.5s18 21 38 40s41.167 35.667 63.5 50s52 27.333 89 39s75.167 17.5 114.5 17.5c118.667 0 214.834 -38.167 288.501 -114.5s110.5 -178.166 110.5 -305.499v-522h-143v522
c0 86 -24.833 155.333 -74.5 208s-113.5 79 -191.5 79c-87.333 0 -160.333 -30.667 -219 -92s-88 -140 -88 -236v-481h-144v1116h-174v133h174v185h144z" />
    <glyph glyph-name="uni045C" unicode="&#x45c;" horiz-adv-x="1034" 
d="M471 1157l154 277h153l-194 -277h-113zM297 276v-276h-143v983h143v-522l491 522h175l-379 -399l420 -584h-164l-348 481z" />
    <glyph glyph-name="uni045E" unicode="&#x45e;" horiz-adv-x="1003" 
d="M369 -143l51.001 143l-400 983h154l318 -799l317 799h154l-451 -1126c-40.667 -104 -84.334 -177.833 -131.001 -221.5s-105.334 -65.5 -176.001 -65.5c-22 0 -43.167 1.66699 -63.5 5s-35.5 7 -45.5 11l-14 4v134c34 -13.333 68 -20.333 102 -21
c86.667 0 148.334 51.333 185.001 154zM491.501 1260c51.667 0 91.832 15 120.499 45s43 73 43 129h113c0 -82 -25.667 -148.667 -77 -200s-117.833 -77 -199.5 -77s-148.167 25.667 -199.5 77s-77 118 -77 200h113c0 -56 14.333 -99 43 -129s68.834 -45 120.501 -45z" />
    <glyph glyph-name="uni045F" unicode="&#x45f;" horiz-adv-x="1167" 
d="M154 0v983h143v-850h553v850h143v-983h-348v-246h-143v246h-348z" />
    <glyph glyph-name="uni0490" unicode="&#x490;" horiz-adv-x="1126" 
d="M963 1434v286h143v-430h-737v-1290h-154v1434h748z" />
    <glyph glyph-name="uni0491" unicode="&#x491;" horiz-adv-x="839" 
d="M154 0v983h520v246h135v-379h-512v-850h-143z" />
    <glyph glyph-name="uni1E9E" unicode="&#x1e9e;" horiz-adv-x="1331" 
d="M1126 1290l-326.998 -430c113.333 0 209.833 -41.333 289.5 -124s119.5 -184.667 119.5 -306c0 -120 -44.333 -221.667 -133 -305s-201.334 -125 -338.001 -125h-102v143h102c95.333 0 172.166 27 230.499 81s87.5 122.667 87.5 206s-28.333 152 -85 206
s-130.667 81 -222 81h-113v143l328 430h-318c-87.333 0 -157 -26.667 -209 -80s-78 -125 -78 -215v-995h-153v995c0 126.667 41.333 231.5 124 314.5s188 124.5 316 124.5h481v-144z" />
    <glyph glyph-name="endash" unicode="&#x2013;" horiz-adv-x="983" 
d="M891 666v-134h-799v134h799z" />
    <glyph glyph-name="emdash" unicode="&#x2014;" horiz-adv-x="1474" 
d="M1382 666v-134h-1290v134h1290z" />
    <glyph glyph-name="quoteleft" unicode="&#x2018;" horiz-adv-x="430" 
d="M184 1024l-133 82l236 369l92 -52z" />
    <glyph glyph-name="quoteright" unicode="&#x2019;" horiz-adv-x="430" 
d="M246 1475l133 -82l-236 -369l-92 51z" />
    <glyph glyph-name="quotesinglbase" unicode="&#x201a;" horiz-adv-x="440" 
d="M184 184l144 -82l-236 -358l-92 41z" />
    <glyph glyph-name="quotedblleft" unicode="&#x201c;" horiz-adv-x="747" 
d="M184 1024l-133 82l236 369l92 -52zM502 1024l-133 82l235 369l92 -52z" />
    <glyph glyph-name="quotedblright" unicode="&#x201d;" horiz-adv-x="747" 
d="M563 1475l133 -82l-235 -369l-92 51zM246 1475l133 -82l-236 -369l-92 51z" />
    <glyph glyph-name="quotedblbase" unicode="&#x201e;" horiz-adv-x="757" 
d="M184 184l144 -82l-236 -358l-92 41zM502 184l143 -82l-235 -358l-93 41z" />
    <glyph glyph-name="dagger" unicode="&#x2020;" horiz-adv-x="860" 
d="M369 1157v277h123v-277h245v-113h-245v-634h-123v634h-246v113h246z" />
    <glyph glyph-name="daggerdbl" unicode="&#x2021;" horiz-adv-x="860" 
d="M369 1157v277h123v-277h245v-113h-245v-245h245v-113h-245v-276h-123v276h-246v113h246v245h-246v113h246z" />
    <glyph glyph-name="bullet" unicode="&#x2022;" horiz-adv-x="819" 
d="M215 491.5c0 51.667 19.5 97 58.5 136s84.333 58.5 136 58.5s97 -19.5 136 -58.5s58.5 -84.333 58.5 -136s-19.5 -97 -58.5 -136s-84.333 -58.5 -136 -58.5s-97 19.5 -136 58.5s-58.5 84.333 -58.5 136z" />
    <glyph glyph-name="ellipsis" unicode="&#x2026;" horiz-adv-x="1372" 
d="M123 82c0 30 9.5 54.5 28.5 73.5s43.5 28.5 73.5 28.5s54.667 -9.5 74 -28.5s29 -43.5 29 -73.5s-9.66699 -54.5 -29 -73.5s-44 -28.5 -74 -28.5s-54.5 9.5 -73.5 28.5s-28.5 43.5 -28.5 73.5zM584 82c0 30 9.16699 54.5 27.5 73.5s43.166 28.5 74.499 28.5
s56.166 -9.5 74.499 -28.5s27.5 -43.5 27.5 -73.5s-9.16699 -54.5 -27.5 -73.5s-43.166 -28.5 -74.499 -28.5s-56.166 9.5 -74.499 28.5s-27.5 43.5 -27.5 73.5zM1044 82c0 30 9.66699 54.5 29 73.5s44 28.5 74 28.5s54.5 -9.5 73.5 -28.5s28.5 -43.5 28.5 -73.5
s-9.5 -54.5 -28.5 -73.5s-43.5 -28.5 -73.5 -28.5s-54.667 9.5 -74 28.5s-29 43.5 -29 73.5z" />
    </font>
</defs>
</svg>
